<?xml version="1.0" standalone="no"?>
<!DOCTYPE svg PUBLIC "-//W3C//DTD SVG 20010904//EN"
 "http://www.w3.org/TR/2001/REC-SVG-20010904/DTD/svg10.dtd">
<svg version="1.0" xmlns="http://www.w3.org/2000/svg"
 width="1254.000000pt" height="1254.000000pt" viewBox="0 0 1254.000000 1254.000000"
 preserveAspectRatio="xMidYMid meet">
<metadata>
Created by potrace 1.16, written by Peter Selinger 2001-2019
</metadata>
<g transform="translate(0.000000,1254.000000) scale(0.100000,-0.100000)"
fill="#2d8a4e" stroke="none">
<path d="M6085 9524 c-16 -2 -70 -9 -120 -15 -773 -94 -1510 -529 -1982 -1169
-391 -530 -597 -1215 -553 -1840 28 -405 118 -734 302 -1102 280 -559 708
-991 1264 -1274 375 -190 762 -288 1199 -301 277 -8 510 18 777 87 320 83 656
238 928 428 114 80 112 65 23 154 -43 43 -81 78 -86 78 -4 0 -31 -17 -60 -38
-87 -65 -255 -163 -382 -223 -669 -317 -1411 -342 -2095 -69 -317 126 -616
324 -866 574 -393 392 -648 883 -745 1431 -30 172 -38 529 -15 715 102 834
599 1577 1331 1989 441 249 882 361 1370 348 406 -10 689 -80 1050 -257 506
-248 922 -658 1182 -1165 152 -297 234 -567 278 -915 21 -163 16 -496 -10
-654 -58 -364 -176 -681 -369 -1000 -37 -60 -65 -109 -63 -110 1 0 39 -36 83
-79 l81 -79 63 99 c249 387 405 834 451 1298 23 235 3 565 -51 824 -120 572
-451 1148 -888 1544 -412 375 -899 610 -1440 698 -98 16 -185 21 -377 24 -137
2 -263 1 -280 -1z"/>
<path d="M5975 8424 c-174 -26 -375 -88 -528 -165 -329 -164 -576 -412 -742
-744 -123 -247 -175 -462 -175 -723 0 -813 648 -1517 1477 -1603 415 -42 842
85 1179 352 34 27 66 49 70 49 5 0 34 -25 64 -55 l56 -56 -19 -60 c-18 -53
-19 -66 -7 -117 12 -56 16 -60 254 -301 586 -593 665 -669 725 -692 68 -26
167 -21 228 10 61 31 157 139 173 195 19 68 8 167 -22 214 -14 20 -224 236
-466 478 -487 488 -478 481 -589 471 -32 -3 -67 -8 -79 -12 -16 -5 -34 5 -77
45 -32 29 -57 57 -57 62 0 6 22 40 48 77 272 376 372 819 287 1270 -38 199
-151 456 -283 641 -85 119 -251 285 -373 372 -108 78 -317 184 -434 222 -190
61 -236 68 -465 71 -118 2 -228 1 -245 -1z m495 -328 c505 -115 896 -517 1007
-1036 14 -65 18 -127 17 -260 0 -154 -3 -187 -27 -280 -14 -58 -41 -144 -60
-192 -158 -398 -512 -702 -942 -809 -124 -31 -447 -34 -570 -5 -261 61 -473
175 -653 350 -241 235 -367 489 -402 816 -52 480 210 992 640 1253 152 92 378
169 553 187 129 14 317 3 437 -24z"/>
<path d="M6485 7606 c-139 -34 -238 -144 -299 -331 -34 -105 -46 -122 -146
-202 -225 -180 -435 -428 -612 -723 -49 -81 -71 -106 -148 -169 -49 -40 -90
-79 -90 -85 0 -7 30 -45 68 -84 l67 -72 113 74 c142 93 172 99 288 57 43 -16
106 -35 139 -41 55 -11 64 -17 108 -70 26 -32 47 -61 47 -64 0 -3 -28 -6 -61
-8 -65 -3 -88 -19 -76 -52 6 -15 42 -16 394 -14 349 3 388 5 391 19 7 36 -25
49 -116 49 l-87 0 -88 88 c-48 48 -87 92 -87 97 0 6 29 27 64 47 133 78 276
239 359 403 61 122 79 208 87 405 7 188 11 204 72 295 32 48 37 51 138 87 58
20 110 39 115 41 15 7 -60 37 -149 59 -75 18 -83 23 -114 64 -43 58 -122 109
-197 129 -69 18 -111 18 -180 1z m-187 -1629 c39 -40 72 -76 72 -80 0 -4 -58
-7 -129 -7 l-129 0 -51 57 c-28 31 -48 60 -45 65 3 4 17 8 32 9 15 0 52 7 82
14 90 20 90 20 168 -58z"/>
</g>
</svg>
