<?xml version="1.0" encoding="UTF-8"?>
<svg xmlns="http://www.w3.org/2000/svg" version="1.1" width="1024" height="1024" style="background: transparent;">

<path d="M0 0 C3.15643665 1.36783193 4.97370955 2.83102449 7.13671875 5.4921875 C7.7090625 6.19069824 8.28140625 6.88920898 8.87109375 7.60888672 C9.47050781 8.3567041 10.06992187 9.10452148 10.6875 9.875 C11.31398438 10.64730957 11.94046875 11.41961914 12.5859375 12.21533203 C17.09875467 17.80634032 21.49150514 23.47444038 25.73193359 29.27539062 C27.22208273 31.30203936 28.73008277 33.31487361 30.23828125 35.328125 C38.19816909 45.98762567 45.76279086 56.83842262 53 68 C53.49209961 68.75216797 53.98419922 69.50433594 54.49121094 70.27929688 C62.68310312 82.82563012 70.0308956 95.73820427 77 109 C77.58007812 110.10021484 77.58007812 110.10021484 78.171875 111.22265625 C87.0262798 128.12943643 94.21186753 145.50375106 99 164 C99.17934082 164.6707959 99.35868164 165.3415918 99.54345703 166.03271484 C106.68228515 193.85783934 102.93216286 224.98199046 89.30859375 250.12109375 C85.16735586 256.89504435 80.21889438 263.0303173 75 269 C74.11441406 270.01320313 74.11441406 270.01320313 73.2109375 271.046875 C59.58161003 285.57681883 42.03494208 295.19633485 23.4609375 301.7734375 C21.39973603 302.50393102 19.35353791 303.2841382 17.3515625 304.1640625 C15 305 15 305 10 305 C10 300.05 10 295.1 10 290 C4.72 290 -0.56 290 -6 290 C-6 295.28 -6 300.56 -6 306 C-35.57382655 299.77393125 -65.50691641 282.44597649 -82.37890625 256.73828125 C-88.06009441 247.14186463 -93.92590887 237.15795415 -96.5625 226.25 C-96.90474609 224.86554688 -96.90474609 224.86554688 -97.25390625 223.453125 C-97.62322266 221.74382812 -97.62322266 221.74382812 -98 220 C-98.25922241 218.80431396 -98.25922241 218.80431396 -98.52368164 217.58447266 C-99.92094245 210.63873225 -100.35054472 203.95131769 -100.3125 196.875 C-100.30758545 195.7804248 -100.3026709 194.68584961 -100.29760742 193.55810547 C-100.16661004 184.41247253 -99.12443475 175.87829719 -97 167 C-96.75056641 165.90026855 -96.75056641 165.90026855 -96.49609375 164.77832031 C-87.53036706 125.64458362 -66.52555867 90.75788558 -44 58 C-43.48050781 57.24348145 -42.96101563 56.48696289 -42.42578125 55.70751953 C-29.16976661 36.48374252 -14.62762999 18.19023328 0 0 Z " fill="#B3D64C" transform="translate(511,328)"/>
<path d="M0 0 C3.12242082 1.47915889 4.94726036 2.7984839 7.13671875 5.4921875 C7.7090625 6.19069824 8.28140625 6.88920898 8.87109375 7.60888672 C9.47050781 8.3567041 10.06992187 9.10452148 10.6875 9.875 C11.31398438 10.64730957 11.94046875 11.41961914 12.5859375 12.21533203 C17.09875467 17.80634032 21.49150514 23.47444038 25.73193359 29.27539062 C27.22208273 31.30203936 28.73008277 33.31487361 30.23828125 35.328125 C38.19816909 45.98762567 45.76279086 56.83842262 53 68 C53.49209961 68.75216797 53.98419922 69.50433594 54.49121094 70.27929688 C62.68310312 82.82563012 70.0308956 95.73820427 77 109 C77.58007812 110.10021484 77.58007812 110.10021484 78.171875 111.22265625 C87.0262798 128.12943643 94.21186753 145.50375106 99 164 C99.17934082 164.6707959 99.35868164 165.3415918 99.54345703 166.03271484 C106.68228515 193.85783934 102.93216286 224.98199046 89.30859375 250.12109375 C85.16735586 256.89504435 80.21889438 263.0303173 75 269 C74.11441406 270.01320313 74.11441406 270.01320313 73.2109375 271.046875 C64.39747025 280.44272995 52.91986147 289.07159574 41 294 C40.608125 292.88625 40.21625 291.7725 39.8125 290.625 C34.22562906 276.04275428 25.53205612 266.30571827 13 257 C9.56404834 258.52708963 6.88087546 260.59927045 4 263 C5.14275391 263.81791016 5.14275391 263.81791016 6.30859375 264.65234375 C23.81188119 277.43564356 23.81188119 277.43564356 26 284 C25 285 25 285 22.04077148 285.11352539 C20.74727783 285.10828857 19.45378418 285.10305176 18.12109375 285.09765625 C17.09110008 285.09553383 17.09110008 285.09553383 16.04029846 285.09336853 C13.83932199 285.08775479 11.63844591 285.07520007 9.4375 285.0625 C7.94856917 285.05748676 6.45963676 285.05292355 4.97070312 285.04882812 C1.31376925 285.03778093 -2.34310558 285.02050713 -6 285 C-6.28875 284.071875 -6.5775 283.14375 -6.875 282.1875 C-7.8875 278.90208333 -7.8875 278.90208333 -10 276 C-1.42 276 7.16 276 16 276 C15.34 275.01 14.68 274.02 14 273 C11.43256995 272.58289831 11.43256995 272.58289831 8.44140625 272.70703125 C7.33345703 272.71669922 6.22550781 272.72636719 5.08398438 272.73632812 C3.34084961 272.7740332 3.34084961 272.7740332 1.5625 272.8125 C-0.17483398 272.83280273 -0.17483398 272.83280273 -1.94726562 272.85351562 C-4.09701644 272.87974733 -6.24670678 272.91211113 -8.39624023 272.95239258 C-10.2639154 272.98654135 -12.13201267 273 -14 273 C-5.8096555 264.32148928 3.73421088 257.38258178 13.29077148 250.30004883 C24.57690874 241.91044031 32.88926822 233.39090961 38 220 C38.55107422 218.59234375 38.55107422 218.59234375 39.11328125 217.15625 C42.04562053 206.7186723 40.65711922 194.56475475 35.41796875 185.16015625 C29.90172635 176.20677806 22.9518464 166.38440167 12.92578125 162.1171875 C10.29071828 161.95683884 9.29666687 162.82378189 7.25 164.4375 C6.63640625 164.91058594 6.0228125 165.38367188 5.390625 165.87109375 C4.93171875 166.24363281 4.4728125 166.61617187 4 167 C6.45231799 168.97669048 8.91067546 170.93293479 11.4296875 172.82421875 C21.53497078 180.5242509 29.4037429 189.87636943 31.4453125 202.82421875 C31.94555482 214.51321437 26.68032819 224.45228361 19 233 C18.01 233.33 17.02 233.66 16 234 C16 233.34 16 232.68 16 232 C9.07 232 2.14 232 -5 232 C-5 229.03 -5 226.06 -5 223 C4.24 223 13.48 223 23 223 C23.66 221.35 24.32 219.7 25 218 C24.030625 218.0721875 23.06125 218.144375 22.0625 218.21875 C18.47308228 218.47587938 14.88219743 218.67836378 11.28857422 218.86669922 C9.79697479 218.95357924 8.30617534 219.05602118 6.81689453 219.17626953 C-5.01938431 220.13067658 -5.01938431 220.13067658 -10.00390625 217.28515625 C-12.28911305 215.30750467 -14.23040675 213.44793733 -16 211 C-16 210.34 -16 209.68 -16 209 C-15.28972656 209.01160156 -14.57945312 209.02320313 -13.84765625 209.03515625 C-12.92855469 209.04417969 -12.00945312 209.05320312 -11.0625 209.0625 C-9.68771484 209.07990234 -9.68771484 209.07990234 -8.28515625 209.09765625 C-6.03406673 209.25949049 -6.03406673 209.25949049 -5 208 C-2.6243148 207.9116033 -0.27791326 207.88469695 2.09765625 207.90234375 C3.16094398 207.90446617 3.16094398 207.90446617 4.24571228 207.90663147 C6.51801712 207.91224557 8.79022475 207.92480037 11.0625 207.9375 C12.59960796 207.94251319 14.13671745 207.94707641 15.67382812 207.95117188 C19.44925642 207.96221958 23.22461171 207.97949359 27 208 C27.33 207.01 27.66 206.02 28 205 C12.16 204.505 12.16 204.505 -4 204 C-4 200.7 -4 197.4 -4 194 C5.57 194 15.14 194 25 194 C25 193.01 25 192.02 25 191 C15.43 191 5.86 191 -4 191 C-4 187.37 -4 183.74 -4 180 C1.94 179.67 7.88 179.34 14 179 C10.39821412 176.59880941 7.49133631 176.56228678 3.3125 176.375 C2.2596582 176.31699219 2.2596582 176.31699219 1.18554688 176.2578125 C-0.54254655 176.1637666 -2.27123675 176.0808032 -4 176 C-4.35546875 172.83203125 -4.35546875 172.83203125 -4 169 C-2.10818725 166.82952416 -0.56797221 165.37926376 1.6875 163.6875 C2.56075928 162.99092285 2.56075928 162.99092285 3.45166016 162.28027344 C5.28338869 160.8288635 7.13715595 159.41118624 9 158 C10.17071501 157.10565472 11.34129168 156.21112832 12.51171875 155.31640625 C13.35222778 154.67517822 13.35222778 154.67517822 14.2097168 154.02099609 C15.03403198 153.39185303 15.03403198 153.39185303 15.875 152.75 C16.4213208 152.33314941 16.9676416 151.91629883 17.53051758 151.48681641 C27.57274021 143.77101896 35.43277576 134.38036647 39 122 C39.2535421 118.6652951 39.2535421 118.6652951 39 116 C36.03 115.67 33.06 115.34 30 115 C29.9175 115.99 29.835 116.98 29.75 118 C27.83668162 130.56244566 16.69869124 140.67097154 7 148 C5.02172432 149.04231729 3.0253979 150.05249626 1 151 C-8.63930066 144.08783244 -16.9550937 137.65545534 -24 128 C-24 127.67 -24 127.34 -24 127 C-7.65572484 126.07454054 8.63139008 125.87801426 25 126 C25 124.68 25 123.36 25 122 C16.42 122 7.84 122 -1 122 C-1.10491562 104.65395086 -1.0090309 87.3392183 -0.5 70 C0.18274989 46.66872799 0.09586936 23.33902709 0 0 Z " fill="#94B83B" transform="translate(511,328)"/>
<path d="M0 0 C-0.90626784 1.2989839 -1.82549537 2.58893167 -2.75 3.875 C-3.51570313 4.95394531 -3.51570313 4.95394531 -4.296875 6.0546875 C-7.07358422 9.22624986 -10.23214173 10.18818023 -14.28125 11.0078125 C-57.29296807 20.18920007 -93.04612418 45.15107899 -117 82 C-125.69221345 95.73694978 -132.40467734 110.61747898 -136.875 126.25 C-137.06610352 126.90919434 -137.25720703 127.56838867 -137.45410156 128.24755859 C-140.87287133 141.06949637 -141.38090948 154.13161923 -141.3125 167.3125 C-141.31001251 168.08201996 -141.30752502 168.85153992 -141.30496216 169.64437866 C-141.24833585 180.98214235 -140.99970643 192.00520827 -138 203 C-137.76893555 203.84739746 -137.53787109 204.69479492 -137.29980469 205.56787109 C-125.11037753 248.84417066 -99.51805382 283.90512774 -60.3515625 306.55493164 C-23.72949297 327.06713322 18.88696442 332.52526782 59.53125 321.8671875 C63.42221586 320.75681819 67.20926625 319.416579 71 318 C71.66870117 317.75411133 72.33740234 317.50822266 73.02636719 317.25488281 C94.4165464 309.29226122 112.46147253 297.67222365 129 282 C129.89460938 281.15824219 130.78921875 280.31648438 131.7109375 279.44921875 C152.05551242 259.76000129 164.90276611 234.93210402 173 208 C173.34321289 206.86256348 173.34321289 206.86256348 173.69335938 205.70214844 C177.32520406 192.87894296 177.38693732 179.84978337 177.4375 166.625 C177.44703201 165.33909973 177.44703201 165.33909973 177.45675659 164.02722168 C177.50775842 152.95094883 176.64085171 142.77308648 174 132 C173.6999707 130.72157227 173.39994141 129.44314453 173.09082031 128.12597656 C168.24547462 107.95110511 158.83617976 88.28509271 146 72 C145.43410156 71.23171875 144.86820313 70.4634375 144.28515625 69.671875 C122.7300896 41.18334053 90.5826379 20.6913071 56 12 C53.81545532 11.72537153 51.62790472 11.47312197 49.4375 11.25 C44.60941539 10.60449892 42.74246587 9.20965687 39.75 5.375 C38.79871323 3.93900997 37.86906028 2.48719471 37 1 C54.28607275 -4.76202425 83.08352155 11.41836687 98.01953125 18.8515625 C105.86948431 22.88967034 113.05284064 27.56608327 120 33 C120.5657373 33.44166504 121.13147461 33.88333008 121.71435547 34.33837891 C125.60470491 37.42072404 129.33940431 40.64889413 133 44 C133.53189941 44.48662109 134.06379883 44.97324219 134.61181641 45.47460938 C165.78576714 74.41182213 185.13554432 115.89934628 187.42578125 158.39453125 C188.76280886 201.10619662 175.42766229 243.71858771 147 276 C146.2471875 276.86238281 145.494375 277.72476562 144.71875 278.61328125 C142.50994737 281.1057486 140.2648187 283.55843501 138 286 C137.42378906 286.64195312 136.84757812 287.28390625 136.25390625 287.9453125 C120.47212159 304.74641065 99.2449553 316.59991572 78 325 C76.2984375 325.69029297 76.2984375 325.69029297 74.5625 326.39453125 C64.94065831 330.08067662 55.11460894 332.19776059 45 334 C43.72769531 334.22816406 42.45539063 334.45632813 41.14453125 334.69140625 C22.60247447 337.48541481 3.28387869 337.19995947 -15 333 C-15.75265137 332.83371094 -16.50530273 332.66742187 -17.28076172 332.49609375 C-56.53264883 323.65152081 -91.29855982 301.78251969 -116 270 C-116.7940625 268.98421875 -117.588125 267.9684375 -118.40625 266.921875 C-130.2813208 251.28050117 -138.24927624 233.68882895 -144 215 C-144.39832031 213.76507812 -144.79664063 212.53015625 -145.20703125 211.2578125 C-152.51305827 186.68548193 -153.65563189 158.98831845 -148 134 C-147.83371094 133.24444824 -147.66742188 132.48889648 -147.49609375 131.71044922 C-141.92395034 106.99180193 -131.31658426 85.0921209 -116 65 C-114.94039063 63.60201172 -114.94039063 63.60201172 -113.859375 62.17578125 C-88.52304341 30.03617544 -42.57663974 -1.31409382 0 0 Z " fill="#ADCE50" transform="translate(494,329)"/>
<path d="M0 0 C12.00828212 6.67330487 22.30841299 18.2412549 26.55859375 31.421875 C29.80957935 44.44808442 27.66525214 56.45441857 21.1015625 67.98046875 C19.67576268 70.21133759 18.16530147 72.31854854 16.55859375 74.421875 C15.95337891 75.27265625 15.95337891 75.27265625 15.3359375 76.140625 C10.26423896 82.71677235 3.11513524 87.43580894 -3.44140625 92.421875 C-8.45963915 96.29041987 -13.44473008 100.19641181 -18.37890625 104.171875 C-19.29542969 104.90921875 -20.21195312 105.6465625 -21.15625 106.40625 C-23.61036772 108.39683001 -23.61036772 108.39683001 -25.44140625 111.421875 C-25.11140625 111.091875 -24.78140625 110.761875 -24.44140625 110.421875 C-22.58771014 110.33449855 -20.73073084 110.31489347 -18.875 110.32421875 C-17.75029297 110.32744141 -16.62558594 110.33066406 -15.46679688 110.33398438 C-14.28279297 110.34236328 -13.09878906 110.35074219 -11.87890625 110.359375 C-10.69103516 110.36388672 -9.50316406 110.36839844 -8.27929688 110.37304688 C-5.33328399 110.38487825 -2.38736944 110.40136213 0.55859375 110.421875 C1.21859375 111.741875 1.87859375 113.061875 2.55859375 114.421875 C-9.81640625 114.916875 -9.81640625 114.916875 -22.44140625 115.421875 C-21.45140625 116.411875 -20.46140625 117.401875 -19.44140625 118.421875 C-19.44140625 120.071875 -19.44140625 121.721875 -19.44140625 123.421875 C-4.09640625 122.926875 -4.09640625 122.926875 11.55859375 122.421875 C6.0396659 113.22366192 -1.69952026 107.46406091 -10.44140625 101.421875 C-7.90033686 98.83809856 -5.39338632 96.53043219 -2.44140625 94.421875 C10.80522458 100.33333876 21.38368326 113.15333288 26.55859375 126.421875 C26.94912359 128.41149746 27.29940425 130.41092201 27.55859375 132.421875 C6.91941849 143.421875 6.91941849 143.421875 -3.44140625 143.421875 C-3.44140625 138.471875 -3.44140625 133.521875 -3.44140625 128.421875 C-8.72140625 128.421875 -14.00140625 128.421875 -19.44140625 128.421875 C-19.44140625 133.701875 -19.44140625 138.981875 -19.44140625 144.421875 C-30.65344844 142.06144507 -40.89578469 137.8231856 -51.44140625 133.421875 C-49.78015724 117.0343457 -38.79794747 105.55824239 -26.44140625 95.421875 C-21.34420302 91.41642323 -16.12647074 87.59094356 -10.8125 83.87890625 C1.62851103 75.18023293 13.49678503 65.18750413 16.55859375 49.421875 C18.11395128 39.21682509 14.51354502 30.14303314 8.73046875 21.77734375 C4.67430716 16.93798022 0.03740355 13.36100727 -5.2421875 9.9296875 C-7.22887907 8.56758635 -8.8109681 7.18422562 -10.44140625 5.421875 C-9.23091429 4.35856444 -7.99709857 3.32176183 -6.75390625 2.296875 C-6.06941406 1.71679688 -5.38492188 1.13671875 -4.6796875 0.5390625 C-2.44140625 -0.578125 -2.44140625 -0.578125 0 0 Z " fill="#FBFCF9" transform="translate(524.44140625,489.578125)"/>
<path d="M0 0 C-3.01857584 6.86039963 -6.27968073 11.24555176 -13.17822266 14.10253906 C-13.94440918 14.39870117 -14.7105957 14.69486328 -15.5 15 C-17.1238551 15.67881129 -18.74624812 16.36113038 -20.3671875 17.046875 C-21.15963867 17.37751953 -21.95208984 17.70816406 -22.76855469 18.04882812 C-48.30878978 28.93556291 -69.15532768 49.20648175 -83 73 C-83.98613281 74.69189453 -83.98613281 74.69189453 -84.9921875 76.41796875 C-100.3573139 103.56556628 -106.23751276 136.31143721 -100 167 C-99.87641113 167.63502441 -99.75282227 168.27004883 -99.62548828 168.92431641 C-94.05443894 197.03616902 -81.61877168 220.17501089 -62 241 C-61.40058594 241.66386719 -60.80117188 242.32773437 -60.18359375 243.01171875 C-51.49608359 252.26213454 -40.36650008 259.22721659 -29.79296875 266.11328125 C-27.11011976 267.92561141 -24.6062348 269.87435458 -22.0625 271.875 C-14.46756503 277.51247751 -5.68087709 281.11528688 2.90625 284.98193359 C5 286 5 286 8 288 C2.21722389 287.43408153 -2.94378621 286.30880389 -8.4375 284.4375 C-9.21319336 284.17428955 -9.98888672 283.9110791 -10.78808594 283.63989258 C-28.64832317 277.39531996 -44.61431553 268.31699926 -59 256 C-59.83144531 255.29101562 -60.66289062 254.58203125 -61.51953125 253.8515625 C-84.13515896 234.04986082 -102.00810833 205.65247337 -108 176 C-108.24975586 174.85200928 -108.49951172 173.70401855 -108.75683594 172.52124023 C-110.78357902 162.67625431 -111.52593342 153.28875705 -111.4375 143.25 C-111.43445862 142.51120605 -111.43141724 141.77241211 -111.42828369 141.01123047 C-111.35526229 128.96691882 -110.36836698 117.60215292 -107 106 C-106.79632813 105.26007813 -106.59265625 104.52015625 -106.3828125 103.7578125 C-99.42184767 78.92177748 -85.93442676 57.35345543 -68 39 C-67.33742188 38.28714844 -66.67484375 37.57429688 -65.9921875 36.83984375 C-51.68520736 21.78459059 -21.84323007 0 0 0 Z " fill="#AECF50" transform="translate(475,353)"/>
<path d="M0 0 C26.04613715 8.39757502 48.63866335 20.47933701 68 40 C68.48694336 40.48968262 68.97388672 40.97936523 69.47558594 41.48388672 C88.90411342 61.27123523 102.34218605 86.64036309 107.58959961 113.87548828 C107.88487505 115.40403491 108.20366543 116.92810735 108.53735352 118.44873047 C110.09907287 126.00267658 110.26645399 133.30406378 110.1875 141 C110.1865332 142.79050781 110.1865332 142.79050781 110.18554688 144.6171875 C110.03056063 176.09661682 100.07217704 208.36094232 80 233 C79.5757373 233.52287598 79.15147461 234.04575195 78.71435547 234.58447266 C75.5530933 238.4599667 72.30620797 242.24740491 69 246 C68.37867188 246.70769531 67.75734375 247.41539062 67.1171875 248.14453125 C49.15396839 267.27576236 20.96277026 283.37549534 -5 288 C-6.34346442 287.71018583 -7.68030424 287.38378637 -9 287 C-7.83984375 286.50371094 -6.6796875 286.00742187 -5.484375 285.49609375 C7.28038085 279.97401489 18.75080596 273.91555383 29.80078125 265.37890625 C32.6669987 263.24761635 35.57378543 261.29333737 38.57495117 259.36376953 C46.4945802 254.26748574 53.27301536 248.57363393 60 242 C60.64195312 241.40832031 61.28390625 240.81664062 61.9453125 240.20703125 C86.73136497 216.86202834 99.83084511 181.0929726 101.25 147.671875 C102.36290144 108.85612511 87.7484236 74.64713106 62 46 C59.45384302 43.51900058 56.73373912 41.27156021 54 39 C52.92492187 38.07574219 52.92492187 38.07574219 51.828125 37.1328125 C41.33105692 28.36177239 30.09694848 21.7462093 17.5 16.5 C9.59154333 13.1776444 4.02399118 9.9428781 0 2 C0 1.34 0 0.68 0 0 Z " fill="#ADCE4F" transform="translate(550,353)"/>
<path d="M0 0 C1.47906892 -0.02689216 2.95827483 -0.04634621 4.4375 -0.0625 C5.26121094 -0.07410156 6.08492187 -0.08570313 6.93359375 -0.09765625 C9 0 9 0 10 1 C10.6873679 10.90955384 5.3972163 19.19120306 -0.7421875 26.55078125 C-6.2780748 32.55597387 -12.00338836 37.75085126 -18.5625 42.625 C-20.72361631 44.24535953 -22.88179474 45.86849938 -25.02783203 47.50878906 C-26.27587469 48.45246876 -27.54098016 49.37433572 -28.82763672 50.26464844 C-32.08147032 52.64218865 -32.95588479 53.80778372 -33.875 57.8125 C-33.91625 58.864375 -33.9575 59.91625 -34 61 C-32.96359375 60.95359375 -31.9271875 60.9071875 -30.859375 60.859375 C-29.48961221 60.82184725 -28.11981818 60.78544816 -26.75 60.75 C-25.72712891 60.69972656 -25.72712891 60.69972656 -24.68359375 60.6484375 C-22.671875 60.609375 -22.671875 60.609375 -19 61 C-17.68 62.32 -16.36 63.64 -15 65 C-21.27 65 -27.54 65 -34 65 C-34 68.63 -34 72.26 -34 76 C-24.43 76 -14.86 76 -5 76 C-5 76.99 -5 77.98 -5 79 C-14.57 79 -24.14 79 -34 79 C-34 82.3 -34 85.6 -34 89 C-33.10168457 88.99476318 -32.20336914 88.98952637 -31.27783203 88.98413086 C-27.94937501 88.96710275 -24.62096419 88.95455663 -21.29248047 88.94506836 C-19.8510668 88.94003526 -18.40965824 88.93320827 -16.96826172 88.92456055 C-14.89809915 88.91245017 -12.82800399 88.90676153 -10.7578125 88.90234375 C-9.5114502 88.89710693 -8.26508789 88.89187012 -6.98095703 88.88647461 C-4 89 -4 89 -2 90 C-2.495 91.98 -2.495 91.98 -3 94 C-13.72655709 94.10194194 -24.31563078 94.07419152 -35 93 C-35.33 93.66 -35.66 94.32 -36 95 C-36.495 94.505 -36.495 94.505 -37 94 C-39.85877909 93.76298761 -42.69883297 93.57780818 -45.5625 93.4375 C-46.77196289 93.37272461 -46.77196289 93.37272461 -48.00585938 93.30664062 C-50.00368805 93.20024738 -52.0018207 93.09959112 -54 93 C-54 91.68 -54 90.36 -54 89 C-51.36 88.67 -48.72 88.34 -46 88 C-47.28935919 86.85157077 -48.58156579 85.70633773 -49.875 84.5625 C-50.59429687 83.92441406 -51.31359375 83.28632812 -52.0546875 82.62890625 C-53.90750491 80.94985535 -53.90750491 80.94985535 -56 80 C-58.20144787 89.8438726 -57.62262797 98.95868353 -53 108 C-50.90520349 111.24071242 -48.57576849 114.13078953 -46 117 C-45.43023437 117.639375 -44.86046875 118.27875 -44.2734375 118.9375 C-40.71338046 122.70888463 -37.03605539 125.43725953 -32.50390625 127.95703125 C-32.00761719 128.30121094 -31.51132812 128.64539063 -31 129 C-31 129.66 -31 130.32 -31 131 C-32.390625 132.32421875 -32.390625 132.32421875 -34.25 133.6875 C-35.15492188 134.37392578 -35.15492188 134.37392578 -36.078125 135.07421875 C-38 136 -38 136 -39.94140625 135.859375 C-50.77914335 131.33508247 -60.17291089 119.79191796 -65.02734375 109.421875 C-65.34832031 108.62265625 -65.66929687 107.8234375 -66 107 C-66.54720703 105.6696875 -66.54720703 105.6696875 -67.10546875 104.3125 C-69.63164166 94.95793832 -69.72474009 81.95471119 -65.31640625 73.21484375 C-64.88199219 72.48394531 -64.44757813 71.75304687 -64 71 C-63.27103516 69.67162109 -63.27103516 69.67162109 -62.52734375 68.31640625 C-55.47256061 56.29158677 -45.02717065 48.13560146 -34 40 C-11.81387058 23.92593625 -11.81387058 23.92593625 0 0 Z " fill="#FBFCF9" transform="translate(541,443)"/>
<path d="M0 0 C13.24663083 5.91146376 23.82508951 18.73145788 29 32 C29.39052984 33.98962246 29.7408105 35.98904701 30 38 C9.36082474 49 9.36082474 49 -1 49 C-1 44.05 -1 39.1 -1 34 C-6.28 34 -11.56 34 -17 34 C-17 39.28 -17 44.56 -17 50 C-24.90353283 48.14034522 -32.43070371 45.93533734 -40 43 C-38.18204421 32.92333077 -34.80618503 25.4784906 -27.25 18.4375 C-23.50335949 16.04381301 -20.5847013 15.8802807 -16.23828125 15.90234375 C-15.12001953 15.90556641 -14.00175781 15.90878906 -12.84960938 15.91210938 C-11.68236328 15.92048828 -10.51511719 15.92886719 -9.3125 15.9375 C-8.13365234 15.94201172 -6.95480469 15.94652344 -5.74023438 15.95117188 C-2.82677211 15.96296727 0.08658863 15.9794273 3 16 C3.66 17.32 4.32 18.64 5 20 C-7.375 20.495 -7.375 20.495 -20 21 C-19.01 21.99 -18.02 22.98 -17 24 C-17 25.65 -17 27.3 -17 29 C-1.655 28.505 -1.655 28.505 14 28 C8.48107215 18.80178692 0.74188599 13.04218591 -8 7 C-5.45893061 4.41622356 -2.95198007 2.10855719 0 0 Z " fill="#AED24B" transform="translate(522,584)"/>
<path d="M0 0 C6.15721019 4.92576816 9.22311385 12.13106699 10.453125 19.83984375 C10.92269218 31.52871237 5.6839267 41.4482787 -2 50 C-2.99 50.33 -3.98 50.66 -5 51 C-5 50.34 -5 49.68 -5 49 C-11.93 49 -18.86 49 -26 49 C-26 46.03 -26 43.06 -26 40 C-16.76 40 -7.52 40 2 40 C2.66 38.35 3.32 36.7 4 35 C2.5459375 35.10828125 2.5459375 35.10828125 1.0625 35.21875 C-2.52691772 35.47587938 -6.11780257 35.67836378 -9.71142578 35.86669922 C-11.20302521 35.95357924 -12.69382466 36.05602118 -14.18310547 36.17626953 C-26.01938431 37.13067658 -26.01938431 37.13067658 -31.00390625 34.28515625 C-33.28911305 32.30750467 -35.23040675 30.44793733 -37 28 C-37 27.34 -37 26.68 -37 26 C-36.28972656 26.01160156 -35.57945312 26.02320313 -34.84765625 26.03515625 C-33.92855469 26.04417969 -33.00945312 26.05320312 -32.0625 26.0625 C-30.68771484 26.07990234 -30.68771484 26.07990234 -29.28515625 26.09765625 C-27.03406673 26.25949049 -27.03406673 26.25949049 -26 25 C-23.6243148 24.9116033 -21.27791326 24.88469695 -18.90234375 24.90234375 C-17.83905602 24.90446617 -17.83905602 24.90446617 -16.75428772 24.90663147 C-14.48198288 24.91224557 -12.20977525 24.92480037 -9.9375 24.9375 C-8.40039204 24.94251319 -6.86328255 24.94707641 -5.32617188 24.95117188 C-1.55074358 24.96221958 2.22461171 24.97949359 6 25 C6.495 23.515 6.495 23.515 7 22 C-3.56 21.67 -14.12 21.34 -25 21 C-25 17.7 -25 14.4 -25 11 C-15.43 11 -5.86 11 4 11 C3.505 9.515 3.505 9.515 3 8 C-2.28 7.67 -7.56 7.34 -13 7 C-13 6.67 -13 6.34 -13 6 C-8.05 5.67 -3.1 5.34 2 5 C1.34 3.35 0.68 1.7 0 0 Z " fill="#96BB3F" transform="translate(532,511)"/>
<path d="M0 0 C0 2.31 0 4.62 0 7 C1.03640625 6.95359375 2.0728125 6.9071875 3.140625 6.859375 C4.51038779 6.82184725 5.88018182 6.78544816 7.25 6.75 C8.27287109 6.69972656 8.27287109 6.69972656 9.31640625 6.6484375 C11.328125 6.609375 11.328125 6.609375 15 7 C16.32 8.32 17.64 9.64 19 11 C12.73 11 6.46 11 0 11 C0 14.63 0 18.26 0 22 C9.57 22 19.14 22 29 22 C29 22.99 29 23.98 29 25 C19.43 25 9.86 25 0 25 C0 28.3 0 31.6 0 35 C0.89831543 34.99476318 1.79663086 34.98952637 2.72216797 34.98413086 C6.05062499 34.96710275 9.37903581 34.95455663 12.70751953 34.94506836 C14.1489332 34.94003526 15.59034176 34.93320827 17.03173828 34.92456055 C19.10190085 34.91245017 21.17199601 34.90676153 23.2421875 34.90234375 C24.4885498 34.89710693 25.73491211 34.89187012 27.01904297 34.88647461 C30 35 30 35 32 36 C31.67 37.32 31.34 38.64 31 40 C20.27344291 40.10194194 9.68436922 40.07419152 -1 39 C-1.33 39.66 -1.66 40.32 -2 41 C-2.495 40.505 -2.495 40.505 -3 40 C-5.85877909 39.76298761 -8.69883297 39.57780818 -11.5625 39.4375 C-12.77196289 39.37272461 -12.77196289 39.37272461 -14.00585938 39.30664062 C-16.00368805 39.20024738 -18.0018207 39.09959112 -20 39 C-20 37.68 -20 36.36 -20 35 C-17.36 34.67 -14.72 34.34 -12 34 C-12.55429687 33.51789062 -13.10859375 33.03578125 -13.6796875 32.5390625 C-14.40414063 31.90742187 -15.12859375 31.27578125 -15.875 30.625 C-16.59429687 29.99851562 -17.31359375 29.37203125 -18.0546875 28.7265625 C-19.4076598 27.52573166 -20.7208345 26.2791655 -22 25 C-19.20779642 18.44439159 -8.19165099 0 0 0 Z " fill="#AED449" transform="translate(507,497)"/>
<path d="M0 0 C0.66 0 1.32 0 2 0 C2.51046875 1.17755859 2.51046875 1.17755859 3.03125 2.37890625 C8.05320028 13.26425062 13.78827324 18.82155554 25 23 C25 23.66 25 24.32 25 25 C24.21496094 25.3403125 23.42992187 25.680625 22.62109375 26.03125 C11.73574938 31.05320028 6.17844446 36.78827324 2 48 C1.34 48 0.68 48 0 48 C-0.3403125 47.21496094 -0.680625 46.42992187 -1.03125 45.62109375 C-6.05320028 34.73574938 -11.78827324 29.17844446 -23 25 C-23 24.34 -23 23.68 -23 23 C-22.21496094 22.6596875 -21.42992187 22.319375 -20.62109375 21.96875 C-9.73574938 16.94679972 -4.17844446 11.21172676 0 0 Z " fill="#7D7D7D" transform="translate(967,944)"/>
<path d="M0 0 C2.96530497 1.35800471 5.29131271 2.92428263 7.75 5.0625 C8.67039062 5.85333984 8.67039062 5.85333984 9.609375 6.66015625 C10.06828125 7.10230469 10.5271875 7.54445313 11 8 C11 8.33 11 8.66 11 9 C8.03 9 5.06 9 2 9 C2 10.32 2 11.64 2 13 C7.61 13 13.22 13 19 13 C19 13.33 19 13.66 19 14 C16.03 14 13.06 14 10 14 C10.7425 14.7425 11.485 15.485 12.25 16.25 C15 19 15 19 16.70996094 21.14746094 C19.96028369 23.7768265 22.25345972 23.45629429 26.390625 23.390625 C27.09523865 23.38496521 27.79985229 23.37930542 28.52581787 23.37347412 C30.76791428 23.35115078 33.00838988 23.30096754 35.25 23.25 C36.77341435 23.22992952 38.29685386 23.2116797 39.8203125 23.1953125 C43.5473983 23.15130118 47.27354087 23.08230372 51 23 C50.34 24.65 49.68 26.3 49 28 C39.76 28 30.52 28 21 28 C21 30.97 21 33.94 21 37 C27.93 37 34.86 37 42 37 C42.33 37.99 42.66 38.98 43 40 C41.52351062 41.33629746 40.0437367 42.66896671 38.5625 44 C37.73878906 44.7425 36.91507813 45.485 36.06640625 46.25 C34 48 34 48 33 48 C33 46.02 33 44.04 33 42 C29.04 42 25.08 42 21 42 C21 43.65 21 45.3 21 47 C10.49149502 40.80267655 2.08776646 31.24178116 -1.5 19.5 C-2.84045583 12.79772087 -2.86480447 6.25463287 0 0 Z " fill="#B0CD61" transform="translate(485,523)"/>
<path d="M0 0 C1.23556641 0.01740234 1.23556641 0.01740234 2.49609375 0.03515625 C3.32238281 0.04417969 4.14867187 0.05320312 5 0.0625 C5.63808594 0.07410156 6.27617187 0.08570313 6.93359375 0.09765625 C7.15402344 1.04125 7.15402344 1.04125 7.37890625 2.00390625 C9.0903961 8.53510889 11.57507047 12.99597463 15.93359375 18.09765625 C16.68253906 19.05414063 17.43148438 20.010625 18.203125 20.99609375 C21.00366389 24.35674042 24.23980959 26.88496382 27.74609375 29.47265625 C28.64231445 30.14748047 28.64231445 30.14748047 29.55664062 30.8359375 C31.01087526 31.92952195 32.47156525 33.01451361 33.93359375 34.09765625 C32.56904872 38.19129134 30.70496639 39.13944353 26.93359375 41.09765625 C16.88659324 38.39524522 7.45518235 27.92704327 2.2109375 19.24609375 C-1.06415271 13.12949501 -2.95233557 8.0559677 -3.06640625 1.09765625 C-2.06640625 0.09765625 -2.06640625 0.09765625 0 0 Z " fill="#FAFBF7" transform="translate(476.06640625,442.90234375)"/>
<path d="M0 0 C13.24663083 5.91146376 23.82508951 18.73145788 29 32 C29.39052984 33.98962246 29.7408105 35.98904701 30 38 C28.71086513 38.67154933 27.41859796 39.33708859 26.125 40 C25.40570312 40.37125 24.68640625 40.7425 23.9453125 41.125 C22 42 22 42 20 42 C19.78085937 41.2265625 19.56171875 40.453125 19.3359375 39.65625 C17.21820358 32.70044103 14.87384607 27.40361194 10 22 C9.48695313 21.41863281 8.97390625 20.83726562 8.4453125 20.23828125 C3.56938401 15.04740044 -2.17459549 11.05566137 -8 7 C-5.45893061 4.41622356 -2.95198007 2.10855719 0 0 Z " fill="#FAFBF8" transform="translate(522,584)"/>
<path d="M0 0 C9.29280198 2.44190417 18.11672517 11.63491926 24.2109375 18.84375 C24.7059375 20.32875 24.7059375 20.32875 25.2109375 21.84375 C24.2109375 22.84375 24.2109375 22.84375 21.25170898 22.95727539 C19.95821533 22.95203857 18.66472168 22.94680176 17.33203125 22.94140625 C16.30203758 22.93928383 16.30203758 22.93928383 15.25123596 22.93711853 C13.05025949 22.93150479 10.84938341 22.91895007 8.6484375 22.90625 C7.15950667 22.90123676 5.67057426 22.89667355 4.18164062 22.89257812 C0.52470675 22.88153093 -3.13216808 22.86425713 -6.7890625 22.84375 C-7.0778125 21.915625 -7.3665625 20.9875 -7.6640625 20.03125 C-8.6765625 16.74583333 -8.6765625 16.74583333 -10.7890625 13.84375 C-2.2090625 13.84375 6.3709375 13.84375 15.2109375 13.84375 C14.5509375 12.85375 13.8909375 11.86375 13.2109375 10.84375 C10.64350745 10.42664831 10.64350745 10.42664831 7.65234375 10.55078125 C6.54439453 10.56044922 5.43644531 10.57011719 4.29492188 10.58007812 C3.13283203 10.60521484 1.97074219 10.63035156 0.7734375 10.65625 C-0.38478516 10.66978516 -1.54300781 10.68332031 -2.73632812 10.69726562 C-4.88607894 10.72349733 -7.03576928 10.75586113 -9.18530273 10.79614258 C-11.0529779 10.83029135 -12.92107517 10.84375 -14.7890625 10.84375 C-4.00097458 -0.22414423 -4.00097458 -0.22414423 0 0 Z " fill="#7B9440" transform="translate(511.7890625,590.15625)"/>
<path d="M0 0 C4.75180804 4.23809906 7.40382745 8.33779718 8.4375 14.6875 C7.82212014 17.94022209 6.58810769 18.96731648 4 21 C0.88378906 21.45410156 0.88378906 21.45410156 -2.734375 21.390625 C-4.02988281 21.37773438 -5.32539062 21.36484375 -6.66015625 21.3515625 C-8.02344824 21.31814366 -9.38672949 21.28428391 -10.75 21.25 C-12.12888064 21.22992707 -13.50778912 21.21167767 -14.88671875 21.1953125 C-18.25851744 21.14815448 -21.62890687 21.08234538 -25 21 C-25 17.7 -25 14.4 -25 11 C-15.43 11 -5.86 11 4 11 C3.67 10.01 3.34 9.02 3 8 C-2.28 7.67 -7.56 7.34 -13 7 C-13 6.67 -13 6.34 -13 6 C-8.05 5.67 -3.1 5.34 2 5 C1.34 3.35 0.68 1.7 0 0 Z " fill="#95B54A" transform="translate(532,511)"/>
<path d="M0 0 C4.45858655 1.44822702 7.30166835 3.73422226 10.75 6.875 C11.71421875 7.73867188 12.6784375 8.60234375 13.671875 9.4921875 C15.94418307 11.93987505 16.62393529 12.80344998 17 16 C17.33 17.65 17.66 19.3 18 21 C8.76 21 -0.48 21 -10 21 C-10 17.37 -10 13.74 -10 10 C-4.06 9.67 1.88 9.34 8 9 C5.08235 7.0549 3.37462715 6.54723683 0 6 C0 4.02 0 2.04 0 0 Z " fill="#A3BF5F" transform="translate(517,498)"/>
<path d="M0 0 C0.33 0 0.66 0 1 0 C1.66 12.54 2.32 25.08 3 38 C12.81339742 29.01166472 12.81339742 29.01166472 22.3125 19.75 C23.21613281 18.83734375 24.11976563 17.9246875 25.05078125 16.984375 C25.69402344 16.32953125 26.33726562 15.6746875 27 15 C27.66 15.33 28.32 15.66 29 16 C28.03900391 16.94359375 28.03900391 16.94359375 27.05859375 17.90625 C22.43713428 22.47949752 17.86092769 27.03203577 13.734375 32.0625 C12 34 12 34 9.828125 35.6875 C5.27828591 39.55970348 3.81653532 42.7985787 3.2734375 48.6875 C2.94738367 54.45775941 2.89681496 60.22235444 3 66 C1.35 66 -0.3 66 -2 66 C-2.18989142 34.49847394 -2.18989142 34.49847394 -1.5625 18.9375 C-1.50364624 17.44391968 -1.50364624 17.44391968 -1.44360352 15.92016602 C-1.20290571 10.56429335 -0.74422307 5.3096251 0 0 Z " fill="#10160A" transform="translate(512,384)"/>
<path d="M0 0 C0.99 0 1.98 0 3 0 C3 0.99 3 1.98 3 3 C8.61 3 14.22 3 20 3 C20 8.28 20 13.56 20 19 C12.07728439 17.13583162 4.60363377 14.90138657 -3 12 C-2.01 8.04 -1.02 4.08 0 0 Z " fill="#ABCF47" transform="translate(485,615)"/>
<path d="M0 0 C0.66 0 1.32 0 2 0 C2.65134925 1.56020867 3.29582964 3.12328579 3.9375 4.6875 C4.29714844 5.55761719 4.65679688 6.42773438 5.02734375 7.32421875 C5.9570312 9.88179265 6.54162625 12.3221323 7 15 C4.27411167 16.00981089 1.54487736 17.00803308 -1.1875 18 C-1.95642578 18.28617188 -2.72535156 18.57234375 -3.51757812 18.8671875 C-4.26845703 19.13789062 -5.01933594 19.40859375 -5.79296875 19.6875 C-6.4789917 19.93886719 -7.16501465 20.19023438 -7.87182617 20.44921875 C-10 21 -10 21 -15 21 C-15 16.05 -15 11.1 -15 6 C-10.05 6 -5.1 6 0 6 C-0.33 4.35 -0.66 2.7 -1 1 C-0.67 0.67 -0.34 0.34 0 0 Z " fill="#91B73C" transform="translate(536,612)"/>
<path d="M0 0 C7.20540717 0.0169539 14.28387654 0.3291243 21.4453125 1.1328125 C20.53408523 2.24147235 19.61604591 3.34453469 18.6953125 4.4453125 C18.18484375 5.06019531 17.674375 5.67507813 17.1484375 6.30859375 C13.59262537 10.11722739 11.23047203 11.54640078 5.859375 11.80322266 C-0.66126809 11.85624833 -4.90340433 11.78469771 -10.0546875 7.2578125 C-13.5546875 3.61415578 -13.5546875 3.61415578 -13.5546875 1.1328125 C-12.84441406 1.14441406 -12.13414062 1.15601563 -11.40234375 1.16796875 C-10.48324219 1.17699219 -9.56414062 1.18601562 -8.6171875 1.1953125 C-7.24240234 1.21271484 -7.24240234 1.21271484 -5.83984375 1.23046875 C-3.04110852 1.11086468 -2.8870738 0.15009252 0 0 Z " fill="#10110D" transform="translate(508.5546875,535.8671875)"/>
<path d="M0 0 C3.8625437 1.59797907 6.58186045 4.2217216 9.5625 7.0625 C15.17338726 12.30759081 21.01272531 17.18755392 27 22 C28.68799565 23.3952339 30.37548348 24.79108236 32.0625 26.1875 C35.54607377 29.06170227 39.08263664 31.82847826 42.6953125 34.5390625 C43.92882446 35.47262573 43.92882446 35.47262573 45.18725586 36.42504883 C46.83631566 37.6699352 48.4932768 38.90443266 50.15844727 40.12768555 C50.91440186 40.70043213 51.67035645 41.27317871 52.44921875 41.86328125 C53.47535278 42.62572144 53.47535278 42.62572144 54.5222168 43.40356445 C56 45 56 45 56 49 C54.68 49.66 53.36 50.32 52 51 C45.04353195 44.74544585 38.25457779 38.37580422 31.71801758 31.6809082 C28.98502148 28.90210524 26.19105479 26.26732018 23.234375 23.7265625 C18.25898976 19.4239121 13.63852609 14.78490179 9 10.125 C8.12988281 9.25875 7.25976562 8.3925 6.36328125 7.5 C5.54214844 6.67757812 4.72101563 5.85515625 3.875 5.0078125 C3.12992187 4.26160645 2.38484375 3.51540039 1.6171875 2.74658203 C0 1 0 1 0 0 Z " fill="#0E1108" transform="translate(435,544)"/>
<path d="M0 0 C0.66 0.33 1.32 0.66 2 1 C-2.12267842 5.14758308 -6.24877227 9.2917284 -10.37792969 13.43286133 C-11.77924133 14.83917075 -13.17965036 16.24638022 -14.57910156 17.65454102 C-16.60239038 19.69009656 -18.62901128 21.72228531 -20.65625 23.75390625 C-21.2711731 24.37399063 -21.88609619 24.99407501 -22.51965332 25.63294983 C-26.28752408 29.40129489 -30.17480187 32.97170902 -34.21826172 36.44311523 C-36.76443681 38.66796568 -39.12552008 41.03004119 -41.5 43.4375 C-42.3559375 44.30246094 -43.211875 45.16742187 -44.09375 46.05859375 C-44.7228125 46.69925781 -45.351875 47.33992187 -46 48 C-48 47 -50 46 -52 45 C-50.45690575 40.90057491 -47.84740354 39.11725843 -44.375 36.5625 C-43.19635456 35.68177416 -42.0193467 34.7988537 -40.84375 33.9140625 C-40.21984375 33.44516602 -39.5959375 32.97626953 -38.953125 32.49316406 C-35.53533648 29.88026474 -32.20644959 27.15908322 -28.875 24.4375 C-28.19598633 23.88296143 -27.51697266 23.32842285 -26.81738281 22.75708008 C-25.49044703 21.67241109 -24.16393594 20.58722229 -22.83789062 19.50146484 C-21.19344437 18.15803439 -19.54246048 16.82261569 -17.890625 15.48828125 C-11.74643567 10.51565344 -5.82399722 5.34392803 0 0 Z " fill="#0B0E07" transform="translate(584,547)"/>
<path d="M0 0 C2.96530497 1.35800471 5.29131271 2.92428263 7.75 5.0625 C8.67039062 5.85333984 8.67039062 5.85333984 9.609375 6.66015625 C10.06828125 7.10230469 10.5271875 7.54445313 11 8 C11 8.33 11 8.66 11 9 C8.03 9 5.06 9 2 9 C2 10.32 2 11.64 2 13 C7.61 13 13.22 13 19 13 C19 13.33 19 13.66 19 14 C16.03 14 13.06 14 10 14 C10.763125 14.7425 11.52625 15.485 12.3125 16.25 C15 19 15 19 18 23 C9.585 23.495 9.585 23.495 1 24 C-2.40058602 16.06529929 -2.40058602 16.06529929 -2.3125 10.875 C-2.30863281 9.88242187 -2.30476563 8.88984375 -2.30078125 7.8671875 C-1.99090593 4.91331106 -1.23525398 2.6870465 0 0 Z " fill="#ABCB50" transform="translate(485,523)"/>
<path d="M0 0 C7.08413941 -0.02529271 14.16826723 -0.04284261 21.25244141 -0.05493164 C23.66390417 -0.05996974 26.07536386 -0.06680034 28.48681641 -0.07543945 C31.94694779 -0.08752787 35.4070389 -0.09323344 38.8671875 -0.09765625 C39.95055389 -0.10281754 41.03392029 -0.10797882 42.15011597 -0.11329651 C43.1510025 -0.11337204 44.15188904 -0.11344757 45.18310547 -0.11352539 C46.06690887 -0.115746 46.95071228 -0.11796661 47.86129761 -0.12025452 C50 0 50 0 52 1 C51.67 2.32 51.34 3.64 51 5 C40.27344291 5.10194194 29.68436922 5.07419152 19 4 C18.67 4.66 18.34 5.32 18 6 C17.67 5.67 17.34 5.34 17 5 C14.14122091 4.76298761 11.30116703 4.57780818 8.4375 4.4375 C7.63119141 4.39431641 6.82488281 4.35113281 5.99414062 4.30664062 C3.99631195 4.20024738 1.9981793 4.09959112 0 4 C0 2.68 0 1.36 0 0 Z " fill="#F5F6F2" transform="translate(487,532)"/>
<path d="M0 0 C3.00818497 4.51227745 2.56628134 8.707966 2 14 C-0.55421687 23.55421687 -0.55421687 23.55421687 -4 27 C-4.66 26.67 -5.32 26.34 -6 26 C-5.34 24.35 -4.68 22.7 -4 21 C-8.95 21 -13.9 21 -19 21 C-16.33333333 18.33333333 -13.66666667 15.66666667 -11 13 C-13.64 12.67 -16.28 12.34 -19 12 C-19 11.67 -19 11.34 -19 11 C-13.39 11 -7.78 11 -2 11 C-1.67 10.01 -1.34 9.02 -1 8 C-1.99 7.67 -2.98 7.34 -4 7 C-2.68 4.69 -1.36 2.38 0 0 Z " fill="#97BD44" transform="translate(540,525)"/>
<path d="M0 0 C15.84 0 31.68 0 48 0 C48 1.32 48 2.64 48 4 C32.16 4 16.32 4 0 4 C0 2.68 0 1.36 0 0 Z " fill="#F6F9F1" transform="translate(488,450)"/>
<path d="M0 0 C15.34849522 -0.19990804 30.66492439 0.41157379 46 1 C46 1.99 46 2.98 46 4 C30.33026171 4.60528268 14.68302005 5.18895205 -1 5 C-0.67 3.35 -0.34 1.7 0 0 Z " fill="#F7FAF0" transform="translate(490,518)"/>
<path d="M0 0 C8.58 0 17.16 0 26 0 C24.35 1.65 22.7 3.3 21 5 C20.34 6.32 19.68 7.64 19 9 C14.05 9 9.1 9 4 9 C3.34 7.02 2.68 5.04 2 3 C1.34 2.01 0.68 1.02 0 0 Z " fill="#040403" transform="translate(501,604)"/>
<path d="M0 0 C15.18 0 30.36 0 46 0 C45.34 1.32 44.68 2.64 44 4 C29.81 4 15.62 4 1 4 C0.67 2.68 0.34 1.36 0 0 Z " fill="#F7F9EE" transform="translate(490,546)"/>
<path d="M0 0 C9.57 0 19.14 0 29 0 C28.34 1.32 27.68 2.64 27 4 C21.72 4 16.44 4 11 4 C11 6.31 11 8.62 11 11 C9.72689688 10.06558465 8.456612 9.12732889 7.1875 8.1875 C6.47980469 7.66542969 5.77210938 7.14335937 5.04296875 6.60546875 C3.20038793 5.15747502 1.53635131 3.76898495 0 2 C0 1.34 0 0.68 0 0 Z " fill="#F8F9F5" transform="translate(498,464)"/>
<path d="M0 0 C15.18 0 30.36 0 46 0 C46.495 1.485 46.495 1.485 47 3 C31.49 3 15.98 3 0 3 C0 2.01 0 1.02 0 0 Z " fill="#FEFEFC" transform="translate(489,614)"/>
<path d="M0 0 C0.33 0.66 0.66 1.32 1 2 C6.94 2 12.88 2 19 2 C19 4.97 19 7.94 19 11 C14.17190997 11.55913543 9.83060716 12.03345318 5.48828125 9.58203125 C3.38281919 7.80920952 1.59378594 6.24682718 0 4 C0 2.68 0 1.36 0 0 Z " fill="#ACCE50" transform="translate(488,521)"/>
<path d="M0 0 C4.78799448 1.74945952 8.49102868 4.779366 12.25 8.1875 C12.25 8.5175 12.25 8.8475 12.25 9.1875 C4.33 9.1875 -3.59 9.1875 -11.75 9.1875 C-4.65384615 0.31730769 -4.65384615 0.31730769 0 0 Z " fill="#090907" transform="translate(511.75,589.8125)"/>
<path d="M0 0 C5.61 0 11.22 0 17 0 C17 2.64 17 5.28 17 8 C13.37 8 9.74 8 6 8 C5.67 8.66 5.34 9.32 5 10 C3.96704564 8.90716423 2.94892165 7.80029421 1.9375 6.6875 C1.36902344 6.07261719 0.80054688 5.45773437 0.21484375 4.82421875 C-0.38650391 3.92123047 -0.38650391 3.92123047 -1 3 C-0.67 2.01 -0.34 1.02 0 0 Z " fill="#AED74D" transform="translate(492,456)"/>
<path d="M0 0 C0.99 0.33 1.98 0.66 3 1 C1.02 3.31 -0.96 5.62 -3 8 C12.18 8 27.36 8 43 8 C43 8.33 43 8.66 43 9 C27.82 9 12.64 9 -3 9 C-3 9.99 -3 10.98 -3 12 C12.51 12 28.02 12 44 12 C44 12.33 44 12.66 44 13 C28.16 13 12.32 13 -4 13 C-4 12.01 -4 11.02 -4 10 C-4.66 10 -5.32 10 -6 10 C-4.6302836 6.00499382 -2.74277578 3.19990508 0 0 Z " fill="#BDCD90" transform="translate(492,605)"/>
<path d="M0 0 C3.48654476 1.4841373 5.64191072 3.46214052 8.25 6.1875 C11.63101657 9.64548281 15.08404771 12.89346946 18.75390625 16.0390625 C22.16338518 19.01568584 25.47475677 22.09844059 28.78833008 25.18115234 C31.42377963 27.61756034 34.07837526 29.91312518 37 32 C36.67 33.32 36.34 34.64 36 36 C32.91158991 34.63756514 30.94152893 33.13517134 28.671875 30.6484375 C28.04410156 29.96910156 27.41632813 29.28976562 26.76953125 28.58984375 C26.10308594 27.85894531 25.43664062 27.12804687 24.75 26.375 C18.28760861 19.38310168 11.67009405 12.58735193 4.87792969 5.91552734 C4.23758789 5.28340332 3.59724609 4.6512793 2.9375 4 C2.36902344 3.443125 1.80054688 2.88625 1.21484375 2.3125 C0 1 0 1 0 0 Z " fill="#151810" transform="translate(440,482)"/>
<path d="M0 0 C0.66 0.33 1.32 0.66 2 1 C1.49138428 1.50337891 0.98276855 2.00675781 0.45874023 2.52539062 C-1.88440728 4.84751978 -4.22346602 7.1737277 -6.5625 9.5 C-7.36236328 10.29148437 -8.16222656 11.08296875 -8.98632812 11.8984375 C-13.32831997 16.22270693 -17.49878849 20.61983879 -21.49243164 25.26757812 C-23.38366002 27.44088284 -25.38284768 29.48139421 -27.4375 31.5 C-28.45650391 32.50546875 -28.45650391 32.50546875 -29.49609375 33.53125 C-29.99238281 34.0159375 -30.48867188 34.500625 -31 35 C-31.99 34.67 -32.98 34.34 -34 34 C-32.62647072 30.88163667 -31.08161027 28.88134572 -28.5859375 26.57421875 C-27.90660156 25.94193359 -27.22726562 25.30964844 -26.52734375 24.65820312 C-25.81707031 24.00787109 -25.10679687 23.35753906 -24.375 22.6875 C-23.68792969 22.04876953 -23.00085938 21.41003906 -22.29296875 20.75195312 C-18.82838969 17.54412993 -15.32175207 14.39391022 -11.7578125 11.296875 C-8.90125908 8.81152603 -6.1550514 6.26496303 -3.5 3.5625 C-2.8296875 2.88316406 -2.159375 2.20382812 -1.46875 1.50390625 C-0.9840625 1.00761719 -0.499375 0.51132812 0 0 Z " fill="#1C2310" transform="translate(582,482)"/>
<path d="M0 0 C0 3.3 0 6.6 0 10 C-1.98 10 -3.96 10 -6 10 C-6 7.36 -6 4.72 -6 2 C-14.415 2.495 -14.415 2.495 -23 3 C-21.35575624 6.8155338 -21.35575624 6.8155338 -19.375 8.625 C-18.92125 9.07875 -18.4675 9.5325 -18 10 C-18 10.66 -18 11.32 -18 12 C-17.34 12 -16.68 12 -16 12 C-16 12.66 -16 13.32 -16 14 C-19.85438351 12.48081731 -21.73605496 10.17304038 -24.25 6.9375 C-24.95640625 6.03902344 -25.6628125 5.14054687 -26.390625 4.21484375 C-28 2 -28 2 -28 1 C-24.45843821 0.83105465 -20.91673593 0.66525124 -17.375 0.5 C-16.37597656 0.45230469 -15.37695312 0.40460938 -14.34765625 0.35546875 C-9.5608033 0.13356166 -4.79365172 -0.06544234 0 0 Z " fill="#688035" transform="translate(515,454)"/>
<path d="M0 0 C3.96 0 7.92 0 12 0 C12 2.97 12 5.94 12 9 C8.04 9 4.08 9 0 9 C0 6.03 0 3.06 0 0 Z " fill="#050403" transform="translate(506,551)"/>
<path d="M0 0 C8.25 0 16.5 0 25 0 C25.66 1.32 26.32 2.64 27 4 C18.09 4 9.18 4 0 4 C0 2.68 0 1.36 0 0 Z " fill="#F1F0EE" transform="translate(500,600)"/>
<path d="M0 0 C1.3602832 -0.03673828 1.3602832 -0.03673828 2.74804688 -0.07421875 C3.62396484 -0.07808594 4.49988281 -0.08195312 5.40234375 -0.0859375 C6.59911743 -0.09826416 6.59911743 -0.09826416 7.82006836 -0.11083984 C10.0625 0.375 10.0625 0.375 14.0625 4.375 C4.8225 4.705 -4.4175 5.035 -13.9375 5.375 C-11.73307014 -1.23828958 -5.85469458 0.0082869 0 0 Z " fill="#EBEEE2" transform="translate(511.9375,503.625)"/>
<path d="M0 0 C3.63 0 7.26 0 11 0 C11 2.97 11 5.94 11 9 C7.37 9 3.74 9 0 9 C0 6.03 0 3.06 0 0 Z " fill="#070705" transform="translate(507,523)"/>
<path d="M0 0 C3.63 0 7.26 0 11 0 C11 2.97 11 5.94 11 9 C7.37 9 3.74 9 0 9 C0 6.03 0 3.06 0 0 Z " fill="#090A07" transform="translate(507,509)"/>
<path d="M0 0 C8.91 0 17.82 0 27 0 C23 4 23 4 20.75756836 4.48583984 C19.95971924 4.47762207 19.16187012 4.4694043 18.33984375 4.4609375 C17.46392578 4.45707031 16.58800781 4.45320312 15.68554688 4.44921875 C14.77869141 4.42472656 13.87183594 4.40023437 12.9375 4.375 C12.02677734 4.37371094 11.11605469 4.37242187 10.17773438 4.37109375 C3.42222744 4.28148496 3.42222744 4.28148496 0 2 C0 1.34 0 0.68 0 0 Z " fill="#FAFAF8" transform="translate(499,561)"/>
<path d="M0 0 C3.96 0 7.92 0 12 0 C12 6 12 6 10.375 8 C8 9 8 9 4.875 8.25 C3.23369438 7.53638886 1.60078106 6.80039053 0 6 C0 4.02 0 2.04 0 0 Z " fill="#13160C" transform="translate(506,565)"/>
<path d="M0 0 C2.9425963 0.30652045 5.34542308 0.67271154 8 2 C8 4.31 8 6.62 8 9 C4.7 9 1.4 9 -2 9 C-2.125 5.625 -2.125 5.625 -2 2 C-1.34 1.34 -0.68 0.68 0 0 Z " fill="#0B0D06" transform="translate(509,495)"/>
<path d="M0 0 C3.43595166 1.52708963 6.11912454 3.59927045 9 6 C9.33 4.02 9.66 2.04 10 0 C11.98 0 13.96 0 16 0 C16 3.3 16 6.6 16 10 C15.01 10.33 14.02 10.66 13 11 C10.37109375 9.453125 10.37109375 9.453125 7.4375 7.25 C6.46683594 6.53328125 5.49617188 5.8165625 4.49609375 5.078125 C2 3 2 3 0 0 Z " fill="#1C2215" transform="translate(499,468)"/>
<path d="M0 0 C4.95757898 1.54826599 9.63810401 3.51780938 14.375 5.625 C15.11105469 5.94984375 15.84710938 6.2746875 16.60546875 6.609375 C18.40470969 7.40384503 20.20250496 8.20158771 22 9 C22 9.33 22 9.66 22 10 C15.86016535 9.43097642 10.44672511 8.06221942 4.625 6.0625 C3.41650391 5.66514648 3.41650391 5.66514648 2.18359375 5.25976562 C-3.73935288 3.26064712 -3.73935288 3.26064712 -6 1 C-3.03 1.495 -3.03 1.495 0 2 C0 1.34 0 0.68 0 0 Z " fill="#9FBB3F" transform="translate(461,631)"/>
<path d="M0 0 C0.66 0.33 1.32 0.66 2 1 C2.34538204 4.10843835 2.23301458 5.62515045 0.5625 8.3125 C-3.19233777 10.78519805 -6.62751253 10.33634519 -11 10 C-7.50640535 6.40365256 -3.88901869 3.16548033 0 0 Z " fill="#0C0C08" transform="translate(538,522)"/>
<path d="M0 0 C2.96530497 1.35800471 5.29131271 2.92428263 7.75 5.0625 C8.67039062 5.85333984 8.67039062 5.85333984 9.609375 6.66015625 C10.06828125 7.10230469 10.5271875 7.54445313 11 8 C11 8.33 11 8.66 11 9 C3.73542601 9.48430493 3.73542601 9.48430493 0.4375 7.3125 C-1 5 -1 5 -0.75 2.25 C-0.5025 1.5075 -0.255 0.765 0 0 Z " fill="#0D0D09" transform="translate(485,523)"/>
<path d="M0 0 C0.33 1.32 0.66 2.64 1 4 C-2.29787288 6.19858192 -5.13806357 7.08315174 -8.9375 8.1875 C-10.16339844 8.55230469 -11.38929688 8.91710937 -12.65234375 9.29296875 C-15.85777374 9.96996155 -17.00869623 9.90901378 -20 9 C-19.4652002 8.76289307 -18.93040039 8.52578613 -18.37939453 8.28149414 C-15.96104794 7.20898029 -13.54302048 6.13574885 -11.125 5.0625 C-10.28324219 4.68931641 -9.44148437 4.31613281 -8.57421875 3.93164062 C-7.76855469 3.57392578 -6.96289062 3.21621094 -6.1328125 2.84765625 C-5.38918457 2.51773682 -4.64555664 2.18781738 -3.87939453 1.84790039 C-2.57377635 1.25886273 -1.28112582 0.64056291 0 0 Z " fill="#9EBF44" transform="translate(561,631)"/>
<path d="M0 0 C4.29718953 1.38914475 6.70687757 3.38031985 9.8125 6.625 C10.99779297 7.85089844 10.99779297 7.85089844 12.20703125 9.1015625 C12.79871094 9.72804688 13.39039063 10.35453125 14 11 C13.67 11.99 13.34 12.98 13 14 C8.15816248 10.08928508 3.75347544 5.99088493 0 1 C0 0.67 0 0.34 0 0 Z " fill="#A7C64D" transform="translate(401,593)"/>
<path d="M0 0 C1.65 0 3.3 0 5 0 C5 2.97 5 5.94 5 9 C3.35 9 1.7 9 0 9 C0 6.03 0 3.06 0 0 Z " fill="#0A0809" transform="translate(510,455)"/>
<path d="M0 0 C2.97 0 5.94 0 9 0 C9.33 0.99 9.66 1.98 10 3 C8.52351062 4.33629746 7.0437367 5.66896671 5.5625 7 C4.73878906 7.7425 3.91507813 8.485 3.06640625 9.25 C1 11 1 11 0 11 C0 9.02 0 7.04 0 5 C2.31 4.01 4.62 3.02 7 2 C4.69 1.67 2.38 1.34 0 1 C0 0.67 0 0.34 0 0 Z " fill="#ABCB63" transform="translate(518,560)"/>
<path d="M0 0 C0.99 0.99 1.98 1.98 3 3 C0.03 5.31 -2.94 7.62 -6 10 C-7.32 9.34 -8.64 8.68 -10 8 C-6.7 5.36 -3.4 2.72 0 0 Z " fill="#ABCB69" transform="translate(520,486)"/>
<path d="M0 0 C0.33 1.32 0.66 2.64 1 4 C-3.455 7.465 -3.455 7.465 -8 11 C-8.99 10.34 -9.98 9.68 -11 9 C-3.70159453 2.66514806 -3.70159453 2.66514806 0 0 Z " fill="#A3C55D" transform="translate(522,580)"/>
<path d="M0 0 C0 2.31 0 4.62 0 7 C-3.83887763 8.48320272 -6.06204091 9.22419163 -10 8 C-8.52351062 6.66370254 -7.0437367 5.33103329 -5.5625 4 C-4.73878906 3.2575 -3.91507812 2.515 -3.06640625 1.75 C-1 0 -1 0 0 0 Z " fill="#B4D952" transform="translate(507,497)"/>
<path d="M0 0 C3.54184054 1.498471 5.72776562 3.54915885 8.375 6.3125 C11.76898796 9.79063642 15.19815769 12.97802278 19 16 C18.34 16.66 17.68 17.32 17 18 C14.16266225 15.19151503 11.33081251 12.37756077 8.5 9.5625 C7.68917969 8.76005859 6.87835938 7.95761719 6.04296875 7.13085938 C5.27597656 6.36708984 4.50898438 5.60332031 3.71875 4.81640625 C3.00654297 4.10943604 2.29433594 3.40246582 1.56054688 2.67407227 C0 1 0 1 0 0 Z " fill="#303B18" transform="translate(440,482)"/>
<path d="M0 0 C4.41889613 1.35021826 6.34345343 3.26115668 9 7 C6.03 6.67 3.06 6.34 0 6 C0 4.02 0 2.04 0 0 Z " fill="#94BC3D" transform="translate(517,498)"/>
<path d="M0 0 C0.99 0.99 1.98 1.98 3 3 C-0.3 5.31 -3.6 7.62 -7 10 C-7.33 9.01 -7.66 8.02 -8 7 C-2.25 2 -2.25 2 0 2 C0 1.34 0 0.68 0 0 Z " fill="#B0CD5F" transform="translate(510,572)"/>
<path d="M0 0 C4.875 4.625 4.875 4.625 6 8 C2.25889239 8 -1.4560694 7.74115796 -5.1875 7.5 C-6.31188477 7.42845703 -6.31188477 7.42845703 -7.45898438 7.35546875 C-9.30604344 7.23782168 -11.15302904 7.11902229 -13 7 C-13 6.67 -13 6.34 -13 6 C-8.05 5.67 -3.1 5.34 2 5 C1.34 3.35 0.68 1.7 0 0 Z " fill="#96BE3A" transform="translate(532,511)"/>
<path d="M0 0 C2.64 0 5.28 0 8 0 C8 2.31 8 4.62 8 7 C6.66382648 6.02471263 5.3311249 5.04466681 4 4.0625 C3.2575 3.51722656 2.515 2.97195313 1.75 2.41015625 C1.1725 1.94480469 0.595 1.47945313 0 1 C0 0.67 0 0.34 0 0 Z " fill="#B2D65B" transform="translate(501,468)"/>
<path d="M0 0 C0 3.69834896 -0.81364222 4.27081428 -3.25 6.9375 C-3.88550781 7.63746094 -4.52101563 8.33742188 -5.17578125 9.05859375 C-7.07727446 11.08223855 -8.99660415 13.07673998 -11 15 C-11.99 14.67 -12.98 14.34 -14 14 C-13.27425781 13.44828125 -12.54851563 12.8965625 -11.80078125 12.328125 C-8.97395164 9.97834753 -6.61627451 7.5050278 -4.1875 4.75 C-3.39730469 3.85796875 -2.60710938 2.9659375 -1.79296875 2.046875 C-1.20128906 1.37140625 -0.60960937 0.6959375 0 0 Z " fill="#64882A" transform="translate(535,456)"/>
<path d="M0 0 C0.66 0.33 1.32 0.66 2 1 C-1.96 4.96 -5.92 8.92 -10 13 C-10.66 12.34 -11.32 11.68 -12 11 C-8.04 7.37 -4.08 3.74 0 0 Z " fill="#263214" transform="translate(584,547)"/>
<path d="M0 0 C0.66 0.33 1.32 0.66 2 1 C1.21625 1.721875 0.4325 2.44375 -0.375 3.1875 C-2.84412438 5.83299041 -3.93260278 7.60373611 -5 11 C-5.99 10.67 -6.98 10.34 -8 10 C-6.34908222 5.70761377 -3.26245434 3.1206085 0 0 Z " fill="#0C0F08" transform="translate(556,506)"/>
<path d="M0 0 C0.66 0.33 1.32 0.66 2 1 C0.50164772 5.66154042 -2.88463591 6.86610751 -7 9 C-6.8125 7.1875 -6.8125 7.1875 -6 5 C-3.5 3.375 -3.5 3.375 -1 2 C-0.67 1.34 -0.34 0.68 0 0 Z " fill="#B8D967" transform="translate(510,477)"/>
<path d="M0 0 C3.47775179 1.51553404 5.9557984 3.5773456 8.75 6.125 C9.94882812 7.21167969 9.94882812 7.21167969 11.171875 8.3203125 C11.77515625 8.87460937 12.3784375 9.42890625 13 10 C12.34 10.66 11.68 11.32 11 12 C9.16364422 10.19047409 7.33083792 8.37759362 5.5 6.5625 C4.97535156 6.04623047 4.45070313 5.52996094 3.91015625 4.99804688 C2.58775448 3.68423213 1.29164432 2.34406495 0 1 C0 0.67 0 0.34 0 0 Z " fill="#404E1C" transform="translate(435,544)"/>
<path d="M0 0 C3.81684226 1.55500981 6.19195732 4.03595495 9 7 C5 7 5 7 2.25 4.625 C0 2 0 2 0 0 Z " fill="#0A0B09" transform="translate(458,499)"/>
<path d="M0 0 C2.93879484 1.35236577 5.29232911 2.89942659 7.75 5 C8.67039062 5.7734375 8.67039062 5.7734375 9.609375 6.5625 C11 8 11 8 11 10 C7.81326038 8.59698853 5.67778594 6.92234929 3.25 4.4375 C2.63640625 3.81746094 2.0228125 3.19742187 1.390625 2.55859375 C0 1 0 1 0 0 Z " fill="#54662D" transform="translate(463,434)"/>
<path d="M0 0 C2.31 0 4.62 0 7 0 C6.38125 0.04125 5.7625 0.0825 5.125 0.125 C4.42375 0.41375 3.7225 0.7025 3 1 C1.6954344 3.99615946 1.6954344 3.99615946 1 7 C0.01 6.34 -0.98 5.68 -2 5 C-1.34 3.35 -0.68 1.7 0 0 Z " fill="#A4C944" transform="translate(487,517)"/>
<path d="M0 0 C3.7952131 1.49097658 5.61042731 3.75700849 8 7 C5 7 5 7 2.3125 4.625 C0 2 0 2 0 0 Z " fill="#A8C34F" transform="translate(394,606)"/>
<path d="M0 0 C0.99 0 1.98 0 3 0 C2.6875 2.375 2.6875 2.375 2 5 C1.01 5.66 0.02 6.32 -1 7 C-0.67 4.69 -0.34 2.38 0 0 Z " fill="#AFDB4C" transform="translate(485,615)"/>
<path d="M0 0 C0.66 0 1.32 0 2 0 C2.66 1.98 3.32 3.96 4 6 C2.68 6 1.36 6 0 6 C-0.38218767 4.34385343 -0.71395102 2.67542976 -1 1 C-0.67 0.67 -0.34 0.34 0 0 Z " fill="#9BC748" transform="translate(536,612)"/>
<path d="M0 0 C1.32 0 2.64 0 4 0 C3.6875 1.875 3.6875 1.875 3 4 C2.01 4.66 1.02 5.32 0 6 C0 4.02 0 2.04 0 0 Z " fill="#93B94D" transform="translate(518,565)"/>
<path d="M0 0 C2.31 1.98 4.62 3.96 7 6 C6.34 6.66 5.68 7.32 5 8 C2.5 5.6875 2.5 5.6875 0 3 C0 2.01 0 1.02 0 0 Z " fill="#94BD43" transform="translate(529,603)"/>
<path d="M0 0 C1.32 1.32 2.64 2.64 4 4 C2.68 5.32 1.36 6.64 0 8 C0 5.36 0 2.72 0 0 Z " fill="#A1C54A" transform="translate(484,528)"/>
<path d="M0 0 C0.99 0.99 1.98 1.98 3 3 C2.21625 3.309375 1.4325 3.61875 0.625 3.9375 C-1.92330128 4.92875038 -1.92330128 4.92875038 -4 6 C-4 5.01 -4 4.02 -4 3 C-2 1.3125 -2 1.3125 0 0 Z " fill="#B5D372" transform="translate(520,486)"/>
<path d="M0 0 C0.66 0.33 1.32 0.66 2 1 C-1.5 5.875 -1.5 5.875 -6 7 C-4.02 4.69 -2.04 2.38 0 0 Z " fill="#9ABF41" transform="translate(539,470)"/>
<path d="M0 0 C1.98 0 3.96 0 6 0 C4.69593116 2.01920337 3.36176581 4.01924973 2 6 C1.67 6 1.34 6 1 6 C0.67 4.02 0.34 2.04 0 0 Z " fill="#94B843" transform="translate(488,329)"/>
</svg>