<?xml version="1.0" encoding="UTF-8"?>
<svg xmlns="http://www.w3.org/2000/svg" version="1.0" width="1024.000000pt" height="1024.000000pt" viewBox="0 0 1024.000000 1024.000000" preserveAspectRatio="xMidYMid meet" style="background: transparent;">

<g transform="translate(0.000000,1024.000000) scale(0.100000,-0.100000)" fill="#2d8a4e" stroke="none">
<path d="M4860 7819 c-382 -41 -730 -180 -1037 -411 -53 -40 -120 -94 -147 -120 l-51 -46 60 14 c96 23 236 44 289 44 42 0 61 7 125 49 270 173 617 276 956 286 381 10 746 -83 1072 -276 84 -50 108 -60 139 -57 l38 3 -80 55 c-43 30 -137 85 -209 122 -149 77 -158 88 -20 24 103 -48 248 -133 294 -171 35 -30 91 -54 72 -31 -51 61 -387 246 -556 306 -105 37 -336 95 -418 105 -32 4 -60 11 -63 17 -3 5 5 7 18 4 12 -3 59 -8 103 -11 293 -23 692 -183 975 -391 47 -34 99 -66 115 -70 28 -7 27 -5 -18 34 -26 23 -64 54 -85 69 -20 15 -43 34 -51 41 -29 28 -134 94 -241 153 -220 119 -439 196 -701 245 -101 19 -454 27 -579 13z"/>
<path d="M5108 7203 c18 -2 45 -2 60 0 15 2 0 4 -33 4 -33 0 -45 -2 -27 -4z"/>
<path d="M4820 7180 c-47 -10 -96 -22 -109 -27 l-24 -9 28 -23 c16 -12 33 -20 39 -18 6 3 55 12 109 22 74 13 95 20 87 30 -13 16 -3 25 29 25 21 0 23 -2 11 -10 -12 -8 -10 -10 8 -10 13 0 20 4 17 10 -3 6 0 10 7 11 7 0 2 5 -11 10 -16 6 -35 6 -53 0 -17 -6 -28 -6 -28 0 0 12 -9 11 -110 -11z"/>
<path d="M5269 7199 c-10 -54 -8 -57 32 -63 21 -3 58 -9 81 -12 40 -6 42 -5 28 11 -13 15 -12 19 5 32 19 15 19 15 1 9 -11 -4 -22 -2 -25 3 -6 8 -120 27 -122 20z"/>
<path d="M3850 7174 c-47 -7 -91 -13 -98 -13 -7 -1 -12 -9 -10 -18 2 -13 -6 -19 -32 -23 -19 -3 -42 -2 -50 3 -20 11 -151 -38 -239 -90 -135 -81 -297 -258 -429 -470 -82 -133 -86 -167 -32 -276 58 -115 233 -298 307 -321 19 -6 30 3 70 56 26 34 68 85 93 112 51 56 171 158 178 151 2 -2 -16 -25 -42 -50 -63 -63 -220 -285 -219 -308 3 -36 46 -152 75 -204 65 -117 261 -237 434 -267 l32 -5 6 82 c11 121 68 369 82 354 2 -2 -3 -37 -11 -78 -17 -81 -27 -296 -16 -350 7 -35 14 -40 106 -81 34 -15 82 -54 149 -120 55 -54 102 -98 105 -98 3 0 12 -4 19 -8 35 -23 -73 -392 -177 -604 -60 -124 -53 -129 28 -18 100 136 178 314 221 505 12 55 27 111 32 125 l10 25 45 -50 c97 -108 110 -175 62 -320 -72 -218 -240 -399 -444 -480 -38 -15 -79 -32 -90 -38 -19 -10 -18 -11 10 -19 50 -13 154 9 241 52 68 33 96 55 170 133 49 51 105 121 124 155 19 34 38 62 41 62 4 0 9 -12 11 -27 3 -16 26 -120 50 -233 25 -113 62 -284 83 -380 44 -213 102 -392 156 -483 41 -68 127 -164 185 -204 l30 -22 57 45 c155 121 238 292 312 640 78 367 139 639 145 646 3 5 32 -28 64 -71 88 -121 200 -224 287 -266 74 -35 153 -55 215 -55 51 0 41 18 -23 46 -137 59 -187 90 -265 162 -89 84 -136 148 -195 267 -97 191 -88 279 40 403 l44 42 28 -117 c59 -253 155 -457 280 -597 35 -39 34 -37 -24 85 -71 149 -143 359 -168 488 l-17 94 24 15 c14 9 64 55 112 104 72 71 103 94 172 127 l84 40 7 55 c9 72 -2 254 -21 335 -8 35 -12 66 -10 68 3 3 16 -33 31 -79 27 -85 55 -243 55 -310 0 -34 3 -38 26 -38 14 0 60 12 102 26 170 57 294 146 349 251 32 61 63 156 63 194 0 22 -101 162 -202 281 -56 66 -60 78 -16 47 65 -47 162 -146 216 -221 59 -83 55 -81 121 -57 13 5 64 51 115 102 135 135 196 238 196 327 0 29 -17 65 -80 165 -44 71 -97 149 -117 174 -55 69 -165 181 -174 175 -4 -2 -11 1 -15 7 -4 8 -3 9 4 5 7 -4 12 -5 12 -3 0 10 -137 106 -193 135 -44 24 -63 29 -85 23 -28 -8 -61 12 -54 33 2 4 -4 6 -12 3 -8 -3 -16 -2 -18 2 -2 4 -16 11 -33 15 -22 5 -26 4 -15 -4 12 -8 12 -10 1 -10 -8 0 -19 7 -25 15 -13 18 -184 46 -271 43 -60 -1 -60 -1 -15 -7 l45 -7 -40 -6 c-63 -10 -125 -10 -125 1 0 5 6 12 13 15 21 10 -184 -5 -273 -20 -47 -8 -110 -22 -140 -30 -47 -14 -82 -21 -114 -23 -5 -1 -3 -7 3 -14 6 -8 7 -18 3 -22 -4 -5 -2 -5 5 -2 18 11 41 -3 37 -21 -3 -12 18 -32 65 -66 38 -26 73 -48 78 -48 12 0 33 -19 29 -27 -2 -3 8 -21 23 -39 l27 -33 49 24 c61 30 213 67 286 68 48 1 50 2 19 8 -34 7 -35 7 -8 12 18 4 32 1 39 -7 7 -9 33 -14 73 -14 71 0 290 -35 314 -51 13 -8 7 -9 -22 -4 -51 8 -249 9 -275 0 -12 -3 -21 -12 -21 -20 0 -8 -9 -17 -20 -20 -28 -9 -25 -25 5 -25 30 0 30 -3 8 -30 -19 -22 -39 -26 -45 -9 -3 8 -19 5 -51 -9 -55 -24 -108 -60 -104 -70 1 -4 -1 -7 -4 -7 -15 0 -48 -38 -42 -48 3 -5 1 -7 -4 -4 -6 4 -16 1 -22 -7 -15 -18 5 -26 67 -26 26 0 66 -5 90 -10 47 -11 185 -70 178 -77 -2 -2 -28 3 -57 11 -86 24 -198 39 -276 38 -40 0 -73 1 -73 4 0 3 18 32 40 65 43 62 125 135 173 151 31 11 34 20 12 38 -12 10 -23 8 -58 -15 -70 -46 -133 -102 -173 -155 -41 -53 -54 -52 -54 7 0 52 -14 46 -39 -18 -20 -48 -23 -69 -18 -117 l6 -59 -42 15 c-75 27 -174 -3 -216 -67 -13 -21 -10 -20 31 9 36 26 58 33 109 37 57 4 70 2 119 -24 138 -73 156 -233 46 -423 -54 -95 -73 -151 -87 -270 -6 -52 -20 -119 -31 -149 l-20 -53 -24 28 c-42 50 -104 186 -110 239 -4 38 0 66 18 115 21 57 26 65 55 71 47 9 83 36 98 74 8 18 21 35 30 38 32 13 13 27 -37 27 -64 0 -106 -23 -138 -74 -28 -47 -35 -41 -15 13 31 88 76 127 164 140 l46 7 -34 18 c-44 24 -112 15 -157 -19 -18 -14 -47 -54 -64 -88 -40 -82 -53 -174 -40 -281 10 -84 15 -96 145 -343 35 -66 49 -106 53 -145 4 -49 1 -57 -34 -104 -22 -28 -56 -70 -76 -94 l-38 -44 -1 90 -1 89 -14 -100 c-19 -135 -20 -136 -53 -83 -114 180 -443 254 -666 149 -82 -39 -140 -83 -177 -136 -18 -25 -35 -42 -39 -38 -10 10 -29 125 -30 183 -2 72 -17 9 -18 -75 l-1 -69 -45 49 c-24 28 -56 73 -71 102 -26 51 -26 52 -9 115 9 35 46 118 85 188 90 162 101 195 107 313 7 123 -12 202 -65 272 -62 81 -138 105 -211 66 l-34 -18 49 -5 c101 -10 168 -71 180 -165 l5 -38 -20 35 c-37 66 -64 84 -139 88 -61 3 -65 2 -48 -12 10 -9 27 -34 37 -56 15 -34 28 -46 69 -63 43 -18 52 -27 67 -66 9 -26 20 -50 25 -56 4 -5 8 -31 8 -57 0 -55 -36 -143 -93 -228 l-36 -54 -21 50 c-14 30 -27 96 -35 172 -12 100 -19 133 -41 170 -69 120 -84 152 -99 207 -23 89 -20 144 13 206 68 131 203 157 329 62 l37 -28 -22 32 c-12 17 -38 41 -57 53 -42 26 -141 38 -173 21 -21 -11 -22 -11 -16 48 6 54 3 66 -27 128 l-33 68 -5 -62 c-4 -34 -9 -64 -12 -68 -4 -3 -23 17 -43 44 -44 59 -125 133 -137 125 -11 -7 9 -45 32 -62 22 -15 109 -121 109 -131 0 -5 -55 -11 -122 -14 -71 -3 -159 -15 -207 -27 -46 -11 -86 -19 -88 -16 -5 5 138 60 192 74 22 6 68 13 103 17 52 6 61 9 51 21 -6 8 -15 12 -19 9 -8 -5 -35 22 -35 34 1 11 -50 48 -101 74 -60 30 -119 43 -128 28 -10 -15 -66 15 -66 34 0 14 4 17 33 19 15 1 37 21 37 34 0 6 -7 13 -16 16 -24 9 -254 7 -296 -3 -21 -5 -36 -5 -33 -1 12 20 256 60 365 60 57 0 68 3 64 15 -4 9 1 18 11 21 9 4 14 13 11 21 -3 8 -1 11 4 8 6 -3 10 -1 10 5 0 6 5 8 10 5 6 -3 10 1 10 9 0 9 6 16 14 16 8 0 17 6 19 13 4 10 6 10 6 0 1 -21 18 -15 24 8 4 13 10 18 18 13 8 -5 10 -3 4 6 -10 16 15 32 30 20 8 -6 19 -4 31 6 10 8 12 12 4 8 -12 -6 -13 -5 -3 7 8 10 23 14 44 11 38 -6 93 -32 67 -32 -9 0 -24 -7 -33 -16 -9 -9 -27 -16 -41 -16 -13 0 -27 -5 -31 -11 -3 -5 -1 -7 4 -4 6 4 14 0 17 -9 3 -8 2 -12 -4 -9 -6 3 -13 0 -16 -9 -3 -8 -11 -13 -18 -10 -13 5 -53 -44 -48 -58 1 -5 -3 -8 -8 -8 -5 0 -10 -4 -10 -9 0 -4 28 -16 63 -25 34 -9 89 -28 122 -42 l60 -24 27 32 c14 18 24 36 22 39 -2 4 4 13 13 20 9 8 17 12 17 9 2 -11 116 84 116 96 0 8 -3 13 -7 13 -37 -6 -28 6 22 30 59 29 59 30 -7 31 -12 1 -25 5 -29 11 -3 6 -37 15 -75 21 -38 5 -86 15 -106 20 -20 6 -46 8 -57 5 -11 -2 -22 0 -23 5 -2 6 -73 11 -168 13 -99 2 -147 0 -120 -4 l45 -8 -38 -1 c-21 -1 -46 2 -55 6 -10 5 -55 3 -102 -4z m371 -491 c13 -16 12 -17 -3 -4 -10 7 -18 15 -18 17 0 8 8 3 21 -13z m300 -614 c21 -39 -19 -54 -45 -17 -11 15 -12 25 -5 34 13 16 36 8 50 -17z m1236 -13 c-18 -26 -57 -34 -57 -12 0 9 9 25 21 37 16 16 23 18 35 8 12 -10 13 -15 1 -33z m-488 -811 c35 -9 95 -32 132 -51 72 -38 159 -121 159 -152 0 -20 -48 -211 -57 -225 -3 -5 -19 5 -37 21 -90 86 -210 132 -345 132 -138 0 -248 -37 -340 -117 -22 -18 -41 -33 -44 -33 -3 0 -19 52 -37 115 l-31 115 20 29 c54 75 164 140 282 166 86 18 220 18 298 0z m-39 -326 c84 -19 175 -59 219 -97 l44 -38 -33 -120 c-18 -65 -34 -121 -36 -123 -2 -3 -10 3 -17 12 -23 31 -126 84 -187 97 -121 26 -270 -2 -365 -68 l-40 -28 -37 115 -38 116 33 28 c104 90 314 139 457 106z m60 -331 c30 -10 71 -30 92 -43 l36 -24 -28 -111 c-16 -61 -30 -114 -33 -116 -2 -2 -30 8 -63 22 -104 47 -273 44 -375 -5 -29 -14 -41 -16 -44 -8 -7 18 -55 211 -55 219 0 23 137 77 235 91 53 8 178 -5 235 -25z m-26 -297 c37 -10 73 -24 78 -29 8 -8 0 -62 -26 -181 -20 -93 -36 -171 -36 -173 0 -2 -66 -5 -147 -6 -86 -2 -151 -8 -154 -14 -4 -7 -9 -7 -13 0 -6 11 -36 131 -36 149 0 27 161 45 270 31 l55 -8 -40 22 c-52 28 -148 28 -228 1 -40 -14 -60 -17 -63 -9 -19 53 -42 182 -34 190 19 19 147 45 225 45 50 1 106 -6 149 -18z"/>
<path d="M5450 7161 c0 -5 9 -11 21 -14 16 -4 18 -3 8 9 -13 16 -29 19 -29 5z"/>
<path d="M5091 7150 c-7 -4 1 -7 18 -8 17 0 31 1 31 3 0 7 -39 12 -49 5z"/>
<path d="M5525 7120 c4 -6 10 -8 15 -5 5 3 11 1 15 -5 3 -5 0 -10 -7 -11 -12 0 18 -17 34 -18 17 -2 -6 38 -25 43 -32 8 -39 7 -32 -4z"/>
<path d="M4045 6801 c64 -30 77 -32 51 -6 -9 9 -16 14 -16 11 0 -4 -16 1 -36 9 -63 26 -62 15 1 -14z"/>
<path d="M3021 5948 c-131 -836 229 -1643 939 -2107 243 -158 511 -262 817 -315 l31 -5 -38 77 c-21 42 -42 89 -45 104 -9 36 -17 41 -105 62 -173 42 -404 146 -565 254 -495 332 -794 843 -846 1442 -10 123 -7 298 7 376 5 27 1 33 -38 59 -24 16 -66 50 -94 77 l-51 48 -12 -72z m56 -770 c-3 -8 -6 -5 -6 6 -1 11 2 17 5 13 3 -3 4 -12 1 -19z m96 -300 c194 -499 576 -903 1092 -1155 72 -35 119 -61 105 -57 -14 3 -90 37 -170 76 -553 265 -941 726 -1095 1301 -34 124 -31 146 4 27 15 -52 44 -139 64 -192z"/>
<path d="M7184 5954 c24 -177 16 -516 -15 -679 -35 -180 -49 -194 -18 -19 26 154 35 385 20 539 -7 66 -14 130 -17 142 -6 22 -6 22 -43 -8 l-38 -30 9 -57 c15 -89 4 -461 -17 -572 -72 -395 -255 -748 -534 -1029 -125 -127 -310 -270 -421 -326 -50 -25 -39 -16 80 63 426 284 722 731 820 1240 34 177 45 422 26 586 -12 103 -24 65 -14 -44 17 -190 -11 -474 -68 -675 -70 -250 -189 -478 -353 -679 -85 -104 -263 -271 -369 -346 -174 -123 -401 -233 -592 -285 -52 -14 -101 -29 -108 -33 -8 -4 -26 -40 -42 -80 -15 -40 -36 -84 -45 -98 -9 -14 -14 -28 -11 -32 10 -10 217 38 344 80 153 51 365 154 502 245 498 330 828 841 927 1433 30 186 17 684 -20 707 -7 4 -8 -10 -3 -43z"/>
<path d="M5751 5926 c-19 -19 -28 -36 -23 -40 6 -3 19 6 30 21 43 63 41 69 -7 19z"/>
<path d="M4440 5946 c0 -2 8 -10 18 -17 15 -13 16 -12 3 4 -13 16 -21 21 -21 13z"/>
<path d="M4991 5914 c-36 -8 -89 -25 -119 -40 -58 -29 -65 -44 -9 -20 151 63 337 60 532 -9 11 -3 2 5 -19 19 -92 59 -245 78 -385 50z"/>
<path d="M5000 5634 c-126 -24 -249 -98 -313 -188 -19 -27 -16 -26 28 12 108 95 249 137 435 129 144 -5 225 -31 333 -104 l78 -53 -33 40 c-44 55 -136 115 -217 141 -65 22 -247 35 -311 23z"/>
</g>
</svg>