<?xml version="1.0" encoding="UTF-8"?>
<svg xmlns="http://www.w3.org/2000/svg" version="1.1" width="1024" height="1024" style="background: transparent;">

<path d="M0 0 C4.36222939 1.42611345 5.65537 2.36817834 7.875 6.4375 C9 10 9 10 9 14 C9.88751953 13.73123047 9.88751953 13.73123047 10.79296875 13.45703125 C17.16985101 11.74057844 17.16985101 11.74057844 21 12.9375 C23.75008613 15.77352632 23.78150909 18.13999392 24 22 C25.17755859 21.3503125 25.17755859 21.3503125 26.37890625 20.6875 C37.22376592 14.93905905 37.22376592 14.93905905 43 16 C46.09083103 17.30501754 47.55507243 18.31238467 49.375 21.125 C50.36440174 25.67624799 50.10795715 30.78408571 48 35 C47.34 35 46.68 35 46 35 C45.74930087 37.37429296 45.74930087 37.37429296 46 40 C47.45833358 41.62514468 47.45833358 41.62514468 49 43 C49 43.99 49 44.98 49 46 C49.61746094 45.77183594 50.23492188 45.54367187 50.87109375 45.30859375 C56.91444106 43.25735106 61.73843182 42.54256603 68 44 C68.66 44.33 69.32 44.66 70 45 C70 45.66 70 46.32 70 47 C70.61875 47.226875 71.2375 47.45375 71.875 47.6875 C74 49 74 49 75.375 51 C76.59340422 56.84834025 74.82187616 62.82257467 72 68 C73.093125 68.103125 74.18625 68.20625 75.3125 68.3125 C79 69 79 69 80.9375 70.125 C82.60187386 73.06213035 82.24401904 75.70574299 82 79 C81.67 79.33 81.34 79.66 81 80 C80.95919217 81.99958364 80.95745644 84.00045254 81 86 C81.61488281 86.01417969 82.22976563 86.02835937 82.86328125 86.04296875 C89.46401426 86.43248569 89.46401426 86.43248569 92.125 89.25 C93.10321851 92.32440103 92.95752917 93.95331629 92 97 C92.70125 97.20625 93.4025 97.4125 94.125 97.625 C97.90804887 99.43428424 100.59716664 101.54022411 103 105 C104.24614908 108.70222197 104.24461937 111.99928438 103.3125 115.8125 C101.72763771 118.45393715 100.77411287 119.61294357 98 121 C95.27971675 121.23971845 92.74123593 121.1370618 90 121 C90.33 121.66 90.66 122.32 91 123 C91.12005453 124.49649362 91.17531451 125.99874793 91.1875 127.5 C91.20167969 128.2940625 91.21585938 129.088125 91.23046875 129.90625 C91 132 91 132 89 134 C86.3984375 134.1953125 86.3984375 134.1953125 83.375 134.125 C82.37210938 134.10695313 81.36921875 134.08890625 80.3359375 134.0703125 C79.56507813 134.04710937 78.79421875 134.02390625 78 134 C77.72671875 134.64066406 77.4534375 135.28132812 77.171875 135.94140625 C76 138 76 138 73.25 138.9375 C69.19220495 139.01553452 67.40449688 138.19873757 64 136 C63.00524133 134.93096602 62.0264433 133.84690099 61.0625 132.75 C58.7234076 130.33273742 58.41576234 130.01663049 54.875 129.875 C53.05345958 130.29647352 53.05345958 130.29647352 51 131 C50.00742187 131.32355469 49.01484375 131.64710938 47.9921875 131.98046875 C45.87826666 132.685958 43.77094289 133.41163077 41.671875 134.16015625 C39 135 39 135 36 135 C35.67 135.99 35.34 136.98 35 138 C32 140 32 140 29 140 C28.76667969 140.58265625 28.53335937 141.1653125 28.29296875 141.765625 C26.69380901 144.52912764 24.87281205 145.85231083 22.3125 147.75 C16.96717615 151.89456269 11.19589764 156.41230709 9 163 C8.2069171 172.1967113 9.15459378 182.19096419 12 191 C12.22792236 191.73541016 12.45584473 192.47082031 12.69067383 193.22851562 C13.84295316 195.84598149 14.73707947 197.22574271 17 199 C22.10182013 200.14724185 27.11895095 200.07543368 32.3125 200 C33.73505127 200.00809648 35.15758694 200.01977797 36.58007812 200.03515625 C40.05417145 200.06492644 43.52598571 200.04566482 47 200 C47.18828369 199.3702124 47.37656738 198.7404248 47.57055664 198.09155273 C48.78141974 194.04735367 49.99468553 190.00451463 51.24609375 185.97265625 C55.04318551 173.6008305 58.54383847 160.87415695 59.625 147.9375 C60 144 60 144 62 142 C62.886875 142.680625 63.77375 143.36125 64.6875 144.0625 C70.11996386 147.26136818 76.02897727 145.7585795 82 145 C81.50268889 154.11485388 80.30644133 162.88047217 78.4375 171.8125 C78.17501465 173.06716064 77.9125293 174.32182129 77.64208984 175.61450195 C73.59419681 194.19651584 67.32542038 211.91562351 59 229 C58.47164551 230.10142334 58.47164551 230.10142334 57.93261719 231.22509766 C48.63829219 250.40550564 36.87537446 268.75461041 22.41064453 284.44897461 C20.80891397 286.21010203 19.2602203 288.01235162 17.70703125 289.81640625 C7.85233959 301.10150955 -2.9647857 312.04503844 -15 321 C-15.65967773 321.49306641 -16.31935547 321.98613281 -16.99902344 322.49414062 C-41.67137467 340.85951995 -68.09821846 354.85022735 -97.75048828 363.35058594 C-99.1930459 363.76703952 -100.6320091 364.19627983 -102.06591797 364.64160156 C-136.84686849 375.39719077 -176.95821899 363.88277683 -208.41796875 347.9765625 C-217.61282139 343.06447877 -229.55257432 335.34227705 -233 325 C-233.83904659 316.48574032 -232.7788978 310.60580955 -227.33984375 303.9765625 C-222.25552859 298.52684481 -216.35589974 294.80609516 -210 291 C-208.60333479 290.08460131 -207.20741302 289.16806652 -205.8125 288.25 C-202.70867789 286.31873291 -199.64949535 284.98608426 -196.203125 283.7890625 C-193.75491091 282.91221986 -191.389235 281.90195188 -189 280.875 C-175.8313547 275.37314325 -162.40559836 270.50064219 -148.91796875 265.84375 C-112.23371032 255.42243181 -112.23371032 255.42243181 -83.0625 233.1875 C-81.75388556 229.26165667 -81.52432676 225.85945308 -83 222 C-86.82218444 216.25916961 -91.08241589 214.0711634 -97.375 211.5 C-98.28024414 211.11908203 -99.18548828 210.73816406 -100.11816406 210.34570312 C-109.8416986 206.4057947 -119.89893684 203.85940719 -130.10839844 201.52148438 C-132 201 -132 201 -133 200 C-138.29434221 199.07056411 -143.57482179 198.71781137 -148.9375 198.4375 C-150.10635742 198.37272461 -150.10635742 198.37272461 -151.29882812 198.30664062 C-153.19907117 198.20171923 -155.09951669 198.1004755 -157 198 C-154.91034432 193.519477 -151.8433549 190.72429634 -148.24609375 187.359375 C-138.53136559 178.0175354 -131.8089363 167.67246222 -125 156 C-166.58 155.505 -166.58 155.505 -209 155 C-204.5243441 164.32406248 -204.5243441 164.32406248 -199 173 C-195.81176656 173.64597413 -195.81176656 173.64597413 -192.14453125 173.609375 C-191.48289474 173.62591125 -190.82125824 173.64244751 -190.13957214 173.65948486 C-188.03045399 173.70799288 -185.92205677 173.72933927 -183.8125 173.75 C-182.38082305 173.77815777 -180.94917972 173.80808495 -179.51757812 173.83984375 C-176.01187607 173.91374893 -172.50631125 173.96330788 -169 174 C-169 175.98 -169 177.96 -169 180 C-176.92 180 -184.84 180 -193 180 C-188.32851938 186.37960274 -188.32851938 186.37960274 -183.125 191.9375 C-182.06771556 192.94214907 -181.02067928 193.95818239 -180 195 C-180 195.33 -180 195.66 -180 196 C-193.365 196.495 -193.365 196.495 -207 197 C-207.33 196.01 -207.66 195.02 -208 194 C-208.66 194 -209.32 194 -210 194 C-221.48527442 182.05639303 -231.51854476 166.01104395 -231.26953125 149.078125 C-230.26663245 137.62473005 -224.5780014 127.78858013 -219 118 C-218.67 118 -218.34 118 -218 118 C-217.67 119.65 -217.34 121.3 -217 123 C-192.745 123.495 -192.745 123.495 -168 124 C-168 125.98 -168 127.96 -168 130 C-183.84 130 -199.68 130 -216 130 C-214.80801643 139.27180752 -214.80801643 139.27180752 -212 148 C-181.97 148.33 -151.94 148.66 -121 149 C-120.67 147.68 -120.34 146.36 -120 145 C-119.31547018 142.41583121 -118.62828059 139.83249423 -117.9375 137.25 C-117.75123047 136.55261719 -117.56496094 135.85523438 -117.37304688 135.13671875 C-116.91564761 133.42440354 -116.45786215 131.7121915 -116 130 C-112.9496869 132.7689425 -111.26560373 135.08825788 -109.8125 138.9375 C-109.48894531 139.77152344 -109.16539062 140.60554687 -108.83203125 141.46484375 C-105.31870501 152.16976738 -105.38749344 164.98118333 -110.31640625 175.16015625 C-113.45355916 180.45182716 -117.09916394 185.25231577 -121 190 C-121.68191406 190.8353125 -122.36382813 191.670625 -123.06640625 192.53125 C-126.43622002 196.52718783 -126.43622002 196.52718783 -128 198 C-128.66 198 -129.32 198 -130 198 C-130 198.66 -130 199.32 -130 200 C-73.57 199.505 -73.57 199.505 -16 199 C-13.17384058 189.81498187 -10.8254259 181.16164543 -9.13476562 171.79907227 C-8.75167281 169.69668031 -8.34523606 167.59968653 -7.9375 165.50195312 C-5.74462594 153.79409814 -4.04830031 141.13438853 -7.85546875 129.6015625 C-9.52514434 127.26515638 -11.29205418 126.93200303 -14 126 C-15.26375023 125.45861206 -16.52253763 124.90555703 -17.77734375 124.34375 C-18.45603516 124.04339844 -19.13472656 123.74304688 -19.83398438 123.43359375 C-21.23306546 122.81264597 -22.63150747 122.19025623 -24.02929688 121.56640625 C-27.96700101 119.82709807 -31.88497088 118.28795904 -36 117 C-36.37125 117.495 -36.7425 117.99 -37.125 118.5 C-39 120 -39 120 -42 120.375 C-45 120 -45 120 -46.875 118.5 C-47.431875 117.7575 -47.431875 117.7575 -48 117 C-48.53625 117.639375 -49.0725 118.27875 -49.625 118.9375 C-52 121 -52 121 -55.125 121.4375 C-56.07375 121.623125 -57.0225 121.80875 -58 122 C-59.16953416 124.42383077 -59.16953416 124.42383077 -60 127 C-63.35436843 129.60895322 -66.89522792 129.36649751 -71 129 C-73.4375 127.8125 -73.4375 127.8125 -75 126 C-75.25 123.3125 -75.25 123.3125 -75 121 C-75.94875 120.87625 -76.8975 120.7525 -77.875 120.625 C-81 120 -81 120 -83 118 C-83.30078125 115.94140625 -83.30078125 115.94140625 -83.3125 113.5625 C-83.32925781 112.78003906 -83.34601563 111.99757813 -83.36328125 111.19140625 C-82.91868615 108.50949386 -82.1442358 107.62252392 -80 106 C-79.34 106 -78.68 106 -78 106 C-78 105.34 -78 104.68 -78 104 C-78.66 104 -79.32 104 -80 104 C-81.61649666 100.76700668 -81.57025791 97.49534557 -81 94 C-78.95109868 90.95969482 -77.38517252 89.38203157 -73.8046875 88.39453125 C-72.23522156 88.09151555 -70.66354728 87.79970808 -69.08984375 87.51953125 C-66.11616882 86.78028122 -64.74641867 85.47409311 -63 83 C-62.2127322 80.8618034 -62.2127322 80.8618034 -62 79 C-62.99 79.495 -62.99 79.495 -64 80 C-71.77591973 80.90005902 -71.77591973 80.90005902 -75.125 78.4375 C-76.41121963 74.85445961 -76.0243603 72.64928359 -75 69 C-72.5625 66.0625 -72.5625 66.0625 -70 64 C-69.34 64 -68.68 64 -68 64 C-68.33 63.29875 -68.66 62.5975 -69 61.875 C-70.14269902 58.58974033 -70.51368804 56.44904829 -70 53 C-68.125 50.625 -68.125 50.625 -65 49 C-62.33246839 48.78114679 -59.78110596 48.81079746 -57.109375 48.95703125 C-56.41328125 48.97121094 -55.7171875 48.98539062 -55 49 C-54.67 48.67 -54.34 48.34 -54 48 C-51.30917128 48.17635452 -48.67148554 48.61835921 -46 49 C-46 47.35 -46 45.7 -46 44 C-47.1446875 43.9071875 -47.1446875 43.9071875 -48.3125 43.8125 C-51 43 -51 43 -52.875 40.75 C-54.18384961 37.55058985 -54.10602712 36.23300236 -53 33 C-52.34 32.01 -51.68 31.02 -51 30 C-50.69161092 27.62213936 -50.69161092 27.62213936 -50.625 25.0625 C-50.33611826 21.87082269 -50.10949802 20.19162153 -48.5 17.375 C-44.71770628 15.29473845 -41.22009925 15.33565522 -37 16 C-34.125 17.5625 -34.125 17.5625 -32 19 C-28.91202978 18.3530435 -28.91202978 18.3530435 -28 16.125 C-27.67 15.42375 -27.34 14.7225 -27 14 C-25.73046875 12.31640625 -25.73046875 12.31640625 -24 11 C-21.73828125 11.14453125 -21.73828125 11.14453125 -19.3125 11.8125 C-18.50425781 12.02519531 -17.69601562 12.23789062 -16.86328125 12.45703125 C-16.24839844 12.63621094 -15.63351562 12.81539063 -15 13 C-14.979375 12.154375 -14.95875 11.30875 -14.9375 10.4375 C-12.94004739 3.11350709 -7.73356735 -1.40610315 0 0 Z " fill="#2A552D" transform="translate(691,387)"/>
<path d="M0 0 C3.97545128 1.8354568 6.14114839 4.88137101 7.875 8.8125 C8.431875 10.3903125 8.431875 10.3903125 9 12 C9.88751953 11.78730469 9.88751953 11.78730469 10.79296875 11.5703125 C17.11121811 10.39530365 17.11121811 10.39530365 19.7109375 12.1640625 C21.97450922 14.82016111 23 16.47852357 23 20 C23.94875 19.34 24.8975 18.68 25.875 18 C30.27646167 15.48487904 35.04651185 14.82224757 40 16 C42.26950901 18.16522085 42.93798611 19.4542778 43.29296875 22.578125 C43.25816406 23.45984375 43.22335937 24.3415625 43.1875 25.25 C43.14689453 26.58804687 43.14689453 26.58804687 43.10546875 27.953125 C43.07066406 28.62859375 43.03585937 29.3040625 43 30 C43.99 30.33 44.98 30.66 46 31 C46.66626598 34.02788201 47.12464649 36.89422506 47 40 C44.8125 43.0625 44.8125 43.0625 42 45 C40.68 45 39.36 45 38 45 C38.33 46.32 38.66 47.64 39 49 C40.0725 48.79375 41.145 48.5875 42.25 48.375 C45.87619096 48.0123809 47.08291076 48.01637931 50 50 C50.99 49.34 51.98 48.68 53 48 C55.4375 47.625 55.4375 47.625 58 48 C60.1640625 49.65234375 60.1640625 49.65234375 62 52 C62.21484375 54.83984375 62.21484375 54.83984375 61.9375 57.9375 C61.67281963 62.08660967 61.67281963 62.08660967 63.0625 65.859375 C64.55363796 67.36694409 64.55363796 67.36694409 67 69 C68 70 68 70 68.25 72.8125 C68 76 68 76 67.0625 78.375 C63.73685476 80.99520534 60.0782683 80.30779383 56 80 C56.37904208 83.29075996 56.37904208 83.29075996 58 86 C59.55914517 86.27013438 61.12251331 86.51607075 62.6875 86.75 C67.88603686 87.77926555 70.59407975 88.87704391 74 93 C74.78735313 96.60035113 74.70537184 99.83613647 72.75 103.0625 C72.37875 104.0215625 72.37875 104.0215625 72 105 C73.00759457 106.72266169 74.02145793 108.4429447 75.1015625 110.12109375 C76.58305466 113.21934475 75.83488921 115.78888767 75 119 C74 120 74 120 71.4375 120.0625 C70.633125 120.041875 69.82875 120.02125 69 120 C69.1546875 121.11375 69.1546875 121.11375 69.3125 122.25 C69 125 69 125 66.875 127.3125 C63.4923756 129.29795345 61.85968795 129.56287116 58 129 C55.12160239 127.62933447 53.21786818 126.22467657 51 123.9375 C49.09743402 121.83946536 49.09743402 121.83946536 46.375 121 C44 120 44 120 42.6875 117.875 C42.3471875 116.946875 42.3471875 116.946875 42 116 C41.34 116 40.68 116 40 116 C40 116.66 40 117.32 40 118 C37.21084611 119.39457694 35.09726736 119.1821922 32 119 C31.2575 118.60296875 30.515 118.2059375 29.75 117.796875 C25.78617377 116.64826626 23.28507945 118.24809048 19.8125 120.0625 C19.15411133 120.3917749 18.49572266 120.7210498 17.81738281 121.06030273 C16.49239254 121.72392951 15.17054004 122.39386163 13.85205078 123.0703125 C12.22549317 123.88680754 10.565815 124.63661175 8.90234375 125.375 C7.58943359 125.9628125 7.58943359 125.9628125 6.25 126.5625 C5.49203125 126.89378906 4.7340625 127.22507812 3.953125 127.56640625 C1.05148559 129.69620958 0.23116938 131.61619595 -1 135 C-1.42074581 138.26041221 -1.42633138 141.46629228 -1.375 144.75 C-1.36702393 145.67449951 -1.35904785 146.59899902 -1.35083008 147.55151367 C-1.18284751 155.82802192 -0.04868551 163.75263996 1.58105469 171.85351562 C2.00332341 174.01702763 2.3717936 176.18385001 2.7265625 178.359375 C2.96324317 179.76046712 3.20021027 181.1615109 3.4375 182.5625 C3.64246094 183.78066406 3.84742188 184.99882813 4.05859375 186.25390625 C4.83821089 189.35620019 5.74616216 191.84941409 7.05883789 194.73413086 C7.42159317 195.53564072 7.78434845 196.33715057 8.15809631 197.16294861 C8.43592453 197.76917557 8.71375275 198.37540253 9 199 C10.28641388 199.00364563 11.57282776 199.00729126 12.89822388 199.01104736 C25.16228831 199.04836949 37.42611022 199.10653611 49.68998909 199.18390274 C55.9914144 199.22301799 62.29270745 199.2553793 68.59423828 199.27099609 C122.33234456 199.41376929 122.33234456 199.41376929 147 204 C148.85935242 204.32513935 150.7188043 204.64971056 152.57836914 204.97363281 C160.78576849 206.41761537 168.59462766 208.6917818 176.4375 211.5 C177.63765747 211.92696167 177.63765747 211.92696167 178.86206055 212.36254883 C183.0265397 213.94093729 186.23958031 215.33617023 189 219 C189.625 222.4375 189.625 222.4375 189 226 C181.0807641 235.50308308 165.53572833 237.18385906 154.03759766 239.56347656 C151.37913921 240.13300972 148.75406932 240.80833537 146.125 241.5 C139.89581291 243.09432341 133.60033922 244.32297997 127.29150391 245.5546875 C117.20516658 247.52509765 107.22735689 249.87690889 97.25341797 252.34912109 C95.8386789 252.69866777 94.42331344 253.04568926 93.00732422 253.39013672 C85.27189056 255.27240763 77.70810794 257.30021365 70.2578125 260.14697266 C67.52469622 261.1795752 64.75305193 261.97384223 61.9375 262.75 C42.75785738 268.59717456 19.30579853 278.4464983 9.1875 296.6484375 C5.18958089 304.56536941 5.80237104 311.46689366 7 320 C-9.28225514 309.59081636 -24.40487831 293.31832591 -36 278 C-36.62285889 277.19175781 -36.62285889 277.19175781 -37.25830078 276.3671875 C-64.89219842 240.42196446 -90.05764387 191.41190177 -89 145 C-88.319375 145.165 -87.63875 145.33 -86.9375 145.5 C-81.62222534 146.4047276 -77.34775665 146.25288235 -72.265625 144.484375 C-71.06341309 144.07010254 -71.06341309 144.07010254 -69.83691406 143.64746094 C-69.23073242 143.43379883 -68.62455078 143.22013672 -68 143 C-67.65388672 144.90845703 -67.65388672 144.90845703 -67.30078125 146.85546875 C-65.56978405 156.25733631 -63.72682665 165.62493855 -61.5625 174.9375 C-61.38178955 175.73889404 -61.2010791 176.54028809 -61.01489258 177.3659668 C-59.22506039 184.89179588 -56.65283069 191.57207407 -54 199 C-44.1 199 -34.2 199 -24 199 C-18.10420847 187.20841693 -14.011643 172.99339055 -18 159.75 C-20.16729661 154.88584109 -23.84302731 152.1689386 -28 149 C-29.23205523 148.02379633 -30.46379994 147.04720068 -31.6953125 146.0703125 C-45.68441867 135.11923062 -45.68441867 135.11923062 -62.59765625 130.5859375 C-66.53075679 131.26383776 -68.84534465 133.73809472 -71.76171875 136.328125 C-74.8028751 138.59970426 -77.34380083 138.98779577 -81.0546875 139.3203125 C-83.56485431 138.90699186 -84.23283569 137.76716431 -86 136 C-88.14280359 135.57262965 -88.14280359 135.57262965 -90.4375 135.5625 C-93.51186703 135.29211593 -94.87124306 135.07851033 -97.5625 133.4375 C-99.71009293 129.79592939 -99.33853316 127.19781124 -99 123 C-98.505 122.01 -98.505 122.01 -98 121 C-99.051875 121.0825 -100.10375 121.165 -101.1875 121.25 C-105 121 -105 121 -107.875 119.5 C-110.20122133 116.76326902 -110.96765697 114.68546205 -111.1953125 111.08984375 C-110.85128177 107.40871495 -109.37688582 104.78596409 -107 102 C-101.87179487 98 -101.87179487 98 -99 98 C-99.4021875 96.14375 -99.4021875 96.14375 -99.8125 94.25 C-100.21233551 90.88422046 -100.25522247 90.34029663 -98.125 87.5 C-93.97357321 85.50731514 -90.52279307 85.64527113 -86 86 C-86.7425 84.4840625 -86.7425 84.4840625 -87.5 82.9375 C-89.09663369 79.14549498 -89.62469482 76.13860317 -89 72 C-86.29553168 69.14528344 -83.90790955 67.57894956 -80 67 C-80.495 66.195625 -80.99 65.39125 -81.5 64.5625 C-83.34705349 60.17574796 -83.63332086 56.69351484 -83 52 C-81.23507068 47.72701322 -79.07709545 46.05009757 -75 44 C-68.86616547 43.23223875 -62.70357743 43.4650767 -57 46 C-55.79371992 43.66785852 -54.8345262 41.50357861 -54 39 C-54.75799882 37.31922001 -55.51668202 35.63873946 -56.28125 33.9609375 C-57.58022835 30.41698569 -57.41912405 27.77211648 -57 24 C-55.37609951 20.86819191 -53.99733974 18.75660256 -51.1875 16.625 C-45.15450769 14.90128791 -40.91170068 16.16725002 -35.6015625 19.02734375 C-34 20 -34 20 -33 21 C-32.566875 19.88625 -32.13375 18.7725 -31.6875 17.625 C-30 14 -30 14 -27 12 C-23.55228179 11.97951851 -20.10074594 12.44962703 -17 14 C-16.9175 12.783125 -16.835 11.56625 -16.75 10.3125 C-16.24747824 6.20493085 -14.96976785 3.96976785 -12 1 C-8.26380019 -0.8680999 -4.06857253 -0.54372628 0 0 Z " fill="#0E3829" transform="translate(363,387)"/>
<path d="M0 0 C3.97545128 1.8354568 6.14114839 4.88137101 7.875 8.8125 C8.431875 10.3903125 8.431875 10.3903125 9 12 C9.88751953 11.78730469 9.88751953 11.78730469 10.79296875 11.5703125 C17.11121811 10.39530365 17.11121811 10.39530365 19.7109375 12.1640625 C21.97450922 14.82016111 23 16.47852357 23 20 C23.94875 19.34 24.8975 18.68 25.875 18 C30.27646167 15.48487904 35.04651185 14.82224757 40 16 C42.26950901 18.16522085 42.93798611 19.4542778 43.29296875 22.578125 C43.25816406 23.45984375 43.22335937 24.3415625 43.1875 25.25 C43.14689453 26.58804687 43.14689453 26.58804687 43.10546875 27.953125 C43.07066406 28.62859375 43.03585937 29.3040625 43 30 C43.99 30.33 44.98 30.66 46 31 C46.66626598 34.02788201 47.12464649 36.89422506 47 40 C44.8125 43.0625 44.8125 43.0625 42 45 C40.68 45 39.36 45 38 45 C38.33 46.32 38.66 47.64 39 49 C40.0725 48.79375 41.145 48.5875 42.25 48.375 C45.87619096 48.0123809 47.08291076 48.01637931 50 50 C50.99 49.34 51.98 48.68 53 48 C55.4375 47.625 55.4375 47.625 58 48 C60.1640625 49.65234375 60.1640625 49.65234375 62 52 C62.21484375 54.83984375 62.21484375 54.83984375 61.9375 57.9375 C61.67281963 62.08660967 61.67281963 62.08660967 63.0625 65.859375 C64.55363796 67.36694409 64.55363796 67.36694409 67 69 C68 70 68 70 68.25 72.8125 C68 76 68 76 67.0625 78.375 C63.73685476 80.99520534 60.0782683 80.30779383 56 80 C56.37904208 83.29075996 56.37904208 83.29075996 58 86 C59.55914517 86.27013438 61.12251331 86.51607075 62.6875 86.75 C67.88603686 87.77926555 70.59407975 88.87704391 74 93 C74.78735313 96.60035113 74.70537184 99.83613647 72.75 103.0625 C72.37875 104.0215625 72.37875 104.0215625 72 105 C73.00759457 106.72266169 74.02145793 108.4429447 75.1015625 110.12109375 C76.58305466 113.21934475 75.83488921 115.78888767 75 119 C74 120 74 120 71.4375 120.0625 C70.633125 120.041875 69.82875 120.02125 69 120 C69.1546875 121.11375 69.1546875 121.11375 69.3125 122.25 C69 125 69 125 66.875 127.3125 C63.4923756 129.29795345 61.85968795 129.56287116 58 129 C55.12160239 127.62933447 53.21786818 126.22467657 51 123.9375 C49.09743402 121.83946536 49.09743402 121.83946536 46.375 121 C44 120 44 120 42.6875 117.875 C42.3471875 116.946875 42.3471875 116.946875 42 116 C41.34 116 40.68 116 40 116 C40 116.66 40 117.32 40 118 C37.21084611 119.39457694 35.09726736 119.1821922 32 119 C31.25878906 118.60167969 30.51757812 118.20335937 29.75390625 117.79296875 C25.76419704 116.64415886 23.23836678 118.29419156 19.75 120.125 C18.42086642 120.78574697 17.09143985 121.44590492 15.76171875 122.10546875 C15.12024902 122.4307959 14.4787793 122.75612305 13.81787109 123.09130859 C11.43225477 124.28379636 9.00590616 125.36923817 6.5625 126.4375 C5.386875 126.953125 4.21125 127.46875 3 128 C3.66 126.02 4.32 124.04 5 122 C4.34 121.67 3.68 121.34 3 121 C4.38126792 116.39577358 6.27905704 112.43987344 8.625 108.25 C11.08757057 104.34509367 11.08757057 104.34509367 12 100 C8.62064242 101.39521382 7.16409663 102.80813247 5.2734375 105.9140625 C4.7990625 106.67460937 4.3246875 107.43515625 3.8359375 108.21875 C3.35382813 109.0128125 2.87171875 109.806875 2.375 110.625 C1.41005868 112.20445657 0.43902318 113.78021174 -0.5390625 115.3515625 C-0.96396973 116.05104004 -1.38887695 116.75051758 -1.82666016 117.47119141 C-2.2138623 117.97569824 -2.60106445 118.48020508 -3 119 C-3.66 119 -4.32 119 -5 119 C-4.67 111.08 -4.34 103.16 -4 95 C-4.66 95.66 -5.32 96.32 -6 97 C-6.99 97 -7.98 97 -9 97 C-9.33 95.02 -9.66 93.04 -10 91 C-10.92553743 94.13850064 -11.11664647 96.93680778 -11.09765625 100.203125 C-11.09443359 101.1828125 -11.09121094 102.1625 -11.08789062 103.171875 C-11.07951172 104.18765625 -11.07113281 105.2034375 -11.0625 106.25 C-11.05798828 107.28125 -11.05347656 108.3125 -11.04882812 109.375 C-11.03706088 111.91672573 -11.02062011 114.45833319 -11 117 C-13.91261983 114.12551595 -16.64151525 111.35153096 -19 108 C-20.485 108.495 -20.485 108.495 -22 109 C-21.07028061 111.49373333 -20.15183728 113.76350193 -18.7109375 116.0078125 C-13.59600473 124.11393402 -14.07046896 133.71763247 -15 143 C-15.33 143.99 -15.66 144.98 -16 146 C-18.64 145.67 -21.28 145.34 -24 145 C-24.66 146.65 -25.32 148.3 -26 150 C-29.72325953 147.56836897 -33.29816519 145.03099843 -36.84570312 142.34521484 C-44.91817539 136.3138199 -54.46454895 129.79147997 -65 131 C-67.30434442 132.45259937 -67.30434442 132.45259937 -69.3125 134.4375 C-73.21299372 137.69121134 -76.0314028 138.87019738 -81.0546875 139.3203125 C-83.56485431 138.90699186 -84.23283569 137.76716431 -86 136 C-88.14280359 135.57262965 -88.14280359 135.57262965 -90.4375 135.5625 C-93.51186703 135.29211593 -94.87124306 135.07851033 -97.5625 133.4375 C-99.71009293 129.79592939 -99.33853316 127.19781124 -99 123 C-98.505 122.01 -98.505 122.01 -98 121 C-99.051875 121.0825 -100.10375 121.165 -101.1875 121.25 C-105 121 -105 121 -107.875 119.5 C-110.20122133 116.76326902 -110.96765697 114.68546205 -111.1953125 111.08984375 C-110.85128177 107.40871495 -109.37688582 104.78596409 -107 102 C-101.87179487 98 -101.87179487 98 -99 98 C-99.4021875 96.14375 -99.4021875 96.14375 -99.8125 94.25 C-100.21233551 90.88422046 -100.25522247 90.34029663 -98.125 87.5 C-93.97357321 85.50731514 -90.52279307 85.64527113 -86 86 C-86.7425 84.4840625 -86.7425 84.4840625 -87.5 82.9375 C-89.09663369 79.14549498 -89.62469482 76.13860317 -89 72 C-86.29553168 69.14528344 -83.90790955 67.57894956 -80 67 C-80.495 66.195625 -80.99 65.39125 -81.5 64.5625 C-83.34705349 60.17574796 -83.63332086 56.69351484 -83 52 C-81.23507068 47.72701322 -79.07709545 46.05009757 -75 44 C-68.86616547 43.23223875 -62.70357743 43.4650767 -57 46 C-55.79371992 43.66785852 -54.8345262 41.50357861 -54 39 C-54.75799882 37.31922001 -55.51668202 35.63873946 -56.28125 33.9609375 C-57.58022835 30.41698569 -57.41912405 27.77211648 -57 24 C-55.37609951 20.86819191 -53.99733974 18.75660256 -51.1875 16.625 C-45.15450769 14.90128791 -40.91170068 16.16725002 -35.6015625 19.02734375 C-34 20 -34 20 -33 21 C-32.566875 19.88625 -32.13375 18.7725 -31.6875 17.625 C-30 14 -30 14 -27 12 C-23.55228179 11.97951851 -20.10074594 12.44962703 -17 14 C-16.9175 12.783125 -16.835 11.56625 -16.75 10.3125 C-16.24747824 6.20493085 -14.96976785 3.96976785 -12 1 C-8.26380019 -0.8680999 -4.06857253 -0.54372628 0 0 Z " fill="#204A2D" transform="translate(363,387)"/>
<path d="M0 0 C1.22203125 1.11181641 1.22203125 1.11181641 2.46875 2.24609375 C2.46875 2.90609375 2.46875 3.56609375 2.46875 4.24609375 C3.28666016 4.34083984 3.28666016 4.34083984 4.12109375 4.4375 C7.49916794 5.60099643 9.45170221 7.73741034 12.03125 10.18359375 C14.79059016 12.78568522 17.31146117 15.14123453 20.46875 17.24609375 C20.46875 17.90609375 20.46875 18.56609375 20.46875 19.24609375 C21.06300781 19.50390625 21.65726563 19.76171875 22.26953125 20.02734375 C24.66177503 21.35306322 25.91656639 22.64988239 27.65625 24.74609375 C30.25072438 27.82428369 32.91089835 30.80180357 35.65625 33.74609375 C57.87015901 58.41562195 78.01042194 89.99871801 86.46875 122.24609375 C85.911875 121.96894531 85.355 121.69179688 84.78125 121.40625 C79.57055741 118.93293139 75.22158447 117.66448171 69.46875 117.24609375 C69.51515625 116.48425781 69.5615625 115.72242188 69.609375 114.9375 C69.8518197 108.00184994 69.56616518 102.06935429 65.46875 96.24609375 C62.76681353 93.56749007 61.36749889 92.30569248 57.5234375 92.05078125 C56.47414063 92.07398438 55.42484375 92.0971875 54.34375 92.12109375 C50.91010961 91.67791906 48.45551523 91.294095 46.02099609 88.70849609 C42.92766878 84.32023565 40.49700859 79.52685959 37.94042969 74.81445312 C30.53335537 61.88770763 20.48149699 50.46066553 10.07666016 39.88476562 C8.57958007 38.35904416 7.10561739 36.81450979 5.63671875 35.26171875 C-0.70032289 28.69272098 -7.49178539 23.0197903 -14.78125 17.56054688 C-16.4182742 16.33095169 -18.03797241 15.07838388 -19.65625 13.82421875 C-48.48978233 -7.80093049 -81.47079546 -19.91272616 -116.53125 -26.75390625 C-115.83 -25.90570313 -115.12875 -25.0575 -114.40625 -24.18359375 C-107.84565827 -16.12294099 -102.29092083 -7.99326728 -97.53125 1.24609375 C-97.07621094 2.07238281 -96.62117188 2.89867187 -96.15234375 3.75 C-91.85259105 12.60419459 -92.02343196 25.39285704 -94.56640625 34.78515625 C-101.19314112 51.68735449 -101.19314112 51.68735449 -106.53125 55.24609375 C-106.66080078 53.35890625 -106.66080078 53.35890625 -106.79296875 51.43359375 C-107.68436428 40.05545477 -109.58460647 29.94641602 -113.53125 19.24609375 C-113.86253906 18.3025 -114.19382812 17.35890625 -114.53515625 16.38671875 C-116.83269645 10.19585728 -119.90784394 4.75029321 -123.53125 -0.75390625 C-123.86382813 -1.34381348 -124.19640625 -1.9337207 -124.5390625 -2.54150391 C-129.18085329 -10.83606257 -129.18085329 -10.83606257 -137.08691406 -15.47119141 C-143.22888676 -16.3314919 -149.35802974 -16.21296482 -155.53125 -15.75390625 C-155.53125 -17.73390625 -155.53125 -19.71390625 -155.53125 -21.75390625 C-151.57125 -22.08390625 -147.61125 -22.41390625 -143.53125 -22.75390625 C-146.78919778 -26.71731517 -149.31818211 -28.52812148 -154.5078125 -29.06005859 C-162.59780048 -29.30505179 -167.34394387 -27.97837819 -173.3605957 -22.37329102 C-176.95495699 -18.6568403 -180.2937083 -14.7832144 -183.53125 -10.75390625 C-184.31266357 -9.80281982 -184.31266357 -9.80281982 -185.10986328 -8.83251953 C-193.64984958 1.72616857 -199.2129783 13.83679311 -204.53125 26.24609375 C-188.03125 26.24609375 -171.53125 26.24609375 -154.53125 26.24609375 C-154.53125 28.55609375 -154.53125 30.86609375 -154.53125 33.24609375 C-171.69125 33.57609375 -188.85125 33.90609375 -206.53125 34.24609375 C-207.52125 37.21609375 -208.51125 40.18609375 -209.53125 43.24609375 C-212.66367038 41.67988356 -213.02803851 38.58013065 -214.09375 35.43359375 C-214.74537109 33.56767578 -214.74537109 33.56767578 -215.41015625 31.6640625 C-218.80254704 21.32140767 -219.29473754 9.00626379 -214.921875 -1.140625 C-210.59281434 -9.27585416 -205.29108559 -16.39485096 -199 -23.109375 C-197.42022977 -24.5107254 -197.42022977 -24.5107254 -197.53125 -25.75390625 C-239.87370844 -16.33924358 -277.43830494 0.54146088 -309.53125 30.24609375 C-310.47613281 31.08785156 -311.42101562 31.92960937 -312.39453125 32.796875 C-329.56502449 48.11504305 -348.08747885 67.80958018 -356.4453125 89.6328125 C-356.80367188 90.16519531 -357.16203125 90.69757813 -357.53125 91.24609375 C-359.88671875 91.6796875 -359.88671875 91.6796875 -362.71875 91.68359375 C-367.41645673 91.9725888 -370.46661026 92.55678834 -374.09375 95.6171875 C-379.99050955 102.29911341 -380.05104714 109.71275732 -379.53125 118.24609375 C-380.25570313 118.29507813 -380.98015625 118.3440625 -381.7265625 118.39453125 C-386.94583867 118.79815527 -391.62938658 119.25885182 -396.53125 121.24609375 C-395.86750279 116.92763967 -394.36154144 113.14725168 -392.59375 109.18359375 C-392.284375 108.48878906 -391.975 107.79398438 -391.65625 107.078125 C-390.62747185 104.79464094 -389.58281567 102.5191703 -388.53125 100.24609375 C-388.00313721 99.10164795 -388.00313721 99.10164795 -387.46435547 97.93408203 C-378.38201847 78.49163395 -367.24721348 59.7872723 -353.53125 43.24609375 C-352.36722656 41.78042969 -352.36722656 41.78042969 -351.1796875 40.28515625 C-339.20838786 25.57120592 -325.57932754 11.63856352 -310.20996094 0.47607422 C-308.45319482 -0.81109677 -306.7300435 -2.13579039 -305.0078125 -3.46875 C-273.40029657 -27.67921445 -233.91187553 -44.01742333 -194.53125 -49.75390625 C-193.14824707 -49.95693359 -193.14824707 -49.95693359 -191.73730469 -50.1640625 C-124.59291392 -59.68565608 -53.41063421 -42.66299198 0 0 Z " fill="#567E2F" transform="translate(678.53125,304.75390625)"/>
<path d="M0 0 C3.53958402 1.17986134 3.72660482 1.67777714 5.375 4.875 C14.12891972 23.50036111 15.913118 44.43369227 9.31591797 64.03222656 C0.57875835 87.54538212 -16.8566412 107.75277419 -36.48046875 122.98828125 C-40.01985403 125.81430206 -43.3420527 128.85815091 -46.67578125 131.921875 C-50.58185051 135.41436045 -54.50569893 138.31894128 -59 141 C-64.51738115 145.14028602 -69.75139138 149.61264323 -74.8996582 154.19921875 C-76.89619037 155.91099618 -78.94809173 157.47530095 -81.05859375 159.04296875 C-86.284945 163.08974486 -90.93532874 167.63279366 -95.58398438 172.32324219 C-96.99123568 173.74116919 -98.40966037 175.1479781 -99.828125 176.5546875 C-107.94783705 184.69708031 -115.76288991 193.05084603 -121.3125 203.1875 C-121.63951904 203.78208008 -121.96653809 204.37666016 -122.3034668 204.98925781 C-123.21349456 206.65343842 -124.10741337 208.32640007 -125 210 C-125.4228125 210.76441406 -125.845625 211.52882813 -126.28125 212.31640625 C-132.50792363 223.99141931 -135.25832375 239.04884762 -132 252 C-132.4375 254.75 -132.4375 254.75 -133 257 C-133.66 255.68 -134.32 254.36 -135 253 C-135.66 253 -136.32 253 -137 253 C-144.86559753 234.67034861 -146.75105598 211.92820965 -139.21777344 193.03857422 C-134.98157948 183.22683595 -129.24988771 174.62296538 -123 166 C-122.35546875 164.95070313 -121.7109375 163.90140625 -121.046875 162.8203125 C-118.86703602 159.8167939 -117.18909885 158.79146668 -114 157 C-112.11971249 155.27910468 -110.28848577 153.50361687 -108.5 151.6875 C-108.01660156 151.19910645 -107.53320312 150.71071289 -107.03515625 150.20751953 C-104.56428573 147.68893912 -102.20066675 145.13254278 -100 142.375 C-98 140 -98 140 -95 139 C-94.34 138.01 -93.68 137.02 -93 136 C-92.01 136 -91.02 136 -90 136 C-89.773125 135.4225 -89.54625 134.845 -89.3125 134.25 C-87.08951132 130.43916226 -84.14211008 128.38070336 -80 127 C-79.505 125.515 -79.505 125.515 -79 124 C-77.68 124 -76.36 124 -75 124 C-75 123.01 -75 122.02 -75 121 C-69.74285714 117 -69.74285714 117 -67 117 C-67 116.34 -67 115.68 -67 115 C-65.00715862 113.6559907 -63.00580329 112.32458708 -61 111 C-60.113125 110.113125 -59.22625 109.22625 -58.3125 108.3125 C-56 106 -56 106 -53 105 C-51.8112654 103.84522925 -50.62854002 102.68348741 -49.48046875 101.48828125 C-47.92467594 99.92427845 -46.30018413 98.49785299 -44.625 97.0625 C-34.27075499 88.0442866 -24.24906122 79.03248679 -16 68 C-15.10087891 66.85917969 -15.10087891 66.85917969 -14.18359375 65.6953125 C-10.32787728 60.57160873 -7.43911447 55.14284327 -4.6875 49.375 C-4.34968506 48.67036621 -4.01187012 47.96573242 -3.66381836 47.23974609 C-1.50239143 42.55364558 -0.12454922 38.0367134 1 33 C1.17869629 32.3601416 1.35739258 31.7202832 1.54150391 31.06103516 C2.4393096 27.0252121 2.18465293 22.86685711 2.1875 18.75 C2.19974609 17.83347656 2.21199219 16.91695313 2.22460938 15.97265625 C2.23675949 10.29450324 1.61728004 5.44633436 0 0 Z " fill="#937D4A" transform="translate(588,302)"/>
<path d="M0 0 C3.74601644 1.00122187 5.44374107 1.66288787 7.96875 4.52734375 C8.896875 6.25984375 8.896875 6.25984375 9.84375 8.02734375 C5.55375 8.02734375 1.26375 8.02734375 -3.15625 8.02734375 C-3.15625 10.00734375 -3.15625 11.98734375 -3.15625 14.02734375 C-2.58293945 13.9487915 -2.00962891 13.87023926 -1.41894531 13.78930664 C14.56765891 11.88957479 14.56765891 11.88957479 19.95166016 15.40283203 C24.06945344 19.37462781 26.96067756 24.12790107 29.84375 29.02734375 C30.55402344 30.07277344 31.26429688 31.11820312 31.99609375 32.1953125 C38.39514149 42.00357807 42.48270508 53.46362859 43.84375 65.02734375 C42.64771652 65.02290253 41.45168304 65.0184613 40.21940613 65.0138855 C28.96250106 64.97338872 17.70561072 64.94338308 6.44864941 64.92371941 C0.66096657 64.91327038 -5.12665758 64.89909076 -10.91430664 64.87646484 C-16.49692552 64.85477638 -22.07948786 64.84278355 -27.66214561 64.83758926 C-29.79485655 64.83388632 -31.92756429 64.82665565 -34.06025124 64.81588364 C-37.04129412 64.80142189 -40.02210166 64.79936358 -43.00317383 64.80029297 C-44.33350143 64.78950714 -44.33350143 64.78950714 -45.69070435 64.77850342 C-46.90852852 64.78262741 -46.90852852 64.78262741 -48.1509552 64.78683472 C-48.85612683 64.78499113 -49.56129847 64.78314754 -50.28783894 64.78124809 C-52.49068963 64.9315896 -52.49068963 64.9315896 -55.15625 67.02734375 C-54.82625 65.70734375 -54.49625 64.38734375 -54.15625 63.02734375 C-36.99625 63.02734375 -19.83625 63.02734375 -2.15625 63.02734375 C-2.15625 60.71734375 -2.15625 58.40734375 -2.15625 56.02734375 C-18.65625 56.02734375 -35.15625 56.02734375 -52.15625 56.02734375 C-47.85762884 41.69860656 -41.5309157 30.13619933 -31.78564453 18.91748047 C-30.63410989 17.58167267 -29.50418519 16.22709059 -28.39013672 14.85986328 C-20.18291209 4.87566158 -13.57134574 -1.7277812 0 0 Z " fill="#AFB58C" transform="translate(526.15625,274.97265625)"/>
<path d="M0 0 C2.37433595 0.95093124 3.73305555 2.08394838 5.58105469 3.84985352 C6.25322021 4.48600586 6.92538574 5.1221582 7.61791992 5.77758789 C8.69021851 6.81689453 8.69021851 6.81689453 9.78417969 7.87719727 C10.90385132 8.95324219 10.90385132 8.95324219 12.04614258 10.05102539 C13.60626143 11.55483352 15.16293325 13.06222515 16.71630859 14.57299805 C18.91060465 16.69518325 21.13048894 18.78651143 23.35839844 20.87329102 C34.56817106 31.52257501 43.57886621 43.21011364 49.03417969 57.81469727 C49.47632813 58.78020508 49.91847656 59.74571289 50.37402344 60.74047852 C57.12800243 77.26059888 56.35117263 98.26051962 50.03417969 114.81469727 C49.60234375 115.9787207 49.17050781 117.14274414 48.72558594 118.34204102 C45.48189211 126.59084106 45.48189211 126.59084106 43.03417969 127.81469727 C43.19402344 126.86079102 43.35386719 125.90688477 43.51855469 124.92407227 C45.15013295 113.41045259 45.29018195 100.71788327 41.03417969 89.81469727 C40.79779785 89.17967285 40.56141602 88.54464844 40.31787109 87.89038086 C37.09631131 79.27780083 33.58163281 71.39399791 28.31933594 63.81860352 C27.03417969 61.81469727 27.03417969 61.81469727 27.03417969 59.81469727 C26.37417969 59.81469727 25.71417969 59.81469727 25.03417969 59.81469727 C24.06689363 58.41255673 23.10768802 57.00401758 22.19433594 55.56616211 C13.38231118 42.26282339 0.83760425 31.30742505 -11.95385742 21.9855957 C-13.32483961 20.97267289 -14.65042959 19.89883381 -15.96582031 18.81469727 C-15.96582031 18.15469727 -15.96582031 17.49469727 -15.96582031 16.81469727 C-17.28582031 16.15469727 -18.60582031 15.49469727 -19.96582031 14.81469727 C-5.58361273 -0.52632415 -5.58361273 -0.52632415 0 0 Z " fill="#2D582F" transform="translate(545.9658203125,437.185302734375)"/>
<path d="M0 0 C0.88194123 2.92020542 1.01762514 5.05642653 0.5625 8.0625 C-2.30266746 31.99052011 6.54215194 52.8043332 20.96508789 71.5546875 C26.31120016 78.1927191 32.01018282 84.29240012 38.06616211 90.27197266 C39.57015839 91.75756468 41.06584905 93.25115205 42.56054688 94.74609375 C51.73265084 104.01880897 51.73265084 104.01880897 62 112 C61.6943885 115.12008024 60.95414235 116.04373531 58.63671875 118.25390625 C57.66347656 119.01574219 56.69023437 119.77757812 55.6875 120.5625 C54.23923828 121.70912109 54.23923828 121.70912109 52.76171875 122.87890625 C51.85035156 123.57886719 50.93898438 124.27882813 50 125 C48.98873047 125.94166016 48.98873047 125.94166016 47.95703125 126.90234375 C46 128 46 128 43.72265625 127.6171875 C39.79738377 125.28567702 36.70907256 122.28909646 33.4375 119.125 C32.73149658 118.44953125 32.02549316 117.7740625 31.2980957 117.078125 C29.86520854 115.70312408 28.43572998 114.32456182 27.00976562 112.94238281 C25.24382154 111.23564677 23.46192985 109.54852123 21.671875 107.8671875 C3.33384152 90.41543342 -8.53258782 69.00083278 -10.16796875 43.3671875 C-10.28964365 27.84146992 -6.18499846 14.1010752 0 0 Z " fill="#37622E" transform="translate(455,300)"/>
<path d="M0 0 C0.33 0 0.66 0 1 0 C1.33 1.65 1.66 3.3 2 5 C26.255 5.495 26.255 5.495 51 6 C51 7.98 51 9.96 51 12 C35.16 12 19.32 12 3 12 C4.52569172 26.64855074 4.52569172 26.64855074 9 32 C9 33.32 9 34.64 9 36 C10.485 36.495 10.485 36.495 12 37 C11.34 37 10.68 37 10 37 C11.0991772 39.25256041 12.20410211 41.50198174 13.3125 43.75 C13.62123047 44.38421875 13.92996094 45.0184375 14.24804688 45.671875 C16.62918937 50.68521114 16.62918937 50.68521114 20 55 C23.18823344 55.64597413 23.18823344 55.64597413 26.85546875 55.609375 C27.51710526 55.62591125 28.17874176 55.64244751 28.86042786 55.65948486 C30.96954601 55.70799288 33.07794323 55.72933927 35.1875 55.75 C36.61917695 55.77815777 38.05082028 55.80808495 39.48242188 55.83984375 C42.98812393 55.91374893 46.49368875 55.96330788 50 56 C50 57.98 50 59.96 50 62 C42.08 62 34.16 62 26 62 C30.67148062 68.37960274 30.67148062 68.37960274 35.875 73.9375 C36.93228444 74.94214907 37.97932072 75.95818239 39 77 C39 77.33 39 77.66 39 78 C25.635 78.495 25.635 78.495 12 79 C11.67 78.01 11.34 77.02 11 76 C10.34 76 9.68 76 9 76 C-2.48527442 64.05639303 -12.51854476 48.01104395 -12.26953125 31.078125 C-11.26663245 19.62473005 -5.5780014 9.78858013 0 0 Z " fill="#1A432E" transform="translate(472,505)"/>
<path d="M0 0 C3.74601644 1.00122187 5.44374107 1.66288787 7.96875 4.52734375 C8.896875 6.25984375 8.896875 6.25984375 9.84375 8.02734375 C5.55375 8.02734375 1.26375 8.02734375 -3.15625 8.02734375 C-3.15625 10.00734375 -3.15625 11.98734375 -3.15625 14.02734375 C-2.58293945 13.9487915 -2.00962891 13.87023926 -1.41894531 13.78930664 C14.56765891 11.88957479 14.56765891 11.88957479 19.95166016 15.40283203 C23.52823995 18.85260319 26.22156141 22.87194645 28.73095703 27.14160156 C29.7694287 28.90139866 30.92621826 30.58986315 32.08984375 32.26953125 C33.84375 35.02734375 33.84375 35.02734375 34.84375 39.02734375 C8.44375 39.02734375 -17.95625 39.02734375 -45.15625 39.02734375 C-40.6557318 30.926411 -36.03369001 24.05483617 -30.15625 17.02734375 C-29.58471191 16.31900391 -29.01317383 15.61066406 -28.42431641 14.88085938 C-20.22161845 4.88891667 -13.56492346 -1.72527087 0 0 Z " fill="#A6AC82" transform="translate(526.15625,274.97265625)"/>
<path d="M0 0 C3.0503131 2.7689425 4.73439627 5.08825788 6.1875 8.9375 C6.51105469 9.77152344 6.83460938 10.60554687 7.16796875 11.46484375 C10.68129499 22.16976738 10.61250656 34.98118333 5.68359375 45.16015625 C2.54644084 50.45182716 -1.09916394 55.25231577 -5 60 C-5.68191406 60.8353125 -6.36382813 61.670625 -7.06640625 62.53125 C-10.43622002 66.52718783 -10.43622002 66.52718783 -12 68 C-12.66 68 -13.32 68 -14 68 C-14 68.66 -14 69.32 -14 70 C-11.03 70 -8.06 70 -5 70 C-5.33 70.66 -5.66 71.32 -6 72 C-7.64630328 71.85957123 -9.29204179 71.71250671 -10.9375 71.5625 C-12.31228516 71.44068359 -12.31228516 71.44068359 -13.71484375 71.31640625 C-16 71 -16 71 -17 70 C-22.29434221 69.07056411 -27.57482179 68.71781137 -32.9375 68.4375 C-34.10635742 68.37272461 -34.10635742 68.37272461 -35.29882812 68.30664062 C-37.19907117 68.20171923 -39.09951669 68.1004755 -41 68 C-38.91034432 63.519477 -35.8433549 60.72429634 -32.24609375 57.359375 C-24.33218609 49.74923349 -17.8289512 41.25194378 -12.33813477 31.76660156 C-11.71181656 30.68654846 -11.08549835 29.60649536 -10.44020081 28.49371338 C-9.96493454 27.67078796 -9.48966827 26.84786255 -9 26 C-10.02064041 25.98969254 -11.04128082 25.97938507 -12.09284973 25.96876526 C-21.70161764 25.87109754 -31.31031984 25.76836972 -40.9189806 25.66066074 C-45.85913161 25.60544714 -50.79928855 25.55202957 -55.73950195 25.50268555 C-60.50520214 25.45501904 -65.2708299 25.40267529 -70.03644371 25.34705925 C-71.85652557 25.32664608 -73.67662727 25.30793128 -75.49674416 25.29092598 C-78.04192926 25.26685906 -80.58697746 25.23680754 -83.13208008 25.20532227 C-84.26604218 25.19668907 -84.26604218 25.19668907 -85.4229126 25.18788147 C-88.54314394 25.1438762 -91.01752061 24.9941598 -94 24 C-94.75 22 -94.75 22 -95 20 C-93.17761338 18.17761338 -90.65243917 18.88002304 -88.2275238 18.87557983 C-87.39890335 18.87917511 -86.5702829 18.88277039 -85.71655273 18.88647461 C-84.41423203 18.88625557 -84.41423203 18.88625557 -83.08560181 18.8860321 C-80.20157414 18.88673154 -77.3176102 18.89452537 -74.43359375 18.90234375 C-72.43962133 18.90420782 -70.44564845 18.90563177 -68.45167542 18.90663147 C-63.19254298 18.91045752 -57.93343797 18.92028855 -52.67431641 18.93133545 C-47.31217825 18.9415477 -41.95003569 18.94612869 -36.58789062 18.95117188 C-26.05858167 18.96191074 -15.52929311 18.9789882 -5 19 C-4.85506104 18.41573242 -4.71012207 17.83146484 -4.56079102 17.22949219 C-3.72171617 13.89364912 -2.8263158 10.57285199 -1.9375 7.25 C-1.75123047 6.55261719 -1.56496094 5.85523438 -1.37304688 5.13671875 C-0.91564761 3.42440354 -0.45786215 1.7121915 0 0 Z " fill="#26512F" transform="translate(575,517)"/>
<path d="M0 0 C32.67 0 65.34 0 99 0 C98 11 98 11 95 19 C64.97 19 34.94 19 4 19 C0.36392737 10.51583052 0 9.3329693 0 0 Z " fill="#DFE0AE" transform="translate(475,517)"/>
<path d="M0 0 C28.05 0 56.1 0 85 0 C77.05685293 15.88629415 77.05685293 15.88629415 73 19 C68.28295117 20.30986001 63.64054676 20.29466194 58.78125 20.23046875 C57.39553089 20.23908568 56.00982539 20.25022207 54.62414551 20.26374817 C51.72850533 20.28146869 48.83536743 20.26638995 45.93994141 20.22827148 C42.24248105 20.18256602 38.55174216 20.22250462 34.85477448 20.28762341 C31.99571583 20.32780802 29.13824105 20.32042903 26.27903748 20.29921913 C24.91715194 20.29508752 23.55513061 20.30588532 22.1934967 20.33238792 C11.62060722 20.50066206 11.62060722 20.50066206 7.6328125 16.80801392 C5.83166124 14.27366984 4.37241616 11.78595745 3 9 C2.360625 7.865625 1.72125 6.73125 1.0625 5.5625 C0 3 0 3 0 0 Z " fill="#DBDCAA" transform="translate(482,542)"/>
<path d="M0 0 C0.66 0 1.32 0 2 0 C2.20753906 0.556875 2.41507813 1.11375 2.62890625 1.6875 C6.78673891 11.98639931 12.77983096 17.92758764 22.9375 22.25 C23.618125 22.4975 24.29875 22.745 25 23 C25 23.66 25 24.32 25 25 C24.443125 25.20753906 23.88625 25.41507813 23.3125 25.62890625 C13.01360069 29.78673891 7.07241236 35.77983096 2.75 45.9375 C2.5025 46.618125 2.255 47.29875 2 48 C1.34 48 0.68 48 0 48 C-0.20753906 47.443125 -0.41507813 46.88625 -0.62890625 46.3125 C-4.78673891 36.01360069 -10.77983096 30.07241236 -20.9375 25.75 C-21.618125 25.5025 -22.29875 25.255 -23 25 C-23 24.34 -23 23.68 -23 23 C-22.443125 22.79246094 -21.88625 22.58492187 -21.3125 22.37109375 C-11.01360069 18.21326109 -5.07241236 12.22016904 -0.75 2.0625 C-0.5025 1.381875 -0.255 0.70125 0 0 Z " fill="#A0AB9F" transform="translate(967,944)"/>
<path d="M0 0 C2 2 2 2 2.23046875 5.66015625 C2.22647733 7.12766864 2.21172158 8.59518209 2.1875 10.0625 C2.1865332 11.18108398 2.1865332 11.18108398 2.18554688 12.32226562 C2.14028159 17.85971841 2.14028159 17.85971841 1 19 C-1.93079367 19.12723873 -4.83850971 19.18927633 -7.77075195 19.20874023 C-8.69106201 19.21852402 -9.61137207 19.2283078 -10.55957031 19.23838806 C-13.61912573 19.26841536 -16.67863724 19.28974718 -19.73828125 19.30859375 C-20.78046499 19.31516558 -21.82264874 19.3217374 -22.8964138 19.32850838 C-28.41229266 19.36113352 -33.92815192 19.38557711 -39.4440918 19.4050293 C-44.01794425 19.42285458 -48.59118159 19.45769013 -53.16479492 19.50756836 C-58.67732945 19.56762559 -64.18929276 19.59848542 -69.7021389 19.60820198 C-71.80617091 19.61678264 -73.91018661 19.63566448 -76.01403236 19.6649456 C-78.95705877 19.70370195 -81.89784508 19.70491546 -84.84106445 19.69702148 C-86.14961647 19.7270224 -86.14961647 19.7270224 -87.48460388 19.75762939 C-89.81038291 19.72956844 -91.7664686 19.6503102 -94 19 C-98 14.46178531 -98 14.46178531 -98 11 C-84.98098642 10.24370008 -72.02406513 9.85947282 -58.984375 9.90234375 C-57.26418093 9.90421687 -55.54398631 9.90563653 -53.8237915 9.90663147 C-49.37213578 9.91038641 -44.92051451 9.92015346 -40.46887207 9.93133545 C-35.89591945 9.94170379 -31.32296107 9.94616156 -26.75 9.95117188 C-17.83331848 9.96178471 -8.91666214 9.9787726 0 10 C0 6.7 0 3.4 0 0 Z " fill="#9D8754" transform="translate(570,344)"/>
<path d="M0 0 C4 4.75 4 4.75 4 7 C5.65 7.33 7.3 7.66 9 8 C9.12375 9.11375 9.2475 10.2275 9.375 11.375 C9.6465813 15.03103677 9.6465813 15.03103677 12 17 C15.58343976 17.16677282 15.58343976 17.16677282 19 17 C19.66 15.35 20.32 13.7 21 12 C21.99 12.33 22.98 12.66 24 13 C22.99129745 19.7505478 16.50950714 24.92897149 11.49609375 29.06640625 C6.48165368 32.69971729 1.02438955 36.32450516 -5 38 C-5.99 37.67 -6.98 37.34 -8 37 C-10.43588515 26.54926695 -10.05572249 15.72857776 -4.46484375 6.453125 C-3.02525988 4.26141812 -1.54655981 2.11713527 0 0 Z " fill="#A8AF84" transform="translate(707,495)"/>
<path d="M0 0 C5.89362876 4.85357663 10.37244892 11.67242162 11.27832031 19.36279297 C12.00624482 32.98126553 12.00624482 32.98126553 10 39 C-2.16831288 37.62414083 -11.81107382 27.51742508 -19.8125 18.9296875 C-21 17 -21 17 -20.6875 14.7578125 C-20.460625 14.17773438 -20.23375 13.59765625 -20 13 C-19.34 13 -18.68 13 -18 13 C-17.34 14.65 -16.68 16.3 -16 18 C-11.91778712 18.33539469 -11.91778712 18.33539469 -8.1875 16.9375 C-6.73991302 14.88514167 -6.73991302 14.88514167 -6.625 11.5625 C-5.85217345 7.15738866 -4.50779121 6.54314863 -1 4 C-0.13034494 1.87053397 -0.13034494 1.87053397 0 0 Z " fill="#B3B88D" transform="translate(337,494)"/>
<path d="M0 0 C24.09 0.33 48.18 0.66 73 1 C73.99 3.31 74.98 5.62 76 8 C49.6 8 23.2 8 -4 8 C-2.68 5.36 -1.36 2.72 0 0 Z " fill="#9E8A50" transform="translate(485,306)"/>
<path d="M0 0 C0.99 1.485 0.99 1.485 2 3 C1.525625 3.433125 1.05125 3.86625 0.5625 4.3125 C-1.23686957 6.02309613 -1.23686957 6.02309613 -2 9 C-12.90042324 9.02314783 -23.80084066 9.04092758 -34.70128345 9.05181217 C-39.76253438 9.05703564 -44.82376851 9.06412361 -49.88500977 9.07543945 C-54.76736809 9.08628731 -59.64971025 9.09228089 -64.5320797 9.09487724 C-66.39683983 9.09672805 -68.26159905 9.10034211 -70.12635231 9.10573006 C-72.73374993 9.11296564 -75.34108032 9.11398987 -77.94848633 9.11352539 C-79.11050064 9.1189183 -79.11050064 9.1189183 -80.29598999 9.12442017 C-83.46874485 9.11828514 -85.9667797 9.01107343 -89 8 C-89.75 6 -89.75 6 -90 4 C-88.17761338 2.17761338 -85.65243917 2.88002304 -83.2275238 2.87557983 C-82.39890335 2.87917511 -81.5702829 2.88277039 -80.71655273 2.88647461 C-79.41423203 2.88625557 -79.41423203 2.88625557 -78.08560181 2.8860321 C-75.20157414 2.88673154 -72.3176102 2.89452537 -69.43359375 2.90234375 C-67.43962133 2.90420782 -65.44564845 2.90563177 -63.45167542 2.90663147 C-58.19254298 2.91045752 -52.93343797 2.92028855 -47.67431641 2.93133545 C-42.31217825 2.9415477 -36.95003569 2.94612869 -31.58789062 2.95117188 C-21.05858167 2.96191074 -10.52929311 2.9789882 0 3 C0 2.01 0 1.02 0 0 Z " fill="#776D3F" transform="translate(570,533)"/>
<path d="M0 0 C2.09715785 3.14573677 2.52004559 5.01456251 3.125 8.6875 C3.29257812 9.68136719 3.46015625 10.67523438 3.6328125 11.69921875 C3.75398437 12.45847656 3.87515625 13.21773438 4 14 C2.80396652 13.99555878 1.60793304 13.99111755 0.37565613 13.98654175 C-10.88124894 13.94604497 -22.13813928 13.91603933 -33.39510059 13.89637566 C-39.18278343 13.88592663 -44.97040758 13.87174701 -50.75805664 13.84912109 C-56.34067552 13.82743263 -61.92323786 13.8154398 -67.50589561 13.81024551 C-69.63860655 13.80654257 -71.77131429 13.7993119 -73.90400124 13.78853989 C-76.88504412 13.77407814 -79.86585166 13.77201983 -82.84692383 13.77294922 C-83.7338089 13.76575867 -84.62069397 13.75856812 -85.53445435 13.75115967 C-86.75227852 13.75528366 -86.75227852 13.75528366 -87.9947052 13.75949097 C-88.69987683 13.75764738 -89.40504847 13.75580379 -90.13158894 13.75390434 C-92.33443963 13.90424585 -92.33443963 13.90424585 -95 16 C-94.67 14.68 -94.34 13.36 -94 12 C-76.84 12 -59.68 12 -42 12 C-42 9.69 -42 7.38 -42 5 C-28.14 4.67 -14.28 4.34 0 4 C0 2.68 0 1.36 0 0 Z " fill="#A18B57" transform="translate(566,326)"/>
<path d="M0 0 C6.94172388 -0.02529373 13.88343594 -0.04284304 20.82519531 -0.05493164 C23.18815556 -0.05996959 25.55111268 -0.06680008 27.9140625 -0.07543945 C31.30469535 -0.08752854 34.69528709 -0.09323359 38.0859375 -0.09765625 C39.14743011 -0.10281754 40.20892273 -0.10797882 41.30258179 -0.11329651 C42.77388046 -0.11340981 42.77388046 -0.11340981 44.27490234 -0.11352539 C45.14094086 -0.115746 46.00697937 -0.11796661 46.89926147 -0.12025452 C49 0 49 0 51 1 C53.30215827 6.17985612 53.30215827 6.17985612 52.125 9.375 C51.75375 9.91125 51.3825 10.4475 51 11 C51 9.68 51 8.36 51 7 C34.17 7 17.34 7 0 7 C0 4.69 0 2.38 0 0 Z " fill="#988051" transform="translate(523,510)"/>
<path d="M0 0 C16.335 0.495 16.335 0.495 33 1 C33.495 2.485 33.495 2.485 34 4 C35.62332967 5.38576923 37.28724465 6.72641268 39 8 C37.31496301 9.68503699 35.23740116 9.11965983 32.98905945 9.12442017 C32.27264786 9.12082489 31.55623627 9.11722961 30.81811523 9.11352539 C29.6913588 9.11374443 29.6913588 9.11374443 28.5418396 9.1139679 C26.04739541 9.11326863 23.55302497 9.10547564 21.05859375 9.09765625 C19.33366436 9.09579212 17.60873443 9.09436819 15.88380432 9.09336853 C11.33487497 9.08954297 6.78597733 9.07971238 2.23706055 9.06866455 C-2.40120006 9.05845124 -7.03946577 9.05387108 -11.67773438 9.04882812 C-20.78517022 9.03809014 -29.89258248 9.02101327 -39 9 C-39 8.67 -39 8.34 -39 8 C-25.8 8 -12.6 8 1 8 C0.505 4.04 0.505 4.04 0 0 Z " fill="#B29E6D" transform="translate(523,484)"/>
<path d="M0 0 C21.45 0 42.9 0 65 0 C65 3 65 3 62.58349609 5.64331055 C58.52706992 8.80533128 54.64937014 8.73026092 49.6640625 8.70703125 C48.78471039 8.72215256 47.90535828 8.73727386 46.99935913 8.75285339 C44.20764321 8.79563076 41.4170106 8.80455858 38.625 8.8125 C36.72523182 8.83565211 34.82548925 8.86101893 32.92578125 8.88867188 C28.28375882 8.95142567 23.64240899 8.98383871 19 9 C18.67 8.34 18.34 7.68 18 7 C22.29 7 26.58 7 31 7 C31 5.02 31 3.04 31 1 C15.16 1.495 15.16 1.495 -1 2 C-0.67 1.34 -0.34 0.68 0 0 Z " fill="#A08D5A" transform="translate(491,379)"/>
<path d="M0 0 C0.8029248 0.00902344 1.60584961 0.01804687 2.43310547 0.02734375 C6.06562103 0.19487175 8.39587882 0.43139552 11.5078125 2.39453125 C13.125 4.3125 13.125 4.3125 15 7.8125 C10.71 7.8125 6.42 7.8125 2 7.8125 C2 9.7925 2 11.7725 2 13.8125 C-5.59 13.8125 -13.18 13.8125 -21 13.8125 C-19.02 11.5025 -17.04 9.1925 -15 6.8125 C-14.071875 5.69488281 -13.14375 4.57726562 -12.1875 3.42578125 C-8.55734788 -0.12283425 -4.88727805 -0.14471891 0 0 Z " fill="#A0A580" transform="translate(521,275.1875)"/>
<path d="M0 0 C1.98 0 3.96 0 6 0 C5.94199219 0.59167969 5.88398437 1.18335938 5.82421875 1.79296875 C5.46262853 7.32755813 5.46262853 7.32755813 8.5 11.875 C9.325 12.57625 10.15 13.2775 11 14 C11 18.27341587 8.44940767 20.03895163 5.625 22.9375 C1.12382962 27.47819822 1.12382962 27.47819822 -2 33 C-2.66 33 -3.32 33 -4 33 C-4.45967742 9.55645161 -4.45967742 9.55645161 0 0 Z " fill="#A4AC81" transform="translate(698,471)"/>
<path d="M0 0 C1.98 0 3.96 0 6 0 C11.19515221 10.99331317 10.41237902 22.11714 10 34 C7.0642902 31.0994785 4.2036619 28.18063837 1.5 25.0625 C0.91089844 24.38316406 0.32179688 23.70382812 -0.28515625 23.00390625 C-2.55005324 20.35722708 -4.78317551 17.68705999 -7 15 C-6.05125 14.7525 -5.1025 14.505 -4.125 14.25 C-0.98277554 13.32936534 -0.98277554 13.32936534 0.21875 11.21875 C1.13635118 8.61276264 1.02483285 6.96886335 0.625 4.25 C0.51414062 3.45078125 0.40328125 2.6515625 0.2890625 1.828125 C0.19367188 1.22484375 0.09828125 0.6215625 0 0 Z " fill="#A9B087" transform="translate(342,470)"/>
<path d="M0 0 C3.68140792 12.46770148 5.34677106 23.9768202 5 37 C0.50312704 32.89773381 -2.5864348 28.32594563 -5.8125 23.1875 C-6.31458984 22.39923828 -6.81667969 21.61097656 -7.33398438 20.79882812 C-8.56177145 18.86944844 -9.78355583 16.93654337 -11 15 C-10.38125 14.71125 -9.7625 14.4225 -9.125 14.125 C-6.86674235 13.06279958 -6.86674235 13.06279958 -5 11 C-4.75712511 8.55987051 -4.75712511 8.55987051 -4.875 5.875 C-4.90207031 4.50988281 -4.90207031 4.50988281 -4.9296875 3.1171875 C-4.95289063 2.41851562 -4.97609375 1.71984375 -5 1 C-3 0 -3 0 0 0 Z " fill="#ACB389" transform="translate(683,470)"/>
<path d="M0 0 C1.32 0.66 2.64 1.32 4 2 C3.93039062 2.60328125 3.86078125 3.2065625 3.7890625 3.828125 C3.61905071 6.33782283 3.56434784 8.51849113 4 11 C6.82857071 13.63844898 6.82857071 13.63844898 10 15 C8.62158466 17.067623 7.24234768 19.13463811 5.859375 21.19921875 C4.52226758 23.21330702 3.2012281 25.23809645 1.890625 27.26953125 C1.18421875 28.35621094 0.4778125 29.44289063 -0.25 30.5625 C-0.91515625 31.59503906 -1.5803125 32.62757813 -2.265625 33.69140625 C-2.83796875 34.45324219 -3.4103125 35.21507812 -4 36 C-4.66 36 -5.32 36 -6 36 C-5.46006749 10.92013498 -5.46006749 10.92013498 0 0 Z " fill="#B6BC8F" transform="translate(364,470)"/>
<path d="M0 0 C0.66 0.33 1.32 0.66 2 1 C1.9175 1.886875 1.835 2.77375 1.75 3.6875 C2.05834922 7.77312715 3.00459827 9.24746868 6 12 C8.66928121 12.41870553 8.66928121 12.41870553 11 12 C10.83984375 14.33203125 10.83984375 14.33203125 10 17 C3.50812857 21.1389691 -4.45706868 22.88191062 -12 24 C-10.42195846 18.39523177 -7.73583615 13.64949374 -4.875 8.625 C-4.17310547 7.37783203 -4.17310547 7.37783203 -3.45703125 6.10546875 C-2.30929451 4.06765046 -1.15686718 2.03264431 0 0 Z " fill="#BAC091" transform="translate(378,484)"/>
<path d="M0 0 C4.3110624 3.62723871 6.37846878 8.16286873 8.8125 13.125 C9.23208984 13.94871094 9.65167969 14.77242188 10.08398438 15.62109375 C10.47521484 16.40871094 10.86644531 17.19632812 11.26953125 18.0078125 C11.62635986 18.72598145 11.98318848 19.44415039 12.35083008 20.18408203 C12.56505615 20.78333496 12.77928223 21.38258789 13 22 C12.67 22.66 12.34 23.32 12 24 C3.86117463 22.45274263 -3.02845751 20.55762339 -10 16 C-10 15.01 -10 14.02 -10 13 C-8.329375 12.5978125 -8.329375 12.5978125 -6.625 12.1875 C-2.78159049 11.34190981 -2.78159049 11.34190981 -1 8 C-0.54860541 5.9507906 -0.54860541 5.9507906 -0.375 3.8125 C-0.25125 2.554375 -0.1275 1.29625 0 0 Z " fill="#B1B88B" transform="translate(667,484)"/>
<path d="M0 0 C10.89 0 21.78 0 33 0 C28 7 28 7 24.86206055 7.70288086 C23.71519775 7.62432861 22.56833496 7.54577637 21.38671875 7.46484375 C20.13955078 7.39716797 18.89238281 7.32949219 17.60742188 7.25976562 C16.31384766 7.15341797 15.02027344 7.04707031 13.6875 6.9375 C12.37458984 6.85822266 11.06167969 6.77894531 9.70898438 6.69726562 C6.46913627 6.49698411 3.2352193 6.26349772 0 6 C0 4.02 0 2.04 0 0 Z " fill="#8C6F45" transform="translate(522,561)"/>
<path d="M0 0 C11.55 0 23.1 0 35 0 C35 1.65 35 3.3 35 5 C22.13 5 9.26 5 -4 5 C-3.34 4.01 -2.68 3.02 -2 2 C-1.34 2 -0.68 2 0 2 C0 1.34 0 0.68 0 0 Z " fill="#244A30" transform="translate(488,486)"/>
<path d="M0 0 C9.9 0 19.8 0 30 0 C30 1.98 30 3.96 30 6 C25.75051671 6.17415915 21.50194845 6.28081127 17.25 6.375 C16.0434375 6.42527344 14.836875 6.47554688 13.59375 6.52734375 C11.85351562 6.55634766 11.85351562 6.55634766 10.078125 6.5859375 C9.00981445 6.6173584 7.94150391 6.6487793 6.84082031 6.68115234 C4 6 4 6 0 0 Z " fill="#2D5433" transform="translate(492,380)"/>
<path d="M0 0 C0.86625 0.825 1.7325 1.65 2.625 2.5 C2.625 2.83 2.625 3.16 2.625 3.5 C-6.615 3.5 -15.855 3.5 -25.375 3.5 C-18.47655807 -3.39844193 -8.71544764 -7.01289508 0 0 Z " fill="#7C6F42" transform="translate(532.375,464.5)"/>
<path d="M0 0 C1.66529185 0.08033881 3.33353375 0.10764931 5.00073242 0.09765625 C6.50737206 0.09276184 6.50737206 0.09276184 8.04444885 0.08776855 C9.6834037 0.07526062 9.6834037 0.07526062 11.35546875 0.0625 C13.73518837 0.05391674 16.11490845 0.04545868 18.49462891 0.03710938 C19.74995422 0.03090576 21.00527954 0.02470215 22.29864502 0.01831055 C43.58163915 -0.08189974 64.84637258 0.02166177 86.125 0.5 C87.72932388 0.53601318 87.72932388 0.53601318 89.36605835 0.57275391 C95.24426558 0.70668471 101.12220268 0.8491844 107 1 C107 1.33 107 1.66 107 2 C69.71 2 32.42 2 -6 2 C-6 1.34 -6 0.68 -6 0 C-3.4461437 -1.27692815 -2.70818878 -0.703933 0 0 Z " fill="#ABB687" transform="translate(567,585)"/>
<path d="M0 0 C1.52730109 0.13824708 3.05154335 0.31497349 4.5703125 0.52734375 C5.7459375 0.64625977 5.7459375 0.64625977 6.9453125 0.76757812 C8.86572993 0.96664579 10.78133732 1.21121007 12.6953125 1.46484375 C12.6953125 3.44484375 12.6953125 5.42484375 12.6953125 7.46484375 C5.1053125 7.46484375 -2.4846875 7.46484375 -10.3046875 7.46484375 C-4.3046875 0.46484375 -4.3046875 0.46484375 0 0 Z " fill="#A08E51" transform="translate(510.3046875,281.53515625)"/>
<path d="M0 0 C0.9454921 0.32342377 1.89098419 0.64684753 2.86512756 0.98007202 C7.61527989 2.32785281 12.24898305 2.30742809 17.15795898 2.31884766 C18.15384537 2.32889328 19.14973175 2.3389389 20.17579651 2.34928894 C23.44922335 2.38004185 26.7225687 2.39713424 29.99609375 2.4140625 C32.2729614 2.43278048 34.54982216 2.45235436 36.82667542 2.4727478 C42.80573458 2.52400832 48.78481622 2.56366669 54.76397705 2.60089111 C60.87070244 2.64096881 66.97733481 2.69204399 73.08398438 2.7421875 C85.05592419 2.83887485 97.0279166 2.92330271 109 3 C109 3.33 109 3.66 109 4 C73.36 4 37.72 4 1 4 C0.67 2.68 0.34 1.36 0 0 Z " fill="#BAC395" transform="translate(371,583)"/>
<path d="M0 0 C2 2 2 2 2.23046875 4.12890625 C2.21628906 4.93199219 2.20210937 5.73507812 2.1875 6.5625 C2.18105469 7.36816406 2.17460938 8.17382812 2.16796875 9.00390625 C2 11 2 11 1 12 C-1.97186114 12.11468127 -4.92142189 12.16486369 -7.89428711 12.17358398 C-8.82756332 12.180271 -9.76083954 12.18695801 -10.72239685 12.19384766 C-12.7560538 12.2079332 -14.78972689 12.21981598 -16.82340813 12.22979546 C-20.03756949 12.24614577 -23.25161101 12.26938018 -26.4657135 12.29469299 C-35.60655799 12.36563929 -44.74745141 12.42566876 -53.88842773 12.47680664 C-59.47227148 12.50852833 -65.05597819 12.5497866 -70.63971138 12.59700203 C-72.77321478 12.61306379 -74.9067498 12.62536593 -77.04029655 12.63390923 C-80.01911271 12.64600939 -82.99760436 12.67013637 -85.97631836 12.69702148 C-86.86522766 12.69761063 -87.75413696 12.69819977 -88.66998291 12.69880676 C-93.31585318 12.53646547 -93.31585318 12.53646547 -97 15 C-97.33 13.68 -97.66 12.36 -98 11 C-84.98098642 10.24370008 -72.02406513 9.85947282 -58.984375 9.90234375 C-57.26418093 9.90421687 -55.54398631 9.90563653 -53.8237915 9.90663147 C-49.37213578 9.91038641 -44.92051451 9.92015346 -40.46887207 9.93133545 C-35.89591945 9.94170379 -31.32296107 9.94616156 -26.75 9.95117188 C-17.83331848 9.96178471 -8.91666214 9.9787726 0 10 C0 6.7 0 3.4 0 0 Z " fill="#9F9260" transform="translate(570,344)"/>
<path d="M0 0 C16.83 0 33.66 0 51 0 C49.11656068 3.76687864 48.30867531 4.79421646 45 7 C44.505 4.525 44.505 4.525 44 2 C38.82219834 1.95045895 33.64453554 1.91421364 28.46655273 1.89013672 C26.70611161 1.88009649 24.94568709 1.86646156 23.18530273 1.84912109 C20.65083715 1.82478564 18.11659261 1.81349704 15.58203125 1.8046875 C14.79850784 1.79436493 14.01498444 1.78404236 13.2077179 1.77340698 C9.02244596 1.77255306 5.76116269 2.10796168 2 4 C1.34 2.68 0.68 1.36 0 0 Z " fill="#C6C092" transform="translate(498,567)"/>
<path d="M0 0 C32.34 0 64.68 0 98 0 C97.67 0.66 97.34 1.32 97 2 C95.8164946 1.99555878 94.6329892 1.99111755 93.41362 1.98654175 C82.27444426 1.94604438 71.13528341 1.91603904 59.99605083 1.89637566 C54.26890183 1.88592678 48.54181213 1.87174744 42.81469727 1.84912109 C37.29043302 1.82743209 31.76622591 1.81543969 26.24192238 1.81024551 C24.13154005 1.80654266 22.02116093 1.79931218 19.91080284 1.78853989 C16.96089225 1.77407742 14.01121948 1.77201986 11.0612793 1.77294922 C10.18374496 1.76575867 9.30621063 1.75856812 8.40208435 1.75115967 C3.40433433 1.75546256 3.40433433 1.75546256 -1 4 C-0.67 2.68 -0.34 1.36 0 0 Z " fill="#ABB083" transform="translate(472,338)"/>
<path d="M0 0 C21.45 0 42.9 0 65 0 C65 0.99 65 1.98 65 3 C64.34 3.33 63.68 3.66 63 4 C63 3.34 63 2.68 63 2 C47.655 2.495 47.655 2.495 32 3 C32 2.34 32 1.68 32 1 C15.665 1.495 15.665 1.495 -1 2 C-0.67 1.34 -0.34 0.68 0 0 Z " fill="#B3AE7D" transform="translate(491,379)"/>
<path d="M0 0 C0 0.66 0 1.32 0 2 C-1.66279327 3.0064275 -3.32983484 4.00585407 -5 5 C-5.99 6.485 -5.99 6.485 -7 8 C-8.32 8 -9.64 8 -11 8 C-11 7.01 -11 6.02 -11 5 C-11.78375 4.9175 -12.5675 4.835 -13.375 4.75 C-16 4 -16 4 -17.1640625 1.953125 C-17.43992187 1.30859375 -17.71578125 0.6640625 -18 0 C-15.93831015 -0.19620767 -13.87559002 -0.38160753 -11.8125 -0.5625 C-10.08966797 -0.71912109 -10.08966797 -0.71912109 -8.33203125 -0.87890625 C-5.31368801 -0.98859985 -2.91076064 -0.74002389 0 0 Z " fill="#9D8B5A" transform="translate(532,402)"/>
<path d="M0 0 C0 0.66 0 1.32 0 2 C2.475 2.99 2.475 2.99 5 4 C4.525625 5.19625 4.05125 6.3925 3.5625 7.625 C2.26517227 11.06414238 1.45763049 14.33895604 1 18 C0.34 18 -0.32 18 -1 18 C-1.12117187 17.41992188 -1.24234375 16.83984375 -1.3671875 16.2421875 C-2.33735474 11.71971558 -3.43397783 7.36249034 -5 3 C-2.25 0 -2.25 0 0 0 Z " fill="#9FAA7D" transform="translate(691,466)"/>
<path d="M0 0 C1.32 0.99 2.64 1.98 4 3 C3.36843005 8.05255964 1.86540627 12.29593201 0 17 C-1.90389849 14.14415227 -2.69462177 12.0688238 -3.625 8.8125 C-4.01558594 7.46091797 -4.01558594 7.46091797 -4.4140625 6.08203125 C-4.70410156 5.05142578 -4.70410156 5.05142578 -5 4 C-3.35 2.68 -1.7 1.36 0 0 Z " fill="#A7B083" transform="translate(356,465)"/>
<path d="M0 0 C0.33 0.99 0.66 1.98 1 3 C1.66 3 2.32 3 3 3 C2.34 6.3 1.68 9.6 1 13 C0.01 13 -0.98 13 -2 13 C-2.33 13.66 -2.66 14.32 -3 15 C-3.99 15 -4.98 15 -6 15 C-6 13.35 -6 11.7 -6 10 C-5.34 10 -4.68 10 -4 10 C-2.68 6.7 -1.36 3.4 0 0 Z " fill="#295037" transform="translate(360,469)"/>
<path d="M0 0 C5.623117 0.40165121 8.04591056 2.23420054 12 6 C12 6.33 12 6.66 12 7 C8.04 7 4.08 7 0 7 C0 4.69 0 2.38 0 0 Z " fill="#395C36" transform="translate(523,461)"/>
<path d="M0 0 C4 0 4 0 6.25 1.875 C8 4 8 4 8 6 C3.8803623 7.29243536 0.33168317 8.26252625 -4 8 C-2.87548273 5.0280615 -1.77706209 2.66559313 0 0 Z " fill="#9CAA76" transform="translate(735,509)"/>
<path d="M0 0 C3.29148243 1.13499394 3.9959869 1.99283376 5.75 5.125 C6.1625 6.07375 6.575 7.0225 7 8 C2.62065881 7.48041715 -1.68803391 6.94324258 -6 6 C-4 4 -2 2 0 0 Z " fill="#9CA980" transform="translate(309,509)"/>
<path d="M0 0 C7.92 0 15.84 0 24 0 C24 0.66 24 1.32 24 2 C22.83082031 1.97679687 21.66164063 1.95359375 20.45703125 1.9296875 C18.90886058 1.91092179 17.36068297 1.89272245 15.8125 1.875 C15.04357422 1.85824219 14.27464844 1.84148438 13.48242188 1.82421875 C9.1850566 1.78733149 5.92098169 2.0041496 2 4 C1.34 2.68 0.68 1.36 0 0 Z " fill="#B9C091" transform="translate(498,567)"/>
<path d="M0 0 C13.86 0.99 13.86 0.99 28 2 C28 2.33 28 2.66 28 3 C18.43 3 8.86 3 -1 3 C-0.67 2.01 -0.34 1.02 0 0 Z " fill="#98A37D" transform="translate(310,584)"/>
<path d="M0 0 C3 1 3 1 4.6875 3.9375 C6 7 6 7 6 9 C5.34 9 4.68 9 4 9 C4 15.27 4 21.54 4 28 C3.67 28 3.34 28 3 28 C2.98018066 27.43603516 2.96036133 26.87207031 2.93994141 26.29101562 C2.84368189 23.69360426 2.73441948 21.09688897 2.625 18.5 C2.57859375 17.1696875 2.57859375 17.1696875 2.53125 15.8125 C2.28680022 10.27163824 1.53261755 5.33301067 0 0 Z " fill="#A59B67" transform="translate(588,302)"/>
<path d="M0 0 C0.33 0.66 0.66 1.32 1 2 C-4.45466718 8.66474693 -10.5575694 14.31481712 -17 20 C-17.66 19.67 -18.32 19.34 -19 19 C-18.56655273 18.60208252 -18.13310547 18.20416504 -17.68652344 17.79418945 C-15.70428965 15.97060853 -13.72712663 14.14161623 -11.75 12.3125 C-11.06808594 11.68666016 -10.38617187 11.06082031 -9.68359375 10.41601562 C-6.14313278 7.13335522 -2.8886516 3.89372368 0 0 Z " fill="#AA9A64" transform="translate(567,376)"/>
<path d="M0 0 C3.3 0 6.6 0 10 0 C10 0.33 10 0.66 10 1 C8.02 1 6.04 1 4 1 C4 1.66 4 2.32 4 3 C6.97 3.33 9.94 3.66 13 4 C13 4.33 13 4.66 13 5 C7.80790596 5.21192221 3.873261 4.5912689 -1 3 C-0.67 2.01 -0.34 1.02 0 0 Z " fill="#BFC597" transform="translate(484,584)"/>
<path d="M0 0 C1.98 0.99 1.98 0.99 4 2 C4 2.66 4 3.32 4 4 C4.5775 4.226875 5.155 4.45375 5.75 4.6875 C8.5663661 6.33038023 10.08077114 8.39533227 12 11 C11.67 11.66 11.34 12.32 11 13 C10.01 12.67 9.02 12.34 8 12 C8 11.34 8 10.68 8 10 C6.71340837 8.62150897 5.37086915 7.29470975 4 6 C2.62913085 4.70529025 1.28659163 3.37849103 0 2 C0 1.34 0 0.68 0 0 Z " fill="#C8CD9D" transform="translate(502,572)"/>
<path d="M0 0 C0.94875 0.309375 1.8975 0.61875 2.875 0.9375 C7.50938425 2.27928271 12.20552041 2.63342007 17 3 C17 3.33 17 3.66 17 4 C11.72 4 6.44 4 1 4 C0.67 2.68 0.34 1.36 0 0 Z " fill="#ABB489" transform="translate(371,583)"/>
<path d="M0 0 C1.32 0 2.64 0 4 0 C4 1.65 4 3.3 4 5 C1.36 4.67 -1.28 4.34 -4 4 C-3.67 3.34 -3.34 2.68 -3 2 C-2.01 2 -1.02 2 0 2 C0 1.34 0 0.68 0 0 Z " fill="#AFB588" transform="translate(641,431)"/>
<path d="M0 0 C0.33 1.65 0.66 3.3 1 5 C0.01 5 -0.98 5 -2 5 C-2.66 6.32 -3.32 7.64 -4 9 C-4.33 6.36 -4.66 3.72 -5 1 C-3 0 -3 0 0 0 Z " fill="#98A677" transform="translate(683,470)"/>
<path d="M0 0 C0.99 0.33 1.98 0.66 3 1 C2.42655063 3.86724686 2.1385485 4.8614515 0 7 C-3.625 7.125 -3.625 7.125 -7 7 C-7 6.67 -7 6.34 -7 6 C-5.5459375 5.62875 -5.5459375 5.62875 -4.0625 5.25 C-2.5465625 4.63125 -2.5465625 4.63125 -1 4 C-0.03122943 1.96756452 -0.03122943 1.96756452 0 0 Z " fill="#9DA878" transform="translate(728,507)"/>
<path d="M0 0 C1.98 0 3.96 0 6 0 C4.63016497 3.16115776 4.0109362 3.9927092 1 6 C0 1.125 0 1.125 0 0 Z " fill="#D2D5A5" transform="translate(542,568)"/>
<path d="M0 0 C0.66 0.99 1.32 1.98 2 3 C-0.31 3.33 -2.62 3.66 -5 4 C-5.33 2.68 -5.66 1.36 -6 0 C-2.25 -1.125 -2.25 -1.125 0 0 Z " fill="#B5BB8E" transform="translate(407,432)"/>
<path d="M0 0 C1.58025005 0.21192095 3.16398461 0.39923371 4.75 0.5625 C5.54921875 0.64628906 6.3484375 0.73007812 7.171875 0.81640625 C8.07679688 0.90728516 8.07679688 0.90728516 9 1 C9 1.33 9 1.66 9 2 C4.05 2 -0.9 2 -6 2 C-6 1.34 -6 0.68 -6 0 C-3.44763882 -1.27618059 -2.69758035 -0.74231977 0 0 Z " fill="#9EAC7F" transform="translate(567,585)"/>
<path d="M0 0 C2.97 0.33 5.94 0.66 9 1 C8.67 1.99 8.34 2.98 8 4 C3.91927658 3.44855089 3.08669204 3.08669204 0 0 Z " fill="#0E3A2A" transform="translate(305,516)"/>
<path d="M0 0 C-0.66 1.32 -1.32 2.64 -2 4 C-3.65 2.35 -5.3 0.7 -7 -1 C-3.51418144 -2.2020064 -3.32007656 -2.21338437 0 0 Z " fill="#A5AC83" transform="translate(342,486)"/>
<path d="M0 0 C0.66 0 1.32 0 2 0 C4.125 4.625 4.125 4.625 3 8 C0.9375 6.25 0.9375 6.25 -1 4 C-0.75 1.75 -0.75 1.75 0 0 Z " fill="#97A67B" transform="translate(317,507)"/>
<path d="M0 0 C2.31 0.66 4.62 1.32 7 2 C5.68 2.33 4.36 2.66 3 3 C3.33 4.32 3.66 5.64 4 7 C2.68 6.34 1.36 5.68 0 5 C0 3.35 0 1.7 0 0 Z " fill="#C0C497" transform="translate(418,466)"/>
<path d="M0 0 C2.2477975 2.05233685 3.0022242 3.00667261 4 6 C3.01 6.495 3.01 6.495 2 7 C2 6.34 2 5.68 2 5 C0.68 4.34 -0.64 3.68 -2 3 C-1.34 2.01 -0.68 1.02 0 0 Z " fill="#346132" transform="translate(528,449)"/>
<path d="M0 0 C3.96 0 7.92 0 12 0 C12 0.33 12 0.66 12 1 C11.31292969 1.04898437 10.62585938 1.09796875 9.91796875 1.1484375 C8.56638672 1.26058594 8.56638672 1.26058594 7.1875 1.375 C6.29417969 1.44460938 5.40085937 1.51421875 4.48046875 1.5859375 C1.75601501 1.86645036 1.75601501 1.86645036 -1 4 C-0.67 2.68 -0.34 1.36 0 0 Z " fill="#ACB488" transform="translate(472,338)"/>
<path d="M0 0 C0 3 0 3 -1.3125 4.38671875 C-2.875 5.59114583 -4.4375 6.79557292 -6 8 C-5.690625 7.401875 -5.38125 6.80375 -5.0625 6.1875 C-3.89790296 3.91043228 -3.89790296 3.91043228 -3 1 C-2.01 0.67 -1.02 0.34 0 0 Z " fill="#939C74" transform="translate(481,278)"/>
</svg>