<?xml version="1.0" standalone="no"?>
<!DOCTYPE svg PUBLIC "-//W3C//DTD SVG 20010904//EN"
 "http://www.w3.org/TR/2001/REC-SVG-20010904/DTD/svg10.dtd">
<svg version="1.0" xmlns="http://www.w3.org/2000/svg"
 width="1024.000000pt" height="1024.000000pt" viewBox="0 0 1024.000000 1024.000000"
 preserveAspectRatio="xMidYMid meet">
<metadata>
Created by potrace 1.16, written by Peter Selinger 2001-2019
</metadata>
<g transform="translate(0.000000,1024.000000) scale(0.100000,-0.100000)"
fill="#2d8a4e" stroke="none">
<path d="M4660 6773 c-535 -70 -1013 -407 -1245 -878 -106 -215 -146 -362
-167 -602 -40 -477 132 -952 467 -1288 161 -162 322 -273 516 -356 348 -150
748 -173 1119 -63 67 20 243 88 258 99 2 2 -16 41 -39 87 l-42 85 -89 -39
c-310 -134 -656 -152 -987 -52 -47 14 -140 52 -206 84 -356 172 -619 471 -744
845 -56 167 -74 279 -74 460 0 401 139 743 412 1015 213 213 473 351 761 405
129 25 372 25 495 1 304 -58 547 -187 760 -400 221 -222 355 -479 407 -781 17
-99 20 -148 16 -281 l-5 -161 86 -16 c55 -10 90 -12 96 -6 6 6 10 90 10 212 0
230 -17 345 -81 529 -83 243 -208 442 -399 633 -236 237 -491 377 -810 445
-77 17 -143 22 -290 25 -104 2 -206 1 -225 -2z"/>
<path d="M4695 6129 c-174 -26 -322 -115 -405 -246 -37 -58 -75 -175 -85 -260
l-7 -61 29 -6 c15 -3 71 -10 123 -16 52 -6 114 -13 136 -16 l42 -5 7 53 c23
172 123 267 279 268 91 0 138 -15 192 -63 78 -69 94 -188 39 -298 -14 -26 -71
-97 -127 -156 -55 -59 -114 -126 -131 -148 -76 -104 -117 -234 -117 -371 l0
-64 153 0 154 0 11 80 c17 120 44 162 211 335 161 165 207 236 231 352 17 82
8 224 -20 295 -91 240 -386 375 -715 327z"/>
<path d="M6798 4729 c-10 -5 -82 -80 -160 -167 -78 -86 -230 -253 -337 -370
l-194 -213 -144 151 c-80 83 -156 153 -169 156 -36 9 -78 -12 -129 -67 -36
-38 -45 -55 -45 -84 0 -32 18 -53 221 -265 236 -245 253 -257 317 -231 16 7
53 40 83 74 30 34 208 231 396 438 187 207 346 386 352 397 21 39 13 71 -31
118 -63 68 -116 89 -160 63z"/>
<path d="M4745 4531 c-75 -35 -105 -85 -105 -178 0 -117 69 -193 180 -201 109
-8 187 55 205 164 25 159 -135 282 -280 215z"/>
</g>
</svg>
