<?xml version="1.0" standalone="no"?>
<!DOCTYPE svg PUBLIC "-//W3C//DTD SVG 20010904//EN"
 "http://www.w3.org/TR/2001/REC-SVG-20010904/DTD/svg10.dtd">
<svg version="1.0" xmlns="http://www.w3.org/2000/svg"
 width="992.000000pt" height="1056.000000pt" viewBox="0 0 992.000000 1056.000000"
 preserveAspectRatio="xMidYMid meet">

<g transform="translate(0.000000,1056.000000) scale(0.100000,-0.100000)"
fill="#000000" stroke="none">
<path d="M4215 8515 c-59 -28 -82 -30 -106 -9 -16 14 -21 14 -58 -8 l-40 -23
-23 23 c-30 27 -38 27 -70 2 -20 -15 -40 -19 -103 -19 -158 1 -254 -29 -432
-133 -45 -26 -86 -48 -92 -48 -5 0 -17 8 -26 17 -15 14 -23 15 -59 5 -36 -10
-43 -9 -56 8 -10 13 -22 18 -37 14 -15 -4 -25 0 -35 15 -7 12 -17 21 -22 21
-15 0 -56 -53 -81 -107 -28 -59 -65 -90 -147 -126 -55 -25 -88 -62 -88 -100 0
-8 -7 -20 -15 -27 -26 -22 -67 -119 -57 -137 19 -34 0 -65 -109 -174 -65 -67
-131 -109 -168 -109 -39 0 -54 -14 -83 -78 -16 -36 -44 -80 -62 -98 -19 -18
-38 -51 -45 -76 -9 -31 -22 -50 -41 -61 -19 -12 -30 -28 -35 -54 -3 -20 -20
-56 -36 -79 -16 -24 -29 -49 -29 -57 0 -8 -8 -25 -18 -38 -10 -13 -26 -46 -36
-72 -18 -49 -12 -77 19 -77 24 0 37 -84 14 -92 -7 -2 -5 -21 6 -56 14 -41 16
-74 12 -145 -6 -104 -27 -167 -71 -214 l-30 -33 32 -31 c25 -25 32 -40 32 -70
0 -22 -5 -48 -12 -58 -9 -15 -7 -23 10 -41 15 -17 20 -30 15 -48 -5 -22 -3
-24 16 -19 34 9 49 -1 43 -28 -3 -20 0 -24 24 -27 23 -2 30 -9 34 -31 3 -16
15 -34 27 -40 31 -17 112 -114 119 -143 3 -13 4 -30 1 -37 -8 -20 40 -70 103
-108 30 -18 60 -38 66 -44 6 -5 33 -29 60 -52 27 -23 63 -54 79 -68 45 -39
156 -102 192 -110 24 -5 47 0 85 18 29 14 69 31 88 38 46 18 244 19 261 2 18
-18 74 -16 117 3 21 9 55 24 77 34 22 10 63 25 90 35 28 9 59 20 70 25 33 14
220 33 249 26 38 -9 110 -84 122 -126 15 -55 63 -74 151 -60 37 6 79 16 91 22
20 11 26 9 40 -8 10 -12 25 -24 35 -27 9 -4 17 -13 17 -20 0 -8 7 -20 15 -27
12 -10 15 -30 11 -97 -2 -47 -9 -90 -15 -96 -14 -14 -15 -57 -1 -57 18 0 11
-45 -10 -63 -21 -17 -27 -52 -11 -61 5 -3 12 -18 15 -32 8 -31 50 -93 98 -145
81 -88 96 -110 146 -209 28 -58 52 -111 52 -118 0 -17 47 -109 60 -117 15 -10
12 -71 -5 -85 -22 -18 -19 -31 19 -98 61 -107 64 -183 11 -242 -44 -49 -74
-130 -75 -202 0 -20 -4 -40 -10 -43 -11 -7 -14 -185 -2 -185 12 0 112 -183
112 -207 0 -7 11 -32 24 -55 54 -98 66 -124 66 -143 0 -22 45 -233 60 -281 6
-17 10 -38 10 -48 0 -28 66 -136 101 -166 3 -3 14 -27 24 -55 10 -27 36 -80
57 -118 39 -68 44 -107 12 -107 -21 0 -17 -21 13 -65 16 -24 26 -51 25 -66 -3
-23 0 -26 29 -26 18 0 37 -7 44 -16 18 -25 61 -31 87 -13 12 9 32 16 43 16 11
0 33 7 50 16 16 8 50 17 75 18 25 2 47 5 50 6 3 2 48 4 100 5 128 3 127 3 174
28 43 24 123 75 143 92 6 5 25 21 42 34 29 22 107 114 171 201 14 19 44 53 67
75 54 52 74 101 77 189 1 39 7 79 12 88 5 9 46 35 92 58 69 35 85 48 98 78 16
37 21 144 10 192 -3 14 -9 41 -12 60 -4 19 -10 40 -14 45 -4 6 -10 21 -12 35
-6 26 -11 20 182 194 25 23 70 54 100 69 68 34 79 43 112 87 32 44 88 148 88
166 0 7 -6 14 -12 16 -10 4 -14 47 -15 164 -1 87 -2 162 -2 166 -1 4 -9 9 -19
12 -10 4 -27 25 -37 48 -16 37 -17 47 -5 87 22 79 24 101 8 101 -11 0 -15 12
-15 46 0 39 3 45 19 41 13 -4 18 0 18 14 0 23 -16 25 -37 4 -8 -8 -19 -13 -24
-10 -13 9 -11 66 5 96 7 14 16 37 20 52 3 14 14 34 25 44 22 22 48 70 55 104
3 14 16 31 30 38 13 8 27 25 31 38 6 26 44 91 67 114 8 8 40 48 73 89 94 119
135 159 208 202 37 23 83 59 101 82 86 108 246 384 246 425 0 6 8 30 18 54 11
23 25 60 32 82 15 48 36 100 57 138 8 16 13 40 10 54 -3 17 2 31 17 44 20 19
20 21 3 31 -15 8 -18 20 -15 56 4 57 -17 67 -62 28 -16 -13 -40 -28 -52 -32
-12 -3 -29 -13 -37 -21 -10 -11 -28 -14 -60 -10 -28 3 -59 0 -78 -8 -18 -8
-47 -11 -65 -8 -25 4 -38 0 -52 -16 -12 -13 -31 -21 -52 -21 -18 0 -36 -4 -39
-10 -10 -17 -51 -11 -70 10 -10 11 -35 23 -56 26 -41 7 -59 31 -31 41 9 4 23
13 30 20 7 7 20 13 28 13 8 0 14 5 14 10 0 6 -4 10 -8 10 -4 0 -33 22 -63 50
-29 27 -58 50 -63 50 -4 0 -21 11 -38 25 -16 14 -35 25 -42 25 -6 0 -29 20
-49 45 -21 25 -47 45 -57 45 -11 0 -35 14 -53 30 -19 17 -39 30 -45 30 -10 0
-22 27 -42 95 -22 72 -41 103 -71 115 -36 15 -44 30 -52 90 -3 25 -13 59 -21
75 -9 17 -16 41 -16 55 0 15 -4 30 -8 35 -5 6 -16 30 -25 55 -10 26 -41 70
-72 102 -35 37 -55 66 -55 81 0 31 -68 163 -179 346 -96 159 -111 191 -88 191
8 0 17 -10 21 -22 7 -28 108 -181 119 -182 13 -1 37 72 42 125 6 65 -42 183
-76 186 -13 1 -49 4 -79 7 -30 2 -78 9 -107 15 -60 12 -98 0 -153 -45 -34 -29
-47 -29 -180 6 -25 7 -80 12 -123 13 -72 1 -78 2 -83 24 -7 25 -41 39 -72 28
-33 -10 -66 4 -84 35 -16 28 -22 30 -72 30 -67 0 -99 -11 -132 -47 -20 -21
-24 -36 -23 -72 3 -64 -6 -85 -46 -107 -29 -15 -39 -17 -55 -6 -11 6 -24 12
-30 12 -6 0 -29 9 -53 20 -23 10 -64 28 -92 38 -41 15 -53 26 -70 60 -24 51
-47 63 -189 96 -60 13 -113 29 -119 35 -6 6 -25 11 -42 11 -24 0 -35 6 -44 26
-10 23 -16 25 -53 22 -53 -4 -59 13 -14 40 61 36 88 123 39 130 -35 5 -37 32
-3 67 47 48 37 87 -15 63 -25 -11 -29 -10 -49 15 -12 15 -24 27 -26 27 -3 -1
-27 -12 -55 -25z"/>
<path d="M7210 6351 c0 -5 7 -11 15 -15 9 -3 15 0 15 9 0 8 -7 15 -15 15 -8 0
-15 -4 -15 -9z"/>
<path d="M4210 5375 c0 -8 0 -18 -1 -22 0 -4 4 -9 10 -11 6 -2 11 8 11 22 0
14 -4 26 -10 26 -5 0 -10 -7 -10 -15z"/>
<path d="M4122 5173 c5 -25 28 -28 28 -4 0 12 -6 21 -16 21 -9 0 -14 -7 -12
-17z"/>
<path d="M4105 5080 c3 -5 8 -10 11 -10 2 0 4 5 4 10 0 6 -5 10 -11 10 -5 0
-7 -4 -4 -10z"/>
<path d="M6861 4774 c0 -11 3 -14 6 -6 3 7 2 16 -1 19 -3 4 -6 -2 -5 -13z"/>
<path d="M6815 4661 c-3 -5 -1 -12 4 -15 5 -3 11 1 15 9 6 16 -9 21 -19 6z"/>
<path d="M7489 4042 c-34 -86 -37 -91 -59 -85 -26 7 -41 -13 -34 -42 3 -13 -2
-28 -15 -39 -12 -11 -21 -27 -21 -37 0 -10 -10 -21 -22 -25 -13 -4 -34 -15
-47 -25 -13 -11 -32 -19 -42 -19 -9 0 -19 -5 -21 -11 -2 -6 -21 -14 -43 -18
-32 -5 -40 -11 -46 -35 -5 -17 -15 -34 -24 -38 -8 -5 -15 -21 -15 -36 0 -16
-5 -33 -11 -39 -8 -8 -8 -20 0 -46 7 -19 11 -39 10 -43 -2 -5 3 -29 10 -53 12
-41 11 -48 -9 -85 -71 -132 -72 -135 -65 -173 3 -20 13 -47 22 -60 11 -17 14
-35 9 -65 -6 -39 -5 -43 44 -89 40 -39 57 -49 84 -49 19 0 37 4 41 9 3 6 25
13 50 16 24 4 51 12 60 19 14 10 73 175 143 396 45 142 66 254 65 335 l-2 80
19 -25 c34 -45 41 -15 24 95 -21 137 -39 189 -70 203 -22 11 -26 9 -35 -16z"/>
</g>
</svg>
