<?xml version="1.0" standalone="no"?>
<!DOCTYPE svg PUBLIC "-//W3C//DTD SVG 20010904//EN"
 "http://www.w3.org/TR/2001/REC-SVG-20010904/DTD/svg10.dtd">
<svg version="1.0" xmlns="http://www.w3.org/2000/svg"
 width="992.000000pt" height="1056.000000pt" viewBox="0 0 992.000000 1056.000000"
 preserveAspectRatio="xMidYMid meet">

<g transform="translate(0.000000,1056.000000) scale(0.100000,-0.100000)"
fill="#000000" stroke="none">
<path d="M5460 8910 c-52 -3 -105 -12 -117 -18 -12 -7 -35 -12 -51 -12 -45 0
-95 -29 -89 -51 8 -29 -8 -31 -57 -7 l-46 22 -22 -21 c-13 -12 -44 -23 -72
-27 -41 -5 -152 -34 -165 -42 -11 -8 27 -64 46 -69 13 -3 23 -9 23 -13 0 -5 6
-16 13 -26 14 -19 64 -29 232 -46 102 -11 133 -7 170 22 14 11 29 17 33 13 4
-4 2 -10 -5 -12 -6 -2 -21 -13 -34 -24 -12 -10 -37 -19 -54 -19 -93 0 -119
-26 -70 -68 25 -22 33 -42 16 -42 -9 0 -61 38 -76 57 -26 32 -114 43 -135 18
-11 -13 -16 -12 -42 10 -16 14 -40 25 -52 25 -15 0 -42 20 -79 60 -57 63 -92
76 -117 45 -7 -8 -21 -15 -32 -15 -10 0 -22 -8 -25 -17 -4 -10 -19 -30 -35
-45 -15 -15 -28 -36 -28 -47 0 -12 -9 -21 -26 -25 l-27 -7 22 -23 c11 -12 21
-27 21 -34 0 -20 36 -32 94 -32 44 0 56 -3 56 -16 0 -8 -13 -20 -30 -25 -50
-18 -36 -64 29 -93 37 -17 42 -17 72 -2 22 11 36 13 43 6 19 -19 54 -10 76 20
25 35 55 41 47 9 -8 -31 2 -49 28 -49 13 0 31 -3 40 -6 14 -6 13 -8 -5 -21
-16 -12 -27 -12 -55 -3 -19 6 -39 9 -45 5 -16 -10 -11 -34 10 -45 29 -16 25
-27 -15 -40 -92 -30 12 -75 168 -71 20 0 48 8 61 16 20 13 32 14 63 6 21 -6
53 -11 72 -11 20 0 39 -7 46 -17 11 -15 16 -15 46 -3 81 33 100 61 54 82 -14
6 -25 16 -25 22 1 18 49 47 88 53 60 8 88 22 102 51 7 15 19 41 27 58 8 18 12
41 8 57 -5 20 -3 27 7 27 14 0 158 85 168 99 3 4 23 20 45 36 22 16 47 36 55
46 8 9 31 25 50 35 79 44 160 105 160 122 0 14 -56 32 -98 32 -20 0 -44 7 -54
17 -15 13 -23 14 -44 5 -37 -18 -51 -15 -58 12 -8 31 -27 35 -276 59 -19 2
-78 1 -130 -3z m-333 -510 c10 -11 23 -20 30 -20 7 0 13 -5 13 -11 0 -8 -16
-10 -52 -5 -29 3 -75 6 -102 6 l-49 0 25 19 c22 17 48 25 101 30 9 0 25 -8 34
-19z"/>
<path d="M4168 8439 c-17 -9 -15 -39 2 -39 5 0 21 -5 36 -10 25 -10 26 -12 10
-29 -31 -34 -21 -42 54 -35 67 7 70 6 105 -25 55 -48 72 -38 57 34 -7 37 -11
41 -53 51 -25 6 -54 16 -65 22 -20 12 -110 42 -122 42 -4 0 -15 -5 -24 -11z"/>
<path d="M3868 8373 c-16 -2 -28 -9 -28 -15 0 -6 10 -8 24 -4 14 3 37 1 53 -5
l28 -11 -40 -19 c-22 -10 -50 -19 -61 -19 -31 0 -37 -26 -11 -45 30 -21 90
-19 110 3 10 10 17 33 17 50 0 17 5 34 12 38 7 5 5 11 -7 21 -18 13 -42 14
-97 6z"/>
<path d="M4510 8346 c0 -28 42 -76 68 -76 28 0 56 25 49 44 -6 16 -32 29 -89
46 -25 8 -28 6 -28 -14z"/>
<path d="M4308 8273 c6 -2 18 -2 25 0 6 3 1 5 -13 5 -14 0 -19 -2 -12 -5z"/>
<path d="M3655 8255 c-5 -2 -31 -6 -57 -10 -30 -4 -60 -16 -79 -33 -17 -14
-54 -36 -81 -49 -27 -13 -48 -28 -46 -35 2 -6 33 -18 67 -27 64 -15 64 -15 82
10 51 69 47 67 67 41 l18 -23 28 30 c15 16 26 35 24 43 -3 7 -1 23 3 36 8 21
1 26 -26 17z"/>
<path d="M4160 8226 c0 -19 27 -39 40 -31 8 5 6 13 -6 26 -20 22 -34 25 -34 5z"/>
<path d="M4648 8228 c9 -9 15 -9 24 0 9 9 7 12 -12 12 -19 0 -21 -3 -12 -12z"/>
<path d="M4817 8234 c-4 -4 -7 -11 -7 -16 0 -13 50 -6 53 7 2 12 -36 19 -46 9z"/>
<path d="M4583 8174 c-14 -36 94 -87 135 -65 15 8 24 5 41 -13 17 -18 21 -35
21 -83 0 -81 9 -87 124 -90 50 -1 168 -4 261 -6 94 -3 177 -1 186 4 15 8 20
21 31 82 2 14 -8 22 -37 33 -78 29 -201 21 -273 -18 -18 -9 -33 -9 -68 0 -24
7 -55 12 -67 12 -29 0 -70 41 -65 66 5 27 -39 46 -95 40 -37 -4 -49 -2 -54 10
-14 38 -127 61 -140 28z"/>
<path d="M3980 8145 c-8 -9 -10 -27 -6 -46 3 -18 1 -38 -5 -45 -14 -17 -67 -8
-94 16 -11 10 -44 29 -73 44 -66 32 -98 27 -118 -19 -7 -18 -20 -35 -29 -38
-22 -9 -18 -45 6 -52 12 -4 61 -4 110 0 49 4 89 4 89 1 0 -3 -16 -12 -35 -20
-24 -10 -35 -22 -35 -35 0 -30 46 -27 128 6 52 21 82 27 135 27 68 -1 69 -1
84 32 14 28 14 36 3 49 -9 10 -22 14 -36 11 -34 -9 -50 1 -69 45 -19 41 -35
48 -55 24z"/>
<path d="M4433 8143 c-25 -3 -33 -9 -33 -24 0 -23 -9 -24 -38 -3 -22 15 -26
13 -23 -18 1 -9 -7 -23 -18 -30 -34 -21 -24 -30 25 -22 44 6 46 6 39 -15 -10
-31 11 -51 54 -51 47 0 59 9 71 51 16 55 12 97 -9 109 -11 5 -23 9 -28 8 -4 0
-23 -3 -40 -5z"/>
<path d="M4233 8113 c4 -29 17 -43 38 -43 24 0 24 15 -1 40 -25 25 -41 26 -37
3z"/>
<path d="M3572 8078 c-19 -19 -14 -30 10 -26 13 2 24 11 26 21 4 20 -18 23
-36 5z"/>
<path d="M4615 8040 c-3 -5 1 -10 7 -13 7 -3 1 -10 -15 -16 -36 -14 -31 -31
15 -53 89 -42 116 -29 81 39 -15 28 -28 39 -52 44 -17 4 -34 3 -36 -1z"/>
<path d="M4206 8013 c-11 -11 -6 -23 9 -23 8 0 15 4 15 9 0 13 -16 22 -24 14z"/>
<path d="M3296 7941 c-3 -4 0 -22 7 -40 10 -27 9 -37 -6 -62 -9 -17 -17 -36
-17 -43 0 -7 -11 -27 -25 -46 -25 -34 -21 -60 11 -60 21 0 54 -32 54 -52 0
-28 14 -29 80 -5 48 17 68 30 83 55 21 36 31 39 53 17 11 -11 12 -20 5 -33
-12 -22 3 -42 30 -42 26 0 32 -18 9 -25 -23 -7 -25 -16 -8 -33 8 -8 45 -10
130 -5 102 5 118 4 118 -9 0 -12 -19 -16 -92 -21 -94 -5 -128 -12 -128 -28 0
-18 45 -49 79 -54 71 -12 76 -15 88 -45 7 -18 18 -30 30 -30 49 0 204 34 248
54 l51 23 52 -28 c32 -17 71 -28 104 -31 49 -3 53 -1 56 21 2 13 -1 28 -7 34
-19 19 -12 26 26 29 58 5 50 24 -24 58 -108 49 -98 39 -126 120 -9 25 -21 59
-28 77 -11 28 -11 35 5 52 21 23 13 61 -12 61 -33 0 -62 -13 -62 -26 0 -8 -12
-19 -26 -25 -26 -9 -26 -12 -20 -64 7 -65 -5 -72 -35 -20 -12 20 -31 41 -42
47 -18 9 -23 7 -35 -11 -19 -28 -46 -27 -66 4 -18 28 -44 33 -52 10 -9 -24
-32 -18 -46 13 -9 17 -22 28 -39 30 -20 2 -28 10 -33 32 -7 37 -72 72 -138 74
-28 1 -54 9 -66 19 -14 13 -37 17 -100 17 -44 0 -83 -4 -86 -9z"/>
<path d="M4470 7868 c-14 -5 -40 -7 -58 -3 -42 8 -54 -17 -21 -44 20 -16 22
-23 13 -38 -15 -25 -52 -28 -75 -7 -18 16 -19 16 -25 -1 -5 -12 -1 -22 12 -31
95 -66 113 -80 114 -85 0 -3 6 -14 14 -24 12 -17 14 -17 37 -2 13 10 31 17 40
17 9 0 24 9 34 20 28 31 13 86 -31 112 -39 23 -42 33 -14 48 11 6 20 15 20 20
0 18 -34 28 -60 18z"/>
<path d="M4630 7834 c-23 -54 -24 -66 -5 -119 13 -36 13 -43 -2 -72 -10 -18
-23 -33 -29 -33 -17 0 -27 -70 -15 -102 11 -30 47 -58 73 -58 10 0 18 -7 18
-15 0 -8 5 -24 12 -34 15 -25 -1 -46 -48 -61 -27 -9 -34 -17 -34 -37 0 -18 -5
-24 -17 -21 -14 3 -18 13 -18 48 0 41 3 46 32 60 l33 15 -35 33 c-45 41 -86
43 -110 6 -18 -28 -18 -29 29 -55 13 -8 15 -14 7 -22 -6 -6 -11 -18 -11 -28 0
-13 -8 -15 -48 -11 -28 2 -62 -2 -82 -10 -53 -21 -138 -9 -188 26 -33 23 -48
27 -74 22 -47 -10 -78 -39 -78 -74 0 -16 -7 -35 -15 -42 -10 -8 -15 -9 -15 -2
0 6 -14 27 -31 47 l-31 35 -107 -6 c-103 -6 -161 3 -161 25 0 5 11 12 25 15
28 7 34 40 9 50 -9 3 -40 6 -70 6 -48 0 -124 22 -283 80 -26 10 -35 10 -41 1
-8 -14 -57 -41 -73 -41 -6 0 -30 21 -53 48 l-42 47 -24 -26 c-16 -17 -41 -29
-69 -34 -24 -4 -49 -15 -56 -24 -12 -15 -14 -14 -27 2 -16 21 -62 17 -104 -9
-15 -10 -34 -13 -57 -8 -30 5 -36 3 -46 -20 -16 -35 -69 -31 -146 12 -12 7
-32 12 -45 12 -13 0 -48 9 -78 21 -31 12 -100 25 -160 31 -57 5 -112 14 -121
19 -10 5 -39 9 -66 9 -26 0 -61 7 -77 15 -18 10 -41 13 -62 9 -24 -4 -38 -1
-49 10 -10 9 -34 16 -58 16 -23 0 -51 7 -61 15 -26 20 -43 19 -73 -5 -14 -11
-38 -20 -53 -20 -15 0 -33 -6 -39 -14 -6 -7 -30 -16 -52 -19 -47 -6 -89 -41
-114 -93 -10 -22 -25 -36 -43 -40 -81 -18 -87 -21 -90 -40 -2 -15 11 -29 48
-53 28 -18 58 -44 66 -56 9 -13 25 -25 37 -27 11 -2 29 -18 40 -35 l19 -33
-25 -11 c-19 -9 -31 -8 -56 5 -17 9 -31 21 -31 26 0 16 -22 11 -87 -20 -67
-31 -75 -42 -43 -62 11 -7 25 -29 30 -49 9 -33 14 -37 53 -43 48 -7 124 2 133
15 3 5 13 9 23 9 13 0 20 -9 23 -30 6 -43 -16 -70 -57 -70 -19 0 -37 -5 -40
-11 -4 -5 -19 -9 -33 -7 -19 2 -29 -3 -37 -18 -5 -11 -18 -28 -28 -38 -25 -26
-32 -64 -15 -84 9 -9 19 -30 22 -47 14 -58 72 -95 102 -65 15 15 31 -7 36 -45
l3 -30 93 0 c56 0 92 -3 92 -10 0 -5 -11 -33 -24 -61 -17 -36 -32 -54 -54 -63
-17 -7 -38 -23 -46 -36 -9 -13 -26 -27 -38 -31 -21 -6 -48 -27 -48 -37 0 -7
54 5 67 15 7 5 17 7 23 3 5 -3 43 19 83 50 39 30 102 77 140 103 63 44 67 49
62 78 -4 23 -1 33 10 38 8 3 25 21 36 41 27 46 39 44 39 -4 0 -22 4 -42 9 -45
9 -6 48 8 129 45 28 13 43 25 41 37 -1 9 -1 23 0 30 2 18 58 15 65 -3 10 -27
93 -55 184 -61 48 -4 101 -13 118 -21 45 -20 188 -163 204 -204 7 -19 14 -35
16 -37 1 -2 11 2 22 9 18 11 24 10 49 -15 25 -25 26 -29 10 -37 -22 -13 -22
-48 1 -65 27 -21 32 -17 32 28 l0 42 29 -30 c16 -16 34 -49 40 -72 12 -41 66
-112 86 -112 10 0 65 -110 65 -130 0 -6 -7 -10 -15 -10 -8 0 -15 -4 -15 -9 0
-8 13 -20 107 -97 64 -53 74 -101 71 -344 -3 -220 3 -250 52 -295 11 -10 20
-22 20 -27 0 -5 16 -42 35 -82 19 -40 35 -78 35 -84 0 -6 24 -17 53 -26 86
-25 119 -61 158 -168 23 -65 45 -106 71 -134 40 -43 46 -62 26 -82 -13 -13 -5
-22 65 -68 30 -20 37 -30 37 -58 0 -25 8 -39 32 -60 17 -14 35 -26 38 -26 4 0
12 -12 19 -26 9 -21 14 -24 26 -14 19 16 19 34 -1 51 -9 8 -32 47 -50 88 -38
82 -110 195 -143 225 -12 11 -21 31 -21 47 0 64 58 42 85 -33 12 -33 39 -72
81 -116 35 -37 64 -75 64 -85 0 -9 11 -23 25 -29 14 -6 25 -16 25 -23 0 -6 20
-31 45 -54 58 -55 77 -91 86 -164 9 -76 29 -96 154 -160 55 -28 129 -65 165
-83 69 -35 116 -41 169 -23 41 14 71 2 133 -55 45 -40 129 -76 241 -102 33 -8
100 -83 107 -121 4 -22 11 -29 35 -31 30 -4 85 -46 85 -67 0 -6 16 -11 36 -11
26 0 42 -7 55 -23 24 -29 53 -24 57 10 6 48 74 64 88 22 3 -10 14 -34 25 -54
13 -26 19 -57 19 -103 l0 -66 -70 -72 c-61 -62 -72 -79 -85 -132 -15 -59 -15
-62 5 -78 26 -21 25 -32 -5 -56 -20 -16 -24 -27 -22 -65 3 -36 9 -50 34 -71
31 -26 177 -301 179 -338 2 -29 43 -66 111 -101 35 -18 74 -38 88 -45 47 -24
104 -91 112 -129 14 -69 -2 -329 -26 -428 -26 -103 -31 -135 -36 -210 -3 -44
-12 -97 -20 -117 -8 -21 -22 -57 -31 -80 -8 -24 -24 -61 -34 -83 -12 -28 -16
-55 -13 -88 4 -34 0 -55 -12 -74 -10 -14 -19 -45 -20 -67 -1 -23 -5 -49 -9
-59 -13 -36 -14 -45 -9 -51 12 -12 33 17 33 45 0 20 5 29 16 29 17 0 17 -4
-13 -137 -14 -63 -19 -73 -38 -73 -20 0 -65 -37 -65 -54 0 -4 14 -12 30 -17
35 -13 38 -29 10 -47 -23 -14 -26 -35 -7 -51 9 -7 13 -31 12 -68 -1 -33 6 -83
17 -115 10 -32 17 -63 16 -70 -2 -6 7 -17 19 -23 12 -6 30 -20 40 -31 10 -11
46 -33 80 -49 l61 -28 81 18 c45 11 81 21 81 24 0 4 -21 17 -46 30 -49 27
-109 102 -94 117 6 6 5 21 -2 40 -10 27 -9 33 10 52 12 12 22 28 22 35 0 13
45 61 98 103 41 33 40 47 -3 73 -48 28 -47 59 3 100 63 52 102 95 102 112 0 4
9 9 20 12 28 7 25 24 -5 31 -21 5 -25 12 -25 42 l0 35 53 -6 c49 -6 55 -5 69
17 9 14 18 38 20 54 3 25 7 29 33 30 17 0 63 9 104 20 66 17 77 24 107 63 39
51 41 62 14 79 -11 7 -20 19 -20 27 0 8 -11 22 -25 31 -14 9 -25 20 -25 24 0
16 34 20 50 5 10 -9 45 -18 82 -22 l65 -6 44 45 c24 25 51 55 59 68 8 12 21
28 28 36 6 7 12 21 12 31 0 10 5 25 10 33 8 13 10 12 10 -2 0 -10 3 -18 6 -18
8 0 32 28 54 61 8 12 30 39 48 59 26 31 32 46 32 84 0 26 6 59 14 75 18 34 87
81 132 88 18 3 41 14 50 24 13 14 31 19 73 19 32 0 65 6 76 14 11 8 35 45 54
82 19 38 41 77 49 86 19 23 33 79 42 176 7 70 12 86 33 106 14 13 37 43 53 67
15 24 46 68 68 98 36 48 41 60 40 110 0 65 -21 114 -49 119 -48 7 -63 13 -86
33 -75 67 -86 71 -171 76 -45 2 -89 8 -97 13 -9 4 -28 6 -43 3 -19 -4 -28 0
-32 14 -11 34 -126 79 -175 68 -22 -5 -32 -2 -38 10 -6 9 -28 19 -52 22 -37 5
-43 3 -48 -16 -3 -11 -11 -21 -19 -21 -28 0 -23 20 16 65 l40 46 -24 37 c-13
20 -27 52 -31 70 -12 59 -125 122 -220 122 -70 0 -86 8 -158 81 -37 38 -66 59
-80 59 -27 0 -47 17 -47 41 0 12 -20 27 -57 44 -55 25 -59 26 -86 11 -33 -18
-83 -21 -93 -5 -4 7 -20 8 -41 4 -44 -8 -70 1 -76 25 -3 13 -14 20 -29 20 -12
0 -30 5 -38 10 -10 6 -20 4 -30 -5 -9 -8 -27 -16 -41 -17 -18 -2 -25 2 -27 20
-4 26 -6 26 -40 8 -15 -8 -49 -22 -75 -31 -40 -14 -51 -23 -64 -56 -8 -22 -28
-48 -43 -59 -25 -18 -29 -18 -49 -3 -13 8 -41 20 -63 25 -33 7 -46 5 -75 -12
-49 -28 -66 -25 -107 20 -45 50 -52 78 -37 155 17 94 15 108 -18 128 -22 13
-53 17 -120 18 -89 1 -111 8 -94 32 5 7 18 48 28 92 10 44 22 85 26 90 3 6 10
25 14 43 l7 32 -59 -1 c-97 -2 -114 -9 -137 -56 -36 -70 -50 -80 -127 -87 -69
-7 -71 -7 -114 26 -24 18 -53 53 -65 78 -30 59 -37 160 -17 219 10 29 14 61
10 92 -5 42 -2 52 18 74 13 13 30 25 37 25 6 0 12 4 12 8 0 8 74 44 116 56 11
3 42 1 70 -5 27 -6 69 -12 94 -12 38 -2 45 1 42 16 -6 33 16 45 84 46 51 1 71
-4 93 -20 23 -17 33 -19 49 -10 28 15 35 14 63 -9 17 -16 23 -31 22 -58 -1
-20 6 -51 15 -68 65 -122 75 -131 101 -100 19 23 16 85 -9 188 -21 85 -22 102
-11 135 14 43 33 68 76 101 73 57 157 137 170 163 11 20 12 35 5 53 -7 20 -6
29 9 43 10 10 24 36 31 58 7 22 24 56 36 75 13 19 24 43 24 53 0 18 8 23 50
31 14 2 43 11 65 19 l40 14 -3 50 c-2 32 1 53 10 60 28 23 173 93 193 93 11 0
31 7 43 16 33 23 40 8 9 -17 -31 -23 -34 -50 -11 -74 15 -15 18 -15 38 3 11
11 50 32 86 47 36 15 86 40 112 57 47 30 47 30 30 53 -16 21 -18 22 -34 8 -10
-9 -18 -23 -18 -31 0 -11 -7 -13 -27 -8 -16 4 -43 8 -61 11 -38 4 -82 45 -82
76 0 12 -8 23 -20 26 -27 7 -25 19 5 39 32 21 32 51 0 66 -30 13 -141 -13
-179 -43 -25 -19 -46 -25 -46 -11 1 15 28 42 43 42 8 0 36 20 61 45 l45 46
161 -2 162 -1 31 30 c27 26 89 50 130 52 4 0 -3 -17 -16 -37 -13 -21 -36 -67
-51 -103 -16 -36 -32 -73 -37 -82 -17 -33 -10 -38 55 -38 80 0 101 -7 85 -26
-20 -24 0 -29 21 -6 25 26 58 29 67 5 14 -38 45 -43 60 -10 13 27 0 50 -34 61
-19 6 -20 10 -10 36 10 25 8 32 -8 47 -11 10 -31 19 -45 20 -37 2 -80 21 -80
35 0 7 9 28 20 46 12 19 17 38 13 45 -4 7 -8 39 -8 72 0 59 -1 60 -37 80 -20
11 -39 27 -41 36 -3 9 -27 24 -57 34 -60 20 -116 69 -126 111 -9 42 -28 84
-36 84 -5 0 -8 6 -8 13 0 6 -10 24 -23 39 -42 50 -52 63 -70 91 -9 15 -21 27
-26 27 -4 0 -16 -19 -26 -42 -18 -46 -88 -108 -121 -108 -10 0 -36 15 -57 34
-36 31 -38 36 -40 97 -2 62 -3 64 -29 64 -15 1 -37 11 -48 23 -12 12 -28 22
-38 22 -9 0 -30 16 -45 35 -27 34 -30 35 -78 29 -29 -4 -67 -2 -93 6 -53 14
-93 0 -80 -28 5 -9 7 -38 6 -64 -1 -26 3 -50 8 -53 15 -9 12 -61 -5 -75 -23
-19 -18 -43 15 -75 35 -34 55 -90 43 -121 -10 -26 -70 -79 -100 -88 -27 -9
-28 -17 -7 -57 23 -46 23 -132 0 -158 -11 -12 -24 -21 -29 -21 -5 0 -35 27
-67 61 -54 57 -58 64 -66 127 l-9 67 -65 5 c-63 5 -149 40 -220 90 -35 25 -96
43 -119 35 -31 -10 -56 10 -71 54 -14 44 -43 77 -59 67 -31 -20 -43 107 -14
152 29 44 36 53 76 93 20 21 37 45 37 54 0 8 11 20 24 24 13 5 26 17 29 25 4
10 18 16 37 16 34 0 100 57 100 86 0 10 10 28 22 41 12 13 23 36 24 51 1 25 4
27 36 24 20 -2 39 1 43 7 4 8 12 8 26 0 27 -14 53 -4 88 37 36 41 38 54 11 79
-25 23 -25 33 1 61 l21 23 -25 23 c-14 13 -35 31 -48 41 -24 17 -23 17 49 13
39 -2 74 0 77 5 3 4 17 4 30 -1 29 -11 55 -4 55 16 0 21 25 17 66 -11 48 -33
65 -56 52 -72 -16 -20 -1 -30 41 -30 34 0 47 -7 84 -44 25 -24 47 -53 51 -65
6 -20 -12 -52 -57 -97 -11 -11 -15 -25 -11 -41 4 -19 0 -25 -25 -36 -18 -7
-47 -10 -69 -7 -28 5 -46 1 -70 -13 -37 -23 -39 -33 -12 -60 24 -24 38 -25 76
-5 62 32 132 11 199 -60 24 -25 62 -51 95 -65 30 -12 75 -30 100 -40 100 -42
139 -33 85 19 -37 34 -31 41 22 25 25 -8 47 -13 47 -12 1 2 7 13 13 25 26 46
7 80 -94 170 -41 36 -53 79 -24 88 24 7 63 -16 109 -67 35 -38 72 -50 72 -23
0 8 9 19 20 25 11 6 20 18 20 27 0 9 10 27 21 40 28 29 13 51 -39 55 -29 2
-37 7 -37 22 0 14 -10 22 -31 28 -17 4 -39 17 -49 28 -10 11 -24 20 -31 20 -7
0 -31 12 -53 27 -45 29 -50 54 -12 63 l23 5 -21 19 c-12 11 -19 26 -16 34 7
19 -69 92 -97 92 -11 0 -31 9 -45 20 -14 11 -34 20 -44 20 -10 0 -22 7 -27 16
-5 9 -31 20 -58 25 -39 7 -56 17 -82 49 -19 22 -40 40 -48 40 -7 0 -20 13 -28
29 -19 36 -84 66 -158 74 -42 4 -60 2 -69 -9 -10 -12 -16 -11 -43 5 -28 17
-35 18 -69 6 -53 -18 -107 -57 -107 -77 0 -9 -4 -20 -10 -23 -15 -9 -12 -41 5
-59 19 -18 20 -57 2 -50 -21 8 -47 59 -47 92 0 16 13 47 30 70 17 23 30 44 30
47 0 3 -29 5 -64 5 -58 0 -67 -3 -94 -30 -34 -34 -48 -70 -56 -149 -5 -52 -5
-53 24 -64 17 -6 30 -19 30 -28 0 -26 34 -49 72 -49 55 0 81 -27 81 -84 0 -37
-6 -54 -29 -80 -16 -19 -34 -42 -40 -52 -29 -49 -86 -12 -62 41 10 22 8 29
-12 51 -32 34 -60 28 -74 -16 -13 -41 -40 -47 -44 -10 -6 55 -12 68 -38 74
-23 6 -25 10 -19 45 4 27 2 41 -9 50 -8 7 -23 32 -32 57 -9 24 -23 44 -30 44
-7 0 -16 5 -19 11 -11 17 4 59 20 59 9 0 20 11 25 25 6 17 17 25 33 25 13 0
30 6 38 13 17 14 52 67 47 72 -9 8 -114 25 -153 25 -43 0 -45 -1 -65 -46z
m747 -86 c18 -7 33 -14 33 -18 -1 -17 -20 -28 -57 -32 -45 -4 -52 6 -37 46 7
19 17 20 61 4z m-2087 -1819 c21 -3 26 -10 28 -41 2 -21 1 -38 -2 -38 -12 0
-46 41 -46 54 0 8 -4 18 -10 21 -5 3 -10 12 -10 18 0 9 2 9 8 1 4 -7 18 -14
32 -15z m2492 -2154 c0 -5 -5 -11 -11 -13 -6 -2 -11 4 -11 13 0 9 5 15 11 13
6 -2 11 -8 11 -13z m38 -3163 c0 -4 -9 -13 -20 -20 -11 -7 -20 -23 -20 -37 0
-26 -7 -29 -34 -19 -24 9 -20 22 16 55 31 28 58 38 58 21z"/>
<path d="M4085 7422 c-16 -2 -34 -9 -40 -16 -5 -7 -21 -18 -34 -25 -43 -23 -7
-30 59 -11 44 12 64 22 62 31 -5 21 -14 25 -47 21z"/>
<path d="M5523 7343 c-7 -2 -13 -20 -13 -38 0 -60 66 -54 86 8 9 30 -32 47
-73 30z"/>
<path d="M5137 7184 c-8 -8 1 -24 14 -24 5 0 9 7 9 15 0 15 -12 20 -23 9z"/>
<path d="M5071 7113 c-6 -21 -11 -45 -11 -54 0 -9 -9 -28 -20 -42 -28 -36 -25
-47 14 -47 23 0 38 -7 48 -22 14 -20 15 -20 41 -4 14 10 29 27 33 38 5 16 12
19 37 14 17 -3 39 -15 50 -27 13 -14 25 -18 40 -13 38 11 44 24 19 42 -13 10
-41 32 -62 49 -20 18 -58 42 -82 53 -25 11 -51 27 -58 35 -21 25 -38 17 -49
-22z"/>
<path d="M5420 6960 c0 -5 7 -10 16 -10 8 0 12 5 9 10 -3 6 -10 10 -16 10 -5
0 -9 -4 -9 -10z"/>
<path d="M5195 6896 c-18 -13 -16 -46 3 -46 13 0 62 40 62 51 0 14 -44 11 -65
-5z"/>
<path d="M5362 6845 c2 -14 8 -26 13 -26 6 0 11 12 13 26 2 18 -1 25 -13 25
-12 0 -15 -7 -13 -25z"/>
<path d="M1360 6700 c0 -5 5 -10 10 -10 6 0 10 5 10 10 0 6 -4 10 -10 10 -5 0
-10 -4 -10 -10z"/>
<path d="M1918 6532 c-44 -32 -51 -45 -34 -67 11 -15 16 -16 36 -5 34 18 60
52 57 74 -3 28 -17 28 -59 -2z"/>
<path d="M2846 6231 c-9 -13 11 -62 36 -88 26 -28 42 -30 29 -4 -6 10 -12 36
-13 57 -3 31 -8 40 -25 42 -11 2 -24 -1 -27 -7z"/>
<path d="M6150 6015 c0 -11 94 -46 109 -40 24 9 -37 45 -76 45 -18 0 -33 -2
-33 -5z"/>
<path d="M5466 4532 c-3 -5 1 -15 9 -22 16 -14 20 -3 6 19 -5 8 -11 9 -15 3z"/>
<path d="M5620 4460 c0 -5 5 -10 11 -10 5 0 7 5 4 10 -3 6 -8 10 -11 10 -2 0
-4 -4 -4 -10z"/>
<path d="M5192 4433 c-18 -9 -37 -24 -43 -35 -9 -17 -7 -18 18 -12 15 3 33 13
39 20 12 15 74 19 74 5 0 -5 21 -12 48 -16 26 -4 49 -10 52 -13 10 -14 66 -49
88 -56 13 -4 22 -15 22 -27 0 -18 6 -20 67 -17 71 3 95 21 43 33 -16 4 -36 13
-43 20 -16 15 -106 58 -195 91 -73 28 -124 30 -170 7z"/>
<path d="M5727 4248 c5 -27 3 -28 -33 -29 -22 -1 -42 -1 -46 0 -5 0 -8 -6 -8
-15 0 -12 11 -15 59 -12 38 2 64 -2 75 -11 14 -12 19 -11 34 3 12 10 36 16 71
16 65 0 64 13 -4 49 -35 18 -65 26 -102 26 -51 0 -51 0 -46 -27z"/>
<path d="M5455 4201 c-6 -11 25 -31 49 -31 21 0 31 21 15 31 -19 12 -56 11
-64 0z"/>
<path d="M5990 4200 c0 -5 9 -9 20 -7 31 5 36 17 7 17 -15 0 -27 -4 -27 -10z"/>
<path d="M6260 3811 c0 -6 5 -13 10 -16 6 -3 10 1 10 9 0 9 -4 16 -10 16 -5 0
-10 -4 -10 -9z"/>
</g>
</svg>
