<?xml version="1.0" standalone="no"?>
<!DOCTYPE svg PUBLIC "-//W3C//DTD SVG 20010904//EN"
 "http://www.w3.org/TR/2001/REC-SVG-20010904/DTD/svg10.dtd">
<svg version="1.0" xmlns="http://www.w3.org/2000/svg"
 width="1536.000000pt" height="1024.000000pt" viewBox="0 0 1536.000000 1024.000000"
 preserveAspectRatio="xMidYMid meet">

<g transform="translate(0.000000,1024.000000) scale(0.100000,-0.100000)"
fill="#000000" stroke="none">
<path d="M1895 10024 c-22 -8 -56 -20 -75 -26 -19 -5 -40 -15 -47 -20 -7 -5
-38 -18 -70 -27 -44 -13 -59 -22 -61 -38 -3 -20 0 -21 88 -17 62 3 99 9 116
21 20 13 32 14 58 6 20 -6 40 -7 47 -2 8 5 10 9 4 9 -5 0 -11 11 -11 24 -1 18
4 26 20 29 11 3 5 3 -14 1 -19 -2 -57 -8 -84 -14 -33 -7 -53 -7 -65 1 -13 8
-12 9 7 4 14 -4 28 -1 38 9 8 9 25 16 37 16 12 1 51 9 87 20 l65 19 -50 0
c-27 0 -68 -7 -90 -15z"/>
<path d="M2215 10030 c-13 -6 7 -7 55 -3 41 3 77 7 79 9 9 8 -115 2 -134 -6z"/>
<path d="M4360 9975 c-14 -8 -59 -28 -100 -45 -93 -38 -159 -92 -140 -114 10
-13 9 -18 -3 -31 -9 -8 -21 -15 -27 -15 -25 0 -2 -23 35 -36 66 -23 94 -19
106 16 10 26 16 30 50 30 28 0 42 6 51 20 10 16 24 20 66 20 46 0 86 13 141
48 8 5 -138 123 -151 122 -2 -1 -14 -7 -28 -15z"/>
<path d="M3958 9960 c33 -14 96 -17 102 -5 3 6 -21 11 -60 12 -49 2 -59 0 -42
-7z"/>
<path d="M1355 9940 c-21 -11 -55 -23 -74 -26 -49 -9 -55 -14 -34 -29 17 -13
17 -14 0 -20 -9 -4 -28 -4 -41 -1 -28 7 -44 -10 -27 -27 12 -12 143 -18 136
-6 -7 11 17 26 55 34 78 15 101 26 95 45 -3 10 -1 21 5 25 47 29 -58 34 -115
5z"/>
<path d="M2117 9943 c-31 -13 -35 -18 -26 -30 11 -12 5 -13 -38 -7 -67 8 -94
-6 -84 -43 4 -16 11 -27 14 -27 53 10 68 15 63 22 -2 4 12 9 32 10 48 3 133
20 150 31 9 5 2 15 -27 34 -22 15 -42 27 -43 26 -2 0 -20 -7 -41 -16z"/>
<path d="M2395 9952 c-34 -5 -75 -24 -75 -33 0 -12 93 -11 125 1 14 5 24 14
21 19 -7 11 -44 18 -71 13z"/>
<path d="M3245 9950 l-30 -8 30 0 c17 0 41 4 55 8 l25 8 -25 0 c-14 0 -38 -4
-55 -8z"/>
<path d="M1055 9905 l-60 -12 75 -4 c75 -4 130 5 130 22 0 12 -72 9 -145 -6z"/>
<path d="M1745 9860 c-5 -9 18 -20 41 -20 8 0 14 4 14 9 0 11 -49 21 -55 11z"/>
<path d="M1570 9852 c0 -4 16 -6 35 -4 19 2 35 6 35 8 0 2 -16 4 -35 4 -19 0
-35 -4 -35 -8z"/>
<path d="M1840 9840 c20 -13 100 -13 100 0 0 6 -26 10 -57 10 -41 0 -54 -3
-43 -10z"/>
<path d="M4455 9803 c-90 -5 -108 -11 -102 -33 4 -17 0 -19 -43 -17 -52 2 -66
-4 -57 -26 13 -35 366 -134 413 -117 14 6 41 10 61 10 l36 0 -6 39 c-3 26 0
46 9 58 19 25 17 40 -6 46 -23 6 -45 -12 -55 -44 -5 -14 -14 -19 -28 -17 -18
2 -23 11 -25 43 -5 65 -13 68 -197 58z m25 -63 c0 -5 -15 -10 -34 -10 -19 0
-38 5 -41 10 -4 6 10 10 34 10 23 0 41 -4 41 -10z"/>
<path d="M2020 9790 c20 -13 40 -13 40 0 0 6 -12 10 -27 10 -22 0 -25 -2 -13
-10z"/>
<path d="M4900 9702 c-28 -9 -91 -77 -109 -117 -10 -22 -32 -55 -50 -72 l-31
-32 37 6 c21 3 60 11 87 19 27 8 62 14 78 14 16 0 41 8 55 18 19 12 55 18 127
22 l100 5 -80 47 c-43 26 -90 51 -104 56 -14 6 -41 17 -60 25 -19 8 -42 12
-50 9z"/>
<path d="M4985 9419 c-43 -12 -102 -74 -87 -91 6 -8 7 -19 3 -27 -7 -11 -16
-11 -44 -2 -33 11 -56 10 -140 -5 -37 -7 -24 -24 19 -24 25 0 34 -4 34 -16 0
-15 -8 -16 -57 -9 -80 10 -109 8 -176 -15 -81 -28 -107 -25 -74 9 10 11 8 12
-8 8 -11 -3 -83 -17 -160 -32 -239 -45 -348 -74 -405 -108 -29 -18 -61 -36
-71 -42 -25 -13 -24 -25 2 -25 18 0 20 -4 14 -30 -6 -26 -3 -31 29 -44 20 -8
36 -19 36 -25 0 -16 -20 -24 -33 -13 -8 6 -67 6 -162 1 -82 -5 -167 -6 -187
-3 -55 8 -76 -2 -87 -43 -17 -61 29 -110 133 -142 80 -25 96 -35 96 -64 0 -27
-22 -87 -32 -87 -11 0 -10 13 2 46 15 39 -7 57 -67 59 -34 1 -66 11 -108 35
-46 26 -72 34 -112 34 -49 1 -53 -1 -53 -23 0 -19 -4 -22 -20 -17 -11 3 -28 8
-37 11 -10 3 -25 1 -33 -4 -22 -15 22 -57 81 -76 53 -18 67 -31 51 -47 -6 -6
-39 3 -98 27 -117 48 -120 50 -116 71 11 59 13 97 7 122 l-7 27 -14 -34 c-8
-19 -42 -61 -75 -93 -58 -58 -70 -88 -34 -88 18 0 55 -56 55 -83 0 -10 -7 -32
-16 -49 -36 -69 5 -106 126 -113 90 -5 136 -24 157 -66 10 -20 10 -26 -2 -35
-36 -27 -8 -85 47 -99 16 -4 26 -11 23 -15 -8 -12 -81 10 -104 31 -25 24 -26
42 -5 74 15 23 14 26 -9 48 -25 26 -92 43 -126 32 -11 -3 -30 -22 -42 -41 -17
-28 -20 -44 -15 -78 6 -38 3 -48 -19 -75 -15 -17 -33 -31 -41 -31 -7 0 -20
-12 -28 -27 -25 -50 -64 -85 -86 -78 -11 3 -39 8 -63 10 -68 5 -127 24 -127
40 0 18 4 18 46 3 28 -10 36 -9 51 4 10 9 33 19 52 23 26 6 36 15 48 44 8 20
27 44 44 53 31 18 64 80 55 104 -3 8 -22 24 -42 36 l-37 22 7 96 7 95 -36 35
c-19 19 -35 39 -35 46 0 7 14 35 31 62 40 65 43 112 9 128 -37 18 -207 32
-232 20 -33 -17 -45 -43 -30 -66 10 -16 10 -20 0 -20 -7 0 -20 -13 -30 -29 -9
-16 -29 -37 -45 -47 -79 -49 -92 -89 -48 -142 28 -34 31 -59 11 -88 -13 -17
-12 -21 1 -36 9 -10 30 -18 49 -18 45 0 69 -35 60 -85 -9 -48 -28 -53 -73 -17
-21 17 -51 34 -68 38 -16 4 -55 22 -85 40 -34 20 -101 45 -173 64 -108 29
-123 30 -168 20 l-49 -12 18 -26 c10 -15 21 -34 25 -44 6 -18 -21 -48 -44 -48
-8 0 -25 -7 -37 -16 -31 -21 -75 -11 -70 17 2 11 8 18 13 17 6 -2 9 -6 7 -10
-1 -5 3 -8 9 -8 6 0 8 7 5 16 -3 9 -6 18 -6 20 0 15 -55 0 -74 -21 -13 -14
-28 -25 -33 -25 -6 0 -16 -7 -23 -15 -19 -22 -50 -19 -50 5 0 38 -39 41 -97 8
-31 -17 -80 -34 -119 -40 -86 -13 -98 -3 -56 48 17 21 29 41 26 45 -2 4 -21 1
-42 -8 -20 -8 -59 -22 -87 -30 -27 -8 -69 -28 -93 -45 -23 -16 -68 -41 -100
-55 -31 -14 -80 -47 -109 -74 -65 -62 -88 -63 -148 -8 -25 23 -45 45 -45 49 0
16 66 49 87 44 29 -8 38 12 19 41 -22 34 -52 48 -121 56 -33 4 -78 11 -100 15
l-39 7 42 -40 c47 -45 52 -68 20 -108 l-22 -28 33 -26 c24 -19 33 -36 34 -60
2 -28 -3 -36 -34 -54 l-36 -21 -35 27 c-38 30 -69 34 -87 14 -6 -8 -28 -19
-50 -25 -32 -10 -42 -20 -55 -53 -9 -22 -13 -51 -10 -65 8 -31 -12 -55 -40
-49 -11 2 -60 13 -108 25 -106 25 -188 27 -188 5 0 -17 25 -21 35 -5 8 14 33
1 40 -21 4 -10 18 -22 33 -25 38 -9 52 -23 52 -51 0 -31 -24 -39 -56 -18 -22
14 -31 15 -52 6 -20 -10 -28 -9 -42 4 -9 8 -38 22 -63 31 -82 28 -120 100 -82
157 17 27 13 34 -43 70 l-42 27 0 -178 0 -179 28 -13 c25 -13 26 -14 6 -17
-16 -3 -20 -10 -17 -22 3 -10 0 -22 -6 -25 -8 -5 -11 -274 -11 -924 1 -1017
-2 -970 62 -936 19 10 55 18 84 18 45 0 56 -4 81 -30 15 -17 43 -39 62 -49 63
-32 219 -145 250 -180 53 -61 34 -113 -51 -136 -34 -9 -57 -8 -112 4 -60 12
-74 12 -103 1 -55 -24 -110 -18 -142 14 -22 21 -37 27 -66 26 -62 -2 -65 -12
-65 -231 0 -177 5 -215 25 -183 7 12 104 3 119 -11 5 -5 4 -14 -3 -23 -7 -8
-12 -30 -10 -48 1 -18 -3 -45 -9 -59 -6 -15 -8 -37 -5 -48 3 -13 -7 -49 -24
-89 -17 -37 -33 -75 -36 -84 -4 -10 -15 -18 -26 -18 -18 0 -19 -5 -14 -50 3
-30 1 -55 -5 -63 -14 -17 -16 -347 -2 -347 6 0 19 6 30 12 17 11 24 8 56 -22
46 -45 64 -80 64 -125 0 -46 30 -90 79 -114 48 -25 65 -58 57 -108 -6 -32 -3
-42 14 -58 32 -29 50 -69 50 -112 0 -53 28 -93 100 -144 55 -38 66 -52 102
-128 22 -47 52 -99 65 -115 20 -23 24 -38 21 -80 -4 -84 38 -231 77 -270 26
-25 92 -21 127 9 23 19 41 25 79 25 28 0 62 6 77 14 15 8 46 17 67 21 22 4 65
22 95 40 30 18 84 42 120 54 79 26 81 27 108 72 26 43 99 79 159 79 40 0 83
22 83 44 0 20 67 79 83 73 18 -7 57 19 57 37 0 8 -8 17 -17 21 -17 6 -17 7 -1
16 10 5 20 25 24 44 8 43 20 52 43 31 25 -23 31 -20 31 14 0 22 7 33 28 44 31
16 47 44 57 99 7 34 4 39 -65 105 -54 53 -80 71 -108 76 -61 9 -82 36 -82 106
0 56 -2 60 -23 60 -15 0 -48 -25 -97 -75 l-74 -75 -92 0 c-110 0 -121 8 -103
68 12 41 6 107 -11 117 -5 3 -19 1 -31 -5 -19 -11 -21 -19 -17 -76 2 -35 1
-64 -4 -64 -4 0 -19 20 -33 43 -18 31 -25 58 -25 93 0 47 -3 53 -51 99 -55 53
-109 152 -109 198 0 15 9 36 21 48 17 17 27 19 67 13 26 -3 55 -11 64 -16 10
-4 37 -48 60 -96 42 -85 45 -88 105 -117 34 -16 75 -42 90 -56 35 -33 85 -59
114 -59 12 0 41 11 63 24 23 13 58 27 77 31 31 6 38 3 52 -19 9 -14 17 -37 17
-51 0 -39 33 -65 83 -65 23 -1 76 -7 117 -15 49 -10 157 -16 310 -17 l235 -3
3 -23 c2 -12 23 -43 48 -68 24 -25 44 -52 44 -60 0 -8 14 -17 31 -21 17 -3 33
-12 36 -19 8 -21 69 -34 104 -22 32 11 45 6 34 -11 -3 -6 -21 -11 -39 -11 -33
0 -66 -25 -66 -48 0 -7 16 -20 35 -29 19 -9 44 -32 55 -51 20 -33 22 -34 68
-27 57 8 78 25 86 71 4 19 11 35 16 36 35 5 35 4 36 -157 1 -153 2 -166 38
-290 40 -141 66 -215 95 -273 10 -20 28 -65 40 -100 12 -35 33 -80 46 -101 14
-21 30 -63 35 -94 10 -63 19 -84 49 -111 28 -25 56 -13 106 47 22 27 43 43 51
40 8 -3 14 0 14 7 0 7 9 25 21 41 18 25 23 28 37 17 14 -11 15 -10 8 7 -22 54
-19 103 9 150 25 44 26 49 15 96 -23 96 5 211 47 195 7 -3 31 10 52 29 21 19
43 35 50 35 6 0 61 52 123 116 62 63 131 125 153 136 62 31 75 47 75 88 0 52
18 64 97 62 43 0 74 5 87 13 11 8 29 12 40 10 12 -3 27 -1 34 4 12 7 12 12 1
29 -31 50 32 28 87 -30 40 -43 54 -70 54 -107 0 -32 30 -61 62 -61 25 0 48
-28 48 -60 0 -16 9 -45 21 -65 33 -56 39 -100 22 -157 -15 -51 -12 -71 8 -51
15 15 51 4 45 -13 -10 -27 22 -13 77 31 30 25 58 57 61 70 11 45 22 26 45 -77
20 -93 60 -206 82 -234 12 -15 29 -97 36 -169 4 -46 0 -73 -16 -115 -12 -30
-21 -65 -21 -77 0 -12 -4 -25 -10 -28 -6 -3 -10 -19 -10 -35 0 -21 6 -29 24
-34 33 -8 114 -105 122 -145 7 -34 19 -47 29 -31 10 16 25 1 25 -25 0 -12 -7
-25 -14 -28 -20 -8 -6 -54 34 -117 29 -45 87 -100 107 -100 4 0 19 -9 33 -20
25 -20 90 -28 90 -11 0 5 -6 14 -14 20 -8 7 -24 33 -36 58 -18 40 -21 56 -15
114 l7 68 -46 44 c-25 24 -70 57 -101 73 -51 26 -59 35 -81 89 -14 33 -30 74
-36 91 -6 16 -19 34 -31 40 -42 19 -43 38 -8 123 18 45 36 102 38 129 6 62 22
102 41 102 11 0 13 -9 9 -40 l-5 -41 43 6 c42 7 43 6 61 -32 15 -30 27 -40 56
-47 36 -9 58 -37 58 -73 0 -10 6 -13 16 -9 9 4 23 1 32 -6 8 -7 29 -17 46 -23
34 -11 44 -36 28 -69 -28 -58 -20 -101 11 -56 7 10 25 23 39 29 16 6 32 25 44
54 16 40 23 45 67 57 57 14 124 69 142 115 9 22 9 53 3 115 -17 146 -23 158
-190 348 -82 94 -92 111 -89 158 2 33 60 113 114 155 46 37 53 39 117 39 45 0
70 -4 73 -12 4 -10 6 -10 6 0 1 7 5 11 10 8 5 -3 6 -26 3 -51 -2 -26 0 -45 5
-45 16 0 46 38 39 49 -12 19 13 48 45 55 18 3 59 16 92 29 48 18 67 32 99 74
40 52 40 52 68 38 18 -10 31 -11 35 -5 3 6 16 10 28 10 22 -1 22 -1 3 -15 -19
-15 -19 -15 5 -15 47 0 167 76 306 194 28 24 32 31 19 38 -20 11 -9 38 15 38
12 0 25 15 37 44 11 24 25 47 31 50 6 4 11 16 11 27 0 10 4 19 9 19 5 0 17 21
27 48 10 26 30 62 46 80 39 45 36 66 -10 81 -20 7 -42 12 -47 10 -17 -4 -45
12 -45 25 0 7 17 18 38 24 56 17 76 35 68 60 -5 13 -12 19 -22 15 -15 -6 -84
26 -84 39 0 3 9 10 21 13 14 5 29 0 47 -17 l26 -23 -27 35 c-14 19 -45 68 -68
109 -30 52 -50 77 -70 85 -43 16 -46 37 -8 66 18 14 56 49 84 78 43 45 55 52
88 52 26 0 37 4 37 15 0 9 -9 15 -24 15 -29 0 -76 36 -76 57 0 14 -4 13 -23
-5 -14 -13 -30 -19 -43 -16 -15 4 -30 -4 -52 -25 -38 -39 -59 -39 -69 -2 -5
17 -23 40 -42 53 -42 28 -74 78 -62 96 6 11 17 11 46 3 l38 -10 96 88 c53 48
107 94 120 101 22 12 27 10 47 -15 25 -32 23 -47 -12 -70 -19 -12 -24 -24 -24
-60 0 -44 13 -67 23 -41 3 8 25 21 49 27 24 7 57 21 73 31 46 27 96 23 127 -9
32 -35 41 -60 24 -70 -6 -5 -18 -23 -26 -41 -15 -39 -5 -52 36 -44 18 3 34 -5
64 -36 46 -45 49 -57 19 -73 -15 -8 -18 -14 -10 -22 17 -17 13 -88 -5 -108
-20 -23 -12 -49 16 -49 11 0 38 9 60 20 22 11 49 20 60 20 56 0 90 51 90 132
-1 70 -26 122 -89 183 -71 69 -69 82 26 136 77 43 78 45 85 91 8 59 9 61 64
99 25 17 61 47 79 67 28 31 35 34 48 23 9 -7 25 -10 36 -6 13 4 23 0 29 -11 8
-15 14 -14 62 12 95 52 288 265 414 456 53 82 57 92 67 175 6 57 19 106 35
140 31 61 39 115 27 163 -9 32 -13 36 -68 48 -32 7 -70 22 -85 32 -36 26 -45
25 -68 -5 -24 -30 -48 -32 -57 -4 -5 14 -12 18 -23 13 -10 -4 -28 -7 -42 -8
-22 -1 -25 4 -28 34 -3 35 -3 35 -47 32 -36 -3 -46 0 -52 14 -5 14 5 28 42 58
27 23 147 134 266 249 216 206 218 207 276 218 33 7 104 9 166 6 78 -4 119 -2
147 8 27 10 49 11 71 5 26 -8 32 -6 36 10 11 42 116 50 185 14 16 -8 38 -12
49 -9 11 4 27 1 36 -6 13 -12 12 -16 -13 -37 l-29 -24 66 5 c86 6 139 31 139
64 0 16 7 27 20 30 11 3 20 9 20 14 0 4 49 59 110 120 l109 113 93 6 c51 3 98
9 105 13 6 4 25 4 43 0 l32 -6 -5 -53 c-5 -47 -3 -54 15 -60 14 -4 29 3 52 23
17 16 57 45 89 64 44 25 60 41 64 62 7 36 57 77 93 77 43 0 46 -17 11 -61 -31
-37 -32 -41 -22 -91 5 -29 7 -56 5 -59 -2 -4 -20 -10 -41 -14 -69 -13 -123
-46 -184 -115 -72 -81 -195 -188 -241 -208 -18 -8 -51 -18 -73 -21 -33 -5 -40
-10 -43 -31 -6 -54 -14 -71 -50 -107 l-37 -37 1 -86 c2 -67 10 -113 42 -220
22 -74 43 -152 47 -172 5 -28 12 -38 26 -38 11 0 19 -5 19 -12 0 -26 98 85
104 117 4 21 20 46 42 64 29 26 38 29 55 20 33 -17 51 6 43 56 -7 50 11 93 51
119 24 16 28 16 44 2 20 -18 47 -21 56 -6 3 5 -1 23 -11 39 -19 33 -14 65 17
105 15 19 25 24 33 17 6 -5 23 -14 38 -20 28 -10 27 -13 14 51 -5 20 -11 25
-25 21 -33 -9 -35 17 -2 49 17 17 31 41 31 54 0 29 -11 30 -35 4 -21 -23 -33
-25 -59 -5 -25 19 -16 51 28 104 19 22 42 61 52 86 9 25 23 45 31 45 8 0 28 9
44 21 17 12 41 19 57 18 18 -2 39 5 56 19 38 29 86 30 93 1 5 -19 8 -20 17 -7
15 20 61 43 114 58 36 9 52 8 92 -5 35 -12 47 -20 43 -31 -3 -8 1 -14 9 -14
20 0 37 20 31 36 -3 8 -1 14 5 14 5 0 40 21 78 46 69 47 340 183 417 210 34
12 50 13 88 3 67 -17 126 2 115 37 -3 11 -36 57 -73 103 -63 78 -73 86 -130
105 -67 23 -89 38 -79 55 10 16 38 14 76 -6 19 -9 65 -18 104 -20 59 -4 77 -1
103 16 28 18 32 26 35 72 2 36 8 55 21 63 27 17 51 -4 55 -49 l3 -37 37 8 c67
16 136 9 170 -15 18 -12 32 -30 32 -40 0 -28 65 -51 173 -59 53 -4 97 -5 97
-1 0 4 -7 12 -15 19 -8 7 -15 22 -15 33 0 11 -7 29 -17 39 -15 17 -14 18 28
18 29 1 58 9 84 25 22 14 48 25 57 25 26 0 13 21 -39 60 -85 64 -122 80 -222
94 -85 12 -114 23 -253 89 -86 42 -190 96 -231 121 -41 25 -97 51 -123 57 -27
6 -69 20 -94 31 -28 13 -80 23 -135 27 -49 4 -100 13 -112 20 -16 8 -57 10
-140 6 -65 -4 -145 -3 -179 2 -80 12 -84 10 -69 -35 10 -28 20 -39 44 -47 34
-10 42 -25 13 -25 -10 0 -25 -9 -34 -20 -37 -43 -90 -39 -156 12 -49 38 -54
58 -14 58 16 0 37 6 47 14 18 13 18 14 -3 25 -36 19 -77 13 -117 -19 -21 -17
-49 -33 -61 -36 -22 -6 -124 -1 -262 12 -91 8 -130 -1 -150 -37 -18 -31 -32
-38 -32 -15 0 7 -13 19 -29 26 -47 19 -79 60 -83 105 -5 63 -52 83 -248 105
-79 9 -219 2 -350 -16 -39 -5 -50 -3 -75 19 -19 15 -49 27 -82 32 -29 4 -56
11 -59 17 -4 6 -22 17 -41 24 -38 16 -40 41 -2 36 l24 -3 -25 22 c-23 20 -32
21 -129 16 -57 -3 -109 -11 -115 -17 -15 -15 -89 -13 -84 3 3 6 18 15 34 18
l29 7 -27 1 c-15 0 -30 6 -33 11 -3 6 -30 10 -58 10 -29 0 -97 5 -153 12 -105
12 -127 8 -242 -45 l-23 -11 20 -16 c25 -18 45 -80 31 -94 -6 -6 -18 -3 -32
11 -28 25 -68 46 -75 40 -2 -3 0 -14 6 -25 22 -40 5 -57 -25 -27 -9 8 -30 15
-47 16 -18 0 -76 1 -130 3 -68 1 -104 -2 -115 -11 -29 -22 -50 -14 -88 32 -36
42 -39 44 -56 28 -10 -9 -18 -24 -18 -34 0 -25 -38 -87 -61 -100 -16 -8 -30
-2 -77 34 -59 46 -142 130 -142 145 0 19 14 21 32 5 10 -9 21 -13 25 -9 11 11
-13 41 -30 38 -25 -4 -29 16 -10 48 23 40 13 55 -62 86 -54 23 -65 24 -110 14
-57 -13 -88 -5 -142 36 -37 28 -79 31 -111 8 -16 -11 -21 -22 -17 -35 4 -12
-1 -31 -10 -46 l-17 -26 -146 7 c-80 4 -154 12 -164 17 -10 5 -18 21 -18 34 0
34 -16 36 -210 33 -164 -3 -164 -3 -177 -28 -6 -14 -15 -34 -18 -45 -12 -37
-23 5 -12 46 5 22 7 42 5 45 -3 3 -24 -3 -47 -12 -32 -12 -44 -14 -55 -5 -8 7
-25 9 -40 5 -17 -4 -31 -1 -41 10 -26 26 -88 5 -100 -33 -4 -13 -33 -23 -113
-39 -59 -12 -117 -25 -129 -28 -33 -9 -29 18 5 38 16 10 72 33 125 52 115 42
137 53 157 77 8 11 46 30 85 44 38 14 78 33 90 43 11 10 32 23 48 30 34 14 35
29 2 44 -30 14 -32 24 -4 33 46 15 8 50 -126 115 -58 28 -205 28 -303 -1 -40
-12 -75 -19 -79 -16 -9 10 27 47 46 47 11 0 12 3 4 11 -13 13 -88 16 -155 5
-27 -4 -48 -3 -48 1 0 12 54 43 74 43 28 0 17 17 -15 24 -44 8 -158 6 -194 -5z
m-1197 -583 c41 -21 40 -37 -3 -75 -51 -44 -79 -49 -134 -20 -55 30 -66 64
-30 100 19 19 29 21 79 16 31 -2 71 -12 88 -21z m4579 -180 c-7 -18 -42 -22
-52 -6 -4 6 -12 7 -18 3 -7 -4 -7 -1 1 9 26 32 81 27 69 -6z m3183 -595 c22
-43 2 -71 -25 -34 -13 17 -9 53 6 53 4 0 13 -9 19 -19z m-1740 -1235 c0 -3 -4
-8 -10 -11 -5 -3 -10 -1 -10 4 0 6 5 11 10 11 6 0 10 -2 10 -4z m-4170 -87 c0
-6 -5 -20 -12 -32 -6 -12 -13 -51 -14 -86 -2 -60 -4 -66 -46 -108 -40 -42
-127 -106 -220 -162 -27 -16 -61 -25 -106 -29 -76 -5 -75 5 2 28 67 21 171 95
236 168 28 31 71 96 96 144 40 79 64 107 64 77z m-5240 -696 c-1 -8 -30 -30
-98 -74 -32 -21 -32 -22 -15 -42 14 -15 15 -21 5 -24 -7 -3 -26 -16 -41 -29
-16 -13 -41 -24 -55 -24 -32 0 -108 35 -131 60 -15 17 -14 19 11 39 27 22 37
25 107 36 28 4 37 10 33 20 -3 10 6 17 32 24 69 18 152 25 152 14z m1012 -78
c31 -13 51 -106 26 -122 -7 -4 -38 -8 -68 -8 -53 0 -55 -1 -60 -30 -5 -27 -9
-30 -41 -27 -25 2 -41 -3 -54 -18 -18 -20 -18 -21 25 -65 29 -29 41 -49 36
-60 -10 -27 21 -75 49 -75 27 0 39 -25 30 -62 -4 -17 0 -32 15 -49 l20 -24 -6
27 c-7 30 4 37 74 53 41 9 51 -12 28 -60 -15 -32 -16 -37 -2 -57 22 -31 20
-38 -8 -38 -14 0 -28 -4 -31 -10 -10 -16 -43 -11 -47 7 -2 14 -7 11 -21 -11
-17 -25 -17 -29 -3 -51 9 -13 28 -30 43 -37 28 -13 28 -15 28 -107 0 -51 -3
-97 -6 -103 -3 -5 -40 -12 -81 -15 -84 -6 -125 7 -230 75 -65 42 -77 62 -54
97 9 13 16 39 16 58 0 46 20 70 59 69 17 0 31 4 31 9 0 5 -23 25 -50 45 -34
24 -60 54 -77 87 -14 28 -40 73 -58 101 -18 28 -36 67 -40 86 -4 19 -16 51
-27 72 -25 44 -20 69 23 121 36 43 139 96 256 131 67 20 81 21 131 10 32 -6
65 -15 74 -19z m600 -123 c-2 -72 -6 -90 -24 -109 -24 -25 -75 -31 -110 -12
-16 9 -24 7 -44 -12 -13 -12 -27 -19 -31 -16 -14 15 -21 112 -9 137 18 38 74
71 110 64 26 -4 36 0 60 25 42 44 52 28 48 -77z m1424 86 c-10 -6 -20 -7 -24
-3 -9 8 20 25 31 18 5 -3 2 -10 -7 -15z m-146 3 c0 -14 -27 -21 -78 -21 -68 0
-191 -28 -231 -52 -20 -13 -41 -39 -53 -66 -27 -59 -43 -42 -23 25 22 74 53
103 112 104 26 1 59 5 73 9 35 11 200 12 200 1z m3260 -1631 c0 -5 -5 -10 -11
-10 -5 0 -7 5 -4 10 3 6 8 10 11 10 2 0 4 -4 4 -10z m-4800 -890 c0 -5 -4 -10
-10 -10 -5 0 -10 5 -10 10 0 6 5 10 10 10 6 0 10 -4 10 -10z"/>
<path d="M2490 9381 c-14 -5 -40 -15 -57 -25 -49 -25 -149 -45 -275 -55 -118
-10 -225 -41 -354 -102 -34 -16 -74 -29 -88 -29 -26 0 -26 -1 -12 -21 14 -20
12 -24 -25 -55 -22 -18 -48 -36 -59 -39 -26 -8 -15 -27 13 -24 28 3 67 -10 85
-27 7 -8 17 -12 20 -10 4 2 16 -5 26 -15 28 -28 2 -23 -44 7 -22 15 -57 29
-77 31 -32 3 -41 -1 -84 -46 -26 -27 -57 -55 -68 -61 -12 -6 -21 -17 -21 -25
0 -8 -12 -38 -27 -65 l-28 -50 40 -36 c28 -25 33 -32 15 -23 l-25 12 23 -26
c13 -13 22 -33 20 -43 -2 -14 4 -20 22 -22 14 -2 30 -8 36 -13 6 -5 19 -6 29
-3 11 5 22 1 30 -9 8 -11 34 -19 83 -23 98 -9 104 7 29 79 -46 44 -56 61 -62
98 -3 24 -3 53 2 64 7 19 80 88 168 158 19 16 35 39 36 50 0 12 3 16 6 10 8
-21 26 -15 20 7 -4 16 0 20 19 20 36 0 79 25 103 59 24 33 119 68 311 116 147
37 286 83 299 99 29 35 -56 59 -129 37z m-790 -331 c0 -5 -4 -10 -9 -10 -6 0
-13 5 -16 10 -3 6 1 10 9 10 9 0 16 -4 16 -10z m-180 -371 c0 -6 -4 -7 -10 -4
-5 3 -10 11 -10 16 0 6 5 7 10 4 6 -3 10 -11 10 -16z"/>
<path d="M4470 9380 c0 -5 5 -10 10 -10 6 0 10 5 10 10 0 6 -4 10 -10 10 -5 0
-10 -4 -10 -10z"/>
<path d="M4438 9353 c7 -3 16 -2 19 1 4 3 -2 6 -13 5 -11 0 -14 -3 -6 -6z"/>
<path d="M8458 9303 c7 -3 16 -2 19 1 4 3 -2 6 -13 5 -11 0 -14 -3 -6 -6z"/>
<path d="M4613 9273 c9 -2 23 -2 30 0 6 3 -1 5 -18 5 -16 0 -22 -2 -12 -5z"/>
<path d="M4540 9260 c-11 -8 -7 -9 15 -4 37 8 45 14 19 14 -10 0 -26 -5 -34
-10z"/>
<path d="M7665 9218 c-34 -19 -75 -61 -75 -78 0 -37 87 -94 164 -109 38 -7 45
-6 49 9 3 10 18 20 38 23 51 10 228 6 235 -4 10 -16 43 -9 54 11 6 11 21 20
34 20 58 0 54 58 -5 79 -40 14 -92 14 -84 1 11 -18 -54 -11 -72 9 -10 10 -33
23 -51 29 -43 15 -72 1 -72 -33 0 -22 -2 -24 -27 -14 -14 5 -41 23 -60 39 -36
32 -89 40 -128 18z"/>
<path d="M7478 9166 c-3 -15 0 -27 8 -30 16 -6 19 21 5 42 -6 10 -10 7 -13
-12z"/>
<path d="M8287 9123 c-11 -17 24 -39 101 -63 59 -18 86 -22 142 -17 74 6 114
21 107 40 -8 24 -337 61 -350 40z"/>
<path d="M5691 9021 c-7 -5 -9 -11 -5 -14 14 -8 104 4 104 14 0 12 -81 11 -99
0z"/>
<path d="M5776 8981 c-3 -5 1 -11 9 -15 8 -3 15 -1 15 4 0 13 -18 22 -24 11z"/>
<path d="M7900 8966 c0 -8 -10 -17 -22 -19 -20 -4 -19 -4 5 -6 21 -1 27 4 27
19 0 11 -2 20 -5 20 -3 0 -5 -6 -5 -14z"/>
<path d="M5600 8959 c0 -5 5 -7 10 -4 6 3 10 1 10 -4 0 -6 10 -11 23 -11 21 1
22 1 3 15 -23 17 -46 20 -46 4z"/>
<path d="M2743 8938 c-29 -14 -30 -45 -2 -53 34 -11 89 3 89 23 0 39 -41 52
-87 30z"/>
<path d="M3060 8920 c-8 -5 -12 -10 -10 -12 3 -2 16 -13 30 -25 l26 -22 -2 27
c-1 15 -3 30 -3 35 -1 10 -23 9 -41 -3z"/>
<path d="M7920 8896 c-53 -13 -64 -43 -15 -39 85 7 142 5 162 -5 22 -12 53 -7
53 10 0 29 -132 52 -200 34z"/>
<path d="M3342 8848 c6 -18 28 -21 28 -4 0 9 -7 16 -16 16 -9 0 -14 -5 -12
-12z"/>
<path d="M3256 8811 c21 -15 41 -26 44 -24 7 7 -53 53 -69 53 -8 0 4 -13 25
-29z"/>
<path d="M1363 8724 c-12 -33 49 -47 66 -15 8 15 7 20 -5 25 -28 11 -54 6 -61
-10z"/>
<path d="M11065 8631 c-33 -20 -71 -59 -64 -65 2 -2 67 1 143 7 155 13 176 25
104 57 -56 26 -143 26 -183 1z"/>
<path d="M1864 8533 c12 -18 28 -32 37 -33 9 0 28 -9 43 -21 16 -13 33 -18 46
-14 59 19 -19 93 -102 98 l-44 2 20 -32z"/>
<path d="M0 8310 c0 -180 0 -180 23 -180 12 -1 40 -7 62 -15 22 -8 80 -22 130
-30 50 -9 111 -21 137 -27 36 -9 63 -9 118 1 84 15 124 44 142 103 12 39 11
42 -13 60 -14 11 -64 37 -112 57 -47 21 -99 48 -116 60 -41 30 -169 75 -254
91 -68 13 -91 25 -63 36 24 9 9 24 -25 24 l-29 0 0 -180z"/>
<path d="M1137 8440 c7 -25 40 -50 69 -50 35 0 36 12 2 42 -38 34 -79 39 -71
8z"/>
<path d="M11935 7641 c-22 -3 -35 -9 -30 -13 20 -12 173 -39 206 -36 l33 3
-51 28 c-51 27 -78 30 -158 18z"/>
<path d="M9117 7153 c-16 -16 -6 -43 16 -42 28 1 70 17 46 18 -9 1 -22 8 -29
16 -14 16 -23 19 -33 8z"/>
<path d="M9950 7075 c-34 -37 -18 -41 21 -6 22 20 28 31 18 31 -9 0 -26 -11
-39 -25z"/>
<path d="M9882 7059 c2 -6 8 -10 13 -10 5 0 11 4 13 10 2 6 -4 11 -13 11 -9 0
-15 -5 -13 -11z"/>
<path d="M9885 6790 c3 -5 13 -10 21 -10 8 0 12 5 9 10 -3 6 -13 10 -21 10 -8
0 -12 -4 -9 -10z"/>
<path d="M7793 6609 c-29 -11 -30 -29 -2 -24 26 5 32 11 28 23 -3 6 -13 6 -26
1z"/>
<path d="M7910 6540 c0 -5 5 -10 11 -10 5 0 7 5 4 10 -3 6 -8 10 -11 10 -2 0
-4 -4 -4 -10z"/>
<path d="M8201 6534 c0 -11 3 -14 6 -6 3 7 2 16 -1 19 -3 4 -6 -2 -5 -13z"/>
<path d="M7986 6497 c3 -10 9 -15 12 -12 3 3 0 11 -7 18 -10 9 -11 8 -5 -6z"/>
<path d="M8060 6481 c0 -5 9 -11 20 -14 13 -3 20 0 20 9 0 8 -9 14 -20 14 -11
0 -20 -4 -20 -9z"/>
<path d="M8176 6461 c-27 -28 -27 -30 -12 -59 13 -25 13 -32 1 -48 -19 -25
-19 -54 3 -100 15 -34 17 -72 17 -282 0 -133 3 -242 6 -242 4 0 14 18 22 39
12 28 14 58 10 108 -6 77 9 121 52 149 28 18 52 9 92 -35 28 -30 27 -26 -22
89 -21 47 -44 110 -51 140 -8 30 -21 79 -30 108 -8 29 -13 65 -9 80 4 22 0 33
-23 55 l-28 27 -28 -29z"/>
<path d="M8260 5803 c0 -11 7 -20 15 -20 8 0 15 4 15 7 0 4 -7 13 -15 20 -12
10 -15 9 -15 -7z"/>
<path d="M8835 5750 c-3 -5 -2 -10 4 -10 5 0 13 5 16 10 3 6 2 10 -4 10 -5 0
-13 -4 -16 -10z"/>
<path d="M8310 5740 c0 -5 5 -10 11 -10 5 0 7 5 4 10 -3 6 -8 10 -11 10 -2 0
-4 -4 -4 -10z"/>
<path d="M8744 5685 c-18 -15 -18 -15 5 -13 14 2 26 9 29 16 5 17 -10 15 -34
-3z"/>
<path d="M8168 5660 c-7 -11 -18 -20 -25 -20 -7 0 -13 -4 -13 -10 0 -5 4 -10
10 -10 17 0 22 -47 10 -84 -8 -25 -19 -38 -36 -42 -13 -4 -40 -25 -60 -48
l-35 -41 25 -3 c30 -4 30 -5 14 -31 -6 -10 -8 -26 -4 -36 6 -17 8 -17 29 4 13
11 31 21 40 21 9 0 17 5 17 10 0 6 -11 10 -24 10 -40 0 -40 19 -1 36 53 22 86
15 110 -23 16 -25 25 -30 45 -26 31 6 73 51 66 69 -7 18 6 24 56 28 110 9 167
31 96 38 -28 3 -34 7 -36 32 -4 28 -4 29 -57 22 -45 -5 -59 -2 -98 19 -25 14
-61 44 -81 65 -34 38 -36 39 -48 20z"/>
<path d="M8503 5579 c-22 -14 -33 -28 -32 -42 1 -18 2 -18 6 -4 2 9 9 14 15
11 6 -4 8 -3 5 3 -4 5 11 16 33 23 22 7 37 17 34 21 -8 14 -27 10 -61 -12z"/>
<path d="M8064 5278 c-8 -13 22 -38 48 -38 10 0 18 -4 18 -10 0 -13 -23 -13
-37 1 -18 18 -33 1 -27 -30 16 -79 -84 -235 -174 -271 -18 -7 -44 -26 -57 -42
-15 -18 -30 -26 -37 -22 -7 4 -6 -1 3 -12 13 -16 13 -24 3 -54 -13 -34 -13
-34 -13 -7 -1 16 -5 26 -11 22 -5 -3 -10 -2 -10 4 0 5 6 12 13 14 8 4 6 6 -4
6 -9 1 -33 -10 -53 -24 -30 -20 -49 -25 -100 -25 -56 0 -76 -6 -157 -46 -114
-57 -146 -79 -123 -88 24 -9 54 -7 54 4 0 6 11 10 24 10 14 0 27 4 30 9 7 10
215 55 223 47 3 -3 2 -17 -1 -31 -5 -20 -10 -24 -19 -16 -17 13 -57 3 -57 -15
0 -17 12 -18 28 -2 9 9 15 9 20 3 8 -12 13 -12 55 -2 15 4 38 9 52 12 14 3 25
10 25 16 0 8 -5 7 -15 -1 -9 -7 -18 -10 -21 -8 -3 3 6 15 20 26 15 11 26 28
26 37 0 12 5 15 18 10 37 -16 60 -16 97 -1 20 9 48 16 61 16 12 0 26 5 29 10
11 18 35 11 35 -11 0 -66 76 94 84 178 5 57 4 62 -19 77 -14 9 -25 21 -25 27
0 7 8 6 22 -3 21 -14 24 -12 65 38 43 53 44 54 32 94 -7 24 -15 36 -20 29 -4
-6 -12 -8 -18 -5 -6 4 -9 12 -6 17 3 5 -3 19 -14 31 -12 12 -21 25 -21 30 0
12 -38 10 -46 -4z"/>
<path d="M8160 5249 c7 -11 14 -19 16 -16 7 7 -7 37 -17 37 -6 0 -5 -9 1 -21z"/>
<path d="M7810 4980 c0 -5 5 -10 11 -10 5 0 7 5 4 10 -3 6 -8 10 -11 10 -2 0
-4 -4 -4 -10z"/>
<path d="M7756 4883 c-11 -11 -6 -23 9 -23 8 0 15 4 15 9 0 13 -16 22 -24 14z"/>
<path d="M7940 4740 c-13 -9 -13 -10 0 -10 8 0 22 5 30 10 13 9 13 10 0 10 -8
0 -22 -5 -30 -10z"/>
<path d="M7807 4712 c-10 -13 -7 -14 22 -9 18 4 37 7 42 7 5 0 9 4 9 8 0 15
-60 9 -73 -6z"/>
<path d="M7898 4723 c7 -3 16 -2 19 1 4 3 -2 6 -13 5 -11 0 -14 -3 -6 -6z"/>
<path d="M7180 4665 c-11 -13 -10 -14 4 -9 9 3 16 10 16 15 0 13 -6 11 -20 -6z"/>
<path d="M7463 4645 c0 -8 4 -15 7 -15 4 0 10 -14 14 -31 3 -17 10 -28 16 -24
6 4 8 11 4 16 -3 5 -1 8 4 7 6 -2 10 0 11 5 3 25 -2 35 -24 45 -32 15 -32 15
-32 -3z"/>
<path d="M7556 4652 c-2 -4 4 -8 14 -8 10 0 16 4 14 8 -3 4 -9 8 -14 8 -5 0
-11 -4 -14 -8z"/>
<path d="M7700 4640 c-11 -7 -12 -12 -3 -21 13 -13 33 -4 33 17 0 16 -9 18
-30 4z"/>
<path d="M7001 4622 c-11 -21 -6 -32 16 -32 15 0 18 36 4 45 -6 3 -15 -3 -20
-13z"/>
<path d="M7297 4628 c-9 -7 -20 -25 -26 -39 -9 -24 -7 -25 19 -21 35 5 47 -13
25 -38 -11 -12 -15 -30 -12 -52 l4 -33 1 38 c1 20 7 37 13 37 5 0 8 -4 4 -9
-7 -12 15 -62 25 -56 3 2 4 -9 2 -26 -6 -44 4 -35 34 27 39 83 42 127 11 158
-28 28 -72 34 -100 14z"/>
<path d="M6653 3908 c-21 -24 -49 -68 -61 -99 -23 -55 -23 -56 -5 -104 10 -27
23 -50 29 -52 10 -3 44 57 44 81 0 7 14 55 30 105 41 123 31 142 -37 69z"/>
<path d="M6865 3850 c3 -5 8 -10 11 -10 2 0 4 5 4 10 0 6 -5 10 -11 10 -5 0
-7 -4 -4 -10z"/>
<path d="M6066 3718 c-20 -28 -7 -34 31 -16 33 16 36 32 6 36 -13 2 -27 -5
-37 -20z"/>
<path d="M4400 3604 c0 -6 7 -19 15 -30 8 -10 14 -14 14 -9 0 6 -6 19 -14 29
-8 11 -15 15 -15 10z"/>
<path d="M5773 3473 c-101 -9 -143 -128 -52 -148 38 -9 70 18 105 87 29 56 30
69 7 66 -10 -1 -37 -3 -60 -5z"/>
<path d="M6713 3341 c-12 -19 -57 -19 -68 0 -3 4 -12 6 -20 2 -11 -4 -15 -23
-15 -73 0 -38 -4 -72 -10 -75 -5 -3 -10 -18 -10 -32 0 -15 -9 -36 -19 -47 -20
-21 -20 -22 0 -66 26 -59 47 -80 76 -80 23 0 24 2 18 44 -6 38 -4 46 14 55 12
7 21 18 21 27 0 8 16 22 35 31 41 19 54 53 35 88 -7 13 -10 33 -7 44 3 14 -1
25 -14 31 -14 8 -17 17 -12 40 6 34 -6 40 -24 11z"/>
<path d="M6690 2981 c0 -5 7 -12 16 -15 14 -5 15 -4 4 9 -14 17 -20 19 -20 6z"/>
<path d="M6789 2958 c-2 -15 2 -42 6 -46 6 -7 46 -10 43 -4 -26 51 -32 62 -40
62 -4 0 -9 -6 -9 -12z"/>
<path d="M6620 2946 c0 -9 31 -78 34 -75 9 11 -8 79 -20 79 -8 0 -14 -2 -14
-4z"/>
<path d="M6889 2928 c-1 -2 -3 -12 -4 -23 -2 -17 4 -21 29 -20 34 0 45 27 14
33 -10 2 -18 -2 -18 -8 0 -6 -5 -8 -10 -5 -6 4 -8 11 -5 16 4 5 4 9 1 9 -3 0
-7 -1 -7 -2z"/>
<path d="M1491 2901 c-21 -14 -3 -31 33 -31 33 0 62 20 49 33 -9 10 -66 8 -82
-2z"/>
<path d="M6580 2873 c0 -13 5 -23 10 -23 13 0 13 11 0 30 -8 12 -10 11 -10 -7z"/>
<path d="M6687 2837 c-3 -8 -1 -20 4 -28 6 -10 9 -7 9 14 0 29 -5 35 -13 14z"/>
<path d="M6973 2775 c-9 -10 -8 -18 7 -35 l19 -22 -1 32 c-1 36 -8 43 -25 25z"/>
<path d="M7034 2754 c8 -50 16 -56 16 -11 0 20 -5 39 -11 42 -7 5 -9 -5 -5
-31z"/>
<path d="M6783 2717 c4 -28 2 -37 -9 -37 -8 0 -14 -5 -14 -12 0 -6 3 -8 6 -5
4 3 16 1 27 -5 17 -9 19 -8 13 7 -5 15 -4 16 9 5 9 -7 18 -10 22 -6 3 3 2 6
-3 6 -5 0 -10 12 -9 26 0 17 -9 32 -24 42 l-24 17 6 -38z"/>
<path d="M6520 2716 c0 -8 5 -18 10 -21 6 -3 10 1 10 9 0 8 -4 18 -10 21 -5 3
-10 -1 -10 -9z"/>
<path d="M6442 2577 c-45 -45 -82 -86 -82 -91 0 -13 124 106 132 127 4 9 12
17 17 17 5 0 11 7 15 15 3 8 4 15 3 15 -1 0 -39 -37 -85 -83z"/>
<path d="M3531 2616 c-23 -24 -24 -30 -17 -111 11 -144 43 -192 105 -154 37
22 54 59 45 97 -6 26 -67 136 -96 175 -13 17 -15 17 -37 -7z"/>
<path d="M6812 2604 c-20 -31 -21 -35 -6 -41 19 -7 44 20 44 48 0 31 -15 28
-38 -7z"/>
<path d="M7060 2610 c0 -42 -4 -45 -118 -106 -31 -17 -34 -17 -67 0 -34 19
-55 15 -55 -9 0 -7 -7 -15 -15 -19 -8 -3 -15 -13 -15 -23 0 -10 -9 -24 -20
-31 -24 -15 -28 -62 -5 -62 13 0 14 4 5 20 -8 16 -8 20 3 20 8 0 20 7 27 15 7
8 25 15 41 15 15 0 31 5 34 10 3 6 15 10 26 10 17 0 20 -4 14 -29 -3 -17 -2
-32 4 -36 6 -3 11 -15 11 -25 0 -10 12 -33 26 -50 25 -29 27 -30 45 -14 11 9
19 22 19 29 0 6 11 22 25 35 20 18 28 21 37 12 43 -43 52 53 17 172 -23 78
-39 105 -39 66z"/>
<path d="M6990 2590 c0 -5 5 -10 10 -10 6 0 10 5 10 10 0 6 -4 10 -10 10 -5 0
-10 -4 -10 -10z"/>
<path d="M6230 2279 c-53 -50 -119 -104 -150 -119 -37 -20 -73 -51 -110 -94
-60 -73 -94 -87 -162 -69 -35 10 -40 8 -58 -15 -13 -16 -20 -40 -20 -68 0 -51
20 -134 33 -134 15 0 58 -50 52 -60 -4 -6 -4 -29 0 -50 7 -39 8 -40 49 -40 32
0 48 -6 66 -24 19 -21 31 -25 74 -23 28 1 56 5 61 8 6 3 29 4 53 1 33 -3 45
-9 52 -27 7 -18 14 -21 41 -17 24 4 30 2 24 -8 -6 -10 -4 -12 9 -7 10 4 20 7
22 7 2 0 4 7 4 15 0 9 9 15 21 15 21 0 22 3 16 74 -6 83 3 105 53 131 24 13
29 21 28 50 -1 41 22 71 63 80 32 7 38 20 14 29 -9 3 -24 26 -35 51 -11 25
-24 45 -30 45 -5 0 -10 10 -10 23 0 13 -5 28 -11 34 -16 16 -3 47 16 39 8 -3
15 -1 15 4 0 6 -6 10 -14 10 -26 0 -30 23 -8 41 12 9 22 26 22 38 0 15 9 22
35 27 46 8 44 18 -7 38 -31 13 -43 14 -49 5 -12 -19 -42 -2 -36 21 3 11 -2 29
-11 40 -17 20 -19 18 -112 -71z m0 -60 c0 -5 -7 -9 -15 -9 -15 0 -20 12 -9 23
8 8 24 -1 24 -14z m-10 -158 c0 -12 -20 -25 -27 -18 -7 7 6 27 18 27 5 0 9 -4
9 -9z"/>
<path d="M7030 2322 c0 -5 7 -16 16 -23 14 -12 16 -11 13 5 -4 20 -29 35 -29
18z"/>
<path d="M4680 2284 c0 -35 41 -93 85 -118 25 -15 45 -31 45 -35 0 -5 20 -31
44 -57 23 -27 51 -65 61 -84 10 -19 36 -55 57 -80 40 -45 47 -57 110 -180 38
-76 140 -194 207 -241 25 -18 64 -49 86 -69 36 -33 44 -37 83 -33 l42 5 0 118
0 117 -37 26 c-54 36 -103 87 -103 106 0 12 -8 17 -22 17 -20 -1 -23 4 -21 35
2 30 -2 38 -22 47 -23 11 -30 26 -26 62 2 13 0 13 -8 1 -14 -22 -44 -5 -36 20
6 19 4 21 -19 17 -18 -4 -31 0 -39 12 -7 9 -46 36 -87 61 -73 43 -161 121
-194 172 -10 14 -30 27 -48 31 -17 3 -38 11 -45 18 -8 7 -37 20 -64 29 -42 15
-49 15 -49 3z"/>
<path d="M5662 2120 c0 -14 2 -19 5 -12 2 6 2 18 0 25 -3 6 -5 1 -5 -13z"/>
<path d="M4801 1993 c7 -12 15 -20 18 -17 3 2 -3 12 -13 22 -17 16 -18 16 -5
-5z"/>
<path d="M6960 1955 c-21 -25 -86 -55 -119 -55 -17 0 -64 7 -105 16 l-75 17
-30 -29 c-32 -30 -43 -52 -62 -124 -6 -24 -22 -66 -35 -92 -27 -53 -30 -83
-11 -95 27 -17 47 -64 47 -111 0 -69 22 -86 50 -40 18 28 20 43 15 104 -5 58
-3 75 10 88 20 19 28 21 22 4 -6 -17 15 -58 42 -82 12 -11 21 -29 21 -40 0
-12 5 -28 10 -36 9 -13 11 -13 20 0 5 8 15 15 22 16 7 0 24 2 38 2 19 2 21 5
12 14 -7 7 -12 20 -12 29 0 9 -6 19 -14 22 -7 3 -16 21 -20 41 -5 26 -14 38
-37 48 -37 16 -34 36 11 65 38 24 72 55 67 60 -2 1 -17 -1 -33 -6 -165 -51
-162 -51 -185 16 -10 31 -9 39 9 62 l20 26 131 -3 c146 -3 180 6 202 60 14 33
8 45 -11 23z"/>
<path d="M7235 1920 c-3 -5 3 -10 14 -10 12 0 21 5 21 10 0 6 -6 10 -14 10 -8
0 -18 -4 -21 -10z"/>
<path d="M7180 1866 c0 -8 5 -18 10 -21 6 -3 10 3 10 14 0 12 -4 21 -10 21 -5
0 -10 -6 -10 -14z"/>
<path d="M4906 1818 c10 -18 19 -28 21 -21 5 15 -15 53 -28 53 -5 0 -2 -15 7
-32z"/>
<path d="M7170 1791 c0 -6 5 -13 10 -16 6 -3 10 1 10 9 0 9 -4 16 -10 16 -5 0
-10 -4 -10 -9z"/>
<path d="M7492 1777 c-27 -13 -42 -27 -40 -37 4 -21 136 -89 175 -90 29 0 33
4 44 41 15 50 6 70 -42 85 -68 22 -93 22 -137 1z"/>
<path d="M5470 1698 c1 -19 25 -48 40 -48 8 0 22 -7 32 -17 17 -15 18 -15 18
5 0 13 -14 31 -37 47 -42 28 -53 31 -53 13z"/>
<path d="M7920 1683 c-8 -3 -45 -34 -82 -69 -36 -35 -72 -64 -80 -64 -8 0 -27
14 -43 30 -32 33 -56 37 -97 16 -25 -13 -28 -13 -28 0 0 8 10 19 23 24 17 7
11 9 -28 7 -43 -2 -50 -5 -47 -21 5 -25 46 -80 50 -67 4 13 32 15 32 2 0 -5
17 -15 38 -21 20 -7 46 -18 58 -25 11 -8 59 -25 106 -39 94 -29 129 -56 170
-133 36 -67 43 -93 25 -93 -8 0 -23 -12 -32 -27 l-17 -26 57 7 c54 6 60 5 86
-20 15 -14 29 -24 31 -22 2 1 23 -6 48 -17 32 -14 45 -16 48 -7 4 13 34 16 46
5 16 -16 36 -10 42 13 4 14 9 22 12 19 9 -9 31 103 31 164 1 29 6 82 13 117
10 57 9 66 -6 83 -25 28 -157 88 -229 105 -34 8 -94 26 -133 40 -39 14 -73 26
-75 25 -2 0 -11 -3 -19 -6z"/>
<path d="M5640 1651 c0 -5 9 -19 19 -32 18 -23 20 -23 27 -5 5 13 1 23 -11 32
-22 16 -35 18 -35 5z"/>
<path d="M7071 1585 c28 -47 37 -51 61 -27 l20 20 -47 21 c-26 12 -49 21 -51
21 -2 0 6 -16 17 -35z"/>
<path d="M7207 1608 c-6 -17 56 -44 74 -32 6 3 28 -2 50 -11 44 -20 56 -16 40
13 -7 13 -26 22 -53 27 -24 3 -57 9 -74 12 -21 3 -33 0 -37 -9z"/>
<path d="M6786 1464 c-7 -18 6 -39 21 -33 5 2 4 14 -3 27 -10 20 -12 21 -18 6z"/>
<path d="M6625 1410 c3 -5 8 -10 11 -10 2 0 4 5 4 10 0 6 -5 10 -11 10 -5 0
-7 -4 -4 -10z"/>
<path d="M5530 1363 c-8 -3 -17 -9 -20 -13 -3 -4 -14 -12 -25 -18 l-20 -11 20
-6 c46 -15 96 -39 103 -49 15 -23 113 -48 161 -41 36 5 62 1 116 -18 78 -28
245 -43 264 -24 7 7 17 5 30 -7 13 -12 29 -16 42 -13 12 3 33 1 47 -4 20 -8
29 -6 43 10 11 11 19 22 19 25 0 2 -37 6 -82 8 -93 4 -143 23 -143 53 0 14 -8
21 -25 23 -14 2 -34 11 -45 21 -20 17 -69 41 -84 41 -5 0 -6 -11 -3 -25 5 -28
3 -29 -32 -14 -19 9 -29 9 -40 0 -12 -10 -28 -9 -77 4 -35 8 -70 22 -79 29 -8
8 -33 16 -55 19 -22 3 -53 8 -70 11 -16 3 -37 2 -45 -1z"/>
<path d="M7670 1334 c0 -8 5 -12 10 -9 6 3 10 10 10 16 0 5 -4 9 -10 9 -5 0
-10 -7 -10 -16z"/>
<path d="M6436 1161 c-21 -23 -14 -41 17 -41 21 0 51 42 39 55 -11 11 -40 4
-56 -14z"/>
<path d="M6530 1165 c14 -16 40 -20 40 -6 0 9 -24 21 -42 21 -6 0 -6 -6 2 -15z"/>
<path d="M6687 1173 c-15 -2 -25 -9 -22 -14 8 -12 102 -12 110 1 3 6 0 10 -7
10 -7 0 -22 2 -33 4 -11 2 -32 1 -48 -1z"/>
<path d="M9267 1159 c7 -7 15 -10 18 -7 3 3 -2 9 -12 12 -14 6 -15 5 -6 -5z"/>
<path d="M6330 1151 c0 -11 25 -21 51 -21 23 0 25 15 3 24 -23 9 -54 7 -54 -3z"/>
<path d="M7019 1119 c-8 -4 -14 -12 -14 -16 -1 -17 -22 -44 -36 -46 -20 -3
-39 -17 -39 -27 0 -22 42 -20 85 5 41 24 50 35 46 58 0 4 6 7 14 7 8 0 12 6
10 13 -6 14 -47 18 -66 6z"/>
<path d="M6576 1092 c-23 -22 13 -52 70 -57 40 -4 42 4 9 35 -23 22 -67 34
-79 22z"/>
<path d="M11076 655 c-3 -9 0 -15 9 -15 16 0 20 16 6 24 -5 3 -11 -1 -15 -9z"/>
<path d="M9885 550 c4 -6 11 -8 16 -5 14 9 11 15 -7 15 -8 0 -12 -5 -9 -10z"/>
</g>
</svg>
