<?xml version="1.0" standalone="no"?>
<!DOCTYPE svg PUBLIC "-//W3C//DTD SVG 20010904//EN"
 "http://www.w3.org/TR/2001/REC-SVG-20010904/DTD/svg10.dtd">
<svg version="1.0" xmlns="http://www.w3.org/2000/svg"
 width="992.000000pt" height="1056.000000pt" viewBox="0 0 992.000000 1056.000000"
 preserveAspectRatio="xMidYMid meet">

<g transform="translate(0.000000,1056.000000) scale(0.100000,-0.100000)"
fill="#000000" stroke="none">
<path d="M5798 9007 c16 -19 8 -50 -24 -93 -13 -17 -24 -43 -24 -57 0 -14 -4
-29 -10 -32 -6 -3 -10 4 -10 17 0 13 -5 29 -12 36 -9 9 -8 12 4 12 30 0 39 85
9 93 -14 3 -17 0 -14 -14 6 -22 -12 -26 -21 -4 -9 25 -29 18 -22 -9 4 -15 0
-28 -9 -36 -19 -16 -34 -5 -27 22 4 15 2 19 -7 13 -8 -5 -11 -19 -7 -41 6 -27
3 -35 -13 -44 -17 -9 -19 -15 -11 -36 13 -33 13 -34 -5 -34 -8 0 -23 9 -34 21
-13 14 -21 17 -26 9 -4 -7 -22 -9 -49 -5 -34 6 -44 4 -49 -9 -4 -9 -13 -16
-22 -16 -18 0 -20 -17 -3 -22 8 -3 4 -14 -10 -34 -18 -24 -20 -35 -13 -66 10
-44 2 -47 -35 -13 -33 31 -47 24 -38 -21 6 -32 -7 -47 -21 -24 -11 18 -35 -2
-35 -31 0 -29 -16 -40 -25 -16 -6 13 -65 19 -65 6 0 -13 -53 -65 -75 -74 -11
-4 -28 -7 -38 -6 -9 1 -25 -6 -34 -15 -17 -16 -15 -17 32 -10 28 5 58 9 68 10
9 1 23 11 31 22 8 10 18 16 22 12 4 -4 14 -2 22 5 12 9 16 9 19 0 2 -7 11 -9
19 -6 8 3 14 1 14 -5 0 -5 -12 -13 -27 -17 -15 -3 -33 -15 -41 -26 -7 -11 -18
-17 -23 -14 -5 4 -9 -1 -9 -9 0 -8 5 -18 10 -21 16 -10 -8 -45 -30 -45 -24 0
-36 -18 -21 -33 9 -9 14 -9 20 1 10 17 53 12 59 -7 3 -10 -2 -12 -21 -7 -19 4
-28 0 -41 -19 -9 -14 -21 -23 -25 -21 -4 3 -16 0 -26 -8 -14 -10 -15 -17 -6
-34 16 -30 14 -34 -16 -30 -19 2 -28 -2 -29 -12 -1 -8 -3 -19 -4 -25 -1 -5 -2
-14 -1 -18 1 -5 -7 -11 -18 -14 -23 -6 -35 -29 -20 -39 6 -4 4 -13 -7 -25 -9
-10 -14 -26 -12 -36 3 -10 -1 -24 -9 -31 -14 -13 -8 -37 6 -27 5 2 6 -7 3 -20
-2 -14 -8 -25 -13 -25 -4 0 -9 -17 -11 -37 -3 -33 -6 -38 -27 -35 -19 2 -22
-2 -18 -18 4 -15 0 -20 -14 -20 -10 0 -19 -4 -19 -10 0 -5 -7 -10 -15 -10 -9
0 -19 -8 -22 -17 -4 -10 -24 -39 -46 -65 -21 -26 -37 -51 -34 -55 3 -5 -3 -22
-14 -39 -10 -16 -19 -24 -19 -19 0 6 -5 3 -10 -6 -15 -26 -84 -59 -101 -48
-18 11 -29 11 -29 0 0 -5 11 -12 25 -15 33 -8 23 -26 -14 -26 -34 0 -44 -9
-30 -26 12 -15 -6 -28 -31 -22 -7 2 -15 -3 -17 -9 -3 -7 2 -13 10 -13 8 0 18
-7 21 -16 5 -13 1 -15 -16 -11 -13 3 -32 -1 -43 -9 -20 -15 -20 -15 0 -30 17
-13 14 -14 -30 -8 -41 5 -48 4 -37 -7 17 -18 15 -32 -3 -26 -8 4 -17 1 -21 -4
-3 -6 -15 -9 -25 -6 -11 3 -19 2 -19 -3 0 -4 -11 -11 -25 -14 -34 -9 -31 -26
4 -26 17 0 33 -4 36 -10 4 -6 -6 -10 -22 -10 -38 0 -57 -14 -49 -36 4 -10 1
-21 -6 -25 -9 -6 -9 -13 0 -34 10 -22 9 -29 -3 -41 -17 -17 -20 -34 -6 -34 5
0 11 -9 14 -20 3 -11 1 -20 -4 -20 -5 0 -9 -11 -9 -24 0 -25 24 -41 43 -29 7
4 6 -1 -2 -10 -7 -9 -20 -17 -27 -17 -8 0 -14 -7 -14 -16 0 -12 6 -15 26 -10
22 6 25 4 20 -9 -3 -9 -6 -19 -6 -21 0 -10 -29 -3 -33 9 -2 6 -5 -5 -5 -26 0
-45 10 -53 43 -31 14 9 25 12 25 7 0 -15 -36 -44 -50 -41 -7 2 -14 -8 -15 -22
-1 -14 -6 -40 -10 -57 -10 -42 7 -43 22 -2 8 19 16 28 24 24 6 -4 15 -2 19 5
4 7 13 9 19 5 8 -4 9 -11 3 -18 -6 -7 -11 -20 -13 -30 -2 -10 -8 -18 -14 -19
-5 0 -18 -4 -27 -9 -15 -8 -16 -13 -5 -37 19 -45 69 -102 94 -108 13 -4 23
-12 23 -20 0 -10 13 -14 48 -13 56 2 67 7 129 60 26 23 59 50 73 61 14 12 39
34 57 51 27 25 35 28 48 17 12 -10 15 -10 15 4 0 37 60 8 66 -32 8 -48 18 -78
29 -87 6 -5 13 -14 15 -20 1 -5 4 -14 5 -20 9 -33 42 -119 66 -173 16 -35 29
-67 29 -72 0 -4 14 -20 31 -34 29 -25 30 -29 19 -56 -7 -17 -16 -30 -20 -30
-5 0 6 -26 22 -57 17 -32 30 -70 29 -85 -1 -25 2 -28 33 -28 19 0 37 4 40 9 3
4 18 11 33 14 26 5 28 10 29 52 1 26 6 51 12 57 5 5 37 12 71 15 57 5 63 8 78
37 15 28 17 29 23 11 10 -27 14 -18 44 115 6 22 5 22 -5 -2 -6 -16 -15 -28
-21 -28 -10 0 -5 149 8 252 5 39 3 49 -10 54 -23 9 -20 24 4 24 11 0 23 7 26
15 4 8 11 15 18 15 6 0 35 25 65 56 50 51 53 55 33 61 -22 5 -31 23 -13 23 5
0 20 14 32 31 l22 31 -20 27 c-11 14 -23 36 -27 49 -4 12 -11 22 -16 22 -5 0
-21 11 -36 25 -14 13 -30 23 -34 20 -4 -2 -16 2 -27 10 -19 13 -42 82 -42 125
0 8 -1 41 -2 72 -2 35 2 63 10 72 9 11 11 30 7 60 -6 37 -4 45 10 48 10 2 23
19 29 38 7 20 20 37 30 39 23 4 36 16 60 59 11 17 24 32 30 32 20 0 71 54 85
90 7 19 17 39 22 45 14 15 9 62 -7 69 -22 8 -19 60 5 81 11 10 20 28 20 40 0
15 8 25 21 28 16 4 19 11 14 26 -5 16 -2 21 13 21 10 0 27 9 37 20 10 11 25
18 34 15 9 -2 41 -5 71 -6 65 -2 80 -11 80 -50 0 -16 5 -29 11 -29 6 0 9 -12
7 -27 -2 -22 -8 -28 -26 -27 -18 0 -24 -7 -33 -39 -6 -22 -19 -56 -30 -76 -10
-20 -19 -40 -19 -45 0 -12 -65 -110 -84 -125 -9 -8 -16 -21 -16 -30 0 -23 -20
-41 -45 -41 -19 0 -20 -5 -18 -65 1 -36 10 -87 18 -112 9 -26 19 -92 22 -147
7 -115 15 -140 44 -131 15 5 19 2 19 -15 0 -17 4 -20 20 -15 16 5 20 2 20 -18
0 -21 4 -24 26 -19 19 3 25 1 20 -7 -4 -6 0 -19 10 -28 15 -16 21 -15 85 7 38
13 74 29 80 37 6 7 19 13 29 13 9 0 29 11 44 25 15 14 39 28 54 31 15 4 40 16
55 27 16 11 42 20 57 21 20 1 44 16 75 46 l45 44 0 -32 c0 -22 6 -34 18 -38 9
-3 29 -12 43 -20 14 -7 28 -11 31 -9 2 3 20 0 39 -5 24 -7 42 -7 62 1 19 8 35
9 50 2 12 -6 28 -8 35 -6 17 7 15 43 -3 43 -9 0 -20 11 -25 25 -5 14 -17 25
-28 25 -11 0 -29 9 -42 20 -13 11 -28 20 -33 20 -6 0 -24 12 -39 27 -22 21
-31 24 -40 15 -41 -41 -31 21 19 121 20 39 40 98 46 132 13 78 2 99 -78 145
-59 34 -63 41 -40 60 8 7 15 27 15 44 0 26 -8 36 -45 61 -41 27 -45 34 -45 71
0 29 -7 48 -24 67 -17 19 -25 42 -31 91 -3 36 -4 75 0 86 7 22 -18 60 -39 60
-13 0 -71 85 -81 118 -4 13 1 52 11 87 l17 65 -24 20 c-13 11 -45 34 -71 52
-49 32 -52 39 -49 98 2 29 14 47 67 98 35 34 64 65 64 67 0 3 -12 5 -27 5 -40
0 -103 19 -103 31 0 5 12 14 27 20 34 13 63 38 63 54 0 7 -24 21 -52 33 -46
17 -55 18 -69 6 -14 -13 -18 -12 -33 11 -24 37 -42 31 -51 -17 -4 -24 -7 -48
-6 -55 1 -6 -3 -14 -9 -18 -13 -8 -23 17 -24 63 -1 43 -23 54 -31 15 -23 -108
-55 -160 -55 -89 0 19 4 37 9 40 12 8 19 76 8 83 -5 3 -13 -1 -18 -8 -7 -12
-12 -12 -31 0 -21 13 -22 13 -10 -2z m-238 -239 c0 -12 -45 -9 -58 4 -26 26
-13 38 23 21 19 -9 35 -20 35 -25z m-98 7 c-2 -11 -5 -35 -6 -53 -4 -38 -10
-47 -25 -37 -12 7 -14 38 -5 84 5 22 12 31 23 29 9 -2 15 -12 13 -23z m-248
-351 c3 -9 -1 -13 -12 -11 -17 2 -22 9 -22 27 0 14 27 1 34 -16z m-104 -179
c-7 -8 -14 -15 -15 -15 -2 0 -5 7 -9 15 -4 10 1 15 16 15 17 0 18 -2 8 -15z
m-250 -615 c0 -6 -7 -13 -16 -17 -8 -3 -19 -16 -24 -29 -7 -17 -16 -22 -40
-22 -28 1 -57 18 -30 18 6 0 25 13 43 30 31 29 67 40 67 20z m-255 -140 c3 -5
2 -10 -4 -10 -5 0 -13 5 -16 10 -3 6 -2 10 4 10 5 0 13 -4 16 -10z m-150 -140
c3 -5 1 -10 -4 -10 -6 0 -11 5 -11 10 0 6 2 10 4 10 3 0 8 -4 11 -10z m-114
-214 c-7 -8 -21 -12 -34 -8 -22 6 -22 6 3 13 39 11 43 10 31 -5z m144 -12 c-9
-9 -19 -13 -23 -10 -3 4 0 11 8 16 24 15 33 11 15 -6z m912 -290 c-3 -3 -12
-4 -19 -1 -8 3 -5 6 6 6 11 1 17 -2 13 -5z m0 -551 c-3 -10 -5 -4 -5 12 0 17
2 24 5 18 2 -7 2 -21 0 -30z"/>
<path d="M5580 8920 c0 -5 7 -10 16 -10 8 0 12 5 9 10 -3 6 -10 10 -16 10 -5
0 -9 -4 -9 -10z"/>
<path d="M5267 8692 c-23 -25 -21 -34 6 -30 14 2 23 11 25 26 4 27 -9 28 -31
4z"/>
<path d="M5145 8631 c-3 -5 -1 -12 5 -16 5 -3 10 1 10 9 0 18 -6 21 -15 7z"/>
<path d="M5100 8585 c-16 -29 -7 -43 15 -25 16 13 21 50 7 50 -5 0 -15 -11
-22 -25z"/>
<path d="M2154 8486 c-3 -9 -3 -27 0 -41 4 -14 3 -31 -1 -38 -5 -8 -9 -3 -13
13 -8 35 -43 38 -58 6 -8 -18 -16 -23 -31 -19 -25 6 -27 -9 -5 -42 18 -28 16
-29 -20 -15 -14 5 -28 5 -31 1 -7 -13 21 -33 42 -30 10 2 39 -1 65 -5 38 -6
46 -11 45 -27 -1 -10 -6 -19 -13 -19 -6 0 -16 -6 -22 -13 -7 -9 -37 -14 -83
-15 -39 0 -74 -3 -76 -6 -13 -12 12 -26 47 -26 48 0 70 -8 70 -26 0 -8 4 -14
9 -14 5 0 11 -8 15 -17 3 -10 8 -23 11 -29 11 -21 -31 -54 -69 -54 -29 0 -36
-4 -36 -19 0 -25 36 -51 70 -51 45 0 99 -25 136 -63 21 -20 43 -37 51 -37 7 0
16 -6 19 -14 10 -25 93 -37 119 -16 6 4 28 13 50 20 22 7 44 16 50 21 5 5 21
9 36 9 15 0 34 7 43 15 8 8 30 15 50 15 19 0 41 7 50 15 8 8 22 15 31 15 17 0
85 63 85 80 0 5 5 10 11 10 5 0 8 4 5 9 -3 5 6 16 20 26 21 14 24 21 18 48 -3
18 -13 36 -20 40 -8 4 -14 15 -14 22 0 8 -3 15 -8 15 -4 0 -13 9 -20 20 -11
18 -9 24 18 51 16 17 30 32 30 34 0 8 -51 11 -56 4 -11 -19 -31 -7 -47 27 -20
41 -32 41 -55 -1 -9 -17 -18 -32 -20 -34 -1 -3 -8 1 -14 7 -17 17 -25 15 -32
-10 -6 -21 -7 -22 -17 -5 -7 11 -17 16 -29 12 -12 -4 -19 1 -23 15 -8 30 -31
24 -46 -12 l-14 -33 -4 28 c-3 16 -12 31 -21 34 -9 4 -22 13 -28 21 -14 19
-34 7 -34 -19 0 -10 -9 -28 -20 -39 -22 -22 -26 -17 -32 30 -3 27 -33 35 -33
9 0 -9 -6 -23 -13 -31 -6 -8 -9 -18 -5 -22 7 -7 -34 -45 -49 -46 -10 0 3 64
13 68 9 4 -11 53 -25 63 -5 4 -7 13 -5 20 2 8 -10 29 -28 47 -27 28 -34 31
-39 18z"/>
<path d="M4890 7915 c-10 -12 -10 -15 3 -15 8 0 17 7 21 15 3 8 2 15 -3 15 -5
0 -14 -7 -21 -15z"/>
<path d="M6844 7445 c-12 -26 0 -45 39 -58 12 -5 17 -17 17 -48 0 -46 31 -99
58 -99 16 0 42 41 42 66 0 7 9 16 20 19 41 13 6 75 -42 75 -10 0 -23 11 -28
25 -7 17 -17 25 -34 25 -14 0 -28 5 -31 10 -11 17 -30 11 -41 -15z"/>
<path d="M3213 7434 c-7 -19 6 -32 16 -15 6 9 10 6 14 -10 l6 -24 22 23 c24
27 21 33 -21 38 -21 3 -33 -1 -37 -12z"/>
<path d="M3699 7122 c-23 -25 -30 -50 -16 -58 7 -4 9 -4 5 1 -4 4 -2 13 5 21
26 29 37 43 37 49 0 10 -15 4 -31 -13z"/>
<path d="M3676 7042 c-3 -6 -1 -14 5 -17 15 -10 25 3 12 16 -7 7 -13 7 -17 1z"/>
<path d="M6447 7023 c-4 -3 -7 -13 -7 -21 0 -12 3 -12 15 -2 8 7 15 16 15 21
0 11 -14 12 -23 2z"/>
<path d="M6201 6946 c-8 -9 -26 -16 -41 -16 -16 0 -30 -3 -32 -7 -5 -12 -66
-53 -78 -53 -5 0 -10 -7 -10 -15 0 -7 -8 -18 -17 -24 -14 -8 -16 -14 -8 -28 6
-10 9 -30 7 -44 -3 -29 -39 -43 -81 -32 -13 3 -29 -1 -40 -11 -21 -19 -22 -36
-3 -59 7 -8 10 -21 6 -30 -3 -8 -1 -18 5 -22 6 -3 11 -2 11 4 0 16 54 68 79
76 11 3 21 13 21 21 0 23 18 16 41 -15 20 -27 23 -29 44 -15 29 19 35 10 35
-54 0 -30 5 -72 12 -93 11 -37 10 -41 -18 -69 -16 -16 -35 -30 -43 -30 -7 0
-39 26 -70 57 -57 58 -67 62 -111 40 -32 -16 -40 -26 -40 -58 0 -15 -7 -32
-15 -39 -8 -7 -15 -27 -16 -44 -1 -17 -4 -42 -8 -56 -8 -28 24 -163 53 -222
21 -43 14 -62 -22 -55 -29 6 -90 -17 -73 -27 24 -15 11 -53 -28 -84 -36 -29
-42 -31 -73 -20 -44 14 -58 27 -58 49 0 38 -66 33 -174 -15 -28 -13 -57 -30
-65 -40 -8 -9 -51 -35 -96 -57 -65 -31 -89 -38 -114 -33 -23 5 -29 9 -19 15
11 7 10 11 -2 19 -8 5 -20 8 -27 5 -8 -2 -10 6 -6 29 3 19 1 36 -5 40 -17 10
-42 -5 -42 -24 0 -16 -6 -18 -35 -13 -28 4 -35 2 -35 -11 0 -9 -5 -16 -12 -16
-18 0 -88 -33 -88 -42 0 -4 -13 -8 -30 -8 -29 0 -40 13 -20 25 16 10 12 42 -6
49 -9 3 -20 4 -25 1 -9 -6 -53 19 -82 48 -14 14 -16 22 -8 31 8 10 7 17 -3 25
-8 7 -12 19 -10 26 3 7 1 23 -6 34 -9 17 -8 21 5 21 9 0 15 9 15 23 0 13 9 32
21 43 14 13 18 25 14 44 -5 20 -4 23 6 13 10 -10 18 -9 36 9 28 26 30 58 5 58
-11 0 -26 8 -35 18 -18 20 -23 67 -8 76 4 3 11 20 14 38 3 18 8 41 12 51 11
28 -31 21 -58 -9 -40 -48 -48 -54 -71 -54 -33 0 -88 -41 -96 -71 -13 -48 -20
-188 -11 -211 5 -13 12 -35 15 -50 4 -16 13 -28 21 -28 11 0 15 -13 15 -54 0
-29 7 -70 15 -89 18 -44 19 -78 3 -76 -28 3 -38 -2 -38 -18 0 -10 -7 -27 -15
-37 -14 -18 -15 -18 -24 6 -9 24 -14 25 -58 21 -70 -7 -76 -10 -69 -37 7 -30
-9 -43 -29 -23 -16 17 -70 15 -130 -5 -38 -12 -40 -16 -43 -57 -3 -34 2 -49
19 -67 l22 -24 -21 0 c-12 0 -22 -4 -22 -10 0 -5 -4 -10 -10 -10 -5 0 -10 6
-10 14 0 7 -9 16 -20 19 -14 3 -20 14 -20 31 0 43 -28 31 -40 -16 -7 -24 -23
-63 -36 -87 -28 -51 -28 -51 -9 -51 8 0 15 -4 15 -9 0 -4 -12 -6 -27 -3 -28 5
-28 5 -9 -17 22 -24 3 -30 -23 -7 -15 13 -22 10 -65 -29 -46 -43 -95 -65 -143
-65 -29 0 -41 -25 -37 -77 4 -52 -21 -87 -74 -103 -83 -25 -112 -42 -112 -66
0 -29 -12 -32 -80 -22 -57 9 -90 33 -90 67 0 14 -7 17 -31 13 -27 -4 -30 -7
-24 -31 4 -14 9 -48 11 -75 1 -27 6 -62 9 -77 l6 -29 -91 4 c-50 2 -92 5 -93
7 -1 2 -7 13 -13 24 -7 11 -20 19 -30 17 -11 -1 -41 -5 -69 -7 -27 -3 -58 -8
-67 -11 -18 -5 -21 -40 -6 -61 6 -7 3 -15 -8 -21 -17 -9 -17 -11 0 -36 12 -19
23 -25 35 -21 11 3 21 0 24 -8 3 -7 24 -19 47 -27 22 -7 46 -22 51 -32 5 -10
16 -18 23 -18 8 0 13 -7 12 -16 0 -9 13 -23 29 -33 26 -14 30 -22 30 -56 -1
-42 34 -105 59 -105 7 0 21 -9 31 -20 16 -18 17 -23 5 -45 -12 -22 -11 -27 5
-46 14 -14 16 -22 8 -27 -7 -4 -16 -41 -22 -82 -26 -191 -31 -221 -42 -264
-12 -48 -47 -86 -79 -86 -9 0 -27 9 -40 20 -26 22 -36 25 -45 10 -10 -16 -29
-12 -55 12 -20 18 -34 21 -96 20 -58 -1 -95 6 -176 32 -57 19 -135 36 -175 39
-51 4 -80 12 -100 27 -41 30 -95 34 -121 9 -12 -11 -22 -24 -22 -29 0 -6 -11
-10 -25 -10 -30 0 -75 -21 -94 -44 -10 -12 -10 -19 0 -38 7 -13 12 -29 11 -35
-2 -7 4 -13 12 -13 12 0 14 -5 6 -25 -5 -14 -6 -25 -1 -25 5 0 3 -28 -6 -62
-8 -38 -12 -82 -8 -110 7 -55 -6 -117 -39 -190 -13 -29 -27 -63 -31 -75 -3
-13 -10 -23 -14 -23 -4 0 -14 -18 -21 -40 -7 -22 -16 -40 -19 -40 -10 0 -31
-54 -35 -91 -2 -18 2 -49 10 -68 12 -29 16 -32 30 -20 20 17 33 -1 28 -39 -2
-15 -6 -49 -8 -77 -2 -27 -9 -63 -15 -79 -7 -16 -10 -30 -9 -31 25 -18 119
-37 186 -39 78 -1 85 -3 108 -29 13 -15 24 -37 24 -47 0 -12 8 -20 22 -22 18
-2 23 -10 24 -36 1 -18 8 -41 16 -50 8 -9 18 -25 21 -34 4 -10 16 -18 27 -18
12 0 30 -5 40 -10 16 -8 21 -5 32 17 7 15 22 29 33 32 11 2 22 6 25 10 3 4 17
14 32 24 23 14 39 15 123 8 53 -5 112 -7 131 -4 25 4 39 2 44 -7 7 -11 12 -11
23 -1 8 6 26 9 39 6 19 -5 26 0 41 28 11 19 32 49 47 66 24 26 36 31 74 31 38
0 46 3 51 23 19 65 80 147 110 147 6 0 16 5 23 12 9 9 6 18 -17 38 -20 19 -30
40 -35 74 -7 46 -6 49 47 119 30 40 66 85 81 100 14 15 26 34 26 41 0 26 47
55 123 75 73 20 117 39 117 51 0 3 20 16 44 29 40 22 44 28 49 70 3 25 1 51
-5 58 -6 7 -7 33 -3 62 6 46 11 53 53 81 27 18 53 28 62 24 8 -3 24 -8 35 -11
11 -3 30 -9 42 -15 12 -6 29 -8 38 -4 10 3 29 -3 47 -15 67 -48 128 -40 190
24 18 19 51 44 73 55 84 41 125 68 136 88 6 12 22 28 36 35 22 12 31 10 87
-19 34 -18 67 -32 73 -32 17 0 36 -38 62 -119 13 -41 32 -83 42 -95 11 -11 22
-31 25 -43 4 -13 11 -23 18 -23 6 0 20 -11 30 -25 10 -14 25 -25 32 -25 8 0
51 -37 96 -83 84 -83 119 -107 163 -107 15 0 44 -21 84 -60 50 -49 67 -60 94
-60 25 0 36 -6 50 -29 9 -16 17 -36 17 -45 0 -9 11 -18 25 -22 14 -3 25 -10
25 -15 0 -5 8 -9 18 -9 18 0 58 -74 93 -173 12 -35 12 -38 -8 -52 -13 -9 -19
-22 -16 -34 4 -15 -8 -44 -34 -80 -1 -2 -9 2 -17 8 -12 10 -22 9 -48 -2 -50
-22 -60 -25 -146 -37 -66 -9 -83 -8 -108 5 -37 19 -53 19 -60 0 -4 -10 -13
-13 -25 -10 -30 10 -47 -37 -25 -70 9 -14 26 -25 38 -25 11 0 51 -20 89 -45
41 -27 80 -45 97 -45 20 0 35 -9 50 -29 18 -24 29 -30 61 -29 36 0 40 3 45 32
10 48 8 68 -6 77 -10 7 -9 19 5 61 11 29 26 64 34 76 14 23 15 23 34 6 15 -14
24 -15 43 -6 27 12 66 89 66 132 0 23 7 35 33 50 17 11 36 21 40 23 5 1 4 22
-2 45 -10 36 -18 45 -57 63 -49 22 -48 19 -23 89 27 78 28 80 53 80 14 0 31
-6 39 -14 8 -8 31 -18 52 -22 29 -5 39 -13 47 -35 13 -37 45 -39 58 -3 6 14
10 30 10 35 0 19 -127 101 -246 159 -72 34 -124 65 -124 74 0 7 10 20 22 28
37 25 14 38 -57 31 -57 -5 -68 -3 -109 21 -67 39 -126 113 -155 196 -20 55
-33 76 -56 88 -40 23 -45 26 -91 66 -35 30 -42 44 -48 86 -4 33 -2 56 6 69 11
18 9 24 -15 49 -15 15 -27 32 -27 37 0 37 143 102 161 73 5 -7 4 -14 -1 -16
-27 -10 29 -152 59 -152 5 0 16 20 25 45 10 25 24 45 31 45 16 0 38 -34 28
-44 -3 -3 -1 -6 5 -6 6 0 17 -19 24 -42 7 -24 19 -48 28 -55 11 -9 11 -12 2
-13 -19 0 -1 -30 48 -79 38 -38 69 -56 170 -98 89 -37 103 -52 48 -54 -31 -1
-31 -2 12 -13 63 -17 100 -34 100 -46 0 -5 9 -10 19 -10 11 0 22 -4 25 -9 7
-11 83 -51 96 -51 6 0 19 -8 29 -17 32 -29 45 -39 63 -46 11 -4 17 -17 17 -34
0 -56 11 -196 16 -201 2 -2 0 -12 -5 -22 -12 -22 10 -55 50 -75 17 -9 37 -29
45 -45 15 -29 15 -30 -8 -30 -13 0 -27 -3 -30 -6 -8 -9 11 -44 24 -44 6 0 8 4
4 9 -9 16 16 24 28 9 7 -8 29 -26 50 -42 21 -15 37 -36 37 -47 0 -12 7 -19 19
-19 12 0 21 -9 25 -26 12 -47 36 -74 66 -74 24 0 27 -3 23 -21 -3 -11 -12 -23
-19 -26 -25 -9 -14 -40 27 -78 37 -33 40 -39 34 -74 -5 -29 -1 -43 15 -64 27
-34 36 -34 44 -2 8 33 22 32 38 -2 17 -35 47 -43 55 -14 3 12 9 21 14 21 13 0
29 -37 26 -61 -1 -12 4 -24 12 -27 11 -4 13 2 8 27 -5 26 -3 31 12 31 10 0 21
-7 25 -15 3 -8 10 -15 16 -15 22 0 -3 51 -72 153 -25 36 -17 44 29 28 33 -12
38 -12 50 4 15 22 1 45 -28 45 -23 0 -32 15 -24 40 5 17 14 20 55 18 29 -1 52
-8 54 -15 5 -11 46 -20 46 -10 0 18 -37 71 -51 74 -11 3 -19 14 -19 25 0 15 4
18 18 13 9 -3 29 -9 44 -12 15 -3 30 -14 33 -24 4 -11 11 -19 16 -19 17 0 9
18 -27 56 -20 22 -43 47 -51 56 -9 10 -39 25 -67 34 -61 20 -79 33 -72 51 3 7
-18 38 -46 68 -73 78 -91 111 -84 151 8 40 33 65 46 44 4 -7 6 -19 3 -26 -6
-17 72 -57 96 -49 13 4 20 -1 24 -15 6 -23 37 -28 37 -5 0 7 -8 18 -17 24 -14
8 -15 12 -6 22 10 10 15 10 27 0 8 -7 25 -11 38 -9 20 3 18 6 -19 26 -36 19
-63 47 -63 65 0 3 16 8 35 11 22 5 35 13 35 23 0 12 7 14 29 10 24 -5 31 -2
36 14 6 17 13 20 38 15 96 -18 110 -19 103 -7 -12 19 2 59 24 66 25 8 29 70 5
79 -26 10 -16 31 30 64 38 27 55 32 100 32 30 0 55 3 55 6 0 7 -52 77 -63 85
-4 3 -1 18 6 33 9 15 13 47 11 74 -3 51 10 77 46 90 21 8 23 15 25 103 1 52 5
103 9 114 3 11 24 28 47 37 l40 17 -3 58 -3 58 -34 -3 c-18 -1 -45 -11 -59
-22 -34 -28 -65 -25 -100 8 -35 33 -52 87 -54 169 -1 73 -17 104 -72 143 -51
37 -76 68 -105 133 -26 57 -57 69 -96 39 -15 -12 -32 -19 -39 -16 -7 3 -21 -6
-30 -20 -9 -15 -23 -26 -31 -26 -7 0 -20 -6 -27 -14 -10 -9 -56 -16 -148 -21
-74 -3 -139 -9 -144 -12 -5 -3 -33 7 -63 23 l-55 29 6 44 c4 26 16 55 29 69
l22 24 -22 15 c-29 19 -29 46 -2 120 15 40 37 73 70 106 27 26 49 51 49 56 0
16 -53 111 -61 111 -5 0 -9 7 -9 15 0 8 -4 15 -10 15 -11 0 -30 66 -27 95 1
12 -7 24 -20 30 -30 13 -29 37 2 83 14 20 25 42 25 49 0 6 -20 53 -45 104 -52
106 -57 134 -23 123 48 -15 76 -6 124 40 27 25 57 46 67 46 10 0 15 5 12 11
-4 6 -7 36 -6 67 0 48 4 59 27 77 26 21 27 24 15 53 -17 40 -9 60 29 73 29 10
100 94 100 118 0 14 -23 52 -63 104 -27 34 -28 41 -17 65 11 25 9 29 -19 53
-23 19 -31 34 -31 60 0 19 -9 45 -20 59 -21 26 -26 70 -11 86 5 5 14 27 20 48
14 53 3 64 -62 64 -29 0 -79 3 -113 6 -49 6 -63 4 -73 -8z m-1533 -606 c-13
-20 -38 -28 -38 -12 0 12 23 32 37 32 11 0 11 -4 1 -20z m-50 -66 c14 -15 14
-16 -3 -13 -10 2 -20 10 -23 17 -5 17 6 15 26 -4z m592 -495 c0 -6 -4 -7 -10
-4 -5 3 -10 11 -10 16 0 6 5 7 10 4 6 -3 10 -11 10 -16z m1488 -2692 c12 -5
22 -14 22 -19 0 -11 -27 -10 -48 2 -9 5 -30 14 -45 20 -40 14 -25 31 16 19 17
-6 42 -16 55 -22z m-112 -93 c-4 -9 5 -11 31 -7 25 4 34 3 29 -5 -4 -6 -13 -9
-21 -5 -11 4 -13 1 -9 -11 8 -22 -6 -20 -60 7 -51 26 -51 37 1 35 23 -1 32 -5
29 -14z"/>
<path d="M3446 6863 c-4 -9 -2 -21 4 -27 7 -7 10 -7 10 1 0 6 3 18 6 27 3 9 2
16 -4 16 -5 0 -13 -8 -16 -17z"/>
<path d="M3480 6834 c0 -14 3 -14 15 -4 8 7 15 14 15 16 0 2 -7 4 -15 4 -8 0
-15 -7 -15 -16z"/>
<path d="M5930 6800 c0 -5 -7 -10 -16 -10 -9 0 -14 -5 -12 -12 6 -16 60 -17
65 -1 2 6 -5 17 -16 23 -14 7 -21 7 -21 0z"/>
<path d="M3261 6764 c-11 -12 -21 -29 -21 -37 0 -8 -7 -20 -15 -27 -8 -7 -15
-18 -15 -24 0 -6 -9 -19 -20 -29 -11 -9 -20 -28 -20 -42 0 -32 -13 -32 -38 0
-19 24 -52 26 -52 3 0 -15 50 -116 60 -120 18 -6 -19 -66 -49 -79 -32 -15 -36
-32 -8 -37 12 -2 15 1 11 12 -4 10 -1 16 7 16 7 0 21 7 31 17 16 15 18 15 18
0 0 -9 -8 -31 -18 -49 -19 -34 -58 -167 -54 -181 1 -5 -5 -6 -15 -3 -29 9
-108 10 -121 2 -7 -4 -12 -1 -12 8 0 9 5 16 10 16 18 0 10 18 -10 23 -13 3
-25 -2 -35 -16 -11 -16 -18 -18 -26 -10 -15 15 -43 2 -78 -36 -23 -24 -24 -26
-5 -30 10 -2 22 -8 26 -14 8 -14 -9 -37 -28 -37 -7 0 -11 -6 -9 -13 3 -6 -4
-18 -15 -25 -18 -11 -25 -9 -53 12 -30 23 -86 31 -102 14 -8 -8 13 -58 25 -58
17 0 11 -20 -7 -27 -10 -4 -26 -14 -35 -23 -16 -15 -15 -18 13 -48 16 -18 39
-32 50 -32 15 0 11 -7 -21 -39 -22 -21 -40 -45 -40 -54 0 -16 -20 -27 -53 -27
-20 -1 -21 -2 -4 -14 24 -19 21 -26 -12 -26 -36 0 -41 -7 -34 -43 4 -19 12
-27 27 -28 11 0 15 -3 9 -6 -18 -7 -16 -23 3 -23 9 0 14 -6 12 -12 -3 -7 6
-18 20 -25 36 -19 127 -5 192 29 35 18 78 31 117 35 61 6 62 6 86 52 30 57 50
116 52 156 5 101 4 99 38 116 22 11 32 23 32 40 1 18 6 23 22 22 19 -2 20 0 9
30 -6 18 -15 39 -21 47 -12 19 -14 50 -3 50 5 0 13 11 18 25 5 14 14 25 19 25
5 0 12 17 14 38 3 32 5 34 12 15 4 -13 10 -23 14 -23 3 0 11 10 16 23 6 12 15
21 20 19 18 -5 7 -48 -24 -97 -36 -57 -38 -74 -11 -98 18 -15 25 -15 90 -1 39
9 73 15 75 12 2 -2 0 -21 -5 -42 -7 -31 -4 -45 12 -75 11 -20 25 -39 30 -42 6
-4 3 -21 -8 -44 -14 -30 -15 -41 -6 -56 7 -10 12 -20 12 -21 0 -2 -34 -3 -75
-3 -54 0 -78 4 -84 14 -5 8 -16 11 -25 8 -15 -6 -15 -9 0 -32 16 -25 16 -27
-6 -50 -13 -14 -31 -25 -39 -26 -11 0 -12 -2 -3 -6 7 -3 18 0 25 5 7 6 21 6
35 1 20 -8 23 -14 17 -46 -7 -46 -8 -47 -69 -67 -79 -27 -87 -33 -75 -59 8
-19 17 -22 43 -19 19 2 37 -1 40 -7 4 -6 15 -11 26 -11 10 0 20 -6 23 -14 3
-8 19 -21 36 -29 28 -14 33 -14 68 4 20 10 38 18 39 16 1 -1 -9 -15 -22 -30
-23 -27 -27 -28 -87 -22 l-63 7 -47 -46 c-26 -25 -50 -46 -53 -46 -3 0 -14 -9
-26 -20 -11 -10 -36 -26 -54 -35 -39 -18 -45 -38 -11 -33 18 2 23 -2 25 -24 2
-16 8 -28 13 -28 6 0 8 8 5 18 -14 42 82 77 129 46 29 -19 55 -13 55 14 0 27
38 41 90 32 25 -4 52 -10 61 -14 9 -4 21 -1 27 7 13 15 58 12 68 -4 3 -5 13
-5 23 1 10 5 67 8 127 6 101 -3 112 -2 152 21 23 14 42 29 42 33 0 5 3 15 6
23 4 12 -3 14 -43 9 -43 -5 -47 -4 -35 11 8 9 11 21 7 27 -3 5 1 10 9 10 9 0
16 6 16 14 0 8 11 17 25 20 13 3 30 16 36 29 7 12 17 25 23 29 6 4 11 33 11
65 0 57 -1 58 -38 78 -36 19 -38 19 -68 2 -17 -9 -34 -15 -39 -12 -10 6 0 58
13 66 11 8 -6 44 -37 77 -20 22 -20 24 -4 36 17 12 17 15 -2 54 -11 23 -20 46
-20 51 0 5 -19 28 -43 51 -24 22 -44 46 -44 53 -1 43 -28 131 -53 171 -28 44
-32 46 -75 46 -52 0 -57 10 -15 28 28 13 38 26 72 92 7 14 28 49 46 78 57 90
39 108 -110 114 -38 1 -68 6 -68 9 0 4 8 15 17 25 13 13 15 18 5 22 -12 4 33
36 69 48 18 6 43 53 34 62 -3 3 -49 6 -104 7 -90 2 -100 0 -120 -21z m-94
-240 c-3 -3 -12 -4 -19 -1 -8 3 -5 6 6 6 11 1 17 -2 13 -5z m-505 -755 c-15
-6 -30 -5 -40 1 -13 7 -8 9 23 9 35 0 37 -1 17 -10z"/>
<path d="M3120 6771 c0 -7 -6 -11 -13 -8 -23 9 -40 -10 -43 -47 -2 -20 -1 -36
1 -36 16 0 55 22 55 31 0 7 8 18 18 25 16 12 16 14 0 31 -13 12 -18 13 -18 4z"/>
<path d="M2985 6581 c-3 -5 -1 -12 4 -15 5 -3 11 1 15 9 6 16 -9 21 -19 6z"/>
<path d="M5630 6540 c0 -5 -6 -10 -13 -10 -22 0 -57 -44 -56 -71 0 -13 6 -39
13 -58 l12 -33 28 42 c15 23 23 39 17 36 -18 -12 -13 65 6 86 9 11 11 18 5 18
-7 0 -12 -4 -12 -10z"/>
<path d="M2960 6515 c0 -8 2 -15 4 -15 2 0 6 7 10 15 3 8 1 15 -4 15 -6 0 -10
-7 -10 -15z"/>
<path d="M3086 6473 c-12 -12 -6 -33 9 -33 8 0 15 6 15 14 0 17 -14 28 -24 19z"/>
<path d="M3036 6307 c-15 -11 -16 -15 -3 -25 12 -10 18 -8 31 13 19 28 4 35
-28 12z"/>
<path d="M4958 6183 c-17 -8 -28 -22 -28 -35 0 -17 -4 -20 -30 -14 -29 5 -30
4 -30 -33 0 -32 6 -42 40 -70 22 -17 40 -36 40 -41 0 -15 -40 -22 -55 -10 -23
19 -37 2 -20 -23 20 -31 76 -31 90 0 5 12 18 25 30 28 19 6 19 7 -5 16 l-25
10 24 18 c22 17 22 49 0 36 -5 -4 -9 3 -9 15 0 17 4 20 21 15 16 -5 20 -3 17
12 -2 13 2 17 17 15 19 -3 19 -2 -1 15 -12 10 -25 28 -29 41 -7 25 -10 25 -47
5z"/>
<path d="M4758 6082 c-25 -5 -22 -29 7 -64 14 -16 23 -34 19 -39 -8 -13 8 -11
27 4 20 15 34 83 19 92 -14 9 -50 12 -72 7z"/>
<path d="M5253 6023 c9 -9 19 -14 23 -11 10 10 -6 28 -24 28 -15 0 -15 -1 1
-17z"/>
<path d="M3178 6011 c-20 -19 -23 -31 -9 -31 5 0 16 11 25 25 19 29 9 32 -16
6z"/>
<path d="M4841 5964 c0 -11 3 -14 6 -6 3 7 2 16 -1 19 -3 4 -6 -2 -5 -13z"/>
<path d="M2572 5863 c-6 -2 -10 -9 -7 -13 7 -11 35 -2 35 11 0 10 -8 10 -28 2z"/>
<path d="M5354 4147 c3 -10 6 -27 6 -38 0 -10 5 -19 10 -19 12 0 2 50 -13 65
-7 7 -8 4 -3 -8z"/>
<path d="M5390 4041 c0 -6 4 -13 10 -16 6 -3 7 1 4 9 -7 18 -14 21 -14 7z"/>
<path d="M4720 3775 c-7 -14 -18 -25 -24 -25 -6 0 -23 -10 -38 -23 -24 -20
-36 -59 -28 -92 7 -23 8 -31 9 -52 1 -28 54 -89 68 -80 24 15 46 112 45 196
-1 92 -11 115 -32 76z"/>
<path d="M4830 3790 c0 -5 5 -10 10 -10 6 0 10 5 10 10 0 6 -4 10 -10 10 -5 0
-10 -4 -10 -10z"/>
<path d="M5725 3759 c-28 -6 -26 -7 13 -8 42 -1 53 3 30 11 -7 2 -26 1 -43 -3z"/>
<path d="M6790 3470 c0 -5 7 -10 15 -10 8 0 15 5 15 10 0 6 -7 10 -15 10 -8 0
-15 -4 -15 -10z"/>
<path d="M4675 3440 c-39 -31 -65 -42 -86 -38 -18 4 -24 -42 -8 -53 15 -9 23
-197 9 -214 -9 -11 15 -46 45 -62 15 -9 22 -7 37 12 10 13 18 29 18 35 0 7 6
10 13 7 44 -16 57 -18 62 -5 3 7 9 60 14 118 9 111 -1 173 -37 213 -20 23 -23
22 -67 -13z"/>
<path d="M6935 3409 c-10 -15 1 -23 20 -15 9 3 13 10 10 16 -8 13 -22 13 -30
-1z"/>
<path d="M6640 3344 c0 -18 26 -47 39 -43 8 3 3 13 -13 28 -14 14 -26 20 -26
15z"/>
<path d="M6905 3280 c-8 -13 3 -30 21 -30 18 0 18 14 0 29 -10 8 -16 9 -21 1z"/>
<path d="M4025 3260 c13 -15 22 -17 29 -10 12 12 -8 30 -33 30 -11 0 -10 -5 4
-20z"/>
<path d="M3860 3259 c-27 -11 -60 -38 -60 -50 0 -4 13 -10 29 -14 16 -3 32
-13 35 -21 9 -22 30 -17 59 16 32 36 34 50 7 50 -11 0 -23 7 -26 15 -7 17 -10
17 -44 4z"/>
<path d="M7145 3240 c-3 -5 1 -10 9 -10 9 0 16 5 16 10 0 6 -4 10 -9 10 -6 0
-13 -4 -16 -10z"/>
<path d="M7068 3233 c6 -2 18 -2 25 0 6 3 1 5 -13 5 -14 0 -19 -2 -12 -5z"/>
<path d="M6806 3151 c-3 -5 1 -11 9 -15 9 -3 15 0 15 9 0 16 -16 20 -24 6z"/>
<path d="M3645 3126 c-17 -12 -14 -36 5 -36 13 0 32 38 22 44 -5 3 -17 -1 -27
-8z"/>
<path d="M7072 3088 c2 -12 10 -23 18 -23 22 0 19 39 -3 43 -15 3 -18 -1 -15
-20z"/>
<path d="M6272 2978 c-19 -19 -14 -34 14 -47 20 -9 30 -9 40 0 18 15 18 24 -2
43 -19 19 -36 20 -52 4z"/>
<path d="M6916 2982 c-3 -6 -1 -14 5 -17 15 -10 25 3 12 16 -7 7 -13 7 -17 1z"/>
<path d="M7145 2979 c-10 -15 1 -23 20 -15 9 3 13 10 10 16 -8 13 -22 13 -30
-1z"/>
<path d="M7016 2904 c-3 -8 1 -14 9 -14 20 0 28 17 11 23 -8 3 -17 -1 -20 -9z"/>
<path d="M6324 2879 c-8 -14 18 -31 30 -19 9 9 0 30 -14 30 -5 0 -12 -5 -16
-11z"/>
<path d="M7335 2880 c-3 -5 1 -10 9 -10 9 0 16 5 16 10 0 6 -4 10 -9 10 -6 0
-13 -4 -16 -10z"/>
<path d="M7105 2850 c-3 -5 -1 -10 4 -10 6 0 11 5 11 10 0 6 -2 10 -4 10 -3 0
-8 -4 -11 -10z"/>
<path d="M7040 2830 c-9 -6 -10 -10 -3 -10 6 0 15 5 18 10 8 12 4 12 -15 0z"/>
<path d="M7395 2810 c-3 -5 -1 -10 4 -10 6 0 11 5 11 10 0 6 -2 10 -4 10 -3 0
-8 -4 -11 -10z"/>
<path d="M7478 2759 c-10 -10 -18 -23 -18 -28 0 -5 -5 -11 -11 -13 -6 -2 -9
-17 -7 -34 3 -30 5 -28 34 32 32 65 33 77 2 43z"/>
<path d="M7360 2625 c0 -8 5 -15 10 -15 6 0 10 7 10 15 0 8 -4 15 -10 15 -5 0
-10 -7 -10 -15z"/>
<path d="M6866 2525 c-10 -8 -22 -12 -27 -10 -11 7 -21 -29 -13 -49 5 -13 20
-16 90 -15 71 2 87 -1 98 -16 14 -20 19 -19 136 13 41 12 87 24 101 27 17 3
29 13 32 27 9 34 -9 46 -33 20 -15 -16 -30 -21 -58 -19 -20 1 -42 5 -47 9 -19
12 -130 6 -162 -9 -37 -17 -69 -10 -78 18 -7 23 -14 23 -39 4z"/>
<path d="M5450 2471 c0 -5 7 -12 16 -15 24 -9 27 -7 10 9 -17 17 -26 19 -26 6z"/>
</g>
</svg>
