<?xml version="1.0" standalone="no"?>
<!DOCTYPE svg PUBLIC "-//W3C//DTD SVG 20010904//EN"
 "http://www.w3.org/TR/2001/REC-SVG-20010904/DTD/svg10.dtd">
<svg version="1.0" xmlns="http://www.w3.org/2000/svg"
 width="992.000000pt" height="1056.000000pt" viewBox="0 0 992.000000 1056.000000"
 preserveAspectRatio="xMidYMid meet">

<g transform="translate(0.000000,1056.000000) scale(0.100000,-0.100000)"
fill="#000000" stroke="none">
<path d="M3250 10550 c0 -5 7 -10 15 -10 8 0 15 5 15 10 0 6 -7 10 -15 10 -8
0 -15 -4 -15 -10z"/>
<path d="M2102 10359 c2 -6 8 -10 13 -10 5 0 11 4 13 10 2 6 -4 11 -13 11 -9
0 -15 -5 -13 -11z"/>
<path d="M2090 10284 c-102 -16 -133 -47 -123 -121 5 -35 10 -42 41 -54 63
-25 117 0 123 56 0 6 14 28 30 49 41 56 39 76 -8 75 -21 -1 -49 -3 -63 -5z"/>
<path d="M3427 10143 c-4 -3 -7 -17 -7 -30 0 -29 -36 -32 -45 -3 -7 23 -25 27
-25 5 0 -8 -4 -15 -10 -15 -5 0 -10 4 -10 8 0 10 -61 33 -71 26 -5 -3 -9 -16
-9 -29 0 -12 -7 -26 -16 -29 -14 -5 -16 -16 -12 -59 3 -28 3 -79 -1 -112 -5
-54 -8 -60 -28 -59 -20 1 -22 -2 -17 -25 4 -14 11 -30 15 -35 5 -6 9 -18 9
-28 0 -10 5 -18 12 -18 6 0 9 -3 5 -6 -3 -3 10 -21 29 -40 19 -19 34 -39 34
-44 0 -6 11 -10 24 -10 17 0 28 -9 37 -29 9 -19 20 -28 36 -28 19 0 23 5 23
28 0 34 13 37 37 9 10 -11 27 -20 38 -21 11 0 29 -4 40 -8 17 -7 14 -10 -20
-21 -87 -28 -72 -47 24 -29 55 9 73 9 85 0 10 -9 16 -9 21 -1 4 7 18 9 30 6
17 -4 28 0 39 16 15 21 14 23 -20 37 -31 12 -37 12 -45 0 -6 -10 -11 -11 -20
-2 -7 7 -21 8 -39 3 -31 -9 -40 1 -40 46 0 28 0 27 -36 14 -21 -8 -29 -7 -39
6 -9 12 -14 14 -19 5 -5 -8 -14 -4 -27 13 -37 47 -13 156 40 182 13 7 30 29
37 50 12 35 11 39 -16 73 -30 39 -46 86 -31 96 5 3 9 19 9 35 -1 29 -8 37 -21
23z"/>
<path d="M5670 9704 c0 -8 5 -12 10 -9 6 4 8 11 5 16 -9 14 -15 11 -15 -7z"/>
<path d="M3249 9629 c12 -12 25 -18 28 -15 9 9 -18 36 -35 36 -12 0 -11 -5 7
-21z"/>
<path d="M436 9568 c-3 -7 -7 -33 -10 -58 -4 -25 -10 -67 -15 -95 -5 -27 -5
-59 -1 -70 8 -19 8 -19 17 5 6 14 11 52 12 84 1 33 6 67 10 75 5 9 11 28 15
44 5 21 3 27 -9 27 -9 0 -17 -6 -19 -12z"/>
<path d="M3235 9570 c3 -5 8 -10 11 -10 2 0 4 5 4 10 0 6 -5 10 -11 10 -5 0
-7 -4 -4 -10z"/>
<path d="M3319 9571 c-1 -3 -1 -9 0 -14 0 -4 -16 -23 -36 -42 -31 -29 -34 -35
-18 -35 11 -1 33 -11 49 -24 23 -19 27 -29 22 -50 -4 -15 -2 -26 4 -26 5 0 10
6 10 14 0 9 7 12 20 9 12 -3 21 0 22 8 0 8 2 19 2 24 1 6 5 16 9 23 6 8 2 12
-11 12 -20 0 -36 25 -26 41 3 5 14 9 25 9 10 0 19 4 19 8 0 10 -89 52 -91 43z"/>
<path d="M945 9500 c-3 -5 -1 -10 4 -10 6 0 11 5 11 10 0 6 -2 10 -4 10 -3 0
-8 -4 -11 -10z"/>
<path d="M3545 9496 c31 -14 45 -12 45 5 0 5 -17 9 -37 9 l-38 -1 30 -13z"/>
<path d="M3607 9483 c-4 -3 5 -17 19 -30 31 -28 42 -23 26 12 -11 24 -31 32
-45 18z"/>
<path d="M3730 9484 c0 -15 14 -30 33 -37 20 -8 22 -30 4 -46 -8 -6 -14 -33
-15 -61 -1 -39 -7 -58 -26 -81 -29 -35 -33 -54 -11 -63 20 -7 45 20 45 50 0
13 4 24 10 24 5 0 14 10 21 21 9 17 8 23 -2 30 -18 11 -2 26 31 31 16 2 24 9
21 18 -2 8 -6 34 -8 57 -5 38 -8 42 -40 48 -19 3 -41 9 -49 12 -8 3 -14 1 -14
-3z"/>
<path d="M997 9404 c-3 -30 -12 -65 -20 -77 -8 -13 -12 -36 -10 -53 3 -17 -2
-69 -11 -116 -22 -115 -22 -111 20 -104 31 6 36 4 41 -13 3 -12 9 -21 13 -21
5 0 23 -24 42 -53 18 -30 39 -52 45 -50 7 3 18 -8 25 -24 7 -15 18 -32 25 -36
18 -11 17 -57 -2 -57 -8 0 -15 -3 -15 -7 0 -23 30 -116 48 -150 11 -21 25 -50
31 -65 6 -16 17 -28 25 -28 7 0 16 -13 20 -30 3 -17 12 -30 20 -30 8 0 17 -8
20 -18 3 -9 16 -22 28 -27 17 -8 22 -17 20 -37 -3 -34 33 -49 53 -22 12 18 14
17 26 -9 11 -24 11 -30 -2 -39 -12 -8 -11 -9 3 -5 9 3 24 0 34 -8 14 -10 22
-11 32 -2 8 6 26 11 40 12 40 0 39 33 -4 96 -38 55 -40 65 -49 181 -4 68 -18
108 -35 108 -6 0 -10 10 -10 22 0 23 -28 64 -84 122 -28 28 -41 35 -60 30 -19
-4 -29 1 -46 24 -12 17 -35 33 -51 36 -26 5 -29 10 -29 43 0 93 -53 205 -72
153 -10 -28 -35 -15 -43 23 -4 18 -16 39 -28 48 -19 16 -20 18 -5 41 11 16 13
30 7 39 -5 8 -9 42 -9 75 0 40 -5 66 -14 73 -11 9 -14 1 -19 -45z m263 -590
c0 -19 -16 -18 -24 2 -11 27 -7 37 9 24 8 -7 15 -19 15 -26z"/>
<path d="M3462 9438 c6 -18 28 -21 28 -4 0 9 -7 16 -16 16 -9 0 -14 -5 -12
-12z"/>
<path d="M3651 9411 c1 -16 61 -52 76 -47 15 6 15 9 -4 27 -18 19 -74 34 -72
20z"/>
<path d="M3488 9352 c-14 -16 -36 -36 -48 -45 l-22 -15 43 -40 c42 -40 42 -41
25 -67 -25 -39 4 -66 34 -30 10 12 9 22 -4 50 -20 42 -13 59 20 51 27 -7 43
16 26 37 -6 6 -14 27 -19 46 -12 45 -24 48 -55 13z"/>
<path d="M3570 9361 c0 -5 6 -14 14 -20 16 -13 32 2 21 19 -8 12 -35 13 -35 1z"/>
<path d="M3634 9336 c-7 -19 13 -56 30 -56 19 0 25 20 15 48 -9 25 -37 30 -45
8z"/>
<path d="M3122 9278 c-28 -28 -5 -52 36 -37 25 10 29 34 6 43 -22 8 -28 8 -42
-6z"/>
<path d="M423 9235 c-3 -9 -3 -18 0 -21 9 -9 27 6 27 22 0 19 -19 18 -27 -1z"/>
<path d="M3596 9235 c-3 -8 -12 -15 -20 -15 -23 0 -27 -29 -9 -63 l17 -32 15
37 c9 21 22 38 29 38 15 0 15 6 2 31 -13 23 -26 25 -34 4z"/>
<path d="M3820 9245 c0 -15 18 -40 24 -34 3 3 -1 14 -9 25 -8 10 -14 15 -15 9z"/>
<path d="M3062 9187 c-12 -13 -22 -31 -22 -41 0 -14 6 -12 35 11 36 29 46 53
22 53 -8 0 -23 -10 -35 -23z"/>
<path d="M3798 9158 c-30 -8 -38 -16 -44 -41 -3 -17 -16 -39 -28 -49 -23 -19
-61 -24 -71 -9 -3 6 -18 16 -34 24 -25 12 -32 12 -65 -5 -20 -10 -36 -24 -36
-31 0 -6 -14 -30 -30 -51 -30 -40 -38 -66 -20 -66 5 0 15 9 22 19 10 16 20 18
67 14 76 -8 84 -16 77 -76 -6 -44 -4 -51 20 -74 21 -19 32 -23 43 -16 17 11
61 -3 61 -19 0 -14 30 -9 36 7 4 8 12 15 20 15 18 0 18 17 1 27 -21 12 -30 83
-11 83 8 0 14 6 14 12 0 7 7 3 15 -8 10 -15 24 -21 47 -20 37 1 38 6 26 91 -5
33 -4 51 4 56 9 6 9 11 -1 23 -7 8 -11 23 -10 33 3 18 -41 74 -57 72 -5 -1
-26 -5 -46 -11z"/>
<path d="M2986 9118 c-8 -19 -25 -42 -38 -50 -13 -9 -20 -19 -17 -22 11 -12
59 13 59 30 0 10 8 26 17 36 12 14 14 21 5 30 -9 9 -15 3 -26 -24z"/>
<path d="M7717 8954 c-8 -8 1 -24 14 -24 5 0 9 7 9 15 0 15 -12 20 -23 9z"/>
<path d="M520 8934 c0 -8 5 -12 10 -9 6 3 10 10 10 16 0 5 -4 9 -10 9 -5 0
-10 -7 -10 -16z"/>
<path d="M2850 8891 c-6 -12 -17 -21 -25 -21 -9 0 -15 -10 -15 -25 0 -17 -9
-29 -30 -40 -18 -9 -37 -33 -52 -64 -23 -51 -38 -61 -95 -61 -23 0 -37 -7 -50
-25 -10 -14 -26 -35 -35 -47 -10 -11 -19 -25 -19 -30 -1 -4 -2 -13 -3 -19 0
-7 -10 -17 -21 -23 -11 -6 -22 -14 -25 -17 -11 -14 -50 -20 -67 -10 -30 15
-62 -19 -73 -80 -6 -28 -10 -53 -10 -55 0 -2 -7 -4 -16 -4 -9 0 -22 -7 -28
-15 -10 -14 -18 -12 -69 15 -83 44 -107 40 -121 -25 -23 -102 -26 -122 -21
-142 3 -14 13 -23 24 -23 12 0 22 -13 30 -42 7 -24 25 -63 39 -88 22 -37 27
-58 28 -120 l1 -75 67 4 c53 2 71 0 87 -14 10 -10 19 -24 19 -32 0 -17 12 -17
54 1 37 15 124 12 166 -6 50 -21 55 -26 52 -50 -1 -14 4 -31 12 -37 16 -13 19
-11 67 32 10 9 27 17 37 17 29 0 65 24 68 45 1 11 6 60 12 109 8 70 14 93 30
105 19 15 62 102 62 125 0 6 8 23 17 36 10 14 16 32 15 42 -4 21 14 32 58 34
19 2 42 3 50 4 8 2 23 -1 34 -5 14 -6 18 -4 14 6 -2 8 -14 15 -26 17 -12 2
-22 10 -22 18 0 8 -22 36 -50 62 -40 38 -50 55 -50 81 0 17 -7 45 -14 60 -13
25 -13 31 0 50 13 18 13 25 3 37 -10 13 -10 17 2 25 22 14 46 11 53 -7 3 -8
11 -12 17 -8 9 5 7 11 -6 20 -30 22 -11 44 37 44 39 0 45 3 55 31 9 23 9 31 0
34 -7 2 -37 11 -67 20 -70 22 -89 38 -73 64 16 25 4 35 -19 15 -23 -22 -46 -5
-50 39 -4 39 -40 50 -58 18z"/>
<path d="M3440 8890 c-6 -12 -10 -33 -8 -47 3 -26 3 -25 30 12 15 21 25 42 22
47 -9 15 -33 8 -44 -12z"/>
<path d="M6420 8870 c0 -5 7 -10 15 -10 8 0 15 5 15 10 0 6 -7 10 -15 10 -8 0
-15 -4 -15 -10z"/>
<path d="M7865 8800 c3 -5 8 -10 11 -10 2 0 4 5 4 10 0 6 -5 10 -11 10 -5 0
-7 -4 -4 -10z"/>
<path d="M3307 8784 c-4 -4 -7 -14 -7 -23 0 -11 3 -12 11 -4 6 6 10 16 7 23
-2 6 -7 8 -11 4z"/>
<path d="M660 8753 c0 -57 30 -116 89 -173 33 -32 65 -68 71 -79 6 -12 21 -21
33 -21 36 0 50 -16 51 -56 1 -32 6 -41 29 -52 15 -7 27 -17 27 -23 0 -10 50
-90 62 -99 3 -3 31 -53 60 -111 30 -59 64 -119 76 -133 11 -15 24 -40 27 -56
8 -34 24 -48 35 -30 12 19 30 2 53 -49 11 -25 33 -59 48 -75 16 -17 29 -35 29
-40 1 -18 32 -50 85 -86 28 -19 58 -43 67 -55 10 -11 17 -16 18 -11 0 5 7 3
15 -4 8 -7 30 -20 48 -30 20 -11 33 -26 35 -41 7 -49 62 -61 62 -13 0 20 4 23
28 18 45 -9 51 9 53 149 2 109 5 129 21 143 10 10 18 13 18 8 0 -5 5 -1 11 9
8 13 7 22 -3 34 -7 9 -13 21 -13 27 0 6 -9 26 -20 43 -15 25 -24 32 -40 27
-43 -13 -43 -32 0 -47 16 -6 -15 -37 -37 -37 -10 0 -21 6 -24 14 -3 8 -19 16
-36 20 -26 5 -29 9 -24 31 5 18 1 27 -14 35 -15 8 -20 21 -20 55 0 49 -2 50
-31 35 -14 -8 -25 -7 -43 5 -32 21 -38 49 -15 69 31 26 21 66 -27 115 -23 23
-24 23 -24 3 0 -24 -27 -37 -47 -21 -11 10 -11 15 4 31 16 18 15 20 -18 47
-19 16 -49 32 -66 36 -18 3 -33 10 -33 15 0 5 -24 21 -52 35 -88 42 -126 70
-139 103 -5 13 -17 22 -29 22 -24 0 -97 55 -105 79 -3 9 -18 31 -34 49 -25 26
-37 32 -71 32 -30 0 -53 8 -83 30 -23 16 -57 33 -74 36 -28 6 -33 4 -33 -13z"/>
<path d="M3955 8630 c-3 -5 -1 -10 4 -10 6 0 11 5 11 10 0 6 -2 10 -4 10 -3 0
-8 -4 -11 -10z"/>
<path d="M1994 8554 c3 -9 6 -18 6 -20 0 -11 49 -2 53 10 8 19 -1 26 -36 26
-22 0 -28 -4 -23 -16z"/>
<path d="M8033 8553 c9 -2 23 -2 30 0 6 3 -1 5 -18 5 -16 0 -22 -2 -12 -5z"/>
<path d="M4027 8402 c-16 -9 -31 -29 -34 -44 -3 -16 -9 -28 -14 -28 -5 0 -9
-13 -9 -29 0 -17 -4 -32 -8 -35 -11 -6 -8 -47 5 -71 10 -17 13 -17 28 -5 15
12 16 25 11 83 -6 65 -5 67 13 57 11 -5 21 -20 23 -32 l3 -23 14 24 c16 28 20
113 6 117 -5 2 -23 -4 -38 -14z"/>
<path d="M3708 8369 c-58 -58 -67 -60 -194 -60 -97 1 -125 4 -158 21 l-41 20
-44 -23 c-25 -12 -52 -34 -61 -48 -8 -14 -23 -37 -32 -51 -10 -13 -22 -44 -27
-69 -17 -79 -29 -122 -44 -153 -17 -35 -37 -97 -37 -113 0 -6 20 -18 45 -27
54 -21 63 -45 46 -118 -6 -27 -11 -61 -11 -75 0 -27 56 -106 70 -98 10 6 19
82 26 240 3 72 7 131 9 133 9 9 47 -26 52 -48 3 -14 12 -34 19 -45 19 -26 18
-32 -6 -38 -11 -3 -20 -14 -20 -25 0 -25 37 -72 53 -67 7 3 19 -10 28 -28 9
-17 23 -32 32 -32 8 0 27 -13 41 -28 14 -15 27 -27 30 -27 9 0 -16 53 -34 72
-8 9 -32 35 -54 58 -21 23 -35 44 -31 48 4 4 29 -17 55 -47 52 -59 80 -64 80
-13 0 20 -9 35 -30 50 -31 24 -38 50 -18 70 9 9 3 22 -30 55 -23 24 -44 52
-46 63 -3 10 -7 27 -11 36 -8 19 13 32 66 42 44 8 79 39 79 71 0 29 -30 34
-51 9 -9 -11 -22 -14 -44 -10 -31 6 -101 -21 -116 -45 -12 -21 -72 44 -74 82
-2 19 -6 42 -10 52 -21 51 60 66 236 44 119 -15 194 -13 217 6 7 6 20 24 29
41 9 17 19 33 22 36 11 8 41 54 41 62 0 17 -23 7 -52 -23z m-343 -559 c3 -5 1
-10 -4 -10 -6 0 -11 5 -11 10 0 6 2 10 4 10 3 0 8 -4 11 -10z"/>
<path d="M770 8381 c0 -14 18 -23 31 -15 8 4 7 9 -2 15 -18 11 -29 11 -29 0z"/>
<path d="M4102 8340 c-16 -26 -15 -30 3 -30 9 0 15 9 15 25 0 30 -2 31 -18 5z"/>
<path d="M833 8324 c-15 -39 38 -67 61 -32 12 20 3 32 -32 43 -16 4 -24 2 -29
-11z"/>
<path d="M1547 8304 c-8 -8 1 -24 14 -24 5 0 9 7 9 15 0 15 -12 20 -23 9z"/>
<path d="M1613 8297 c4 -10 7 -23 7 -28 0 -5 6 -9 14 -9 8 0 14 9 13 20 -1 10
-3 17 -6 15 -2 -3 -11 1 -19 8 -13 10 -15 9 -9 -6z"/>
<path d="M4068 8277 c-12 -30 -10 -93 3 -80 5 5 9 30 7 54 -2 31 -5 39 -10 26z"/>
<path d="M8150 8216 c0 -9 7 -16 16 -16 9 0 14 5 12 12 -6 18 -28 21 -28 4z"/>
<path d="M960 8210 c0 -5 7 -10 16 -10 8 0 12 5 9 10 -3 6 -10 10 -16 10 -5 0
-9 -4 -9 -10z"/>
<path d="M1646 8195 c4 -8 10 -15 15 -15 5 0 9 7 9 15 0 8 -7 15 -15 15 -9 0
-12 -6 -9 -15z"/>
<path d="M4250 8186 c0 -9 5 -16 10 -16 6 0 10 4 10 9 0 6 -4 13 -10 16 -5 3
-10 -1 -10 -9z"/>
<path d="M1578 8174 c-12 -12 -9 -34 6 -50 11 -10 17 -11 22 -3 3 6 2 14 -4
18 -5 3 -11 14 -13 24 -2 11 -7 15 -11 11z"/>
<path d="M3993 8153 c-4 -10 -11 -21 -17 -25 -8 -5 -8 -10 0 -18 14 -14 70 33
59 49 -10 17 -35 13 -42 -6z"/>
<path d="M985 8130 c3 -5 11 -10 16 -10 6 0 7 5 4 10 -3 6 -11 10 -16 10 -6 0
-7 -4 -4 -10z"/>
<path d="M4428 8129 c-15 -4 -29 -5 -31 -3 -2 2 -17 -2 -33 -11 -16 -8 -35
-15 -41 -15 -7 0 -13 -11 -13 -24 0 -17 9 -28 30 -38 17 -7 30 -18 30 -25 0
-7 24 -27 54 -43 30 -17 60 -38 66 -45 11 -13 5 -15 -35 -15 l-48 0 36 -35
c23 -23 37 -45 37 -61 0 -14 4 -22 10 -19 5 3 20 1 32 -6 16 -9 23 -9 26 0 2
6 11 11 19 11 12 0 13 3 3 15 -15 18 -5 35 20 35 19 0 33 -14 36 -36 1 -7 17
-26 35 -44 19 -18 33 -38 31 -44 -2 -6 -1 -8 3 -4 4 3 21 2 38 -3 18 -5 76
-18 130 -30 118 -24 167 -51 186 -105 8 -21 19 -44 25 -51 31 -35 36 -44 36
-62 0 -11 5 -23 10 -26 18 -11 11 -52 -12 -67 -33 -22 -98 -80 -98 -88 0 -12
109 -21 127 -11 83 41 153 29 153 -28 0 -18 32 -38 52 -33 4 1 12 -7 18 -18
11 -21 40 -28 40 -10 0 17 21 11 40 -12 17 -21 19 -21 25 -5 8 19 45 23 61 7
7 -7 24 5 52 34 46 49 51 58 25 55 -22 -2 -83 22 -83 33 0 10 3 10 35 -2 19
-7 39 -7 68 2 23 6 50 10 60 9 10 -1 24 5 31 15 22 30 104 15 167 -32 73 -53
99 -79 99 -97 0 -8 6 -25 13 -38 28 -54 44 -69 83 -75 21 -3 59 -10 84 -15 25
-6 56 -10 69 -10 23 1 108 -19 144 -34 39 -16 14 17 -33 43 -28 15 -50 35 -52
46 -2 12 -17 24 -41 32 -52 18 -94 50 -103 77 -8 27 -53 77 -70 77 -7 0 -17
15 -24 33 -6 18 -30 47 -55 67 -25 19 -41 38 -37 42 4 4 27 8 52 10 41 3 45 5
43 29 -1 23 2 25 30 21 25 -3 30 -2 20 8 -6 7 -24 12 -40 12 -15 0 -35 6 -43
13 -8 7 -43 17 -77 23 -66 12 -113 36 -113 58 0 8 10 14 23 14 20 1 19 4 -15
33 -91 80 -145 112 -206 123 -19 4 -51 17 -70 30 -19 13 -40 24 -46 24 -12 0
-157 45 -328 101 -64 22 -125 39 -135 39 -10 0 -24 9 -31 20 -9 14 -23 20 -50
20 -30 0 -45 -7 -72 -35 -19 -19 -39 -35 -45 -35 -7 0 -32 -22 -57 -50 -25
-28 -54 -50 -65 -50 -25 0 -49 27 -65 71 -6 19 -18 40 -26 48 -8 8 -11 22 -7
35 4 12 7 30 6 41 0 11 -1 32 -1 48 0 15 -3 27 -7 28 -5 0 -42 3 -83 5 -41 2
-79 6 -85 8 -5 1 -22 0 -37 -5z m162 -178 c0 -16 -51 -43 -68 -36 -15 6 -14 9
7 26 24 20 61 26 61 10z"/>
<path d="M3950 8100 c0 -5 5 -10 10 -10 6 0 10 5 10 10 0 6 -4 10 -10 10 -5 0
-10 -4 -10 -10z"/>
<path d="M1026 8092 c-3 -6 -1 -14 5 -17 15 -10 25 3 12 16 -7 7 -13 7 -17 1z"/>
<path d="M4756 8085 c25 -19 34 -19 34 0 0 10 -10 15 -27 15 -26 0 -26 -1 -7
-15z"/>
<path d="M990 8050 c-20 -13 -1 -44 30 -48 30 -5 40 8 29 36 -9 23 -34 28 -59
12z"/>
<path d="M3625 8006 c-22 -10 -26 -15 -15 -19 19 -8 193 -28 197 -23 8 8 -45
33 -82 38 -22 4 -47 9 -55 12 -8 3 -28 -1 -45 -8z"/>
<path d="M4220 7990 c0 -5 5 -10 11 -10 5 0 7 5 4 10 -3 6 -8 10 -11 10 -2 0
-4 -4 -4 -10z"/>
<path d="M1652 7979 c2 -7 10 -15 17 -17 8 -3 12 1 9 9 -2 7 -10 15 -17 17 -8
3 -12 -1 -9 -9z"/>
<path d="M1066 7964 c-4 -9 -4 -19 -2 -21 8 -8 26 8 26 23 0 19 -16 18 -24 -2z"/>
<path d="M3940 7970 c0 -5 5 -10 11 -10 5 0 7 5 4 10 -3 6 -8 10 -11 10 -2 0
-4 -4 -4 -10z"/>
<path d="M1120 7933 c0 -4 5 -15 10 -23 8 -13 10 -13 10 2 0 9 -4 20 -10 23
-5 3 -10 3 -10 -2z"/>
<path d="M1953 7927 c-12 -6 -24 -19 -26 -29 -3 -10 -18 -23 -34 -29 l-28 -11
33 -14 c17 -8 32 -19 32 -24 0 -6 4 -10 9 -10 5 0 7 8 4 19 -7 26 11 34 51 22
l35 -9 -6 31 c-6 29 -31 68 -43 66 -3 -1 -15 -6 -27 -12z"/>
<path d="M6282 7921 c7 -11 16 -17 20 -14 10 5 -10 33 -23 33 -5 0 -4 -9 3
-19z"/>
<path d="M5961 7911 c-8 -5 -9 -11 -3 -15 14 -8 43 4 36 15 -7 11 -15 11 -33
0z"/>
<path d="M3972 7820 c-11 -24 -18 -47 -15 -50 3 -3 8 1 10 8 6 14 141 16 248
2 38 -5 71 -8 72 -7 1 1 -16 21 -37 44 l-39 42 -109 3 -109 3 -21 -45z"/>
<path d="M3830 7839 c-6 -10 -10 -28 -10 -40 0 -20 4 -21 41 -16 51 7 55 11
41 41 -14 30 -59 40 -72 15z"/>
<path d="M4260 7841 c0 -5 5 -13 10 -16 6 -3 10 -2 10 4 0 5 -4 13 -10 16 -5
3 -10 2 -10 -4z"/>
<path d="M4290 7821 c0 -6 4 -13 10 -16 6 -3 7 1 4 9 -7 18 -14 21 -14 7z"/>
<path d="M6490 7810 c0 -5 5 -10 10 -10 6 0 10 5 10 10 0 6 -4 10 -10 10 -5 0
-10 -4 -10 -10z"/>
<path d="M6430 7800 c0 -14 48 -35 58 -26 8 9 -26 36 -45 36 -7 0 -13 -5 -13
-10z"/>
<path d="M1270 7771 c0 -6 5 -13 10 -16 6 -3 10 1 10 9 0 9 -4 16 -10 16 -5 0
-10 -4 -10 -9z"/>
<path d="M6513 7745 c-10 -23 -9 -24 12 -19 17 4 28 -2 44 -22 18 -23 24 -26
31 -14 16 26 11 36 -29 58 -21 12 -40 22 -42 22 -2 0 -9 -11 -16 -25z"/>
<path d="M2740 7751 c0 -5 5 -13 10 -16 6 -3 10 -2 10 4 0 5 -4 13 -10 16 -5
3 -10 2 -10 -4z"/>
<path d="M6390 7730 c0 -5 6 -10 14 -10 8 0 18 5 21 10 3 6 -3 10 -14 10 -12
0 -21 -4 -21 -10z"/>
<path d="M6437 7672 c-15 -15 -27 -38 -27 -50 0 -40 -35 -50 -154 -46 -60 2
-122 6 -138 9 -15 4 -28 3 -28 -2 0 -18 71 -63 117 -73 26 -6 63 -16 81 -23
25 -9 37 -9 52 1 11 7 25 12 31 12 17 0 109 82 125 112 16 30 19 78 5 78 -5 0
-16 2 -23 5 -8 3 -26 -7 -41 -23z"/>
<path d="M1310 7640 c0 -11 4 -20 9 -20 5 0 11 9 14 20 3 13 0 20 -9 20 -8 0
-14 -9 -14 -20z"/>
<path d="M4642 7570 c-46 -44 -50 -60 -25 -90 24 -27 30 -25 46 13 48 112 41
138 -21 77z"/>
<path d="M6747 7554 c-7 -7 13 -44 32 -60 8 -6 11 -16 7 -23 -10 -15 21 -51
44 -51 9 0 22 -6 29 -12 11 -11 11 -9 1 11 -6 12 -10 31 -7 41 3 13 -2 20 -20
25 -13 3 -33 21 -45 40 -20 35 -29 41 -41 29z"/>
<path d="M1780 7534 c0 -9 5 -14 12 -12 18 6 21 28 4 28 -9 0 -16 -7 -16 -16z"/>
<path d="M1755 7500 c-14 -15 -15 -23 -6 -33 12 -16 3 -27 -34 -42 -15 -6 -7
-10 36 -15 62 -8 82 -16 73 -31 -3 -6 8 -15 24 -21 17 -7 33 -20 35 -30 7 -24
87 -25 123 -2 19 13 40 15 96 11 70 -6 89 -15 101 -50 7 -23 286 -48 311 -28
10 9 25 7 62 -9 27 -12 54 -26 62 -32 24 -21 52 -17 52 7 0 29 -19 45 -51 45
-15 0 -31 5 -34 10 -6 9 0 12 35 14 14 1 16 8 12 35 -3 13 -55 21 -69 9 -18
-14 -93 0 -87 16 3 8 -2 16 -10 19 -9 4 -13 13 -10 21 7 19 -7 26 -60 28 -25
1 -40 6 -33 10 19 12 2 19 -74 30 -66 10 -74 9 -89 -8 -23 -27 -55 -43 -76
-39 -11 2 -31 6 -46 10 -20 4 -32 16 -42 40 -15 34 -16 35 -78 37 -153 4 -187
6 -196 12 -5 3 -17 -3 -27 -14z m845 -190 c0 -5 -7 -10 -16 -10 -8 0 -12 5 -9
10 3 6 10 10 16 10 5 0 9 -4 9 -10z"/>
<path d="M1633 7423 c9 -2 23 -2 30 0 6 3 -1 5 -18 5 -16 0 -22 -2 -12 -5z"/>
<path d="M2485 7421 c-15 -25 55 -33 105 -14 14 6 31 8 38 6 6 -3 12 0 12 6 0
14 -146 15 -155 2z"/>
<path d="M4352 7388 c-14 -18 -19 -60 -7 -65 13 -4 44 48 38 65 -3 6 -8 12
-13 12 -4 0 -12 -6 -18 -12z"/>
<path d="M7030 7359 c0 -12 8 -23 20 -26 11 -3 20 -9 20 -13 0 -5 9 -12 20
-15 12 -4 20 -15 20 -28 0 -19 1 -20 16 -6 12 13 13 20 3 42 -7 15 -17 23 -25
20 -7 -2 -25 7 -39 21 -31 31 -35 32 -35 5z"/>
<path d="M3817 7358 c-9 -5 -17 -13 -17 -18 0 -14 23 -12 44 3 16 11 16 15 4
19 -8 3 -22 2 -31 -4z"/>
<path d="M2731 7310 c-14 -8 -8 -40 7 -40 5 0 15 6 21 14 15 17 -8 39 -28 26z"/>
<path d="M3680 7294 c-24 -15 -24 -15 15 -9 55 9 80 24 40 24 -16 0 -41 -7
-55 -15z"/>
<path d="M2934 7275 c-10 -40 -27 -48 -61 -29 -35 20 -55 15 -79 -21 -16 -24
-16 -26 2 -40 13 -10 41 -14 84 -13 53 1 69 6 89 25 19 19 35 23 83 23 l58 0
-16 24 c-19 30 -42 36 -69 20 -29 -17 -75 -26 -75 -14 0 5 11 12 25 16 20 5
23 9 14 20 -19 23 -48 17 -55 -11z"/>
<path d="M6910 7286 c0 -16 24 -39 32 -30 3 3 4 14 1 25 -6 22 -33 26 -33 5z"/>
<path d="M3479 7270 c-22 -13 -83 -15 -154 -6 -53 6 -63 5 -83 -14 -12 -12
-20 -25 -17 -30 8 -12 184 -5 220 10 17 6 57 15 90 18 33 4 59 12 58 17 -4 13
-93 16 -114 5z"/>
<path d="M3958 7273 c7 -3 16 -2 19 1 4 3 -2 6 -13 5 -11 0 -14 -3 -6 -6z"/>
<path d="M3180 7260 c0 -5 7 -7 15 -4 8 4 15 8 15 10 0 2 -7 4 -15 4 -8 0 -15
-4 -15 -10z"/>
<path d="M3778 7250 c-9 -6 -46 -19 -82 -30 -47 -15 -71 -29 -85 -49 -12 -16
-21 -33 -21 -38 0 -5 -14 -22 -30 -38 -17 -16 -29 -34 -27 -40 3 -5 0 -18 -5
-29 -6 -10 -6 -16 -1 -14 4 3 22 11 40 18 19 8 33 23 35 35 2 14 9 19 24 17
12 -2 24 4 27 12 9 22 127 102 172 115 57 17 85 33 79 43 -7 11 -105 10 -126
-2z"/>
<path d="M7180 7242 c0 -5 7 -15 15 -22 8 -7 15 -8 15 -2 0 5 -7 15 -15 22 -8
7 -15 8 -15 2z"/>
<path d="M7120 7200 c0 -5 5 -10 11 -10 5 0 7 5 4 10 -3 6 -8 10 -11 10 -2 0
-4 -4 -4 -10z"/>
<path d="M7020 7190 c0 -5 7 -10 15 -10 8 0 15 5 15 10 0 6 -7 10 -15 10 -8 0
-15 -4 -15 -10z"/>
<path d="M6373 7160 c-8 -12 -9 -21 -3 -25 14 -9 50 13 50 30 0 22 -33 18 -47
-5z"/>
<path d="M7060 7166 c0 -9 7 -16 16 -16 9 0 14 5 12 12 -6 18 -28 21 -28 4z"/>
<path d="M3120 7150 c0 -12 12 -26 30 -35 20 -10 30 -23 30 -38 1 -74 30 -86
73 -30 48 64 1 123 -99 123 -27 0 -34 -4 -34 -20z"/>
<path d="M7330 7105 c7 -9 15 -13 17 -11 7 7 -7 26 -19 26 -6 0 -6 -6 2 -15z"/>
<path d="M7250 7083 c0 -13 5 -23 10 -23 13 0 13 11 0 30 -8 12 -10 11 -10 -7z"/>
<path d="M7296 7063 c-11 -11 -6 -23 9 -23 8 0 15 4 15 9 0 13 -16 22 -24 14z"/>
<path d="M5526 7023 c-3 -10 -8 -36 -12 -58 -4 -22 -14 -53 -22 -70 -9 -16
-17 -56 -19 -88 -1 -32 -7 -66 -12 -75 -5 -9 -7 -64 -4 -123 5 -84 2 -118 -11
-157 -9 -28 -16 -62 -16 -76 0 -29 -14 -65 -47 -118 -22 -36 -25 -38 -78 -38
-49 0 -59 4 -97 38 -24 20 -45 41 -46 45 -2 4 -30 21 -63 37 -32 17 -74 43
-92 60 -19 16 -39 30 -45 30 -6 0 -15 6 -19 13 -9 14 -78 60 -105 70 -19 7
-25 47 -8 47 6 0 10 6 10 14 0 7 11 29 24 48 17 26 21 40 14 53 -12 20 -2 32
32 37 21 2 27 11 35 49 5 25 15 53 22 61 10 11 7 19 -16 40 -32 30 -50 22 -52
-21 0 -15 -3 -20 -6 -13 -2 6 -11 12 -19 12 -9 0 -14 7 -12 18 4 27 -6 29 -46
7 -35 -18 -38 -19 -50 -3 -8 10 -21 14 -38 11 -14 -3 -29 0 -32 6 -4 6 -20 11
-37 11 -17 0 -36 8 -46 20 -12 13 -24 18 -41 13 -18 -4 -24 -1 -29 15 -5 20
-30 32 -65 32 -24 0 -23 -31 1 -37 24 -6 36 -50 19 -70 -10 -13 -27 -14 -90
-9 -70 6 -81 4 -107 -15 -20 -15 -32 -34 -36 -59 -5 -27 -13 -41 -32 -49 -21
-10 -24 -17 -20 -40 5 -23 1 -31 -19 -41 -32 -18 -39 -47 -19 -92 8 -21 15
-42 15 -48 0 -14 -16 -13 -32 3 -18 19 -52 26 -71 16 -11 -7 -25 2 -52 33 -21
22 -63 54 -93 71 -51 26 -57 28 -68 13 -6 -9 -18 -15 -25 -14 -7 2 -13 -2 -14
-9 0 -7 -6 -18 -12 -24 -10 -10 -16 -9 -31 4 -24 22 -33 13 -25 -24 6 -33 -2
-36 -29 -12 -18 16 -18 16 -12 -1 5 -12 1 -19 -15 -23 -15 -4 -20 -11 -16 -22
12 -31 10 -36 -17 -34 -19 1 -28 -3 -28 -13 0 -8 -7 -14 -15 -14 -19 0 -20
-26 -1 -37 7 -4 17 -18 20 -31 7 -22 6 -22 -48 -16 -47 6 -56 4 -56 -9 0 -9 6
-22 13 -29 17 -18 16 -70 -1 -63 -8 3 -15 5 -17 5 -2 0 -14 18 -26 40 l-23 40
-28 -28 c-55 -52 -70 -102 -45 -143 10 -18 9 -23 -16 -44 -15 -13 -33 -41 -40
-61 -16 -49 -114 -105 -221 -127 -42 -9 -105 -30 -141 -48 -42 -20 -83 -33
-113 -34 -50 -2 -115 -29 -153 -64 -13 -12 -44 -36 -68 -54 -43 -31 -52 -42
-67 -82 -7 -17 -8 -16 -12 10 -11 88 -45 26 -43 -80 0 -39 -6 -91 -14 -116
l-16 -46 46 -91 c48 -94 67 -162 46 -162 -6 0 -11 12 -11 28 0 16 -11 37 -25
51 -22 20 -25 21 -25 5 0 -10 10 -37 21 -61 12 -24 18 -47 15 -50 -8 -8 -65
57 -66 75 0 6 -5 12 -11 12 -17 0 1 -40 42 -95 22 -29 43 -71 49 -98 6 -27 21
-70 34 -95 30 -61 52 -141 60 -222 5 -43 19 -91 43 -143 35 -74 36 -81 25
-122 -6 -24 -9 -58 -6 -74 8 -37 -16 -80 -43 -77 -14 1 -19 -8 -21 -41 -3 -40
-1 -43 21 -43 16 0 40 -16 67 -44 33 -34 53 -46 94 -54 82 -18 127 -10 181 32
26 20 57 36 67 36 11 0 32 13 47 28 36 40 103 53 260 54 146 1 184 14 202 66
8 23 27 35 110 70 67 28 114 42 145 42 41 0 156 32 179 50 44 34 313 62 336
34 5 -6 21 -15 34 -18 14 -4 25 -11 25 -16 0 -6 20 -10 44 -10 36 0 50 -6 76
-31 21 -22 37 -30 51 -26 37 10 50 -2 43 -39 -5 -26 -3 -34 9 -34 8 0 17 -9
20 -20 3 -11 13 -23 24 -27 29 -11 42 -35 43 -78 0 -33 6 -47 34 -73 19 -18
36 -32 38 -32 3 0 3 13 0 29 -5 33 25 66 100 110 50 29 81 62 92 99 11 35 27
15 20 -26 -9 -59 -25 -105 -44 -130 -10 -12 -16 -31 -13 -42 4 -16 -2 -23 -26
-31 -20 -7 -31 -18 -31 -31 0 -13 4 -17 13 -11 6 4 30 10 51 13 35 4 41 9 55
48 22 61 46 57 45 -8 0 -38 -6 -56 -25 -76 l-24 -26 40 5 c22 2 50 8 63 12 16
5 22 3 22 -8 0 -8 7 -17 15 -21 11 -4 15 -21 15 -58 1 -82 57 -188 100 -188 9
0 26 -9 38 -20 15 -14 29 -18 50 -14 17 4 32 1 36 -5 4 -6 18 -11 32 -11 14 0
52 -13 86 -30 33 -16 68 -30 77 -30 9 0 32 13 51 30 38 32 56 37 63 18 3 -9
12 -6 29 10 13 12 33 22 43 22 17 0 17 -1 2 -18 -22 -24 -21 -42 2 -42 10 0
24 -7 31 -15 7 -9 19 -14 25 -11 7 2 18 -8 25 -22 l12 -27 9 23 c5 12 14 22
22 22 7 0 40 26 73 59 60 59 105 81 167 81 16 0 46 12 67 27 36 26 38 30 43
98 3 38 15 93 26 120 11 28 36 93 56 145 57 152 95 226 124 243 31 18 64 114
80 227 5 36 19 99 31 140 33 114 34 131 11 206 -17 56 -19 86 -15 159 3 50 12
110 20 134 17 53 17 61 4 61 -5 0 -13 -14 -18 -32 -10 -41 -28 -46 -36 -11 -7
25 -37 68 -84 118 -10 11 -27 34 -38 50 -10 17 -27 38 -37 47 -15 14 -17 25
-11 64 7 47 7 47 -20 42 -19 -4 -29 0 -37 13 -15 29 -29 23 -30 -13 l-1 -33
-19 40 c-10 22 -19 48 -19 58 0 9 -4 17 -10 17 -5 0 -13 18 -16 40 -4 22 -17
51 -29 64 -15 17 -21 32 -18 50 4 20 0 26 -20 31 -14 4 -34 18 -46 31 -11 13
-27 24 -34 24 -7 0 -23 14 -35 30 -13 17 -31 30 -41 30 -32 0 -65 35 -68 71
-8 117 -12 142 -19 148 -23 16 -54 121 -57 188 -3 65 -6 75 -37 111 -27 33
-40 40 -65 39 -16 -2 -35 -6 -42 -10 -26 -16 -53 62 -70 202 -4 31 -10 45 -24
48 -12 3 -19 14 -19 29 0 27 -30 94 -42 94 -4 0 -5 7 -1 16 4 11 -2 23 -18 35
-30 23 -36 23 -43 2z m-1466 -520 c0 -5 -5 -15 -10 -23 -8 -12 -10 -11 -10 8
0 12 5 22 10 22 6 0 10 -3 10 -7z m1686 -2720 c-10 -10 -19 5 -10 18 6 11 8
11 12 0 2 -7 1 -15 -2 -18z"/>
<path d="M7340 7032 c0 -13 31 -52 41 -52 5 0 3 14 -6 30 -14 28 -35 41 -35
22z"/>
<path d="M4323 6953 c-44 -22 -42 -33 5 -27 54 8 62 12 62 29 0 19 -26 18 -67
-2z"/>
<path d="M4240 6940 c0 -5 7 -10 15 -10 8 0 15 5 15 10 0 6 -7 10 -15 10 -8 0
-15 -4 -15 -10z"/>
<path d="M6600 6915 c-7 -9 -11 -18 -8 -20 3 -3 11 1 18 10 7 9 11 18 8 20 -3
3 -11 -1 -18 -10z"/>
<path d="M7221 6847 c-6 -8 -8 -17 -5 -20 10 -9 45 13 39 24 -9 13 -21 11 -34
-4z"/>
<path d="M4932 6668 c-5 -7 -8 -24 -7 -38 2 -20 7 -24 25 -22 31 3 38 11 21
22 -8 4 -12 17 -8 29 6 23 -14 29 -31 9z"/>
<path d="M7755 6500 c-7 -12 22 -70 35 -70 6 0 10 5 10 12 0 6 8 20 17 30 15
17 15 20 3 28 -20 13 -57 13 -65 0z"/>
<path d="M9030 6459 c0 -5 5 -7 10 -4 6 3 10 8 10 11 0 2 -4 4 -10 4 -5 0 -10
-5 -10 -11z"/>
<path d="M8947 6443 c-4 -3 -7 -18 -7 -31 0 -14 -8 -34 -17 -44 -12 -14 -14
-21 -5 -30 8 -8 16 -5 31 13 11 13 20 27 21 31 0 4 14 5 30 2 28 -6 30 -5 30
25 0 34 -11 39 -31 15 -12 -14 -14 -14 -21 5 -7 21 -19 27 -31 14z"/>
<path d="M7850 6367 c0 -8 7 -20 15 -27 12 -10 15 -10 15 3 0 8 -7 20 -15 27
-12 10 -15 10 -15 -3z"/>
<path d="M5205 6354 c-9 -9 -13 -19 -10 -22 3 -3 15 4 28 16 12 12 16 22 10
22 -6 0 -19 -7 -28 -16z"/>
<path d="M8844 6293 c-1 -36 0 -36 14 -15 9 14 26 22 46 23 17 1 23 3 14 6
-10 2 -18 9 -18 14 0 5 -12 9 -27 9 -25 0 -28 -4 -29 -37z"/>
<path d="M5210 6300 c0 -5 10 -10 23 -10 18 0 19 2 7 10 -19 13 -30 13 -30 0z"/>
<path d="M8730 6250 c-11 -7 -12 -14 -3 -32 6 -13 14 -31 17 -40 4 -14 17 -18
60 -18 30 0 58 -5 61 -10 4 -6 11 -8 16 -4 9 5 -14 41 -58 90 -23 25 -65 32
-93 14z"/>
<path d="M8880 6220 c20 -13 50 -13 50 0 0 6 -15 10 -32 10 -25 0 -29 -3 -18
-10z"/>
<path d="M7940 6196 c0 -16 6 -26 14 -26 9 0 12 7 9 20 -8 31 -23 34 -23 6z"/>
<path d="M7506 5943 c3 -21 16 -46 27 -57 12 -10 48 -41 80 -70 64 -56 147
-106 177 -106 23 0 24 4 10 30 -6 11 -26 22 -45 26 -26 5 -37 13 -41 30 -3 13
-9 24 -13 24 -3 0 -20 14 -38 30 -18 17 -36 30 -40 30 -5 0 -31 23 -58 50 -27
28 -53 50 -58 50 -4 0 -5 -17 -1 -37z"/>
<path d="M7820 5826 c0 -9 5 -16 10 -16 6 0 10 4 10 9 0 6 -4 13 -10 16 -5 3
-10 -1 -10 -9z"/>
<path d="M7890 5780 c0 -5 5 -10 11 -10 5 0 7 5 4 10 -3 6 -8 10 -11 10 -2 0
-4 -4 -4 -10z"/>
<path d="M8330 4242 c0 -6 5 -14 11 -17 6 -4 8 -13 6 -19 -3 -7 4 -18 15 -25
12 -8 17 -18 13 -28 -6 -17 59 -123 76 -123 5 0 9 -8 9 -17 0 -9 6 -24 14 -32
8 -9 26 -38 39 -64 22 -40 26 -61 26 -132 -1 -92 -12 -113 -65 -119 -17 -2
-32 -11 -37 -25 -13 -27 11 -54 75 -87 72 -37 86 -82 47 -148 l-21 -36 26 -10
c17 -6 24 -14 20 -25 -4 -10 0 -15 10 -15 9 0 16 5 16 12 0 6 13 23 28 37 27
25 102 125 102 137 0 3 7 13 16 21 12 12 14 27 10 58 -8 51 9 70 54 62 37 -8
64 23 74 85 4 23 12 48 17 55 12 14 5 29 -20 42 -13 8 -27 4 -54 -14 -45 -31
-75 -31 -120 -1 -19 13 -44 27 -55 30 -29 10 -42 28 -55 83 -8 31 -18 49 -29
51 -13 2 -16 -1 -12 -12 8 -22 -3 -35 -25 -29 -24 6 -30 29 -17 65 8 22 7 31
-6 45 -16 15 -16 17 0 29 13 10 14 17 7 30 -17 27 -92 76 -117 77 -14 0 -33
12 -50 35 -16 19 -28 30 -28 24z"/>
<path d="M4985 4063 c-11 -2 -30 -6 -42 -9 -28 -5 -30 -30 -4 -43 13 -7 24 -6
37 4 11 8 28 15 40 15 26 0 34 8 27 26 -5 14 -19 16 -58 7z"/>
<path d="M8600 4029 c0 -6 7 -17 15 -25 16 -16 19 -7 9 20 -7 18 -24 22 -24 5z"/>
<path d="M8662 3893 c2 -9 8 -18 15 -20 7 -3 9 3 6 16 -6 25 -26 28 -21 4z"/>
<path d="M5684 3555 c-4 -18 -2 -30 7 -36 19 -11 31 4 27 32 -4 32 -26 35 -34
4z"/>
<path d="M6079 3540 c23 -37 35 -42 42 -17 9 34 0 46 -30 44 -27 -2 -28 -3
-12 -27z"/>
<path d="M8303 3454 c-14 -16 -23 -39 -23 -59 0 -20 -6 -35 -15 -39 -8 -3 -15
-13 -15 -22 0 -10 -11 -31 -24 -48 -13 -17 -26 -41 -30 -53 -4 -13 -40 -48
-80 -78 -41 -30 -79 -62 -86 -70 -7 -8 -31 -24 -55 -36 -24 -12 -48 -32 -54
-45 -7 -16 -19 -24 -36 -24 -20 0 -27 -6 -31 -29 -4 -20 -15 -33 -35 -41 -16
-7 -29 -18 -29 -26 0 -7 -9 -28 -20 -47 -11 -19 -18 -41 -15 -49 4 -9 -1 -22
-9 -31 -38 -38 8 -83 74 -72 32 5 40 3 49 -13 8 -16 22 -19 91 -20 70 -1 83 2
104 21 13 12 26 31 30 43 3 11 18 27 32 34 16 9 24 21 22 34 -1 12 5 32 14 46
9 14 20 39 24 55 11 45 72 151 105 182 32 30 92 55 113 47 8 -3 17 -1 20 4 3
5 -3 12 -14 15 -30 8 -24 33 16 69 20 18 45 53 57 78 11 25 27 53 35 62 13 15
13 20 1 34 -8 10 -13 25 -11 35 3 15 -3 16 -40 12 -40 -6 -53 -13 -61 -37 -6
-18 -27 5 -27 30 0 22 -33 63 -50 63 -3 1 -15 -11 -27 -25z"/>
<path d="M5753 3443 c-9 -37 -6 -56 24 -128 13 -33 26 -73 28 -90 5 -44 33
-105 49 -105 7 0 18 -6 24 -13 7 -8 28 -12 54 -11 48 2 72 26 63 62 -4 15 -1
22 9 22 8 0 16 6 19 13 2 6 8 0 12 -15 7 -29 25 -39 25 -14 0 7 10 16 21 19
19 5 21 11 17 45 -3 21 -2 46 3 55 15 26 21 147 9 162 -8 9 -20 10 -48 3 -119
-30 -118 -30 -231 3 -35 10 -65 19 -67 19 -2 0 -7 -12 -11 -27z"/>
<path d="M8275 2950 c3 -5 10 -10 16 -10 5 0 9 5 9 10 0 6 -7 10 -16 10 -8 0
-12 -4 -9 -10z"/>
<path d="M9470 2755 c0 -24 2 -26 38 -20 60 11 72 16 72 31 0 10 -14 14 -55
14 -52 0 -55 -1 -55 -25z"/>
<path d="M7847 2613 c-2 -5 -7 -20 -11 -35 -7 -32 13 -50 21 -19 3 12 13 21
25 21 10 0 16 4 13 10 -9 15 -43 31 -48 23z"/>
<path d="M7689 1923 c0 -10 -2 -28 -5 -40 -4 -26 11 -31 20 -7 9 25 7 64 -4
64 -5 0 -10 -8 -11 -17z"/>
<path d="M7350 1554 c0 -8 5 -12 10 -9 6 4 8 11 5 16 -9 14 -15 11 -15 -7z"/>
</g>
</svg>
