<?xml version="1.0" standalone="no"?>
<!DOCTYPE svg PUBLIC "-//W3C//DTD SVG 20010904//EN"
 "http://www.w3.org/TR/2001/REC-SVG-20010904/DTD/svg10.dtd">
<svg version="1.0" xmlns="http://www.w3.org/2000/svg"
 width="1024.000000pt" height="1024.000000pt" viewBox="0 0 1024.000000 1024.000000"
 preserveAspectRatio="xMidYMid meet">

<g transform="translate(0.000000,1024.000000) scale(0.100000,-0.100000)"
fill="#2d8a4e" stroke="none">
<path d="M6730 7024 c-58 -12 -141 -52 -155 -74 -4 -6 15 -10 49 -10 112 0
194 -25 280 -84 57 -40 63 -41 160 -47 56 -4 103 -5 105 -3 2 2 -8 23 -23 48
-76 129 -255 202 -416 170z"/>
<path d="M6535 6850 c-58 -12 -123 -37 -170 -65 -75 -44 -117 -99 -281 -362
-17 -26 -34 -30 -34 -8 0 9 9 43 20 76 12 34 20 63 18 65 -4 3 -222 -77 -273
-101 -16 -7 -52 -22 -80 -33 -27 -11 -83 -37 -123 -56 -40 -20 -74 -36 -76
-36 -2 0 -66 -29 -141 -65 -271 -129 -439 -175 -908 -250 -358 -57 -403 -77
-537 -241 -54 -65 -230 -326 -230 -340 0 -10 -263 -398 -341 -504 -38 -52 -73
-102 -76 -110 -4 -8 -19 -37 -35 -63 -43 -74 -68 -158 -68 -232 l0 -65 130 0
c214 0 408 -27 553 -76 89 -30 300 -134 347 -172 58 -45 174 -161 167 -168 -3
-3 -40 15 -82 41 -233 141 -468 229 -715 267 -157 23 -857 10 -912 -18 -68
-35 -126 -156 -114 -240 16 -121 188 -343 422 -544 165 -142 264 -200 442
-259 116 -39 404 -89 807 -141 264 -34 344 -49 398 -74 29 -13 68 -29 88 -34
102 -27 174 31 119 96 -29 35 -82 52 -161 52 -71 0 -277 33 -453 72 -60 13
-43 31 24 23 25 -2 191 -9 370 -15 426 -14 501 -22 570 -54 92 -43 190 -29
190 28 0 49 -74 86 -174 86 -34 0 -107 9 -163 20 -56 11 -152 22 -215 26 -62
4 -120 10 -128 14 -26 14 56 23 162 18 112 -6 116 4 20 41 -64 26 -187 28
-290 6 -140 -29 -203 -35 -383 -35 -201 -1 -224 1 -379 32 -125 25 -253 67
-335 112 -180 99 -246 141 -342 220 -60 49 -73 66 -53 66 8 0 81 -37 260 -132
143 -76 383 -158 538 -185 154 -26 502 -24 655 4 136 25 184 46 245 104 95 91
130 178 118 292 -9 86 -55 166 -156 269 -150 152 -397 297 -647 379 -70 23
-132 46 -138 51 -16 16 180 1 265 -21 224 -56 438 -179 591 -338 82 -85 118
-139 155 -228 25 -60 29 -83 29 -160 -1 -95 -7 -115 -67 -218 l-28 -49 67 7
c135 15 453 105 453 129 0 2 -38 78 -83 168 -98 191 -117 261 -98 358 7 33 21
81 33 107 26 58 108 183 157 238 20 22 50 57 66 76 85 101 282 309 293 309 14
0 -7 -45 -70 -148 -35 -57 -152 -218 -169 -232 -3 -3 -40 -52 -81 -110 -164
-229 -173 -310 -62 -525 75 -145 225 -402 318 -542 85 -130 120 -166 186 -196
89 -39 110 -42 305 -38 360 9 637 6 715 -8 41 -7 99 -24 128 -38 71 -35 140
-29 184 14 35 36 32 63 -10 91 -20 13 -50 17 -132 18 -112 0 -274 36 -267 58
11 32 376 52 488 26 66 -15 116 -8 153 21 76 60 -32 141 -145 108 -31 -9 -133
-13 -336 -13 -161 -1 -293 0 -293 2 0 11 80 33 142 38 108 10 132 29 87 70
-33 29 -107 23 -239 -21 -191 -63 -282 -51 -383 49 -51 52 -122 154 -113 163
3 3 42 8 85 11 75 4 81 3 105 -21 27 -27 34 -65 15 -84 -18 -18 -2 -58 26 -71
42 -19 83 -14 111 13 20 20 23 31 18 62 -7 48 20 83 73 92 35 7 74 2 300 -37
34 -6 79 -19 100 -29 53 -25 149 -24 185 2 15 11 30 28 33 38 4 9 15 17 27 17
11 0 36 7 55 16 29 15 34 21 31 48 -4 43 -44 61 -123 57 -33 -3 -123 -4 -200
-5 -129 0 -146 2 -220 28 -110 39 -198 83 -245 123 -52 45 -124 155 -156 239
-14 38 -27 70 -29 72 -1 2 -25 -25 -53 -60 -27 -35 -70 -85 -94 -112 -43 -48
-45 -51 -36 -90 14 -61 1 -121 -34 -161 -16 -19 -35 -35 -42 -35 -21 0 -206
301 -206 335 0 28 47 116 118 222 32 48 82 130 111 181 77 133 95 121 42 -30
-30 -84 -70 -165 -135 -272 -20 -33 -36 -73 -36 -88 0 -34 25 -98 39 -98 12 0
191 182 230 235 120 160 209 290 284 413 85 138 189 296 211 318 6 6 27 31 46
57 35 47 334 347 446 447 121 110 210 188 244 216 66 53 203 199 241 258 53
80 51 91 -8 65 -27 -12 -140 -58 -253 -104 -230 -94 -378 -158 -460 -200 -95
-48 -344 -152 -447 -186 -86 -29 -112 -33 -208 -33 -114 -1 -175 14 -175 42 0
11 11 12 48 7 26 -3 85 -2 130 4 144 18 302 79 717 276 77 36 149 70 160 75
35 17 167 71 280 115 186 72 296 123 311 142 22 30 21 98 -3 150 -43 93 -183
181 -335 212 -164 34 -513 67 -523 51 -2 -4 5 -19 16 -36 23 -35 24 -44 3 -44
-9 0 -50 31 -91 70 -86 80 -166 122 -264 139 -74 12 -96 12 -154 1z m229 -145
c70 -34 135 -105 160 -174 27 -75 19 -191 -16 -246 -40 -63 -88 -105 -156
-138 -57 -27 -70 -29 -140 -25 -127 7 -218 67 -287 188 -31 54 -28 180 5 244
43 85 128 154 215 177 58 16 159 4 219 -26z m840 -177 c23 -37 -35 -76 -70
-48 -15 13 -19 52 -7 64 13 13 66 1 77 -16z"/>
<path d="M6524 6586 c-119 -53 -124 -234 -9 -302 141 -82 305 -2 305 151 0 57
-19 96 -67 132 -32 25 -46 28 -117 31 -53 1 -92 -3 -112 -12z"/>
<path d="M3295 5096 c-162 -70 -361 -173 -399 -206 -19 -17 -45 -51 -57 -76
-51 -106 8 -262 131 -347 25 -17 106 -23 125 -9 6 4 11 33 12 64 5 151 62 271
257 538 45 63 54 80 39 80 -5 0 -53 -20 -108 -44z"/>
</g>
</svg>
