<?xml version="1.0" standalone="no"?>
<!DOCTYPE svg PUBLIC "-//W3C//DTD SVG 20010904//EN"
 "http://www.w3.org/TR/2001/REC-SVG-20010904/DTD/svg10.dtd">
<svg version="1.0" xmlns="http://www.w3.org/2000/svg"
 width="1024.000000pt" height="1024.000000pt" viewBox="0 0 1024.000000 1024.000000"
 preserveAspectRatio="xMidYMid meet">

<g transform="translate(0.000000,1024.000000) scale(0.100000,-0.100000)"
fill="#2d8a4e" stroke="none">
<path d="M7658 8063 c-78 -238 -270 -606 -395 -758 -58 -70 -137 -148 -140
-139 -2 6 23 67 56 135 107 228 143 363 142 540 0 90 -16 189 -30 189 -3 0
-23 -53 -44 -118 -41 -125 -47 -139 -142 -337 -119 -246 -285 -467 -547 -727
-93 -93 -173 -168 -179 -168 -6 0 -7 25 -3 65 4 36 3 65 -1 65 -17 0 -425
-392 -528 -508 -267 -300 -317 -354 -441 -476 -339 -332 -574 -482 -725 -462
-81 11 -216 62 -292 111 -124 80 -209 153 -381 327 -291 294 -355 342 -717
532 -111 58 -244 134 -295 168 -168 115 -382 351 -466 517 -58 114 -118 316
-141 474 -7 48 -18 86 -23 84 -22 -7 -48 -115 -53 -222 -9 -184 32 -350 140
-573 56 -115 56 -124 2 -72 -88 84 -194 242 -255 380 -14 31 -29 57 -35 58 -6
1 -10 -44 -10 -121 0 -102 4 -134 24 -195 31 -96 110 -231 196 -337 39 -48 79
-97 89 -111 71 -88 -117 32 -268 170 -21 20 -40 36 -41 36 -10 0 22 -117 45
-167 56 -122 165 -249 311 -364 43 -34 79 -65 79 -67 0 -9 -87 9 -163 34 -43
14 -80 24 -82 22 -10 -10 80 -131 133 -179 130 -119 243 -185 379 -220 42 -10
78 -21 81 -23 4 -5 -44 -27 -86 -40 -30 -10 -28 -19 9 -51 69 -57 185 -94 297
-95 28 0 52 -4 52 -10 0 -5 -17 -25 -37 -44 -31 -28 -36 -38 -27 -52 21 -35
75 -54 151 -54 40 0 73 -2 73 -4 0 -2 -7 -20 -15 -39 -21 -50 -20 -55 18 -77
91 -57 161 -46 231 35 99 115 269 155 661 155 230 0 234 -2 196 -64 -12 -19
-33 -42 -48 -51 l-27 -18 40 -20 c45 -22 94 -65 94 -83 0 -6 -11 -15 -25 -18
-13 -3 -36 -11 -51 -16 l-27 -11 40 -42 c41 -42 63 -76 63 -96 0 -7 -24 -11
-60 -11 -46 0 -60 -3 -60 -14 0 -8 5 -18 10 -21 26 -16 55 -135 33 -135 -5 0
-30 7 -57 15 -27 8 -57 15 -67 15 -16 0 -16 -3 2 -37 22 -44 25 -101 5 -109
-8 -3 -33 6 -56 21 -23 15 -43 25 -44 23 -2 -2 -7 -25 -12 -52 -5 -27 -13 -51
-19 -53 -5 -1 -23 22 -39 53 -66 127 -171 203 -310 227 -42 7 -77 16 -77 21 0
4 18 21 40 37 23 16 41 33 41 39 0 15 -50 37 -100 44 -102 16 -99 14 -125 73
l-25 54 -52 -28 c-104 -56 -157 -135 -158 -232 0 -37 7 -65 22 -92 25 -45 34
-48 42 -15 13 54 111 133 154 124 12 -3 5 -12 -25 -32 -49 -33 -66 -62 -31
-52 125 36 140 38 220 27 115 -16 213 -64 268 -133 23 -29 53 -73 67 -98 112
-199 214 -291 463 -416 47 -23 121 -57 165 -74 157 -62 199 -112 198 -240 -1
-61 -8 -95 -36 -171 -19 -51 -38 -104 -42 -116 -8 -29 -114 -99 -178 -118 -28
-8 -78 -15 -111 -15 -57 0 -62 -2 -96 -38 -19 -22 -41 -41 -48 -43 -8 -3 -16
-28 -19 -66 -5 -52 -2 -66 16 -92 30 -42 43 -39 35 7 -4 29 -2 43 11 55 27 28
35 20 35 -38 0 -46 4 -60 25 -80 36 -37 46 -32 38 21 -6 46 -6 46 56 105 73
70 96 74 140 24 50 -57 35 -113 -29 -115 l-25 -1 24 -19 c50 -42 104 -17 150
71 l19 35 -34 44 c-40 50 -51 84 -34 105 20 24 106 75 126 75 11 0 39 -20 63
-45 24 -25 46 -45 50 -45 9 0 31 45 31 63 0 7 4 18 9 26 8 12 17 8 51 -23 23
-20 47 -35 53 -33 14 4 25 40 26 84 1 45 18 50 53 17 29 -28 30 -28 44 -10 9
13 14 45 14 88 l0 69 38 -3 37 -3 3 113 c3 134 19 149 51 49 15 -47 61 -252
61 -273 0 -11 192 -84 221 -84 13 0 12 1 -30 124 -18 49 -30 94 -28 100 2 6
21 -17 43 -51 21 -34 59 -93 83 -132 l44 -69 62 -11 c92 -16 185 -14 185 3 0
8 -4 17 -9 21 -17 10 -152 217 -146 223 3 3 63 -51 133 -121 121 -120 129
-127 167 -127 75 1 215 42 215 64 -1 6 -47 47 -103 91 -137 108 -239 196 -233
202 6 7 165 -83 278 -157 32 -21 84 -51 113 -67 l55 -28 43 23 c45 24 147 108
147 121 0 4 -26 18 -57 31 -101 40 -440 207 -447 219 -4 6 -5 11 -2 11 2 0 91
-29 198 -65 106 -36 230 -75 276 -86 l83 -22 33 32 c35 34 86 124 86 152 0 12
-26 19 -112 33 -360 59 -758 201 -988 354 -72 48 -230 200 -230 222 0 5 24 0
53 -11 129 -52 209 -61 224 -23 3 9 -4 34 -17 55 l-22 40 39 -17 c121 -54 181
-64 254 -44 20 6 44 18 53 29 16 17 15 20 -9 42 -42 41 -31 47 48 27 115 -31
281 -4 332 52 17 18 15 20 -29 51 -25 18 -46 35 -46 38 0 3 53 6 118 6 126 0
156 9 227 69 l30 26 -42 38 c-24 21 -43 41 -43 44 0 3 35 8 78 10 112 8 157
25 218 81 30 27 54 54 54 61 0 6 -15 21 -33 33 -18 13 -44 33 -57 45 l-25 23
95 6 c113 7 163 28 209 90 29 40 30 44 15 61 -9 9 -45 32 -80 49 -35 18 -61
36 -58 41 3 4 43 8 90 8 87 0 140 14 177 48 23 20 62 79 71 108 7 22 14 19
-126 59 -32 9 -58 20 -58 23 0 4 33 16 73 26 196 50 351 132 479 254 73 70
153 191 136 207 -3 3 -64 -9 -134 -29 -71 -19 -144 -38 -161 -41 -53 -11 -40
15 28 59 148 96 350 322 408 459 21 48 27 87 15 87 -4 0 -57 -27 -118 -59
-179 -96 -396 -182 -396 -158 0 4 32 32 71 63 183 146 355 352 425 509 24 55
58 204 49 214 -3 2 -56 -45 -118 -105 -119 -114 -316 -264 -420 -320 -104 -56
-103 -45 4 82 231 275 336 547 303 788 -4 25 -9 46 -13 46 -3 0 -26 -39 -51
-87 -58 -111 -137 -237 -214 -338 -74 -99 -298 -325 -321 -325 -23 0 -18 10
58 121 80 117 142 234 191 359 47 123 66 214 66 320 0 84 -22 216 -38 232 -5
5 -16 -13 -24 -39z"/>
<path d="M3820 5155 c-63 -18 -113 -36 -110 -41 3 -5 18 -8 33 -6 20 3 35 -4
52 -22 42 -46 105 -23 105 37 0 16 7 28 19 32 11 3 25 12 31 20 17 21 5 19
-130 -20z"/>
<path d="M4448 4028 c-5 -133 -20 -190 -69 -271 -16 -26 -29 -59 -29 -72 0
-20 -14 -34 -67 -69 -88 -56 -120 -66 -209 -66 -56 0 -76 -4 -86 -16 -7 -9
-30 -33 -50 -53 -48 -47 -59 -110 -29 -158 25 -40 46 -44 37 -8 -8 30 8 65 29
65 11 0 15 -13 15 -48 0 -38 5 -53 23 -70 33 -31 49 -29 40 6 -3 15 -6 35 -5
45 1 26 94 113 126 119 32 6 80 -23 104 -64 21 -35 3 -58 -46 -58 -34 0 -35 0
-17 -20 37 -41 145 -11 145 40 0 10 5 22 10 25 21 13 9 49 -31 92 -22 24 -39
52 -37 61 2 9 33 32 71 51 l68 34 37 -36 c21 -21 40 -37 44 -37 3 0 17 18 32
40 l27 41 30 -26 c17 -14 35 -25 40 -25 5 0 22 27 39 60 21 42 34 58 45 54 8
-4 15 -10 15 -15 0 -5 6 -9 13 -9 32 0 97 168 97 248 0 63 -32 91 -162 147
-62 27 -139 64 -171 82 -33 18 -62 33 -67 33 -4 0 -10 -55 -12 -122z"/>
</g>
</svg>
