<?xml version="1.0" standalone="no"?>
<!DOCTYPE svg PUBLIC "-//W3C//DTD SVG 20010904//EN"
 "http://www.w3.org/TR/2001/REC-SVG-20010904/DTD/svg10.dtd">
<svg version="1.0" xmlns="http://www.w3.org/2000/svg"
 width="1024.000000pt" height="1024.000000pt" viewBox="0 0 1024.000000 1024.000000"
 preserveAspectRatio="xMidYMid meet">

<g transform="translate(0.000000,1024.000000) scale(0.100000,-0.100000)"
fill="#2d8a4e" stroke="none">
<path d="M3424 7792 c-119 -56 -137 -217 -48 -425 19 -43 34 -80 34 -82 0 -1
-42 10 -93 25 -130 39 -322 70 -432 70 -157 0 -237 -39 -282 -138 -22 -47 -25
-64 -21 -132 9 -153 120 -330 363 -579 269 -275 445 -401 679 -486 199 -72
387 -99 846 -121 184 -9 338 -19 343 -23 4 -4 1 -23 -6 -42 -8 -19 -20 -57
-26 -85 l-12 -51 -42 14 c-62 22 -182 43 -241 43 -97 0 -305 -49 -307 -73 -5
-40 4 -175 16 -249 36 -217 146 -452 289 -618 26 -30 52 -63 58 -73 8 -17 7
-18 -14 -12 -52 15 -185 104 -248 166 -165 161 -255 340 -281 561 -7 56 -14
105 -15 107 -5 6 -53 -27 -128 -88 -76 -61 -186 -184 -245 -273 -38 -55 -38
-58 -29 -110 23 -130 118 -340 215 -477 46 -64 238 -263 318 -329 l40 -33 -45
7 c-58 8 -211 67 -275 107 -117 73 -210 172 -279 298 -37 67 -86 199 -86 230
0 30 -18 31 -34 1 -31 -59 -95 -262 -115 -363 -37 -190 -43 -288 -36 -569 4
-174 3 -287 -4 -330 -6 -35 -7 -68 -2 -73 4 -4 43 8 86 28 100 45 158 62 270
75 204 25 406 79 529 142 81 41 232 132 299 180 38 27 71 47 74 45 3 -3 -10
-32 -29 -64 -42 -71 -101 -216 -123 -303 -13 -49 -16 -90 -12 -162 5 -97 5
-98 -29 -154 -86 -142 -212 -282 -319 -354 -96 -64 -117 -97 -76 -120 82 -43
384 216 501 430 16 30 48 70 71 89 141 116 344 605 379 915 9 79 16 97 54 160
39 63 67 118 111 221 7 17 18 49 25 73 6 23 15 40 19 38 5 -3 11 -38 15 -78 4
-40 13 -102 20 -138 13 -63 13 -68 -14 -155 -117 -377 -139 -502 -119 -684
l11 -99 -50 -114 c-28 -62 -62 -142 -77 -178 -52 -124 -86 -181 -165 -275 -78
-93 -91 -117 -69 -130 49 -31 214 136 334 339 48 82 106 215 125 286 6 25 27
83 47 129 88 208 135 505 114 712 l-12 110 37 115 c20 63 42 114 48 114 19 0
48 -45 113 -176 68 -135 101 -190 151 -251 l34 -43 -21 -104 c-24 -118 -27
-237 -9 -333 9 -51 9 -78 -1 -126 -33 -161 -86 -290 -166 -403 -25 -34 -45
-65 -45 -68 0 -2 7 -12 16 -20 14 -14 18 -14 44 -1 75 39 192 243 235 410 8
32 15 68 15 78 0 11 12 67 27 126 22 90 26 129 27 256 1 196 -14 306 -53 384
-33 65 -100 169 -155 241 -48 64 -39 73 57 62 44 -6 106 -6 149 -1 123 14 113
19 128 -63 37 -215 80 -314 207 -484 69 -92 107 -133 161 -172 54 -39 80 -67
111 -119 56 -94 90 -183 110 -282 18 -92 38 -118 67 -90 53 53 -23 344 -122
466 -19 23 -34 50 -34 60 0 69 -130 238 -261 339 -56 43 -57 45 -64 106 -9 85
-33 251 -40 281 -6 21 0 28 50 56 31 18 58 31 60 29 2 -2 13 -28 25 -58 31
-80 85 -175 147 -257 58 -77 103 -118 169 -152 96 -50 204 -223 249 -396 17
-67 24 -81 42 -83 32 -5 47 30 39 91 -21 152 -84 297 -176 400 -33 38 -60 73
-60 80 0 35 -88 139 -211 249 -77 69 -87 82 -92 120 -4 24 -9 57 -12 73 -5 26
2 40 49 99 31 39 72 101 91 138 36 68 53 80 74 54 18 -22 176 -86 249 -102 43
-8 130 -14 238 -14 150 0 177 -3 215 -20 66 -29 84 -26 137 28 123 123 131
274 27 539 -83 210 -280 484 -407 567 -16 10 -28 23 -28 28 0 10 165 203 244
285 27 29 64 57 81 62 16 5 120 22 230 36 218 30 249 41 226 84 -14 25 -32 26
-161 7 -52 -8 -140 -20 -195 -26 -55 -6 -114 -16 -132 -21 -32 -10 -140 -121
-288 -298 -88 -104 -112 -106 -42 -3 24 37 83 126 130 197 47 72 93 138 103
147 25 22 150 75 302 128 67 23 127 49 133 56 6 8 8 25 5 39 -5 18 -13 25 -32
25 -26 0 -403 -142 -441 -166 -20 -13 -178 -245 -278 -409 l-40 -66 -55 8
c-30 4 -98 8 -150 7 -82 0 -103 -4 -150 -27 -31 -14 -74 -42 -97 -61 l-40 -35
-57 44 c-158 123 -421 177 -653 135 l-71 -13 -209 194 c-434 404 -862 754
-1104 904 -321 199 -622 294 -745 237z m150 -48 c15 -9 27 -11 30 -5 9 14 112
-18 246 -75 138 -59 329 -172 469 -279 l105 -79 -28 -20 c-16 -12 -38 -29 -50
-39 -18 -15 -15 -15 21 2 23 12 44 25 48 31 3 5 12 10 19 10 28 0 399 -307
661 -545 205 -187 329 -305 324 -308 -2 -2 -24 -11 -47 -21 -42 -16 -45 -16
-78 5 -19 11 -40 27 -47 34 -15 14 -77 48 -77 41 0 -2 22 -18 49 -35 27 -17
58 -40 70 -50 l22 -19 -57 -32 c-69 -39 -50 -46 -294 107 -327 204 -769 463
-925 541 -235 117 -315 154 -423 197 -116 45 -124 50 -144 88 -12 25 -16 43
-10 45 5 1 0 13 -13 26 -64 64 -95 270 -49 333 41 57 129 80 178 47z m-655
-471 c36 -26 86 -62 111 -80 25 -17 120 -82 213 -144 92 -62 167 -115 167
-119 0 -4 -39 -32 -87 -63 l-86 -57 -126 9 c-69 6 -177 13 -239 16 -130 8
-128 7 -189 133 -78 164 -43 313 80 340 73 17 87 14 156 -35z m136 33 c178
-32 396 -97 573 -172 157 -67 362 -166 362 -175 0 -11 -133 -129 -145 -129 -5
0 -57 14 -115 31 -58 17 -150 42 -205 56 -93 24 -109 32 -225 113 -69 48 -187
129 -262 180 -76 51 -138 97 -138 102 0 12 65 10 155 -6z m1063 -413 c89 -47
180 -99 287 -161 33 -19 94 -54 135 -78 41 -24 154 -93 250 -153 96 -60 220
-137 275 -171 294 -180 505 -321 505 -339 -1 -20 -24 -51 -38 -51 -6 0 -93 40
-194 89 -101 48 -300 134 -443 190 -347 137 -335 132 -460 172 -99 31 -115 39
-170 89 -33 31 -76 69 -96 85 -42 34 -280 234 -292 245 -9 8 127 130 144 130
6 0 49 -21 97 -47z m-533 -12 c220 -55 269 -71 285 -90 3 -4 55 -47 115 -96
61 -49 146 -120 190 -159 44 -39 82 -72 84 -73 2 -2 1 -6 -2 -10 -4 -4 -31 1
-60 9 -91 28 -356 86 -528 116 l-167 29 -116 93 c-64 52 -116 97 -116 100 0
21 158 121 180 115 8 -3 69 -18 135 -34z m-510 -77 c159 -6 160 -7 200 -37 22
-18 42 -34 45 -37 3 -3 38 -32 78 -64 40 -32 72 -62 70 -68 -2 -5 -73 -36
-158 -69 -85 -33 -159 -64 -164 -69 -20 -20 -40 -8 -123 73 -76 73 -243 269
-243 283 0 3 30 3 68 0 37 -3 139 -8 227 -12z m745 -275 c181 -35 270 -56 388
-91 19 -6 30 -14 25 -18 -4 -4 -57 -17 -118 -30 -60 -12 -240 -49 -400 -81
-159 -33 -304 -62 -320 -65 -25 -5 -41 2 -90 39 -102 77 -171 144 -160 155 10
11 223 102 308 132 55 20 61 19 367 -41z m686 -183 c276 -94 634 -239 839
-339 17 -8 48 -23 70 -33 87 -39 106 -54 95 -75 -14 -25 -47 -24 -179 1 -179
35 -397 59 -636 70 -621 29 -814 51 -1024 120 -94 31 -261 114 -261 131 0 5
10 11 23 13 145 32 435 92 562 116 88 17 187 37 220 45 33 7 69 14 81 14 11 1
106 -28 210 -63z m2288 -298 c50 -15 157 -117 180 -172 19 -45 21 -128 5 -159
-40 -77 -131 -117 -221 -98 -156 34 -257 198 -203 329 41 96 127 133 239 100z"/>
<path d="M3720 7604 c0 -6 10 -15 55 -54 20 -16 16 -10 -10 18 -39 42 -45 47
-45 36z"/>
<path d="M3909 7416 c19 -19 37 -34 39 -31 7 7 -28 45 -53 57 -12 7 -7 -3 14
-26z"/>
<path d="M3955 7360 c-3 -5 -28 -20 -56 -31 -27 -12 -49 -25 -49 -30 0 -5 27
5 61 21 53 27 65 30 92 21 l32 -11 -25 20 c-28 22 -46 25 -55 10z"/>
<path d="M3510 7330 c14 -4 34 -8 45 -8 16 0 15 2 -5 8 -14 4 -34 8 -45 8 -16
0 -15 -2 5 -8z"/>
<path d="M3758 7283 c6 -2 18 -2 25 0 6 3 1 5 -13 5 -14 0 -19 -2 -12 -5z"/>
<path d="M3810 7278 c0 -8 27 -42 74 -92 33 -36 15 -7 -27 43 -16 18 -26 39
-24 45 3 7 -1 13 -9 13 -8 0 -14 -4 -14 -9z"/>
<path d="M4210 7256 c0 -3 23 -17 50 -31 28 -14 50 -22 50 -18 0 5 -19 17 -42
28 -24 11 -46 21 -50 23 -5 2 -8 1 -8 -2z"/>
<path d="M4326 7168 c35 -41 44 -49 44 -41 -1 11 -47 63 -56 63 -4 0 1 -10 12
-22z"/>
<path d="M3915 7140 c3 -5 8 -10 11 -10 2 0 4 5 4 10 0 6 -5 10 -11 10 -5 0
-7 -4 -4 -10z"/>
<path d="M3970 7080 c0 -5 5 -10 11 -10 5 0 7 5 4 10 -3 6 -8 10 -11 10 -2 0
-4 -4 -4 -10z"/>
<path d="M4079 7035 c37 -17 60 -20 46 -6 -6 5 -26 12 -45 15 l-35 7 34 -16z"/>
<path d="M4184 7001 c28 -11 52 -19 54 -16 6 5 -38 23 -76 30 -15 3 -5 -3 22
-14z"/>
<path d="M4549 6911 c44 -55 40 -64 -19 -41 -78 31 -59 15 38 -31 48 -23 92
-44 97 -47 6 -2 -3 9 -20 25 -16 16 -48 52 -70 80 -22 29 -44 52 -48 53 -5 0
5 -18 22 -39z"/>
<path d="M4370 6930 c8 -5 20 -10 25 -10 6 0 3 5 -5 10 -8 5 -19 10 -25 10 -5
0 -3 -5 5 -10z"/>
<path d="M4448 6893 c7 -3 16 -2 19 1 4 3 -2 6 -13 5 -11 0 -14 -3 -6 -6z"/>
<path d="M4895 6665 c11 -9 38 -25 60 -36 29 -14 34 -15 20 -4 -11 9 -38 25
-60 36 -29 14 -34 15 -20 4z"/>
<path d="M5012 6594 c10 -10 20 -16 22 -13 3 3 -5 11 -17 18 -21 13 -21 12 -5
-5z"/>
<path d="M4810 1937 c-96 -4 -182 -7 -190 -8 -12 -1 -70 -10 -206 -33 -7 -1
-20 -8 -30 -16 -10 -8 -15 -10 -11 -3 5 9 0 8 -19 -2 -15 -7 -33 -11 -42 -8
-11 5 -13 3 -7 -6 4 -8 2 -17 -6 -22 -12 -8 -12 -10 1 -18 9 -7 20 -6 30 2 8
6 12 8 8 3 -14 -16 23 -37 67 -39 25 -1 45 -5 45 -10 0 -5 7 -7 15 -3 8 3 37
1 63 -3 170 -32 703 -36 917 -6 96 13 201 39 208 51 5 8 13 12 18 8 6 -3 24 0
40 7 22 9 27 14 17 20 -19 12 -30 11 -22 -3 4 -7 3 -8 -5 -4 -6 4 -9 11 -6 16
7 12 -7 20 -45 24 -18 2 -35 8 -39 12 -3 5 -15 10 -26 12 -11 1 -36 5 -55 8
-19 3 -60 7 -90 9 -30 2 -91 7 -135 11 -117 9 -296 10 -495 1z"/>
</g>
</svg>
