<?xml version="1.0" standalone="no"?>
<!DOCTYPE svg PUBLIC "-//W3C//DTD SVG 20010904//EN"
 "http://www.w3.org/TR/2001/REC-SVG-20010904/DTD/svg10.dtd">
<svg version="1.0" xmlns="http://www.w3.org/2000/svg"
 width="1024.000000pt" height="1024.000000pt" viewBox="0 0 1024.000000 1024.000000"
 preserveAspectRatio="xMidYMid meet">

<g transform="translate(0.000000,1024.000000) scale(0.100000,-0.100000)"
fill="#2d8a4e" stroke="none">
<path d="M4695 6417 c-212 -115 -462 -343 -578 -529 l-17 -28 104 0 105 0 37
62 c70 115 226 258 352 322 53 27 52 8 -3 -37 -83 -67 -201 -193 -249 -266
-25 -38 -46 -71 -46 -75 0 -3 55 -7 123 -8 l122 -3 36 55 c57 87 207 217 223
192 3 -5 -24 -41 -59 -82 -35 -41 -76 -96 -90 -122 l-26 -47 23 -5 c13 -3 63
-10 112 -16 70 -7 92 -7 98 3 5 6 17 26 28 42 30 48 129 122 143 108 4 -3 -6
-22 -22 -42 -15 -20 -40 -57 -55 -82 l-27 -47 33 -5 c121 -22 135 -21 176 11
45 36 89 58 98 49 4 -4 -5 -22 -19 -41 -15 -18 -28 -39 -29 -46 -2 -8 33 -20
101 -36 56 -13 111 -26 120 -29 22 -7 51 42 51 85 0 71 -54 125 -266 269 -175
119 -263 186 -387 295 -113 99 -122 102 -212 53z"/>
<path d="M7870 6008 c-124 -22 -421 -203 -710 -433 -69 -54 -156 -124 -195
-154 -38 -30 -74 -58 -79 -62 -5 -4 19 -22 54 -39 83 -42 140 -101 186 -195
38 -77 39 -81 39 -190 0 -108 -1 -113 -38 -187 -43 -87 -119 -164 -191 -194
-25 -11 -46 -22 -46 -25 0 -10 397 -324 528 -417 254 -182 496 -286 519 -225
26 68 -106 558 -237 883 -63 155 -63 179 0 336 145 357 252 755 241 890 -2 18
-22 21 -71 12z m-230 -333 c0 -2 -35 -28 -77 -56 -131 -88 -193 -139 -320
-261 -66 -65 -128 -118 -137 -118 -33 0 -28 31 15 86 80 105 252 233 419 314
81 39 100 45 100 35z m-40 -363 c0 -4 -42 -31 -92 -60 -51 -29 -131 -77 -178
-108 -89 -57 -120 -70 -145 -60 -27 10 -16 25 50 74 84 62 182 111 275 139 86
25 90 26 90 15z m-95 -361 c28 -12 29 -13 10 -24 -29 -16 -222 -22 -273 -8
-47 13 -51 31 -11 43 37 11 240 3 274 -11z m-180 -217 c60 -36 138 -81 174
-99 36 -18 75 -41 86 -50 19 -16 18 -16 -24 -10 -126 17 -411 174 -387 213 14
22 43 12 151 -54z m-100 -207 c110 -112 201 -186 339 -277 54 -35 94 -66 89
-67 -30 -10 -228 93 -343 178 -101 74 -240 225 -240 260 0 5 13 7 30 5 22 -2
54 -28 125 -99z"/>
<path d="M4145 5773 c-357 -18 -709 -94 -1060 -230 -156 -60 -425 -198 -553
-283 -125 -82 -303 -241 -343 -306 -35 -57 -24 -74 57 -99 161 -49 354 -172
354 -226 0 -10 -2 -19 -4 -19 -2 0 -64 29 -137 65 -208 101 -291 110 -243 27
56 -97 376 -256 769 -381 236 -75 460 -124 750 -165 l41 -6 -1 96 c0 93 1 96
28 120 45 38 157 28 332 -31 128 -43 201 -83 275 -152 l60 -55 117 7 c630 35
1238 185 1775 438 166 78 208 91 281 83 33 -3 85 -17 114 -31 38 -17 63 -23
86 -18 122 23 232 159 244 301 12 145 -60 278 -185 341 -67 33 -88 34 -159 5
-55 -22 -78 -25 -137 -22 -64 3 -86 11 -211 72 -316 153 -600 256 -942 340
-395 97 -919 149 -1308 129z m-660 -427 c128 -128 217 -288 236 -423 22 -153
-43 -329 -177 -481 -51 -57 -159 -140 -169 -130 -3 3 24 48 61 99 74 105 144
237 168 318 9 30 16 89 16 131 0 141 -41 243 -177 449 -46 68 -83 128 -83 133
0 18 47 -18 125 -96z m1560 -25 c270 -37 594 -108 662 -145 26 -14 26 -15 6
-16 -12 0 -54 7 -94 15 -40 9 -136 24 -213 35 -441 61 -765 70 -1435 44 -127
-5 -153 -4 -149 7 6 18 70 36 198 54 196 29 274 33 570 31 237 -3 327 -8 455
-25z m-2097 -138 c52 -38 74 -83 70 -139 -12 -149 -190 -195 -280 -73 -49 65
-24 174 49 217 46 28 120 25 161 -5z m387 -44 c67 -80 119 -223 119 -329 1
-66 -4 -85 -32 -140 -17 -36 -46 -81 -64 -100 -37 -40 -97 -85 -104 -77 -3 2
18 50 45 105 84 173 89 272 20 475 -16 49 -29 90 -29 93 0 13 22 0 45 -27z"/>
<path d="M2824 5112 c-6 -4 -17 -18 -23 -30 -24 -46 29 -112 76 -95 53 18 72
83 35 116 -19 17 -68 22 -88 9z"/>
<path d="M3860 4252 c0 -170 108 -369 268 -492 74 -57 222 -133 295 -152 73
-19 81 -9 85 98 6 174 -30 286 -125 385 -32 34 -87 78 -123 100 -86 50 -230
98 -324 106 l-76 6 0 -51z m274 -97 c83 -55 198 -176 183 -191 -8 -8 -161 103
-219 160 -27 25 -48 53 -48 62 0 20 16 15 84 -31z m-121 -42 c17 -25 65 -91
106 -145 41 -54 71 -101 68 -104 -3 -3 -27 8 -52 26 -71 49 -174 198 -175 253
0 30 19 19 53 -30z"/>
<path d="M5805 4269 c-44 -16 -86 -32 -94 -34 -8 -3 4 -19 35 -45 27 -22 52
-40 56 -40 5 0 8 -7 8 -15 0 -19 -4 -19 -67 0 -28 8 -66 29 -84 45 -31 30 -33
31 -85 19 -29 -7 -58 -15 -65 -19 -18 -11 14 -52 121 -153 91 -87 96 -101 24
-71 -65 27 -137 88 -174 148 l-35 57 -54 -6 c-29 -3 -58 -8 -63 -11 -18 -11
50 -112 132 -194 64 -64 105 -96 165 -126 96 -50 169 -74 224 -77 61 -2 66 8
51 102 -17 101 -4 180 46 298 38 88 37 106 -8 137 -29 21 -38 20 -133 -15z"/>
<path d="M5188 1956 c-1 -2 -109 -6 -238 -10 -129 -4 -268 -11 -308 -15 -40
-5 -82 -7 -93 -4 -10 3 -19 1 -19 -3 0 -5 -10 -9 -22 -10 -13 0 -38 -4 -56 -8
-19 -4 -39 -8 -45 -9 -7 -1 -15 -6 -18 -11 -4 -5 -19 -10 -34 -11 -26 -3 -54
-29 -55 -51 -1 -28 47 -51 123 -60 29 -3 59 -8 67 -10 8 -3 42 -7 76 -8 33 -2
66 -6 73 -10 30 -19 672 -24 721 -6 3 1 19 1 36 0 18 -1 49 3 70 9 22 6 65 13
97 16 68 8 174 51 180 74 4 12 5 12 6 -2 1 -21 25 -18 28 4 4 21 -11 39 -38
44 -61 12 -72 15 -83 25 -7 5 -15 8 -18 5 -2 -3 -27 1 -54 9 -45 13 -108 20
-299 32 -38 2 -75 6 -82 8 -6 3 -13 3 -15 2z"/>
</g>
</svg>
