<?xml version="1.0" standalone="no"?>
<!DOCTYPE svg PUBLIC "-//W3C//DTD SVG 20010904//EN"
 "http://www.w3.org/TR/2001/REC-SVG-20010904/DTD/svg10.dtd">
<svg version="1.0" xmlns="http://www.w3.org/2000/svg"
 width="1024.000000pt" height="1024.000000pt" viewBox="0 0 1024.000000 1024.000000"
 preserveAspectRatio="xMidYMid meet">
<metadata>
Created by potrace 1.16, written by Peter Selinger 2001-2019
</metadata>
<g transform="translate(0.000000,1024.000000) scale(0.100000,-0.100000)"
fill="#2d8a4e" stroke="none">
<path d="M4036 7732 c-11 -68 -6 -366 9 -473 51 -384 209 -709 430 -886 127
-101 315 -178 510 -209 61 -9 116 -22 123 -28 23 -21 63 -207 69 -321 5 -105
4 -113 -24 -185 -68 -170 -121 -362 -159 -567 l-17 -93 -87 84 c-207 197 -826
559 -1223 716 -87 35 -156 65 -153 67 2 3 40 -4 84 -15 275 -70 744 -296 1047
-506 44 -30 81 -53 83 -51 11 11 -42 257 -72 335 -148 381 -450 589 -931 641
-244 26 -592 -14 -846 -98 -191 -62 -184 -53 -129 -160 96 -191 281 -436 441
-587 196 -184 384 -299 594 -362 73 -21 117 -27 231 -31 175 -7 298 15 513 90
l145 50 55 -60 c64 -68 112 -144 148 -235 42 -102 49 -169 35 -325 -55 -613
-18 -1253 105 -1825 l16 -78 244 0 c160 0 243 4 243 10 0 6 -13 36 -29 68 -47
93 -137 337 -180 487 -102 357 -161 746 -161 1071 0 179 28 265 132 406 48 66
172 188 190 188 4 0 57 -24 117 -54 396 -199 705 -205 1072 -21 212 107 439
300 622 529 74 92 197 272 197 287 0 10 -184 93 -290 130 -258 92 -637 140
-865 110 -374 -50 -642 -227 -792 -526 -49 -97 -120 -334 -97 -324 5 2 59 31
119 64 157 85 448 215 601 268 192 67 541 149 509 120 -5 -5 -75 -29 -155 -53
-267 -80 -506 -180 -863 -359 -255 -128 -332 -173 -415 -240 -34 -28 -66 -51
-71 -51 -27 0 36 507 90 725 57 230 183 534 273 656 l34 46 114 -25 c97 -21
139 -25 303 -26 212 -1 289 13 445 79 333 140 673 556 853 1045 40 109 74 236
65 245 -20 20 -220 39 -418 39 -230 1 -338 -11 -532 -60 -462 -116 -768 -380
-863 -744 -13 -52 -29 -133 -35 -180 -12 -98 -13 -250 -2 -250 4 0 72 61 152
136 250 235 496 421 743 563 124 71 236 126 243 118 3 -3 -20 -20 -51 -38
-265 -158 -552 -378 -870 -669 -202 -184 -297 -287 -373 -403 -49 -76 -67 -97
-70 -82 -15 75 -79 230 -172 415 -164 328 -283 524 -460 756 -104 137 -105
143 -7 42 191 -195 369 -461 520 -776 l60 -127 23 52 c33 73 61 192 74 302 13
117 0 233 -41 356 -86 259 -311 483 -668 664 -167 85 -309 132 -527 176 -18 4
-22 -1 -28 -33z"/>
<path d="M4886 1943 c-4 -4 -55 -8 -114 -10 -59 -2 -137 -5 -174 -6 -38 -1
-68 -4 -68 -7 0 -3 -17 -6 -38 -7 -21 -1 -52 -9 -68 -18 -16 -8 -34 -15 -40
-15 -6 0 -21 -9 -34 -20 -13 -12 -30 -18 -37 -16 -17 7 -17 -21 0 -31 8 -4 17
-16 20 -27 4 -10 13 -16 21 -13 7 3 19 0 25 -6 13 -13 51 -17 51 -6 0 5 11 4
25 -1 15 -6 25 -6 25 0 0 12 99 3 116 -11 8 -6 14 -8 14 -5 0 4 9 2 19 -4 14
-7 22 -7 26 0 4 7 11 8 18 2 10 -9 106 -16 175 -13 12 0 22 -4 22 -10 0 -8 4
-8 13 0 9 7 43 9 103 5 125 -9 305 -11 329 -3 11 4 30 3 43 -2 12 -5 22 -5 22
-1 0 4 26 8 58 10 31 1 72 7 90 13 23 8 37 8 46 0 7 -6 16 -8 20 -4 7 7 30 14
56 15 8 1 18 6 22 12 5 7 8 6 8 -3 0 -11 3 -11 15 -1 12 10 15 10 16 -1 0 -8
4 -4 9 9 6 15 18 22 35 22 16 0 25 6 25 15 0 18 31 20 48 3 9 -9 12 -5 12 18
0 17 3 24 8 17 4 -7 13 -8 20 -4 9 6 8 13 -6 29 -20 23 -72 30 -72 10 0 -9 -3
-9 -12 0 -7 7 -29 12 -49 12 -21 0 -44 7 -52 15 -8 8 -17 12 -19 10 -2 -3 -31
0 -64 5 -32 5 -95 11 -139 14 -44 2 -87 7 -96 10 -8 4 -26 3 -40 -2 -13 -5
-33 -8 -44 -6 -56 11 -180 12 -264 3 -62 -6 -98 -6 -106 1 -6 5 -15 7 -19 3z"/>
</g>
</svg>
