<?xml version="1.0" standalone="no"?>
<!DOCTYPE svg PUBLIC "-//W3C//DTD SVG 20010904//EN"
 "http://www.w3.org/TR/2001/REC-SVG-20010904/DTD/svg10.dtd">
<svg version="1.0" xmlns="http://www.w3.org/2000/svg"
 width="1024.000000pt" height="1024.000000pt" viewBox="0 0 1024.000000 1024.000000"
 preserveAspectRatio="xMidYMid meet">

<g transform="translate(0.000000,1024.000000) scale(0.100000,-0.100000)"
fill="#2d8a4e" stroke="none">
<path d="M5049 6918 c-32 -34 -59 -65 -59 -69 0 -4 -26 -41 -57 -81 -95 -121
-101 -130 -138 -205 -19 -40 -39 -74 -44 -77 -5 -3 -12 -21 -15 -40 -4 -19
-13 -39 -21 -46 -8 -7 -15 -21 -15 -32 0 -10 -10 -38 -22 -61 -21 -39 -23 -54
-22 -232 0 -206 1 -214 72 -365 65 -137 110 -200 255 -356 l47 -51 0 -427 c0
-387 -2 -427 -16 -433 -11 -4 -22 1 -30 13 -46 64 -149 174 -164 174 -14 0
-39 82 -45 155 -4 39 -13 88 -20 110 -7 22 -16 56 -20 75 -4 19 -15 51 -25 70
-10 19 -33 66 -50 103 -59 126 -122 205 -225 285 -145 113 -228 154 -350 173
-33 6 -96 17 -140 26 -87 17 -340 21 -430 6 l-50 -8 1 -90 c1 -84 31 -242 55
-284 5 -9 15 -44 24 -79 17 -71 72 -197 113 -257 96 -141 232 -263 335 -301
226 -82 372 -105 549 -86 128 15 122 17 218 -80 96 -96 152 -178 202 -298 8
-19 26 -60 39 -90 23 -54 24 -62 27 -415 l3 -360 26 -27 c34 -36 81 -37 120
-4 l28 24 6 364 c7 360 10 395 36 433 7 11 13 26 13 35 1 32 65 157 110 214
29 36 115 131 159 173 l44 44 61 -8 c99 -12 314 -7 396 10 73 15 167 45 206
65 10 5 30 15 44 21 87 40 128 78 275 252 46 55 135 241 150 314 3 17 12 44
20 60 25 55 55 210 55 288 0 67 -3 78 -21 87 -34 19 -382 16 -454 -3 -33 -9
-85 -19 -115 -23 -155 -19 -321 -104 -445 -230 -59 -59 -124 -147 -145 -195
-5 -13 -14 -31 -19 -39 -10 -15 -35 -70 -66 -145 -20 -47 -54 -194 -65 -281
-7 -60 -9 -63 -87 -140 -44 -43 -86 -89 -92 -101 -11 -22 -55 -32 -64 -15 -2
4 -1 197 2 428 l6 422 52 53 c61 65 163 184 163 192 0 3 13 25 29 49 30 45 73
133 112 233 22 55 24 74 24 230 0 178 -2 189 -61 320 -7 17 -25 59 -40 95 -14
36 -35 77 -45 92 -11 14 -19 29 -19 32 0 9 -41 66 -101 141 -31 39 -58 75 -60
81 -9 22 -95 123 -105 123 -7 1 -14 8 -18 16 -10 28 -38 15 -97 -47z"/>
<path d="M5001 1757 c-16 -25 -10 -30 24 -17 25 9 27 9 15 -5 -12 -14 -10 -14
15 -5 17 6 31 7 34 2 12 -19 49 -23 64 -7 10 9 18 11 22 5 3 -5 12 -10 18 -10
7 0 6 4 -3 10 -9 6 -10 10 -3 10 6 0 14 8 16 18 4 13 5 11 6 -5 1 -22 2 -22
19 -5 22 21 9 32 -33 28 -19 -2 -31 -11 -37 -27 -9 -22 -10 -23 -22 -6 -7 9
-22 17 -32 17 -16 0 -17 2 -4 10 13 8 13 10 -2 10 -9 0 -19 -6 -21 -12 -4 -10
-8 -9 -16 2 -7 10 -11 11 -11 3 0 -7 -5 -13 -11 -13 -5 0 -8 4 -5 8 3 5 -1 9
-8 9 -7 0 -19 -9 -25 -20z"/>
<path d="M5263 1766 c0 -7 7 -12 16 -11 9 2 18 4 21 4 6 2 -23 21 -31 21 -3 0
-6 -6 -6 -14z"/>
<path d="M5230 1739 c0 -6 5 -7 10 -4 6 3 10 2 10 -3 0 -5 12 -9 26 -9 18 0
22 3 15 10 -14 14 -61 18 -61 6z"/>
</g>
</svg>
