<?xml version="1.0" standalone="no"?>
<!DOCTYPE svg PUBLIC "-//W3C//DTD SVG 20010904//EN"
 "http://www.w3.org/TR/2001/REC-SVG-20010904/DTD/svg10.dtd">
<svg version="1.0" xmlns="http://www.w3.org/2000/svg"
 width="1024.000000pt" height="1024.000000pt" viewBox="0 0 1024.000000 1024.000000"
 preserveAspectRatio="xMidYMid meet">
<metadata>
Created by potrace 1.16, written by Peter Selinger 2001-2019
</metadata>
<g transform="translate(0.000000,1024.000000) scale(0.100000,-0.100000)"
fill="#2d8a4e" stroke="none">
<path d="M6101 7353 c-60 -60 -55 -134 35 -496 30 -120 54 -223 54 -230 -1
-38 -102 162 -139 276 -13 37 -26 67 -30 67 -5 0 -59 36 -121 80 -62 44 -121
80 -130 80 -10 0 -24 -10 -32 -21 -14 -21 -15 -21 -101 36 -94 61 -191 105
-232 105 -18 0 -31 -9 -43 -30 -20 -35 -22 -36 -70 -11 -50 25 -175 67 -242
81 -78 17 -102 11 -120 -28 -14 -30 -18 -33 -50 -27 -19 3 -73 12 -120 20 -47
8 -119 15 -160 15 -85 0 -117 -15 -122 -55 -3 -25 -5 -25 -113 -29 -116 -5
-182 -16 -252 -42 -34 -12 -45 -22 -51 -46 -7 -29 -15 -33 -93 -58 -113 -35
-223 -95 -355 -193 -466 -348 -880 -962 -1040 -1544 -145 -532 -115 -1055 83
-1433 155 -296 389 -488 681 -556 88 -21 265 -21 356 0 165 39 265 94 382 210
140 140 197 275 198 471 1 124 -13 185 -70 300 -96 198 -279 321 -494 332
-169 9 -300 -37 -406 -143 -188 -187 -196 -467 -19 -653 76 -80 151 -113 265
-119 104 -5 174 18 244 79 50 44 101 138 111 206 9 60 -11 145 -48 200 -83
124 -287 146 -384 41 -77 -83 -65 -214 26 -275 68 -46 182 -15 189 51 2 15 0
26 -5 24 -4 -2 -25 -12 -45 -23 -36 -18 -40 -18 -74 -2 -66 32 -76 115 -19
165 20 17 38 22 78 22 65 0 109 -25 137 -79 86 -170 -122 -328 -297 -225 -116
67 -154 214 -90 340 33 64 68 97 142 130 120 56 261 33 360 -58 220 -201 138
-558 -154 -669 -32 -12 -91 -23 -136 -26 -234 -15 -470 169 -559 439 -102 306
-11 728 209 967 22 24 78 76 125 116 83 70 90 74 235 123 83 28 173 54 200 58
58 8 65 15 65 69 0 64 16 77 29 24 19 -72 81 -238 127 -338 39 -83 55 -105
142 -191 122 -121 185 -156 282 -153 207 6 228 8 249 27 12 11 21 23 21 29 0
9 -169 205 -214 246 -29 27 -33 41 -12 41 20 0 126 -80 191 -145 l57 -57 276
11 c153 6 326 11 386 11 l109 0 -27 33 c-14 17 -65 83 -113 146 l-87 114 -250
-7 c-138 -4 -289 -11 -336 -15 -70 -6 -94 -4 -133 11 -26 10 -77 21 -113 26
l-66 7 -34 95 c-39 111 -167 372 -223 457 -52 77 -101 105 -184 104 -76 0
-220 -42 -410 -118 -76 -30 -140 -53 -143 -50 -19 19 245 166 381 212 177 61
289 42 388 -65 74 -79 177 -287 241 -486 21 -65 12 -62 308 -71 199 -5 472 7
487 22 2 3 -15 33 -37 67 -125 191 -128 314 -12 426 69 66 287 176 437 221
145 43 125 25 -112 -104 -231 -126 -289 -166 -315 -219 -46 -95 -25 -154 139
-401 260 -389 390 -517 573 -560 118 -28 248 -15 248 25 0 10 -48 71 -107 135
-60 65 -108 124 -108 132 0 9 31 35 70 58 38 23 71 47 72 52 2 6 -11 17 -29
25 -71 33 -111 41 -184 35 -66 -6 -73 -5 -79 13 -8 24 -113 185 -171 263 -24
31 -44 59 -44 62 0 2 98 36 218 75 119 40 224 74 232 77 8 3 4 -6 -10 -22 -39
-43 -137 -95 -241 -129 l-97 -32 50 -74 c46 -68 53 -75 80 -72 24 3 42 -7 97
-57 62 -54 76 -62 152 -81 117 -29 124 -32 137 -76 13 -44 67 -134 81 -134 16
0 87 85 110 134 23 47 23 50 7 80 -9 17 -64 69 -121 115 -58 47 -105 87 -105
90 0 8 189 59 270 73 49 8 98 8 205 -2 168 -15 420 -9 550 14 312 56 623 211
721 362 22 32 16 36 -32 21 -72 -22 -424 -15 -624 12 -215 29 -275 25 -470
-29 -142 -39 -190 -48 -190 -32 1 17 226 107 320 127 95 20 190 19 400 -5 257
-29 362 -34 490 -21 149 16 164 23 168 82 2 28 -5 66 -16 96 -31 82 -155 281
-231 373 -39 47 -95 121 -124 165 -126 187 -265 265 -475 265 -51 0 -103 5
-115 12 -12 6 -47 34 -77 61 -202 184 -532 363 -692 375 -64 4 -68 3 -97 -25z
m1094 -568 c115 -30 214 -120 250 -227 18 -52 21 -165 6 -216 -27 -91 -104
-176 -200 -221 -48 -22 -69 -26 -151 -26 -85 0 -101 3 -149 28 -169 89 -239
252 -186 433 30 104 131 197 246 228 71 19 112 19 184 1z"/>
<path d="M6991 6720 c-72 -33 -118 -77 -150 -142 -80 -159 -1 -360 162 -414
73 -24 190 -16 248 18 101 60 153 148 153 263 1 118 -57 210 -167 267 -62 32
-186 36 -246 8z m189 -60 c47 -13 106 -63 130 -111 45 -87 34 -182 -28 -251
-95 -106 -253 -105 -345 3 -61 70 -72 152 -33 235 49 105 162 156 276 124z"/>
<path d="M7062 6504 c-70 -49 -35 -144 53 -144 35 0 48 5 64 26 12 15 21 41
21 59 0 29 -2 32 -26 27 -22 -4 -25 -2 -22 19 3 21 -1 24 -32 27 -20 2 -45 -4
-58 -14z"/>
<path d="M6374 5098 c-23 -52 -93 -125 -128 -134 -36 -9 -70 16 -106 79 -16
28 -31 56 -33 61 -2 5 -14 -2 -28 -15 -13 -14 -43 -36 -67 -49 l-43 -24 73
-73 c65 -65 76 -73 111 -73 31 0 45 7 72 36 27 28 40 35 59 32 18 -4 32 2 47
18 26 28 46 30 76 9 18 -13 22 -13 33 0 32 39 111 -2 175 -90 30 -41 47 -56
70 -60 187 -28 264 -42 405 -72 147 -31 463 -115 532 -142 26 -10 28 -8 46 42
35 95 52 152 54 186 l3 35 -130 38 c-356 104 -681 170 -1161 233 -40 6 -41 5
-60 -37z"/>
<path d="M3845 5083 c-16 -2 -131 -13 -255 -24 -135 -13 -234 -27 -247 -35
-49 -30 -230 -310 -212 -328 2 -3 49 2 104 10 97 14 503 61 740 84 66 7 126
14 134 16 10 3 5 15 -21 42 -59 62 -112 135 -137 190 -26 55 -25 55 -106 45z"/>
<path d="M6344 4884 l-15 -36 -25 23 -26 24 -24 -28 c-35 -41 -33 -99 5 -138
31 -30 46 -35 70 -20 10 7 23 3 39 -10 30 -23 50 -24 81 -3 17 12 26 13 34 5
19 -19 66 -12 92 14 43 42 28 100 -44 173 -41 40 -68 42 -77 5 -11 -45 -15
-46 -40 -9 -31 46 -51 46 -70 0z"/>
</g>
</svg>
