<?xml version="1.0" standalone="no"?>
<!DOCTYPE svg PUBLIC "-//W3C//DTD SVG 20010904//EN"
 "http://www.w3.org/TR/2001/REC-SVG-20010904/DTD/svg10.dtd">
<svg version="1.0" xmlns="http://www.w3.org/2000/svg"
 width="1024.000000pt" height="1024.000000pt" viewBox="0 0 1024.000000 1024.000000"
 preserveAspectRatio="xMidYMid meet">
<metadata>
Created by potrace 1.16, written by Peter Selinger 2001-2019
</metadata>
<g transform="translate(0.000000,1024.000000) scale(0.100000,-0.100000)"
fill="#2d8a4e" stroke="none">
<path d="M4855 7598 c-596 -67 -1176 -377 -1557 -832 -253 -301 -420 -646
-498 -1028 -149 -722 76 -1473 605 -2017 378 -388 833 -621 1385 -708 158 -24
509 -24 665 1 274 44 479 108 714 223 376 184 698 463 933 810 272 399 415
927 378 1398 -26 337 -124 664 -285 957 -358 646 -1027 1095 -1778 1193 -129
16 -428 18 -562 3z m406 -148 c243 -19 423 -57 633 -136 534 -202 960 -586
1207 -1089 159 -326 229 -651 216 -1005 -12 -316 -80 -576 -223 -862 -400
-797 -1289 -1285 -2180 -1197 -739 72 -1400 509 -1749 1154 -62 115 -152 347
-185 478 -92 367 -78 789 41 1151 57 176 189 433 301 590 217 302 559 580 896
726 242 104 515 173 759 189 65 5 125 9 134 10 8 0 76 -4 150 -9z"/>
<path d="M4735 6651 c-67 -30 -90 -62 -179 -239 l-85 -169 -163 -7 c-90 -4
-274 -6 -410 -5 -236 2 -247 1 -292 -20 -55 -27 -109 -87 -124 -140 -9 -28
-12 -260 -12 -838 l0 -799 29 -45 c15 -25 41 -56 57 -68 67 -52 44 -51 812
-51 393 0 713 2 710 5 -2 3 -45 12 -94 20 -247 42 -460 173 -616 379 -170 225
-226 519 -151 801 22 84 93 230 147 302 136 180 360 322 578 367 105 22 262
20 370 -4 480 -106 807 -566 739 -1041 -60 -413 -365 -724 -793 -806 l-93 -18
708 -3 c703 -2 708 -2 758 19 27 12 63 38 80 57 64 73 61 28 60 906 0 788 -1
799 -21 842 -12 23 -39 59 -60 78 -69 63 -97 66 -529 66 l-386 0 -90 176
c-136 266 -110 254 -567 253 -308 0 -347 -2 -383 -18z m1730 -564 c115 -57
126 -194 22 -271 -44 -33 -132 -29 -179 6 -51 39 -75 105 -59 159 30 99 130
149 216 106z"/>
<path d="M3824 6412 c-15 -10 -26 -75 -18 -106 l6 -26 239 0 239 0 0 58 c0 32
-5 63 -12 70 -13 13 -434 17 -454 4z"/>
<path d="M5005 6009 c-200 -29 -410 -155 -529 -317 -193 -263 -202 -631 -22
-899 115 -172 302 -302 502 -349 98 -23 294 -15 384 15 277 94 467 284 546
546 52 173 34 406 -43 558 -157 314 -498 495 -838 446z m277 -128 c163 -42
314 -152 412 -300 56 -84 74 -128 92 -219 55 -286 -63 -553 -318 -715 -134
-86 -334 -119 -494 -81 -80 18 -234 90 -241 111 -7 19 57 53 97 53 19 0 57 -7
84 -15 65 -20 189 -19 257 1 91 27 141 59 217 137 109 113 169 262 192 477 11
105 13 234 4 242 -3 4 -29 -4 -57 -17 -75 -32 -144 -51 -298 -78 -305 -56
-465 -169 -519 -367 -18 -68 -14 -168 9 -230 l21 -54 -25 -42 c-14 -24 -30
-46 -37 -50 -15 -10 -107 89 -146 158 -72 125 -104 297 -82 432 25 154 77 253
200 377 65 66 102 94 160 122 154 76 322 96 472 58z m48 -615 c0 -2 -44 -31
-97 -64 -121 -74 -196 -142 -272 -241 -60 -79 -152 -171 -171 -171 -40 0 43
144 144 248 45 46 114 104 154 129 90 56 242 118 242 99z"/>
</g>
</svg>
