<?xml version="1.0" standalone="no"?>
<!DOCTYPE svg PUBLIC "-//W3C//DTD SVG 20010904//EN"
 "http://www.w3.org/TR/2001/REC-SVG-20010904/DTD/svg10.dtd">
<svg version="1.0" xmlns="http://www.w3.org/2000/svg"
 width="1024.000000pt" height="1024.000000pt" viewBox="0 0 1024.000000 1024.000000"
 preserveAspectRatio="xMidYMid meet">
<metadata>
Created by potrace 1.16, written by Peter Selinger 2001-2019
</metadata>
<g transform="translate(0.000000,1024.000000) scale(0.100000,-0.100000)"
fill="#2d8a4e" stroke="none">
<path d="M5000 7718 c-844 -35 -1624 -547 -2000 -1313 -229 -467 -297 -978
-193 -1470 123 -588 467 -1100 973 -1447 304 -209 621 -332 1017 -395 152 -24
513 -24 678 0 336 51 674 180 955 366 290 192 547 455 722 737 354 573 433
1268 217 1919 -268 811 -965 1413 -1818 1571 -166 30 -346 41 -551 32z m300
-148 c315 -28 658 -135 927 -289 385 -220 691 -547 884 -946 114 -235 176
-449 205 -705 69 -621 -120 -1208 -539 -1671 -358 -395 -816 -638 -1346 -716
-160 -23 -456 -23 -616 1 -253 38 -461 104 -690 219 -527 264 -915 711 -1105
1271 -133 393 -133 920 -1 1308 202 592 570 1020 1112 1296 357 181 785 266
1169 232z"/>
<path d="M4064 6820 c-12 -4 -31 -21 -43 -36 l-21 -27 2 -1248 3 -1249 28 -27
27 -28 721 -3 721 -2 34 34 34 34 0 441 0 441 -90 0 -90 0 0 -385 0 -385 -207
-1 c-115 0 -354 -3 -533 -5 -179 -3 -358 -2 -397 1 l-73 7 0 1139 0 1139 603
-2 602 -3 3 -360 2 -360 90 3 91 3 -3 414 -3 415 -28 27 -27 28 -713 2 c-391
1 -722 -2 -733 -7z"/>
<path d="M5936 6164 c-13 -13 -16 -46 -16 -205 l0 -189 -400 0 -401 0 -24 -25
c-25 -24 -25 -26 -25 -208 0 -161 2 -187 18 -206 17 -21 23 -21 427 -24 l410
-2 1 -205 c1 -113 2 -209 3 -213 4 -29 70 18 247 174 109 97 267 236 349 309
99 88 151 140 153 155 3 23 -56 87 -173 186 -22 19 -110 95 -195 169 -182 159
-348 300 -354 300 -3 0 -12 -7 -20 -16z"/>
<path d="M4629 5657 c-92 -61 -89 -189 7 -244 48 -28 76 -28 132 -3 78 35 104
147 50 215 -45 58 -129 72 -189 32z"/>
</g>
</svg>
