<?xml version="1.0" standalone="no"?>
<!DOCTYPE svg PUBLIC "-//W3C//DTD SVG 20010904//EN"
 "http://www.w3.org/TR/2001/REC-SVG-20010904/DTD/svg10.dtd">
<svg version="1.0" xmlns="http://www.w3.org/2000/svg"
 width="1024.000000pt" height="1024.000000pt" viewBox="0 0 1024.000000 1024.000000"
 preserveAspectRatio="xMidYMid meet">
<metadata>
Created by potrace 1.16, written by Peter Selinger 2001-2019
</metadata>
<g transform="translate(0.000000,1024.000000) scale(0.100000,-0.100000)"
fill="#2d8a4e" stroke="none">
<path d="M4877 7415 c-339 -41 -661 -159 -942 -345 -529 -350 -876 -914 -945
-1535 -67 -609 168 -1248 622 -1691 317 -309 671 -499 1077 -578 880 -172
1739 188 2231 934 242 367 366 845 330 1275 -43 526 -253 973 -631 1340 -135
132 -194 179 -339 275 -399 262 -922 383 -1403 325z m386 -146 c552 -48 1035
-296 1382 -709 220 -262 381 -620 430 -955 22 -145 25 -422 6 -544 -82 -547
-397 -1037 -867 -1347 -584 -387 -1320 -439 -1952 -139 -371 177 -707 497
-895 855 -166 314 -235 610 -224 955 10 307 64 520 203 798 152 302 394 574
680 761 176 114 429 225 629 274 141 35 208 44 463 60 13 1 78 -3 145 -9z"/>
<path d="M4407 6459 c-153 -20 -267 -77 -377 -188 -113 -114 -172 -241 -189
-409 -31 -301 103 -638 356 -898 132 -136 909 -864 922 -864 3 0 112 100 241
221 129 122 332 312 450 422 270 252 339 328 423 467 64 105 111 219 142 344
122 487 -171 909 -630 909 -147 0 -267 -38 -387 -121 -82 -57 -176 -159 -212
-229 -9 -18 -20 -33 -24 -33 -4 0 -20 23 -37 52 -16 28 -64 85 -106 127 -151
152 -367 227 -572 200z"/>
</g>
</svg>
