<?xml version="1.0" standalone="no"?>
<!DOCTYPE svg PUBLIC "-//W3C//DTD SVG 20010904//EN"
 "http://www.w3.org/TR/2001/REC-SVG-20010904/DTD/svg10.dtd">
<svg version="1.0" xmlns="http://www.w3.org/2000/svg"
 width="1024.000000pt" height="1024.000000pt" viewBox="0 0 1024.000000 1024.000000"
 preserveAspectRatio="xMidYMid meet">
<metadata>
Created by potrace 1.16, written by Peter Selinger 2001-2019
</metadata>
<g transform="translate(0.000000,1024.000000) scale(0.100000,-0.100000)"
fill="#2d8a4e" stroke="none">
<path d="M4945 7404 c-542 -56 -1003 -271 -1367 -637 -673 -675 -825 -1672
-383 -2504 171 -323 451 -622 766 -821 241 -152 504 -253 789 -303 168 -30
453 -36 635 -14 973 118 1747 869 1891 1835 22 142 24 446 5 575 -35 240 -92
428 -197 644 -218 453 -598 824 -1054 1031 -293 133 -540 189 -855 195 -104 1
-208 1 -230 -1z m510 -188 c185 -32 396 -101 556 -181 212 -106 342 -199 513
-365 354 -343 560 -776 598 -1257 31 -403 -60 -797 -266 -1148 -315 -534 -855
-889 -1476 -971 -156 -20 -478 -15 -615 11 -539 99 -1028 423 -1329 880 -341
518 -419 1166 -209 1735 184 499 562 909 1048 1136 176 82 376 141 566 169
128 18 493 13 614 -9z"/>
<path d="M5070 6733 c-106 -16 -242 -80 -321 -151 -66 -60 -130 -151 -164
-237 -37 -92 -46 -246 -20 -345 23 -90 88 -224 195 -403 103 -172 358 -545
383 -561 26 -17 45 0 129 120 252 356 411 623 465 782 35 103 43 261 18 348
-42 147 -91 222 -205 314 -124 101 -327 157 -480 133z m182 -335 c22 -6 60
-30 85 -52 123 -108 124 -290 3 -399 -56 -51 -102 -69 -176 -69 -101 -1 -189
50 -242 141 -23 40 -27 57 -27 126 0 62 5 89 22 120 27 50 77 99 128 124 46
23 146 28 207 9z"/>
<path d="M4605 6719 c-22 -5 -57 -12 -78 -15 -22 -4 -36 -12 -34 -18 2 -6 0
-22 -6 -36 -5 -14 -9 -35 -8 -47 1 -13 -1 -23 -6 -23 -12 0 -33 -59 -27 -74 6
-16 48 -36 74 -36 11 0 26 12 34 28 18 35 51 65 101 90 22 11 60 39 83 61 24
23 48 41 53 41 23 0 5 16 -31 28 -45 14 -96 14 -155 1z"/>
<path d="M4184 6575 c-3 -8 -3 -18 0 -23 3 -6 -1 -13 -10 -16 -28 -11 -35 -7
-24 15 18 33 5 33 -33 0 -19 -17 -42 -31 -51 -31 -9 0 -44 -13 -78 -28 -57
-26 -148 -54 -221 -69 -30 -6 -88 -74 -177 -206 -58 -88 -62 -111 -6 -43 20
25 51 55 69 68 l32 23 -21 -30 c-64 -89 -188 -307 -220 -382 -30 -73 -36 -101
-39 -177 -4 -94 -1 -92 10 7 11 102 25 61 25 -74 0 -100 4 -139 16 -165 20
-42 59 -74 89 -74 13 0 25 -7 28 -15 4 -8 25 -28 49 -45 23 -17 50 -43 59 -57
l17 -26 -3 36 c-4 44 24 84 45 64 10 -10 10 -8 1 11 -8 15 -21 22 -41 22 -39
0 -44 12 -25 66 17 50 12 84 -10 84 -8 0 -20 -10 -26 -22 -15 -29 -28 -38 -55
-38 -22 0 -28 9 -45 65 -15 49 16 143 59 183 32 29 41 32 75 27 30 -6 41 -3
51 10 11 15 17 16 49 6 31 -11 37 -17 37 -41 0 -31 19 -80 30 -80 12 0 20 57
14 90 -10 47 13 86 68 120 32 20 54 42 64 65 19 46 69 102 98 109 14 3 26 16
30 29 3 13 23 33 45 45 46 26 61 28 61 7 0 -8 5 -15 10 -15 6 0 10 5 10 11 0
5 4 8 8 5 10 -6 87 28 96 42 3 6 -11 8 -38 5 -48 -6 -63 6 -46 37 9 18 8 20
-15 20 -14 0 -25 4 -25 9 0 12 25 21 58 21 22 0 24 2 12 11 -11 7 -6 8 20 4
37 -7 90 8 102 28 4 7 13 12 19 12 15 0 21 16 11 30 -4 6 -22 21 -39 34 -21
14 -33 31 -33 45 0 22 -4 23 -62 22 -44 -1 -63 3 -66 13 -3 10 0 12 12 8 10
-4 15 -3 11 3 -3 6 -17 10 -29 10 -27 0 -76 -57 -76 -90 0 -12 -10 -25 -23
-31 -13 -6 -34 -30 -47 -55 -14 -24 -29 -42 -35 -40 -11 4 -11 4 -1 51 5 27 2
32 -27 45 -42 20 -45 48 -10 82 40 37 143 89 164 83 14 -5 16 -1 12 15 -4 15
-2 19 9 15 8 -3 20 0 27 8 9 12 7 16 -11 22 -19 7 -16 9 20 12 49 5 55 18 11
27 -47 9 -59 8 -65 -9z"/>
<path d="M6395 6399 c-4 -6 -13 -8 -20 -5 -7 2 -16 -3 -20 -12 -5 -13 -8 -14
-14 -3 -6 10 -15 6 -35 -15 -31 -35 -32 -38 -6 -75 18 -24 24 -27 45 -19 13 5
27 5 30 1 5 -9 -37 -41 -53 -41 -5 0 -12 -13 -15 -29 -7 -36 -46 -47 -105 -32
-30 9 -41 18 -46 37 -10 38 -42 28 -39 -13 2 -20 -3 -33 -12 -37 -8 -3 -15
-12 -15 -20 0 -17 -27 -29 -36 -15 -8 14 -34 -9 -28 -25 7 -19 -25 -49 -40
-37 -12 10 -63 -5 -53 -16 4 -3 20 -6 37 -5 17 0 28 -4 24 -9 -3 -5 -10 -7
-15 -4 -8 6 -13 -9 -10 -29 1 -5 -5 -6 -12 -3 -11 4 -13 0 -10 -14 3 -10 2
-30 -1 -44 -5 -21 -12 -25 -44 -25 -27 0 -33 -3 -22 -10 13 -9 13 -10 0 -10
-11 0 -10 -3 4 -11 27 -16 57 -48 72 -78 12 -23 14 -24 14 -5 0 11 10 30 23
42 12 12 24 34 25 49 1 22 0 25 -9 13 -9 -13 -10 -13 -6 0 2 11 19 15 58 16
47 2 49 1 19 -6 l-35 -7 35 -1 c19 0 44 3 55 7 21 8 75 -23 75 -43 0 -6 18
-27 40 -47 28 -26 40 -45 41 -65 l0 -29 11 25 c5 14 14 33 20 43 7 14 5 22 -9
33 -10 7 -21 14 -25 14 -5 0 -21 19 -38 42 -45 62 -22 72 34 14 25 -25 49 -46
54 -46 5 0 16 -18 25 -41 11 -27 20 -38 28 -33 8 4 9 3 5 -4 -8 -13 19 -82 31
-82 4 0 16 7 26 14 15 12 16 18 6 39 -15 33 -6 57 19 50 14 -3 22 -17 26 -42
8 -54 32 -71 100 -73 46 -1 59 -6 68 -21 12 -23 5 -92 -12 -112 -16 -19 -125
-13 -168 9 -39 20 -91 21 -98 1 -9 -22 -46 -18 -85 8 -19 13 -53 34 -77 47
-38 21 -43 28 -38 51 l5 26 -100 -3 c-71 -2 -103 1 -111 10 -10 10 -21 10 -58
-1 -25 -7 -55 -12 -66 -11 -36 5 -114 -59 -136 -111 -11 -25 -35 -59 -54 -76
-19 -16 -56 -68 -84 -115 -40 -69 -50 -94 -50 -131 0 -29 -9 -64 -25 -95 -35
-68 -34 -128 1 -151 15 -9 33 -33 41 -52 21 -50 60 -97 99 -121 30 -19 40 -20
106 -12 40 6 81 10 90 9 10 0 35 6 57 13 50 16 88 7 103 -26 8 -17 18 -24 34
-22 26 3 64 -28 64 -53 0 -10 -10 -39 -22 -64 -18 -37 -20 -49 -10 -63 44 -63
55 -98 54 -172 -1 -59 -6 -80 -22 -100 -11 -14 -32 -48 -45 -75 -23 -48 -24
-53 -11 -102 14 -51 13 -214 -1 -277 -6 -28 -5 -29 23 -21 16 4 43 9 59 10 17
1 37 6 46 11 48 29 127 98 148 128 13 20 31 38 41 41 10 3 35 35 56 70 20 36
49 72 63 81 40 25 81 66 96 95 8 14 26 72 40 128 28 109 65 174 159 278 24 26
57 76 74 109 32 64 59 151 49 160 -3 3 -19 -2 -35 -12 -16 -9 -37 -14 -46 -11
-22 9 -21 47 2 47 9 1 35 13 57 28 l40 28 9 109 9 109 -36 67 c-23 41 -37 80
-37 100 l1 34 14 -33 c8 -18 22 -43 31 -55 15 -21 16 -19 10 47 -3 38 -13 108
-22 156 -12 68 -19 87 -32 86 -10 -1 -21 14 -30 39 -8 22 -23 61 -34 86 -21
48 -21 86 0 81 21 -4 14 14 -54 151 -119 236 -289 459 -268 350 4 -23 0 -30
-22 -40 -37 -17 -44 -16 -44 3 0 9 9 18 20 21 23 6 25 14 8 31 -15 15 -45 16
-53 1z m314 -1005 c68 -103 143 -376 99 -362 -18 6 -87 147 -88 178 0 14 -16
67 -35 119 -33 87 -36 111 -15 111 4 0 22 -21 39 -46z"/>
<path d="M6261 6377 c-1 -10 -6 -15 -12 -12 -5 4 -19 -1 -30 -11 -21 -19 -64
-31 -55 -15 3 5 -7 9 -22 9 -15 0 -30 -5 -33 -10 -11 -17 2 -50 17 -44 8 3 14
1 14 -4 0 -5 -8 -11 -17 -14 -10 -3 -6 -4 10 -2 18 2 27 -1 27 -11 0 -7 7 -16
15 -19 8 -4 15 -12 15 -20 0 -8 6 -14 13 -15 6 0 3 -4 -8 -9 -20 -9 -20 -9 0
-9 54 -2 85 60 58 112 -13 26 -13 31 2 47 10 11 15 25 12 32 -3 8 -6 6 -6 -5z"/>
<path d="M3998 5242 c-1 -5 -21 -15 -43 -24 -24 -9 -45 -26 -53 -42 -10 -19
-21 -26 -41 -26 l-29 0 19 -37 c27 -53 24 -95 -11 -147 -35 -52 -48 -100 -31
-120 9 -11 9 -20 2 -35 -18 -33 -13 -61 17 -90 15 -16 54 -77 86 -135 52 -95
66 -112 116 -146 71 -48 91 -87 119 -228 12 -57 25 -111 31 -122 5 -10 10 -41
10 -68 0 -60 34 -144 55 -136 10 4 16 -5 21 -33 9 -47 26 -75 78 -131 42 -45
84 -72 110 -72 12 0 11 9 -10 47 -13 26 -30 51 -37 55 -9 6 -9 10 1 20 15 15
15 28 1 65 -11 29 -10 40 4 35 4 -1 18 4 30 13 12 8 32 15 44 15 26 0 30 21 8
40 -25 21 -17 31 18 25 32 -6 34 -4 80 67 33 50 46 80 43 94 -7 27 32 71 68
79 14 3 37 7 50 10 16 3 31 19 45 47 33 70 50 125 44 147 -9 36 6 71 53 121
42 45 45 52 42 96 -2 35 -8 50 -23 58 -11 6 -38 25 -60 42 -28 22 -57 34 -93
39 -34 4 -62 15 -78 30 -13 13 -39 29 -56 36 -27 11 -32 10 -43 -4 -17 -23
-25 -21 -22 6 1 16 -3 22 -15 21 -20 -2 -24 16 -8 32 17 17 -20 89 -64 123
-26 21 -50 31 -73 31 -28 0 -45 10 -94 57 -32 31 -59 62 -59 69 0 14 -52 28
-95 25 -16 -1 -47 7 -69 18 -28 15 -44 18 -57 11 -26 -14 -31 -12 -24 10 6 19
0 29 -7 12z"/>
</g>
</svg>
