<?xml version="1.0" standalone="no"?>
<!DOCTYPE svg PUBLIC "-//W3C//DTD SVG 20010904//EN"
 "http://www.w3.org/TR/2001/REC-SVG-20010904/DTD/svg10.dtd">
<svg version="1.0" xmlns="http://www.w3.org/2000/svg"
 width="1024.000000pt" height="1024.000000pt" viewBox="0 0 1024.000000 1024.000000"
 preserveAspectRatio="xMidYMid meet">
<metadata>
Created by potrace 1.16, written by Peter Selinger 2001-2019
</metadata>
<g transform="translate(0.000000,1024.000000) scale(0.100000,-0.100000)"
fill="#2d8a4e" stroke="none">
<path d="M4880 6930 c-476 -66 -899 -297 -1198 -655 -501 -599 -570 -1422
-179 -2119 165 -295 453 -568 758 -722 289 -145 536 -203 858 -204 430 0 791
122 1136 383 702 534 931 1506 539 2289 -105 210 -215 359 -386 523 -265 254
-598 424 -958 490 -109 20 -464 29 -570 15z m425 -190 c335 -38 677 -192 924
-414 229 -207 394 -459 484 -741 61 -188 72 -265 72 -495 0 -177 -4 -220 -24
-315 -77 -365 -229 -639 -495 -893 -342 -326 -820 -496 -1278 -454 -241 22
-402 67 -613 172 -391 195 -702 550 -838 960 -70 210 -82 289 -82 540 0 197 3
238 23 330 72 330 208 579 446 816 240 238 479 374 796 453 196 48 395 62 585
41z"/>
<path d="M4976 6125 c-139 -35 -277 -135 -357 -258 -21 -32 -50 -95 -66 -140
-26 -76 -28 -94 -28 -232 0 -111 5 -167 17 -215 26 -94 118 -274 183 -355 30
-38 62 -85 71 -104 32 -70 -5 -131 -103 -167 -163 -60 -306 -120 -355 -151
-167 -100 -267 -253 -319 -481 l-19 -87 56 -50 c206 -184 468 -314 757 -377
140 -30 443 -32 592 -4 276 51 527 172 757 363 l78 65 -6 41 c-12 78 -54 207
-90 280 -26 52 -59 94 -118 152 -91 91 -171 135 -396 220 -146 55 -175 73
-190 120 -14 44 7 91 83 188 71 89 139 221 173 332 38 124 40 301 6 420 -60
207 -194 355 -382 422 -94 33 -252 41 -344 18z"/>
</g>
</svg>
